<svg width="45" height="45" viewBox="0 0 45 45" fill="none" xmlns="http://www.w3.org/2000/svg"><g clip-path="url(#a)" fill="#fff" stroke="#fff" stroke-width=".2"><path d="M7.472 24.172c.07-.7.207-1.74.703-2.634.27-.487.647-.933 1.178-1.256.532-.324 1.212-.522 2.082-.522H29.25a1.93 1.93 0 0 0 1.928-1.927V3.92a1.93 1.93 0 0 0-1.927-1.926M7.471 24.172l21.78-22.278v.1M7.471 24.172c-.61-.453-1.459-1.38-1.773-3.156v-.001a1.535 1.535 0 0 0-1.523-1.255H3.128A1.93 1.93 0 0 1 1.2 17.834V3.92a1.93 1.93 0 0 1 1.927-1.926m4.344 22.178L3.128 1.994m26.123 0H3.128m26.123 0H3.128m4.944 23.838a.686.686 0 0 0 .565-.534c.057-.258.094-.52.11-.785.083-.897.213-1.761.593-2.401.188-.318.438-.58.774-.762.337-.182.767-.29 1.321-.29h17.817a3.231 3.231 0 0 0 3.228-3.227V3.92A3.231 3.231 0 0 0 29.252.693H3.128A3.231 3.231 0 0 0-.1 3.92v13.913a3.232 3.232 0 0 0 3.228 3.227h1.051a.24.24 0 0 1 .24.185c.587 3.311 2.756 4.328 3.249 4.518a.663.663 0 0 0 .404.07z"/><path d="M28.607 12.179h-6.605a.65.65 0 1 0 0 1.3h6.605a.65.65 0 1 0 0-1.3zm-9.074.651a.65.65 0 0 0-.65-.651H8.473a.65.65 0 1 0 0 1.3h10.41a.65.65 0 0 0 .65-.65zm-15.761.65h2.272a.65.65 0 0 0 0-1.301H3.772a.65.65 0 1 0 0 1.3zm23.111-3.223h1.724a.65.65 0 1 0 0-1.3h-1.724a.65.65 0 0 0 0 1.3zm-2.415 0a.65.65 0 1 0 0-1.3H21.58a.65.65 0 0 0 0 1.3h2.887zm-20.696 0h15.374a.65.65 0 1 0 0-1.3H3.772a.65.65 0 1 0 0 1.3zm23.441-3.866h1.394a.65.65 0 0 0 0-1.3h-1.394a.65.65 0 1 0 0 1.3zm-8.419 0h5.971a.65.65 0 0 0 0-1.3h-5.971a.65.65 0 1 0 0 1.3zm-15.022 0H16.36a.65.65 0 0 0 0-1.3H3.772a.65.65 0 1 0 0 1.3zm18.396 9.01H21.9a.65.65 0 0 0 0 1.3h.267a.65.65 0 0 0 0-1.3zm-2.502 0h-4.772a.65.65 0 0 0 0 1.3h4.772a.65.65 0 0 0 0-1.3zm-7.166.65a.65.65 0 0 0-.65-.65H3.772a.65.65 0 1 0 0 1.3h8.078a.65.65 0 0 0 .65-.65zm29.684 5.009a3.106 3.106 0 0 0-.841 6.138v3.07a5.522 5.522 0 0 0-1.157-.264 3.406 3.406 0 0 0-3.4-3.313h-4.513v-1.677a1.43 1.43 0 0 0-1.428-1.429h-3.79v-1.63a.65.65 0 0 0-1.3 0v1.63H22.03a1.43 1.43 0 0 0-1.428 1.428v1.678H16.09a3.406 3.406 0 0 0-3.402 3.402v10.872a3.406 3.406 0 0 0 3.402 3.401h20.696a3.406 3.406 0 0 0 3.4-3.313 5.56 5.56 0 0 0 4.753-4.195l-.097-.024.097.024a5.56 5.56 0 0 0-2.295-5.94v-3.72a3.106 3.106 0 0 0-.46-6.138zm0 0l-.006.1.006-.1zm-5.398 22.006a2.104 2.104 0 0 0 2.101-2.101V30.093a2.104 2.104 0 0 0-2.101-2.101H16.09c-1.16.001-2.1.941-2.101 2.101m22.797 12.973L13.888 30.093h.1m22.798 12.973H16.09a2.104 2.104 0 0 1-2.101-2.101m22.797 2.1l-22.797-2.1m0-10.872v10.872m0-10.872v10.872m7.914-15.951c0-.07.057-.128.128-.128h8.814c.07 0 .128.058.128.128v1.677h-9.07v-1.677zm21.896 10.515a4.268 4.268 0 0 1-3.611 4.212v-8.424a4.268 4.268 0 0 1 3.611 4.212zM40.188 24.16a1.805 1.805 0 1 1 3.61 0 1.805 1.805 0 0 1-3.61 0z"/><path d="M18.48 35.398h1.811v-.919a.635.635 0 0 0-.634-.633h-.542a.635.635 0 0 0-.634.633m0 .919l-.1-.919h.1m0 .919v-.919m0 .919v-.919m1.176-1.934h-.543a1.936 1.936 0 0 0-1.934 1.934v1.569c0 .359.291.65.65.65h3.111a.65.65 0 0 0 .65-.65v-1.569a1.936 1.936 0 0 0-1.934-1.934zm12.928 2.853h1.81v-.919a.635.635 0 0 0-.634-.633h-.543a.635.635 0 0 0-.633.633m0 .919l-.1-.919h.1m0 .919v-.919m0 .919v-.919m1.176-1.934h-.543a1.936 1.936 0 0 0-1.934 1.934v1.569c0 .359.29.65.65.65h3.111a.65.65 0 0 0 .65-.65v-1.569a1.937 1.937 0 0 0-1.934-1.934zm-11.085 6.529a3.222 3.222 0 0 0 3.219 3.218h1.085a3.222 3.222 0 0 0 3.219-3.218v-.543a.65.65 0 0 0-.65-.65h-6.222a.65.65 0 0 0-.65.65v.543zm4.304 1.917h-1.085a1.92 1.92 0 0 1-1.915-1.81h4.915a1.92 1.92 0 0 1-1.915 1.81z"/></g><defs><clipPath id="a"><path fill="#fff" d="M0 0h45v45H0z"/></clipPath></defs></svg>