<svg width="201" height="225" viewBox="0 0 201 225" fill="none" xmlns="http://www.w3.org/2000/svg">
<g clip-path="url(#clip0)">
<path d="M198.847 189.555L139.856 223.706C137.186 225.259 133.225 225.431 130.986 224.051L1.55011 149.281C-0.775086 147.988 -0.430613 145.659 2.15293 144.107L61.1439 109.956C63.8136 108.404 67.7751 108.231 70.0141 109.611L199.364 184.381C201.775 185.761 201.517 188.089 198.847 189.555Z" fill="#889BBA"/>
<path d="M201 164.46L188.857 162.304L70.1003 93.6566C67.7751 92.363 63.8136 92.5355 61.2301 94.0016L6.20051 125.91L0 124.789V131.085C0 131.947 0.516709 132.723 1.55013 133.327L130.9 208.183C133.225 209.477 137.186 209.304 139.77 207.838L198.761 173.687C200.225 172.825 201 171.79 200.914 170.755V164.46H201Z" fill="url(#paint0_linear)"/>
<path d="M198.847 167.392L139.856 201.543C137.186 203.095 133.225 203.268 130.986 201.888L1.55011 127.118C-0.775086 125.824 -0.430613 123.496 2.15293 121.943L61.1439 87.7923C63.8136 86.24 67.7751 86.0675 70.0141 87.4473L199.364 162.217C201.775 163.597 201.517 165.839 198.847 167.392Z" fill="url(#paint1_linear)"/>
<path d="M198.847 166.616L139.856 200.767C137.186 202.319 133.225 202.491 130.986 201.112L1.55019 126.255C0.689003 125.738 0.172294 125.134 0.0861755 124.444C-0.086061 125.393 0.430649 126.342 1.55019 127.032L130.9 201.888C133.225 203.181 137.186 203.009 139.77 201.543L198.761 167.392C200.397 166.443 201.172 165.236 200.914 164.028C200.828 164.977 200.139 165.839 198.847 166.616Z" fill="white"/>
<path d="M198.933 161.959L130.383 201.543L2.06689 127.377L70.7031 87.7925L198.933 161.959Z" fill="#0F65B2"/>
<path d="M40.5616 103.316L31.4331 108.576C31.0025 108.835 30.3996 108.835 30.0552 108.662L29.969 108.576C29.6246 108.404 29.7107 108.059 30.0552 107.8L39.1837 102.539C39.6143 102.281 40.2171 102.281 40.5616 102.453L40.6477 102.539C40.9922 102.712 40.9061 103.057 40.5616 103.316Z" fill="#0063AD"/>
<path opacity="0.4" d="M191.785 68.4749L98.9499 122.202C97.0553 123.324 94.2995 123.41 92.6632 122.461L35.8252 89.6037C34.1889 88.6551 34.4473 87.0165 36.2558 85.9816L129.091 32.2542C130.986 31.1331 133.742 31.0468 135.378 31.9955L192.216 64.8529C193.852 65.8015 193.68 67.4401 191.785 68.4749Z" fill="white"/>
<path opacity="0.2" d="M182.054 69.5956L100.758 116.596C99.1219 117.545 96.6245 117.631 95.2466 116.855L45.4702 88.0509C44.0924 87.2748 44.2646 85.8087 45.9008 84.8601L127.196 37.8593C128.833 36.9106 131.33 36.8244 132.708 37.6006L182.484 66.4047C183.862 67.1809 183.69 68.6469 182.054 69.5956Z" fill="#041860"/>
<path d="M95.4189 123.41C94.2994 123.41 93.266 123.151 92.4909 122.72L35.6529 89.8622C34.8778 89.431 34.3611 88.7411 34.3611 87.9649C34.3611 87.1025 34.9639 86.2401 36.0834 85.6364L128.919 31.909C130.9 30.7878 133.828 30.7016 135.55 31.6502L192.388 64.5077C193.163 64.9389 193.68 65.6288 193.68 66.4049C193.68 67.2673 193.077 68.1297 191.958 68.7334L99.122 122.461C98.0025 123.065 96.7107 123.41 95.4189 123.41ZM132.708 31.6502C131.502 31.6502 130.297 31.909 129.35 32.5126L36.4279 86.2401C35.5667 86.7576 35.05 87.3612 35.05 88.0512C35.05 88.5686 35.3945 88.9998 35.9973 89.3448L92.8354 122.202C94.3855 123.065 97.0552 122.978 98.7775 121.943L191.613 68.216C192.474 67.6985 192.991 67.0948 192.991 66.4049C192.991 65.8875 192.646 65.4563 192.044 65.1113L135.206 32.2539C134.517 31.8227 133.655 31.6502 132.708 31.6502Z" fill="white"/>
<path d="M193.335 52.7792L192.302 53.5553C192.302 53.5553 192.302 53.5553 192.216 53.5553L135.378 20.6979C133.742 19.7493 130.9 19.9218 129.091 20.9566L36.2557 74.6841C35.9973 74.7704 35.8251 74.9428 35.6529 75.1153L34.7056 74.4254V76.7539C34.7056 77.3576 35.05 77.9612 35.8251 78.3924L92.6632 111.25C94.2994 112.198 97.1413 112.026 98.9498 110.991L191.785 57.2637C192.819 56.66 193.335 55.8838 193.335 55.1939V52.7792Z" fill="#F8F8F8"/>
<path d="M191.785 54.8488L98.9498 108.576C97.0552 109.697 94.2994 109.784 92.6632 108.835L35.739 75.8913C34.1028 74.9427 34.3611 73.3041 36.1696 72.2692L129.005 18.5418C130.9 17.4206 133.655 17.3344 135.292 18.283L192.13 51.1405C193.852 52.1753 193.68 53.7277 191.785 54.8488Z" fill="url(#paint2_linear)"/>
<path d="M118.499 44.2412L110.49 39.5843L112.47 38.4632C112.815 38.2907 113.159 38.1182 113.504 37.9457C113.848 37.8595 114.193 37.7733 114.537 37.687C114.882 37.687 115.312 37.687 115.657 37.7733C116.001 37.8595 116.432 38.032 116.776 38.2045C117.723 38.8081 117.896 39.3256 117.293 39.843C117.896 39.5843 118.412 39.4981 118.929 39.5843C119.446 39.6705 120.049 39.843 120.651 40.188C121.427 40.6192 121.771 41.0504 121.771 41.4816C121.771 41.9128 121.427 42.344 120.651 42.7752L118.499 44.2412ZM115.226 40.7054L115.657 40.4467C116.087 40.188 116.259 40.0155 116.259 39.7568C116.259 39.5843 116.001 39.3256 115.57 39.0669C115.312 38.8944 115.14 38.8081 114.968 38.8081C114.795 38.7219 114.623 38.7219 114.365 38.8081C114.193 38.8081 114.02 38.8944 113.848 38.9806C113.676 39.0669 113.418 39.1531 113.245 39.3256L113.073 39.4118L115.226 40.7054ZM118.929 42.8614L119.446 42.5164C119.876 42.2577 120.049 41.999 120.049 41.8265C120.049 41.6541 119.79 41.3953 119.274 41.1366C118.757 40.8779 118.326 40.7054 117.982 40.7054C117.551 40.7054 117.121 40.7916 116.69 41.0504L116.259 41.3091L118.929 42.8614Z" fill="white"/>
<path d="M123.58 41.3954L117.207 35.8761L118.757 35.0137L128.402 38.722L127.024 39.4982L124.871 38.6358L123.493 39.4119L125.044 40.7055L123.58 41.3954ZM122.632 38.6358L123.666 38.0321L119.876 36.4798L122.632 38.6358Z" fill="white"/>
<path d="M129.091 38.1186L121.082 33.4616L122.115 32.8579L128.574 34.324L124.01 31.7368L125.216 31.0469L133.225 35.7038L132.277 36.2213L125.56 34.5827L130.297 37.3424L129.091 38.1186Z" fill="white"/>
<path d="M134.43 35.0137L126.421 30.3567L127.885 29.4943L131.33 31.4778L129.436 28.5457L130.813 27.7695L132.88 30.7017L138.995 32.254L137.531 33.1164L132.364 31.7366L132.622 32.1678L135.894 34.065L134.43 35.0137Z" fill="white"/>
<path d="M109.887 88.8275L92.0602 99.09L89.9934 97.8827L107.82 87.6201L109.887 88.8275Z" fill="white"/>
<path d="M131.761 76.1502L113.934 86.4128L111.867 85.2917L129.694 74.9429L131.761 76.1502Z" fill="white"/>
<path d="M153.635 63.4727L135.808 73.8215L133.741 72.6141L151.568 62.3516L153.635 63.4727Z" fill="white"/>
<path d="M175.509 50.8817L157.682 61.1442L155.615 59.9369L173.442 49.6743L175.509 50.8817Z" fill="white"/>
<path d="M189.891 122.202L161.299 105.558C155.616 102.281 150.276 101.764 146.229 104.092C142.181 106.421 139.942 111.336 139.942 117.89V119.96C140.114 120.133 140.373 120.219 140.545 120.391V117.89C140.545 111.595 142.612 106.852 146.487 104.696C150.276 102.453 155.443 102.971 160.869 106.162L189.46 122.806C189.632 122.892 189.805 122.806 189.891 122.72C190.063 122.461 189.977 122.289 189.891 122.202Z" fill="white"/>
<path d="M100.758 102.367V37.9457C100.758 25.0098 91.7159 9.31409 80.5205 2.84609C75.095 -0.344784 69.9279 -0.862224 65.9665 1.38001C62.0912 3.62225 59.9382 8.36545 59.9382 14.661V19.1454C60.1105 19.3179 60.3688 19.5766 60.5411 19.7491V14.661C60.5411 8.53793 62.6079 4.05345 66.2249 1.89745C69.9279 -0.258544 74.8367 0.258895 80.0899 3.27729C91.113 9.65905 99.9832 25.096 99.9832 37.8595V102.367C99.9832 113.061 106.27 125.738 114.796 133.327C114.796 133.068 114.796 132.723 114.796 132.465C106.787 124.962 100.758 112.716 100.758 102.367Z" fill="white"/>
<path d="M114.968 133.068C114.968 133.068 107.734 125.652 104.892 119.529C102.05 113.406 100.586 107.714 100.586 102.712C100.5 97.6237 100.5 54.2451 100.5 54.2451C100.5 54.2451 100.844 36.2209 100.069 33.375C99.2943 30.5291 97.5719 15.3508 82.6734 4.48461C67.775 -6.38162 60.4549 5.34701 60.541 11.47C60.6272 17.5931 60.541 21.5601 60.541 21.5601C60.541 21.5601 68.6362 28.1144 71.7364 37.5145C74.8367 46.9147 75.095 45.2761 75.1811 54.6763C75.2673 63.9902 75.2673 111.508 75.2673 111.508C75.2673 111.508 74.5783 119.874 76.6451 126.255C78.712 132.723 82.4151 139.881 86.8932 144.538C91.2853 149.195 97.8302 154.715 103.859 154.197C109.887 153.68 113.934 151.437 115.14 141.865V133.068H114.968Z" fill="#E6F7FF"/>
<path d="M65.9665 1.37988L40.9922 15.782L60.541 21.6463L65.9665 1.37988Z" fill="#E5F7FF"/>
<path d="M140.028 119.96V122.892C138.65 121.857 132.105 117.373 125.905 117.631C118.929 117.89 116.604 124.272 116.604 124.272C116.604 124.272 114.968 129.015 115.054 131.257C115.054 131.602 115.054 132.12 115.14 132.551L115.054 132.465C115.054 132.723 115.054 133.068 115.054 133.327C115.14 133.327 115.14 133.413 115.226 133.413C115.312 135.569 115.312 137.984 115.312 137.984C115.312 137.984 115.398 142.21 114.796 145.056C113.676 150.144 109.456 152.99 109.112 153.421L134.775 138.674H134.861L134.947 138.588L135.12 138.501C138.823 136.173 140.889 131.602 140.889 125.479V120.391C140.459 120.219 140.201 120.132 140.028 119.96Z" fill="url(#paint3_linear)"/>
<path d="M120.049 119.27L146.315 104.092C146.315 104.092 150.793 101.763 156.218 103.747C161.644 105.731 189.977 122.72 189.977 122.72L164.658 137.294C164.658 137.294 135.206 119.011 131.761 118.149C124.613 116.338 120.049 119.27 120.049 119.27Z" fill="#E5F7FF"/>
<path d="M59.9383 21.1291C58.9048 20.1805 54.0822 15.8685 47.0205 14.8336C39.0115 13.6262 35.739 22.9401 35.739 22.9401C35.739 22.9401 34.7917 27.7696 34.8778 30.7017C34.8778 33.5477 35.1362 43.9827 35.1362 43.9827L60.3689 29.4081C60.455 29.3219 60.5411 29.2357 60.5411 29.1494V21.7328C60.3689 21.4741 60.1966 21.3878 59.9383 21.1291Z" fill="url(#paint4_linear)"/>
<path d="M104.031 154.628C101.275 154.628 98.1748 153.68 94.9884 151.868C83.8792 145.487 74.9229 129.791 74.9229 117.028V52.5201C74.9229 39.8428 65.9666 24.3196 55.0295 17.9378C49.7763 14.9194 44.8676 14.402 41.1645 16.558C37.4614 18.714 35.4807 23.1985 35.4807 29.3215V43.7236C35.4807 43.8961 35.3085 44.0685 35.1362 44.0685C34.964 44.0685 34.7917 43.8961 34.7917 43.7236V29.2353C34.7917 22.9398 36.9447 18.1966 40.82 15.9543C44.6953 13.7121 49.8624 14.2295 55.374 17.3342C66.5694 23.8022 75.6118 39.4978 75.6118 52.4338V116.941C75.6118 129.532 84.482 144.969 95.419 151.265C100.672 154.283 105.495 154.801 109.198 152.645C112.901 150.489 114.882 146.004 114.882 139.967V132.378C114.882 125.824 117.121 120.908 121.168 118.58C125.216 116.251 130.555 116.769 136.239 120.046L164.83 136.69C165.003 136.776 165.003 136.949 164.916 137.121C164.83 137.294 164.658 137.294 164.486 137.208L135.722 120.736C130.297 117.545 125.13 117.028 121.341 119.27C117.551 121.512 115.398 126.169 115.398 132.464V140.054C115.398 146.349 113.245 151.006 109.37 153.248C107.734 154.111 105.925 154.628 104.031 154.628Z" fill="url(#paint5_linear)"/>
<path d="M81.6401 66.6637V64.3352L84.3098 62.8691V65.1114L81.6401 66.6637Z" fill="#CAD0E3"/>
<path d="M89.1323 58.0396V55.7974L94.2133 52.8652V55.1075L89.1323 58.0396Z" fill="#CAD0E3"/>
<path d="M81.8984 57.6086V55.2802L94.2134 48.2085V50.537L81.8984 57.6086Z" fill="#CAD0E3"/>
<path d="M86.2043 63.9906V61.7484L96.4524 55.7979V58.1263L86.2043 63.9906Z" fill="#CAD0E3"/>
<path d="M81.8984 62.2657V59.9372L86.9794 57.0913V59.3335L81.8984 62.2657Z" fill="#CAD0E3"/>
<path d="M84.9128 88.8276V91.0699L81.8125 92.8809V90.5524L84.9128 88.8276Z" fill="#CAD0E3"/>
<path d="M90.5104 85.5503V87.7925L87.4102 89.6036V87.3613L90.5104 85.5503Z" fill="#CAD0E3"/>
<path d="M93.9552 79.3413V81.5835L81.8987 88.569V86.2405L93.9552 79.3413Z" fill="#CAD0E3"/>
<path d="M87.927 72.0971V69.8549L93.9553 66.4053V68.6475L87.927 72.0971Z" fill="#CAD0E3"/>
<path d="M81.8125 75.6329V73.3906L84.9128 71.5796V73.9081L81.8125 75.6329Z" fill="#CAD0E3"/>
<path d="M81.8125 79.9448V77.6163L87.6685 74.2529V76.4952L81.8125 79.9448Z" fill="#CAD0E3"/>
<path d="M90.0798 75.1153V72.8731L93.9552 70.6309V72.8731L90.0798 75.1153Z" fill="#CAD0E3"/>
<path d="M87.927 98.5727V96.3305L93.9553 92.8809V95.1231L87.927 98.5727Z" fill="#CAD0E3"/>
<path d="M81.8125 102.195V99.8664L84.9128 98.1416V100.384L81.8125 102.195Z" fill="#CAD0E3"/>
<path d="M81.8125 106.421V104.179L87.6685 100.729V102.971L81.8125 106.421Z" fill="#CAD0E3"/>
<path d="M90.0798 101.591V99.3487L93.9552 97.1064V99.4349L90.0798 101.591Z" fill="#CAD0E3"/>
<path d="M153.032 122.892L151.052 121.771L153.721 120.219L155.702 121.34L153.032 122.892Z" fill="#CAD0E3"/>
<path d="M156.821 116.424L154.841 115.303L159.922 112.371L161.902 113.492L156.821 116.424Z" fill="#CAD0E3"/>
<path d="M145.54 118.322L143.645 117.114L155.874 110.042L157.855 111.164L145.54 118.322Z" fill="#CAD0E3"/>
<path d="M157.51 120.305L155.616 119.098L165.864 113.233L167.758 114.355L157.51 120.305Z" fill="#CAD0E3"/>
<path d="M149.587 120.65L147.607 119.443L152.688 116.597L154.668 117.718L149.587 120.65Z" fill="#CAD0E3"/>
<path d="M18.7738 128.066L17.6542 128.756L14.8984 127.118L16.1041 126.514L18.7738 128.066Z" fill="white"/>
<path d="M20.9268 126.859L19.8073 127.463L17.0515 125.91L18.1711 125.307L20.9268 126.859Z" fill="white"/>
<path d="M22.9935 125.652L21.8739 126.255L19.1182 124.703L20.3238 124.013L22.9935 125.652Z" fill="white"/>
<path d="M25.1466 124.358L24.027 125.048L21.2712 123.496L22.3908 122.806L25.1466 124.358Z" fill="white"/>
<path d="M174.648 163.77L154.41 152.041C153.893 151.783 153.29 151.61 152.688 151.524C152.688 151.524 152.688 151.524 152.602 151.524C152.515 151.524 152.343 151.524 152.257 151.524C152.171 151.524 152.171 151.524 152.085 151.524C151.999 151.524 151.826 151.524 151.74 151.61C151.654 151.61 151.654 151.61 151.568 151.61C151.482 151.61 151.31 151.696 151.224 151.696C151.138 151.696 151.138 151.696 151.051 151.696C150.879 151.783 150.793 151.783 150.621 151.869L135.464 160.665L121.082 169.031L119.704 169.203V170.497V170.669C119.79 171.014 120.049 171.359 120.566 171.704L140.889 183.433C141.406 183.691 142.009 183.864 142.612 183.95C142.612 183.95 142.612 183.95 142.698 183.95C142.784 183.95 142.956 183.95 143.042 183.95C143.129 183.95 143.129 183.95 143.215 183.95C143.301 183.95 143.473 183.95 143.559 183.864C143.645 183.864 143.645 183.864 143.731 183.864C143.817 183.864 143.99 183.778 144.076 183.778C144.162 183.778 144.162 183.778 144.248 183.778C144.42 183.691 144.506 183.691 144.679 183.605L174.906 166.098C175.423 165.84 175.595 165.495 175.595 165.064V163.856L174.648 163.77Z" fill="white"/>
<path d="M120.393 168.254L135.55 159.458L159.06 172.997L144.592 182.139C143.559 182.742 141.923 182.656 140.889 182.052L120.565 170.41C119.532 169.806 119.446 168.858 120.393 168.254Z" fill="url(#paint6_linear)"/>
<path d="M150.707 150.661L135.55 159.458L158.888 172.911L174.82 164.632C175.853 164.028 175.767 163.08 174.648 162.476L154.324 150.747C153.377 150.144 151.654 150.144 150.707 150.661Z" fill="url(#paint7_linear)"/>
<path d="M175.509 163.511C175.595 163.942 175.337 164.373 174.82 164.632L144.593 182.139C144.076 182.484 143.301 182.57 142.612 182.57L144.593 164.632L175.509 163.511Z" fill="url(#paint8_linear)"/>
<path d="M119.79 169.375C119.704 168.944 119.962 168.513 120.479 168.254L150.707 150.747C151.223 150.402 151.998 150.316 152.687 150.316L150.707 168.168L119.79 169.375Z" fill="url(#paint9_linear)"/>
<path d="M142.784 174.981C142.698 174.981 142.698 174.981 142.612 174.981H142.267C141.664 174.895 141.148 174.722 140.717 174.463L120.393 162.735C119.963 162.476 119.618 162.131 119.532 161.786H119.446L119.36 161.441V161.355C119.36 161.269 119.36 161.183 119.36 161.096C119.36 161.01 119.36 161.01 119.36 161.01C119.36 160.924 119.446 160.838 119.446 160.751C119.446 160.665 119.446 160.665 119.532 160.665C119.618 160.579 119.704 160.493 119.704 160.406L119.79 160.32C119.877 160.234 120.049 160.148 120.221 160.061L150.449 142.555C150.621 142.468 150.793 142.382 150.965 142.296H151.051C151.224 142.21 151.31 142.21 151.482 142.21H151.568C151.74 142.21 151.913 142.124 151.999 142.124H152.085C152.257 142.124 152.429 142.124 152.515 142.124H152.86C153.463 142.21 153.979 142.382 154.41 142.641L174.734 154.37C175.164 154.628 175.509 154.973 175.595 155.318H175.681L175.767 155.663V155.749C175.767 155.836 175.767 155.922 175.767 156.008C175.767 156.094 175.767 156.094 175.767 156.094C175.767 156.181 175.681 156.267 175.681 156.353C175.681 156.439 175.681 156.439 175.595 156.439C175.509 156.526 175.423 156.612 175.423 156.698L175.337 156.784C175.251 156.871 175.078 156.957 174.906 157.043L144.679 174.55C144.506 174.636 144.334 174.722 144.162 174.808H144.076C143.904 174.895 143.817 174.895 143.645 174.895H143.559C143.387 174.895 143.215 174.981 143.128 174.981H143.042C142.956 174.981 142.87 174.981 142.784 174.981ZM143.473 174.205L143.645 174.463L143.559 174.119C143.645 174.119 143.731 174.032 143.904 174.032L144.162 174.291L144.076 173.946C144.248 173.86 144.334 173.86 144.42 173.774L174.648 156.267C174.734 156.181 174.82 156.181 174.906 156.094L175.164 156.267L174.906 156.008C174.992 155.922 174.992 155.922 174.992 155.836C175.078 155.749 175.078 155.663 175.078 155.663C175.078 155.577 175.078 155.491 175.078 155.491C174.992 155.232 174.82 154.973 174.389 154.715L154.066 142.986C153.635 142.727 153.118 142.555 152.515 142.555H152.343C152.257 142.555 152.171 142.555 152.085 142.555H151.913C151.826 142.555 151.74 142.555 151.568 142.555L151.396 142.296L151.482 142.641C151.396 142.641 151.31 142.727 151.137 142.727L150.879 142.468L150.965 142.813C150.793 142.9 150.707 142.9 150.621 142.986L120.566 160.579C120.479 160.665 120.393 160.665 120.307 160.751C120.221 160.838 120.135 160.924 120.135 160.924C120.049 161.01 120.049 161.096 120.049 161.096C120.049 161.183 120.049 161.269 120.049 161.269C120.135 161.528 120.307 161.786 120.738 162.045L141.062 173.774C141.492 174.032 142.009 174.205 142.612 174.205H142.698C142.784 174.205 142.87 174.205 142.956 174.205H143.128C143.301 174.291 143.387 174.291 143.473 174.205Z" fill="white"/>
<path opacity="0.4" d="M175.251 156.353C175.337 156.267 175.337 156.181 175.423 156.181V156.094C175.423 156.008 175.509 155.922 175.509 155.922V155.836C175.509 155.75 175.509 155.663 175.509 155.663C175.423 155.318 175.165 154.973 174.648 154.628L154.324 142.9C153.807 142.641 153.204 142.469 152.602 142.382C152.602 142.382 152.602 142.382 152.516 142.382C152.429 142.382 152.257 142.382 152.171 142.382C152.085 142.382 152.085 142.382 151.999 142.382C151.913 142.382 151.74 142.382 151.654 142.469C151.568 142.469 151.568 142.469 151.482 142.469C151.396 142.469 151.224 142.555 151.138 142.555C151.052 142.555 151.052 142.555 150.965 142.555C150.793 142.641 150.707 142.641 150.535 142.727L140.459 148.592L135.378 151.524L120.221 160.32C120.049 160.406 119.963 160.493 119.877 160.579C119.877 160.579 119.877 160.665 119.791 160.665C119.704 160.751 119.704 160.838 119.618 160.838V160.924C119.618 161.01 119.532 161.096 119.532 161.096V161.183C119.532 161.269 119.532 161.355 119.532 161.355C119.618 161.7 119.877 162.045 120.393 162.39L140.717 174.119C141.234 174.377 141.837 174.55 142.44 174.636C142.44 174.636 142.44 174.636 142.526 174.636C142.612 174.636 142.784 174.636 142.87 174.636C142.956 174.636 142.956 174.636 143.043 174.636C143.129 174.636 143.301 174.636 143.387 174.55C143.473 174.55 143.473 174.55 143.559 174.55C143.645 174.55 143.818 174.464 143.904 174.464C143.99 174.464 143.99 174.464 144.076 174.464C144.248 174.377 144.334 174.377 144.507 174.291L174.734 156.784C174.992 156.612 175.078 156.526 175.251 156.353C175.165 156.439 175.251 156.353 175.251 156.353Z" fill="white"/>
</g>
<defs>
<linearGradient id="paint0_linear" x1="13.6493" y1="105.093" x2="184.303" y2="194.883" gradientUnits="userSpaceOnUse">
<stop stop-color="#3A9BD5"/>
<stop offset="0.3053" stop-color="#3A9BD5"/>
<stop offset="0.3555" stop-color="#3A9BD5"/>
<stop offset="0.5988" stop-color="#3999D4"/>
<stop offset="0.6883" stop-color="#3592CF"/>
<stop offset="0.7522" stop-color="#2F86C7"/>
<stop offset="0.8039" stop-color="#2676BC"/>
<stop offset="0.8102" stop-color="#2573BA"/>
</linearGradient>
<linearGradient id="paint1_linear" x1="18.3192" y1="162.417" x2="169.927" y2="98.5828" gradientUnits="userSpaceOnUse">
<stop stop-color="#59BDEF"/>
<stop offset="1" stop-color="#7BDAFF"/>
</linearGradient>
<linearGradient id="paint2_linear" x1="209.091" y1="19.5137" x2="99.4127" y2="160.565" gradientUnits="userSpaceOnUse">
<stop stop-color="#59BDEF"/>
<stop offset="1" stop-color="#7BDAFF"/>
</linearGradient>
<linearGradient id="paint3_linear" x1="136.487" y1="124.621" x2="107.816" y2="140.028" gradientUnits="userSpaceOnUse">
<stop stop-color="#59BDEF"/>
<stop offset="1" stop-color="#7BDAFF"/>
</linearGradient>
<linearGradient id="paint4_linear" x1="48.2763" y1="26.4542" x2="15.3465" y2="37.5046" gradientUnits="userSpaceOnUse">
<stop stop-color="#59BDEF"/>
<stop offset="1" stop-color="#7BDAFF"/>
</linearGradient>
<linearGradient id="paint5_linear" x1="34.6856" y1="84.5871" x2="164.734" y2="84.5871" gradientUnits="userSpaceOnUse">
<stop stop-color="#59BDEF"/>
<stop offset="1" stop-color="#7BDAFF"/>
</linearGradient>
<linearGradient id="paint6_linear" x1="142.493" y1="193.833" x2="142.436" y2="168.685" gradientUnits="userSpaceOnUse">
<stop offset="0.7677" stop-color="#59BDEF"/>
<stop offset="0.8452" stop-color="#55B8EB"/>
<stop offset="0.9318" stop-color="#49ABE1"/>
<stop offset="1" stop-color="#3A9BD5"/>
</linearGradient>
<linearGradient id="paint7_linear" x1="194.938" y1="163.369" x2="151.493" y2="163.237" gradientUnits="userSpaceOnUse">
<stop offset="0.7677" stop-color="#59BDEF"/>
<stop offset="0.8452" stop-color="#55B8EB"/>
<stop offset="0.9318" stop-color="#49ABE1"/>
<stop offset="1" stop-color="#3A9BD5"/>
</linearGradient>
<linearGradient id="paint8_linear" x1="183.71" y1="187.278" x2="165.83" y2="156.448" gradientUnits="userSpaceOnUse">
<stop offset="0.7677" stop-color="#3A9BD5"/>
<stop offset="0.8386" stop-color="#3896D2"/>
<stop offset="0.9179" stop-color="#3189C9"/>
<stop offset="1" stop-color="#2573BA"/>
</linearGradient>
<linearGradient id="paint9_linear" x1="143.64" y1="150.637" x2="138.161" y2="178.507" gradientUnits="userSpaceOnUse">
<stop stop-color="#7BDAFF"/>
<stop offset="1" stop-color="#59BDEF"/>
</linearGradient>
<clipPath id="clip0">
<rect width="201" height="225" fill="white"/>
</clipPath>
</defs>
</svg>
