<svg width="275" height="226" viewBox="0 0 275 226" fill="none" xmlns="http://www.w3.org/2000/svg">
<path opacity="0.5" d="M46.9754 103.847L107.829 68.5672C111.133 66.6531 116.915 66.8815 120.739 69.087L248.44 142.672C252.264 144.877 252.681 148.186 249.376 150.131L188.523 185.411C185.219 187.325 179.436 187.097 175.613 184.891L47.9038 111.307C44.0882 109.109 43.6712 105.769 46.9754 103.847Z" fill="#173D7A"/>
<path d="M190.293 172.344L253.617 135.63C255.694 134.425 256.669 132.795 256.598 131.109V121.909L253.074 126.036C252.846 125.887 252.618 125.737 252.366 125.587L122.824 50.9471C117.678 47.9854 109.906 47.6704 105.461 50.254L43.026 86.4871L39.0923 82.1785V91.1738C38.9979 93.206 40.4377 95.3642 43.3485 97.0341L172.93 171.651C178.075 174.612 185.84 174.92 190.293 172.344Z" fill="#2573BA"/>
<path d="M224.539 149.816L220.889 151.927C220.401 152.211 220.016 151.927 220.016 151.265C220.02 150.937 220.102 150.614 220.253 150.323C220.405 150.031 220.623 149.78 220.889 149.588L224.539 147.477C225.027 147.193 225.413 147.477 225.413 148.138C225.408 148.467 225.327 148.79 225.175 149.081C225.023 149.372 224.806 149.624 224.539 149.816Z" fill="#173D7A"/>
<path d="M122.816 50.9471C117.671 47.9854 109.898 47.6704 105.453 50.254L43.0183 86.4871L39.0847 82.1785V91.1738C38.9902 93.206 40.4299 95.3642 43.3408 97.0341L172.93 171.651C175.801 173.213 179.01 174.048 182.277 174.085L182.151 85.1481L122.816 50.9471Z" fill="#2573BA"/>
<path d="M42.0976 77.6807L105.421 40.9671C109.866 38.3914 117.639 38.6986 122.784 41.6602L252.334 116.34C257.48 119.302 258.038 123.799 253.593 126.375L190.27 163.089C185.825 165.664 178.052 165.357 172.907 162.395L43.3642 87.7551C38.2112 84.7698 37.6526 80.2958 42.0976 77.6807Z" fill="#D4ECFF"/>
<path d="M190.317 164.073L253.641 127.359C255.938 126.028 256.882 124.209 256.567 122.318C256.457 123.839 255.481 125.288 253.585 126.383L190.262 163.096C185.817 165.672 178.044 165.365 172.899 162.403L43.3566 87.7629C40.8627 86.3293 39.423 84.5334 39.1633 82.769C39.0139 84.8328 40.4457 87.0382 43.4038 88.7396L172.954 163.38C178.091 166.342 185.841 166.688 190.317 164.073Z" fill="white"/>
<path d="M46.9754 79.1616L107.821 43.8894C111.125 41.9754 116.907 42.2038 120.731 44.4093L248.44 117.986C252.264 120.192 252.681 123.5 249.376 125.446L188.523 160.726C185.219 162.64 179.436 162.411 175.613 160.206L47.9038 86.6209C44.0882 84.4233 43.6712 81.0835 46.9754 79.1616Z" fill="#0F65B2"/>
<path d="M173.198 142.404L216.137 117.585L213.392 115.994L170.452 140.821L173.198 142.404Z" fill="#D4ECFF"/>
<path d="M203.07 135.165L224.815 122.594L222.069 121.011L200.332 133.582L203.07 135.165Z" fill="#D4ECFF"/>
<path d="M192.52 141.262L199.569 137.19L196.831 135.606L189.782 139.679L192.52 141.262Z" fill="#6BCCF7"/>
<path d="M181.875 147.422L188.924 143.342L186.187 141.758L179.13 145.831L181.875 147.422Z" fill="white"/>
<path d="M202.826 130.29L220.472 120.089L217.734 118.506L200.088 128.706L202.826 130.29Z" fill="white"/>
<path d="M181.293 142.743L198.931 132.542L196.194 130.951L178.547 141.152L181.293 142.743Z" fill="#D4ECFF"/>
<path d="M194.353 120.94C194.848 121.191 195.395 121.322 195.95 121.322C196.505 121.322 197.052 121.191 197.547 120.94C197.74 120.875 197.908 120.75 198.028 120.584C198.147 120.418 198.211 120.219 198.211 120.015C198.211 119.81 198.147 119.611 198.028 119.445C197.908 119.279 197.74 119.154 197.547 119.089C197.052 118.838 196.505 118.707 195.95 118.707C195.395 118.707 194.848 118.838 194.353 119.089C194.159 119.154 193.991 119.279 193.872 119.445C193.753 119.611 193.689 119.81 193.689 120.015C193.689 120.219 193.753 120.418 193.872 120.584C193.991 120.75 194.159 120.875 194.353 120.94Z" fill="#6BCCF7"/>
<path d="M189.577 123.697C190.072 123.948 190.619 124.079 191.174 124.079C191.729 124.079 192.276 123.948 192.771 123.697C192.965 123.632 193.133 123.507 193.252 123.341C193.371 123.175 193.435 122.976 193.435 122.771C193.435 122.567 193.371 122.368 193.252 122.202C193.133 122.036 192.965 121.911 192.771 121.846C192.276 121.595 191.729 121.464 191.174 121.464C190.619 121.464 190.072 121.595 189.577 121.846C189.384 121.911 189.216 122.036 189.097 122.202C188.978 122.368 188.913 122.567 188.913 122.771C188.913 122.976 188.978 123.175 189.097 123.341C189.216 123.507 189.384 123.632 189.577 123.697Z" fill="white"/>
<path d="M184.794 126.462C185.289 126.713 185.836 126.844 186.391 126.844C186.946 126.844 187.493 126.713 187.988 126.462C188.182 126.396 188.35 126.272 188.469 126.106C188.588 125.94 188.652 125.741 188.652 125.536C188.652 125.332 188.588 125.132 188.469 124.966C188.35 124.8 188.182 124.676 187.988 124.611C187.493 124.359 186.946 124.229 186.391 124.229C185.836 124.229 185.289 124.359 184.794 124.611C184.6 124.676 184.432 124.8 184.313 124.966C184.194 125.132 184.13 125.332 184.13 125.536C184.13 125.741 184.194 125.94 184.313 126.106C184.432 126.272 184.6 126.396 184.794 126.462Z" fill="#D4ECFF"/>
<path d="M180.019 129.226C180.514 129.478 181.061 129.608 181.616 129.608C182.171 129.608 182.718 129.478 183.213 129.226C183.406 129.161 183.574 129.037 183.693 128.871C183.812 128.704 183.876 128.505 183.876 128.301C183.876 128.096 183.812 127.897 183.693 127.731C183.574 127.565 183.406 127.441 183.213 127.375C182.718 127.124 182.171 126.993 181.616 126.993C181.061 126.993 180.514 127.124 180.019 127.375C179.825 127.441 179.657 127.565 179.538 127.731C179.419 127.897 179.355 128.096 179.355 128.301C179.355 128.505 179.419 128.704 179.538 128.871C179.657 129.037 179.825 129.161 180.019 129.226Z" fill="#6BCCF7"/>
<path d="M175.243 131.983C175.738 132.234 176.285 132.365 176.84 132.365C177.395 132.365 177.942 132.234 178.437 131.983C178.631 131.918 178.799 131.793 178.918 131.627C179.037 131.461 179.101 131.262 179.101 131.058C179.101 130.853 179.037 130.654 178.918 130.488C178.799 130.322 178.631 130.197 178.437 130.132C177.942 129.881 177.395 129.75 176.84 129.75C176.285 129.75 175.738 129.881 175.243 130.132C175.05 130.197 174.882 130.322 174.762 130.488C174.643 130.654 174.579 130.853 174.579 131.058C174.579 131.262 174.643 131.461 174.762 131.627C174.882 131.793 175.05 131.918 175.243 131.983Z" fill="white"/>
<path d="M79.2075 79.4375L86.4375 75.2549L83.6289 73.6323L76.3989 77.8149L79.2075 79.4375Z" fill="#396CAA"/>
<path d="M69.1374 85.2583L76.3674 81.0757L73.5588 79.4531L66.3288 83.6278L69.1374 85.2583Z" fill="white"/>
<path d="M111.503 60.5962L118.733 56.4136L115.916 54.791L108.686 58.9736L111.503 60.5962Z" fill="white"/>
<path d="M80.8203 83.6516L90.8826 77.8306L88.0739 76.208L78.0117 82.0211L80.8203 83.6516Z" fill="white"/>
<path d="M73.5904 87.826L78.0039 85.274L75.1953 83.6514L70.7818 86.2034L73.5904 87.826Z" fill="#D4ECFF"/>
<path opacity="0.5" d="M44.741 68.4021L56.9824 61.3287L44.741 54.2554L32.5074 61.3287L44.741 68.4021Z" fill="#173D7A"/>
<path d="M32.5076 52.3488L44.7412 59.4222V45.2755L32.5076 38.2021V52.3488Z" fill="#0F65B2"/>
<path d="M44.741 45.2756L56.9824 38.2022L44.741 31.1289L32.5074 38.2022L44.741 45.2756Z" fill="#BBEAFF"/>
<path d="M44.741 59.4222L56.9824 52.3488V38.2021L44.741 45.2755V59.4222Z" fill="#5793CE"/>
<path d="M49.1546 51.7819L52.5769 49.7969V45.8428L49.1546 47.8198V51.7819Z" fill="white"/>
<path opacity="0.5" d="M262.263 112.945L275 105.58L262.263 98.2153L249.526 105.58L262.263 112.945Z" fill="#173D7A"/>
<path d="M249.526 96.2305L262.263 103.595V88.8736L249.526 81.5088V96.2305Z" fill="#0F65B2"/>
<path d="M262.263 88.8736L275 81.5088L262.263 74.144L249.526 81.5088L262.263 88.8736Z" fill="#BBEAFF"/>
<path d="M262.263 103.595L275 96.2305V81.5088L262.263 88.8736V103.595Z" fill="#5793CE"/>
<path d="M266.849 95.6397L270.413 93.5839V89.4644L266.849 91.5202V95.6397Z" fill="white"/>
<path opacity="0.5" d="M122.784 41.6996L143.861 53.8455L117.726 68.9532L87.4288 51.4431L105.429 41.0064C109.874 38.4228 117.647 38.7379 122.784 41.6996Z" fill="#092E63"/>
<path d="M82.2757 31.8142L87.4524 28.821L68.3586 17.7936C68.1623 17.7255 67.9922 17.5979 67.8717 17.4285C67.7513 17.2591 67.6866 17.0563 67.6866 16.8484C67.6866 16.6404 67.7513 16.4376 67.8717 16.2682C67.9922 16.0988 68.1623 15.9712 68.3586 15.9031L87.8615 4.63147C88.3687 4.37405 88.9293 4.23991 89.4979 4.23991C90.0665 4.23991 90.6271 4.37405 91.1343 4.63147L110.228 15.659L115.405 12.6658L96.3109 1.6383C92.5504 -0.535685 86.4375 -0.535685 82.6848 1.6383L63.1819 12.91C59.4213 15.084 59.4213 18.6128 63.1819 20.7867L82.2757 31.8142Z" fill="#0F65B2"/>
<path d="M73.9206 33.1375C73.9206 30.3649 75.6042 27.1433 77.6812 25.946L112.297 5.95476C112.649 5.70622 113.06 5.55619 113.489 5.52018C113.917 5.48418 114.348 5.5635 114.736 5.74996L156.039 29.782L116.097 59.9107L75.4075 36.2803C75.2794 36.2231 75.158 36.1518 75.0456 36.0677C74.6455 35.6989 74.3358 35.2427 74.1406 34.7344C73.9455 34.2262 73.8702 33.6797 73.9206 33.1375Z" fill="#BBEAFF"/>
<path d="M116.066 59.9028L75.3764 36.2725C75.2482 36.2154 75.1268 36.144 75.0145 36.0598C74.6208 35.6905 74.3168 35.2358 74.1259 34.7306C73.935 34.2255 73.8622 33.6832 73.9131 33.1454C73.9453 31.752 74.2923 30.384 74.9279 29.144L121.345 55.9251L116.066 59.9028Z" fill="#0F65B2"/>
<path d="M118.67 59.7925L153.286 39.8013C155.363 38.604 157.046 35.3824 157.046 32.6098C157.046 29.8372 155.363 28.5611 153.286 29.7663L118.67 49.7575C116.593 50.9548 114.909 54.1764 114.909 56.949C114.909 59.7216 116.608 60.9898 118.67 59.7925Z" fill="#0F65B2"/>
<path d="M118.253 49.5688L152.869 29.5775C153.226 29.3193 153.648 29.1662 154.087 29.1356C154.526 29.105 154.965 29.198 155.355 29.4042C155.004 29.318 154.638 29.3056 154.282 29.368C153.926 29.4304 153.587 29.5661 153.286 29.7666L118.67 49.7578C116.593 50.9551 114.909 54.1767 114.909 56.9493C114.909 58.4459 115.405 59.5014 116.184 59.974C115.169 59.6668 114.492 58.5168 114.492 56.7603C114.492 53.9876 116.176 50.766 118.253 49.5688Z" fill="white"/>
<path d="M123.846 53.0502L128.008 50.6872C128.243 50.5276 128.437 50.3145 128.574 50.0653C128.711 49.816 128.787 49.5378 128.795 49.2536C128.795 48.7022 128.457 48.4659 128.008 48.6865L123.846 51.0495C123.611 51.209 123.417 51.4222 123.281 51.6714C123.144 51.9206 123.068 52.1988 123.06 52.4831C123.099 53.0344 123.437 53.2629 123.846 53.0502Z" fill="white"/>
<path d="M119.157 24.6227C117.907 23.8823 117.914 22.7007 119.157 21.9839C119.869 21.6314 120.654 21.452 121.449 21.4602C122.243 21.4684 123.024 21.6641 123.728 22.0312C124.979 22.7716 124.971 23.9531 123.728 24.6699C123.016 25.0224 122.231 25.2019 121.437 25.1936C120.643 25.1854 119.862 24.9898 119.157 24.6227Z" fill="#5793CE"/>
<path d="M112.195 28.5455C110.944 27.8051 110.952 26.6236 112.195 25.9068C112.907 25.5543 113.692 25.3749 114.486 25.3831C115.28 25.3913 116.061 25.5869 116.766 25.9541C118.017 26.6945 118.009 27.876 116.766 28.5928C116.054 28.9453 115.269 29.1247 114.475 29.1165C113.681 29.1083 112.9 28.9127 112.195 28.5455Z" fill="white"/>
<path d="M105.225 32.4762C103.974 31.7358 103.982 30.5542 105.225 29.8375C105.937 29.485 106.721 29.3055 107.516 29.3137C108.31 29.322 109.091 29.5176 109.795 29.8847C111.046 30.6251 111.039 31.8067 109.795 32.5234C109.084 32.8759 108.299 33.0554 107.504 33.0472C106.71 33.0389 105.929 32.8433 105.225 32.4762Z" fill="white"/>
<path opacity="0.5" d="M133.232 216.595L157.054 202.827C158.517 201.984 158.337 200.503 156.645 199.526L133.641 186.23C132.775 185.747 131.808 185.474 130.817 185.433C129.827 185.392 128.84 185.584 127.937 185.994L104.115 199.77C102.652 200.613 102.833 202.094 104.524 203.071L127.528 216.367C128.395 216.849 129.363 217.12 130.353 217.16C131.344 217.2 132.33 217.006 133.232 216.595Z" fill="#173D7A"/>
<path d="M103.132 193.107V184.876H121.565L127.937 181.189C128.84 180.78 129.827 180.587 130.817 180.628C131.808 180.67 132.775 180.943 133.641 181.426L139.589 184.86H158.038V193.312C158.041 193.635 157.949 193.952 157.774 194.223C157.6 194.495 157.349 194.709 157.054 194.84L133.232 208.608C132.329 209.018 131.343 209.21 130.352 209.169C129.362 209.128 128.394 208.855 127.528 208.372L104.524 195.045C104.135 194.884 103.798 194.617 103.552 194.275C103.306 193.932 103.16 193.528 103.132 193.107Z" fill="#396CAA"/>
<path d="M130.581 180.622C131.65 180.632 132.7 180.902 133.641 181.41L139.589 184.844H158.038V193.312C158.041 193.635 157.949 193.951 157.774 194.223C157.6 194.495 157.349 194.709 157.054 194.84L133.232 208.608C132.415 209.03 131.499 209.226 130.581 209.175V180.622Z" fill="#396CAA"/>
<path d="M155.945 184.852H158.03V193.312C158.033 193.635 157.941 193.952 157.766 194.223C157.592 194.495 157.341 194.709 157.046 194.84L155.937 195.478V184.844L155.945 184.852Z" fill="#5793CE"/>
<path d="M132.862 208.798C131.385 209.332 129.764 209.313 128.299 208.742V199.133H132.862V208.798Z" fill="#5793CE"/>
<path d="M133.232 200.18L157.054 186.38C158.517 185.538 158.337 184.057 156.645 183.08L133.641 169.839C132.775 169.356 131.808 169.083 130.817 169.042C129.827 169.001 128.84 169.193 127.937 169.603L104.115 183.371C102.652 184.214 102.833 185.695 104.524 186.672L127.528 199.968C128.396 200.447 129.364 200.716 130.355 200.753C131.346 200.79 132.331 200.594 133.232 200.18Z" fill="#BBEAFF"/>
<path d="M104.524 185.025L127.528 198.321C128.394 198.804 129.361 199.077 130.352 199.118C131.342 199.159 132.329 198.967 133.232 198.558L157.054 184.805C157.343 184.647 157.593 184.426 157.786 184.159C157.903 184.352 157.977 184.569 158.003 184.793C158.03 185.018 158.007 185.245 157.938 185.461C157.869 185.676 157.754 185.874 157.601 186.04C157.449 186.207 157.262 186.339 157.054 186.427L133.232 200.196C132.329 200.606 131.342 200.798 130.352 200.757C129.361 200.716 128.394 200.443 127.528 199.96L104.524 186.664C103.21 185.876 102.817 184.844 103.383 184.017C103.677 184.44 104.068 184.786 104.524 185.025Z" fill="white"/>
<path d="M111.888 195.281C111.906 195.615 112.002 195.941 112.168 196.231C112.335 196.521 112.568 196.768 112.848 196.951C112.941 197.029 113.056 197.077 113.177 197.087C113.298 197.098 113.419 197.07 113.524 197.009C113.629 196.948 113.713 196.856 113.764 196.745C113.814 196.635 113.83 196.511 113.808 196.392C113.79 196.057 113.694 195.732 113.528 195.442C113.361 195.152 113.128 194.905 112.848 194.722C112.755 194.644 112.64 194.596 112.519 194.586C112.398 194.575 112.277 194.602 112.172 194.664C112.067 194.725 111.983 194.817 111.932 194.927C111.882 195.038 111.866 195.162 111.888 195.281Z" fill="#D4ECFF"/>
<path d="M108.804 193.469C108.821 193.803 108.917 194.129 109.084 194.419C109.251 194.709 109.484 194.956 109.764 195.139C109.857 195.217 109.972 195.265 110.093 195.275C110.214 195.286 110.335 195.258 110.44 195.197C110.545 195.136 110.629 195.044 110.679 194.933C110.73 194.823 110.746 194.699 110.724 194.58C110.706 194.245 110.61 193.92 110.443 193.63C110.277 193.34 110.044 193.093 109.764 192.91C109.671 192.832 109.556 192.784 109.435 192.774C109.314 192.763 109.193 192.79 109.088 192.852C108.983 192.913 108.899 193.005 108.848 193.116C108.797 193.226 108.782 193.35 108.804 193.469Z" fill="#D4ECFF"/>
<path d="M105.704 191.705C105.722 192.039 105.818 192.365 105.985 192.655C106.151 192.945 106.384 193.192 106.664 193.375C106.757 193.453 106.872 193.501 106.993 193.511C107.114 193.521 107.236 193.494 107.341 193.433C107.446 193.372 107.529 193.28 107.58 193.169C107.631 193.059 107.646 192.935 107.624 192.816C107.607 192.481 107.511 192.156 107.344 191.866C107.177 191.575 106.944 191.329 106.664 191.146C106.571 191.067 106.456 191.02 106.335 191.009C106.214 190.999 106.093 191.026 105.988 191.087C105.883 191.149 105.799 191.241 105.749 191.351C105.698 191.462 105.682 191.585 105.704 191.705Z" fill="#D4ECFF"/>
<path d="M131.824 191.642L142.972 185.199C143.656 184.805 143.57 184.112 142.783 183.624L132.02 177.401C131.615 177.175 131.163 177.048 130.7 177.028C130.237 177.009 129.776 177.099 129.354 177.291L118.182 183.765C117.498 184.159 117.584 184.852 118.371 185.341L129.133 191.563C129.544 191.788 130.001 191.912 130.469 191.926C130.937 191.94 131.401 191.842 131.824 191.642Z" fill="#5793CE"/>
<path d="M130.77 186.246L132.343 185.356C132.437 185.301 132.43 185.207 132.343 185.144L130.856 184.285C130.799 184.256 130.735 184.241 130.671 184.241C130.607 184.241 130.544 184.256 130.486 184.285L128.913 185.175C128.818 185.23 128.826 185.325 128.913 185.388L130.4 186.246C130.457 186.275 130.52 186.29 130.585 186.29C130.649 186.29 130.712 186.275 130.77 186.246Z" fill="#D4ECFF"/>
<path d="M142.972 185.199L142.814 185.088L132.052 178.866C131.647 178.64 131.195 178.513 130.732 178.493C130.268 178.474 129.807 178.564 129.385 178.756L118.269 185.183C117.639 184.734 117.608 184.112 118.269 183.749L129.417 177.306C129.839 177.115 130.3 177.025 130.763 177.044C131.226 177.063 131.679 177.191 132.084 177.417L142.846 183.639C143.57 184.112 143.656 184.805 142.972 185.199Z" fill="#396CAA"/>
<path opacity="0.5" d="M48.0924 224.48L84.7774 203.276C86.1227 202.488 85.9496 201.141 84.3998 200.243L45.5198 177.716C44.7234 177.27 43.8337 177.019 42.9223 176.98C42.0109 176.942 41.1032 177.118 40.2723 177.495L3.58733 198.699C2.24203 199.487 2.41509 200.834 3.96494 201.732L42.8449 224.267C43.642 224.711 44.532 224.962 45.4434 224.999C46.3548 225.036 47.2621 224.858 48.0924 224.48Z" fill="#173D7A"/>
<path d="M2.76143 184.592L41.9876 161.915C43.5139 161.033 44.749 158.67 44.749 156.63V62.6597C44.749 60.6196 43.5139 59.6902 41.9876 60.5724L2.76143 83.2496C1.23518 84.1318 6.10352e-05 86.4948 6.10352e-05 88.5349V182.505C6.10352e-05 184.537 1.23518 185.474 2.76143 184.592Z" fill="url(#paint0_linear)"/>
<path d="M2.76121 83.2417L41.9874 60.5724C42.2441 60.3893 42.545 60.2782 42.8589 60.2505C43.1729 60.2228 43.4885 60.2795 43.7733 60.4148L88.5537 86.2821L86.4453 94.1038L45.6142 210.53L1.00682 184.805L0.928169 184.758C0.603653 184.496 0.349983 184.157 0.190521 183.771C0.0310593 183.386 -0.0291138 182.967 0.0155411 182.552V88.527C-0.000190735 86.4869 1.23496 84.1239 2.76121 83.2417Z" fill="#6ACBF7"/>
<path d="M2.76123 83.2417L41.9874 60.5724C42.2441 60.3893 42.545 60.2782 42.859 60.2505C43.1729 60.2228 43.4886 60.2795 43.7733 60.4148L88.5537 86.2821L86.4453 94.1038L75.2187 126.123L73.1024 127.304L0.770844 85.5575C1.2032 84.6133 1.89314 83.8105 2.76123 83.2417Z" fill="#BBEAFF"/>
<path d="M47.5104 210.436L86.7129 187.767C88.2392 186.884 89.4744 184.521 89.4744 182.481V88.5035C89.4744 86.4634 88.2392 85.5339 86.7129 86.4161L47.4868 109.093C45.9606 109.976 44.7254 112.339 44.7254 114.379V208.349C44.749 210.381 45.9842 211.318 47.5104 210.436Z" fill="#5793CE"/>
<path d="M49.9728 204.781L84.2662 184.963C85.0011 184.436 85.6023 183.744 86.0218 182.942C86.4412 182.141 86.6671 181.252 86.6814 180.347V93.0643C86.6814 91.2841 85.6036 90.465 84.2662 91.2369L49.9806 111.055C49.2458 111.582 48.6444 112.274 48.225 113.075C47.8056 113.877 47.5796 114.766 47.5654 115.671V202.922C47.5575 204.733 48.6432 205.552 49.9728 204.781Z" fill="url(#paint1_linear)"/>
<path d="M49.9728 204.781L84.2662 184.963C85.0011 184.436 85.6023 183.744 86.0218 182.942C86.4412 182.141 86.6671 181.252 86.6814 180.347V93.0643C86.6814 91.2841 85.6036 90.465 84.2662 91.2369L49.9806 111.055C49.2458 111.582 48.6444 112.274 48.225 113.075C47.8056 113.877 47.5796 114.766 47.5654 115.671V202.922C47.5575 204.733 48.6432 205.552 49.9728 204.781Z" fill="url(#paint2_linear)"/>
<path d="M49.9728 204.781L84.2662 184.963C85.0011 184.436 85.6023 183.744 86.0218 182.942C86.4412 182.141 86.6671 181.252 86.6814 180.347V93.0643C86.6814 91.2841 85.6036 90.465 84.2662 91.2369L49.9806 111.055C49.2458 111.582 48.6444 112.274 48.225 113.075C47.8056 113.877 47.5796 114.766 47.5654 115.671V202.922C47.5575 204.733 48.6432 205.552 49.9728 204.781Z" fill="#6BCCF7"/>
<path d="M48.8557 204.119L83.1412 184.301C83.8761 183.774 84.4774 183.082 84.8968 182.28C85.3162 181.479 85.5422 180.59 85.5564 179.685V92.4025C85.5755 91.8943 85.4559 91.3905 85.2103 90.9453C86.0757 90.9453 86.6736 91.733 86.6736 93.0642V180.339C86.6593 181.244 86.4334 182.133 86.014 182.934C85.5945 183.736 84.9932 184.428 84.2583 184.955L49.9728 204.773C49.8172 204.896 49.637 204.986 49.4442 205.035C49.2514 205.083 49.0505 205.09 48.8547 205.055C48.659 205.02 48.4729 204.944 48.309 204.831C48.145 204.719 48.0069 204.573 47.9037 204.402C48.2402 204.392 48.5683 204.294 48.8557 204.119Z" fill="#396CAA"/>
<path d="M49.9729 164.711L62.7179 157.347L83.0469 169.099L47.5577 189.578V169.327C47.572 168.422 47.7979 167.534 48.2173 166.732C48.6368 165.93 49.238 165.238 49.9729 164.711Z" fill="#2573BA"/>
<path d="M49.9729 146.823L62.7179 139.458L83.0469 151.211L47.5577 171.69V151.447C47.5707 150.541 47.796 149.65 48.2155 148.847C48.635 148.044 49.237 147.351 49.9729 146.823Z" fill="#2573BA"/>
<path d="M49.9729 128.943L62.7179 121.578L83.0469 133.33L47.5577 153.81V133.559C47.572 132.654 47.7979 131.765 48.2173 130.963C48.6368 130.162 49.238 129.47 49.9729 128.943Z" fill="#2573BA"/>
<path d="M49.9729 111.054L62.7179 103.674L83.0469 115.426L47.5577 135.906V115.678C47.5707 114.772 47.796 113.881 48.2155 113.078C48.635 112.275 49.237 111.582 49.9729 111.054Z" fill="#2573BA"/>
<path d="M49.9727 111.054L78.1847 94.7417L83.0388 97.5458L47.5496 118.025V115.662C47.566 114.758 47.7937 113.87 48.2145 113.07C48.6353 112.27 49.2374 111.58 49.9727 111.054Z" fill="#2573BA"/>
<path d="M47.5577 118.065L83.0469 97.5537V108.857L47.5577 129.368V118.065Z" fill="#5793CE"/>
<path d="M47.5577 135.953L83.0469 115.434V126.745L47.5577 147.256V135.953Z" fill="#5793CE"/>
<path d="M47.5577 153.833L83.0469 133.322V144.625L47.5577 165.137V153.833Z" fill="#5793CE"/>
<path d="M47.5577 171.722L83.0469 151.21V162.514L47.5577 183.025V171.722Z" fill="#5793CE"/>
<path d="M47.5577 189.602L83.0469 169.091V180.394L47.5577 200.905V189.602Z" fill="#5793CE"/>
<path d="M50.6886 125.343L77.4372 109.896C77.8539 109.598 78.1948 109.206 78.4325 108.752C78.6703 108.298 78.7983 107.794 78.8062 107.281V104.257C78.8062 103.248 78.1925 102.784 77.4372 103.225L50.6886 118.671C50.2719 118.969 49.931 119.361 49.6933 119.816C49.4555 120.27 49.3276 120.774 49.3197 121.286V124.311C49.3275 125.319 49.9333 125.776 50.6886 125.343Z" fill="#0F65B2"/>
<path opacity="0.3" d="M76.0684 109.314C76.4851 109.016 76.826 108.624 77.0637 108.17C77.3015 107.715 77.4294 107.212 77.4373 106.699V103.674C77.4377 103.529 77.4219 103.383 77.3901 103.241C78.1768 102.808 78.759 103.241 78.759 104.273V107.298C78.7512 107.81 78.6232 108.314 78.3854 108.768C78.1477 109.223 77.8068 109.615 77.3901 109.913L50.6414 125.359C50.5276 125.462 50.3862 125.529 50.2346 125.553C50.0831 125.576 49.928 125.555 49.7884 125.491C49.6488 125.428 49.5307 125.325 49.4489 125.195C49.367 125.065 49.3249 124.914 49.3276 124.76L76.0684 109.314Z" fill="#06033E"/>
<path d="M59.0752 117.065L75.1558 107.77C75.3025 107.665 75.4223 107.527 75.5057 107.367C75.5891 107.206 75.6336 107.029 75.6357 106.848C75.6357 106.494 75.4233 106.328 75.1558 106.486L59.0752 115.781C58.9285 115.886 58.8087 116.024 58.7253 116.184C58.6419 116.344 58.5974 116.522 58.5953 116.702C58.5953 117.065 58.8155 117.198 59.0752 117.065Z" fill="white"/>
<path d="M50.6886 143.113L77.4372 127.667C77.8539 127.368 78.1948 126.976 78.4325 126.522C78.6703 126.068 78.7983 125.564 78.8062 125.051V122.027C78.8062 121.019 78.1925 120.554 77.4372 120.995L50.6886 136.449C50.2719 136.747 49.931 137.139 49.6933 137.594C49.4555 138.048 49.3276 138.551 49.3197 139.064V142.089C49.3275 143.058 49.9333 143.554 50.6886 143.113Z" fill="#0F65B2"/>
<path opacity="0.3" d="M76.0684 127.084C76.4851 126.786 76.826 126.394 77.0637 125.94C77.3015 125.486 77.4294 124.982 77.4373 124.469V121.444C77.4377 121.299 77.4219 121.153 77.3901 121.011C78.1768 120.578 78.759 121.011 78.759 122.043V125.068C78.7512 125.58 78.6232 126.084 78.3854 126.538C78.1477 126.993 77.8068 127.385 77.3901 127.683L50.6414 143.129C50.5276 143.232 50.3862 143.299 50.2346 143.323C50.0831 143.346 49.928 143.325 49.7884 143.261C49.6488 143.198 49.5307 143.095 49.4489 142.965C49.367 142.835 49.3249 142.684 49.3276 142.53L76.0684 127.084Z" fill="#06033E"/>
<path d="M59.0752 134.819L75.1558 125.524C75.3025 125.419 75.4223 125.281 75.5057 125.121C75.5891 124.961 75.6336 124.783 75.6357 124.603C75.6357 124.248 75.4233 124.083 75.1558 124.24L59.0752 133.535C58.9285 133.64 58.8087 133.778 58.7253 133.938C58.6419 134.099 58.5974 134.276 58.5953 134.457C58.5953 134.811 58.8155 134.976 59.0752 134.819Z" fill="white"/>
<path d="M50.6886 161.056L77.4372 145.61C77.8539 145.312 78.1948 144.92 78.4325 144.465C78.6703 144.011 78.7983 143.508 78.8062 142.995V139.97C78.8062 138.962 78.1925 138.497 77.4372 138.938L50.6886 154.385C50.2719 154.683 49.931 155.075 49.6933 155.529C49.4555 155.983 49.3276 156.487 49.3197 157V160.024C49.3275 161.033 49.9333 161.489 50.6886 161.056Z" fill="#0F65B2"/>
<path opacity="0.3" d="M76.0684 145.027C76.4851 144.729 76.826 144.337 77.0637 143.883C77.3015 143.428 77.4294 142.925 77.4373 142.412V139.387C77.4377 139.242 77.4219 139.096 77.3901 138.954C78.1768 138.521 78.759 138.954 78.759 139.986V143.011C78.7512 143.523 78.6232 144.027 78.3854 144.481C78.1477 144.935 77.8068 145.327 77.3901 145.626L50.6414 161.072C50.5276 161.175 50.3862 161.242 50.2346 161.266C50.0831 161.289 49.928 161.268 49.7884 161.204C49.6488 161.141 49.5307 161.038 49.4489 160.908C49.367 160.778 49.3249 160.627 49.3276 160.473L76.0684 145.027Z" fill="#06033E"/>
<path d="M59.0752 152.762L75.1558 143.468C75.3025 143.363 75.4223 143.224 75.5057 143.064C75.5891 142.904 75.6336 142.727 75.6357 142.546C75.6357 142.192 75.4233 142.026 75.1558 142.184L59.0752 151.478C58.9285 151.583 58.8087 151.722 58.7253 151.882C58.6419 152.042 58.5974 152.219 58.5953 152.4C58.5953 152.747 58.8155 152.912 59.0752 152.762Z" fill="#D4ECFF"/>
<path d="M50.6886 179.165L77.4372 163.719C77.8539 163.421 78.1948 163.029 78.4325 162.574C78.6703 162.12 78.7983 161.616 78.8062 161.104V158.079C78.8062 157.071 78.1925 156.606 77.4372 157.047L50.6886 172.493C50.2719 172.792 49.931 173.184 49.6933 173.638C49.4555 174.092 49.3276 174.596 49.3197 175.109V178.133C49.3275 179.134 49.9333 179.598 50.6886 179.165Z" fill="#0F65B2"/>
<path opacity="0.3" d="M76.0684 163.136C76.4851 162.838 76.826 162.446 77.0637 161.991C77.3015 161.537 77.4294 161.034 77.4373 160.521V157.496C77.4377 157.35 77.4219 157.205 77.3901 157.063C78.1768 156.63 78.759 157.063 78.759 158.095V161.119C78.7512 161.632 78.6232 162.136 78.3854 162.59C78.1477 163.044 77.8068 163.436 77.3901 163.735L50.6414 179.181C50.5276 179.284 50.3862 179.351 50.2346 179.375C50.0831 179.398 49.928 179.377 49.7884 179.313C49.6488 179.25 49.5307 179.147 49.4489 179.017C49.367 178.887 49.3249 178.736 49.3276 178.582L76.0684 163.136Z" fill="#06033E"/>
<path d="M59.0752 170.863L75.1558 161.568C75.3025 161.463 75.4223 161.325 75.5057 161.165C75.5891 161.005 75.6336 160.827 75.6357 160.647C75.6357 160.292 75.4233 160.127 75.1558 160.284L59.0752 169.579C58.9285 169.684 58.8087 169.822 58.7253 169.982C58.6419 170.142 58.5974 170.32 58.5953 170.501C58.5953 170.855 58.8155 171.02 59.0752 170.863Z" fill="#396CAA"/>
<path d="M50.6886 196.912L77.4372 181.465C77.8539 181.167 78.1948 180.775 78.4325 180.321C78.6703 179.867 78.7983 179.363 78.8062 178.85V175.826C78.8062 174.817 78.1925 174.353 77.4372 174.794L50.6886 190.24C50.2719 190.538 49.931 190.93 49.6933 191.384C49.4555 191.839 49.3276 192.342 49.3197 192.855V195.88C49.3275 196.88 49.9333 197.345 50.6886 196.912Z" fill="#0F65B2"/>
<path opacity="0.3" d="M76.0684 180.866C76.4851 180.568 76.826 180.176 77.0637 179.722C77.3015 179.268 77.4294 178.764 77.4373 178.251V175.227C77.4377 175.081 77.4219 174.936 77.3901 174.793C78.1768 174.36 78.759 174.793 78.759 175.825V178.85C78.7512 179.363 78.6232 179.866 78.3854 180.321C78.1477 180.775 77.8068 181.167 77.3901 181.465L50.6414 196.911C50.5276 197.014 50.3862 197.082 50.2346 197.105C50.0831 197.129 49.928 197.107 49.7884 197.044C49.6488 196.98 49.5307 196.877 49.4489 196.747C49.367 196.617 49.3249 196.466 49.3276 196.313L76.0684 180.866Z" fill="#06033E"/>
<path d="M59.0751 188.609L75.1637 179.291C75.3103 179.186 75.4301 179.048 75.5135 178.888C75.5969 178.727 75.6414 178.55 75.6436 178.369C75.6436 178.015 75.4312 177.849 75.1637 178.007L59.083 187.302C58.9364 187.407 58.8165 187.545 58.7332 187.705C58.6498 187.865 58.6052 188.043 58.6031 188.223C58.5952 188.601 58.8155 188.743 59.0751 188.609Z" fill="#D4ECFF"/>
<path opacity="0.5" d="M83.0469 97.5537L80.254 99.1684V110.472L83.0469 108.857V97.5537Z" fill="#173D7A"/>
<path opacity="0.5" d="M83.0469 115.434L80.254 117.049V128.36L83.0469 126.745V115.434Z" fill="#173D7A"/>
<path opacity="0.5" d="M83.0469 133.322L80.254 134.937V146.24L83.0469 144.625V133.322Z" fill="#173D7A"/>
<path opacity="0.5" d="M83.0469 151.21L80.254 152.825V164.128L83.0469 162.514V151.21Z" fill="#173D7A"/>
<path opacity="0.5" d="M83.0469 169.091L80.254 170.706V182.009L83.0469 180.394V169.091Z" fill="#173D7A"/>
<path d="M55.9126 118.16C55.8981 118.231 55.9062 118.304 55.9357 118.371C55.9653 118.437 56.0148 118.492 56.0773 118.528C56.1398 118.565 56.2122 118.581 56.2843 118.574C56.3563 118.567 56.4244 118.538 56.479 118.49C56.6443 118.383 56.7818 118.237 56.8802 118.066C56.9786 117.895 57.0353 117.703 57.0455 117.506C57.06 117.435 57.0519 117.361 57.0223 117.295C56.9928 117.229 56.9433 117.174 56.8807 117.137C56.8182 117.101 56.7459 117.085 56.6738 117.091C56.6017 117.098 56.5336 117.127 56.479 117.175C56.3138 117.283 56.1763 117.428 56.0779 117.599C55.9794 117.77 55.9228 117.962 55.9126 118.16Z" fill="#D4ECFF"/>
<path d="M53.513 119.546C53.4985 119.617 53.5065 119.691 53.5361 119.757C53.5656 119.823 53.6152 119.878 53.6777 119.915C53.7402 119.951 53.8126 119.967 53.8846 119.96C53.9567 119.954 54.0248 119.924 54.0794 119.877C54.2446 119.769 54.3821 119.624 54.4805 119.452C54.579 119.281 54.6356 119.089 54.6458 118.892C54.6603 118.821 54.6522 118.747 54.6227 118.681C54.5931 118.615 54.5436 118.56 54.4811 118.523C54.4186 118.487 54.3462 118.471 54.2741 118.478C54.2021 118.484 54.134 118.514 54.0794 118.561C53.9141 118.669 53.7767 118.814 53.6782 118.986C53.5798 119.157 53.5232 119.349 53.513 119.546Z" fill="#396CAA"/>
<path d="M51.1135 120.932C51.099 121.003 51.1071 121.077 51.1367 121.143C51.1662 121.209 51.2157 121.264 51.2782 121.301C51.3408 121.337 51.4131 121.353 51.4852 121.347C51.5573 121.34 51.6254 121.31 51.68 121.263C51.8452 121.155 51.9827 121.01 52.0811 120.839C52.1796 120.668 52.2362 120.476 52.2464 120.278C52.2609 120.207 52.2528 120.134 52.2233 120.067C52.1937 120.001 52.1442 119.946 52.0817 119.91C52.0192 119.873 51.9468 119.857 51.8747 119.864C51.8027 119.871 51.7346 119.9 51.68 119.947C51.5147 120.055 51.3772 120.201 51.2788 120.372C51.1804 120.543 51.1237 120.735 51.1135 120.932Z" fill="#D4ECFF"/>
<path d="M55.9126 136.04C55.8981 136.111 55.9062 136.184 55.9357 136.25C55.9653 136.317 56.0148 136.372 56.0773 136.408C56.1398 136.445 56.2122 136.461 56.2843 136.454C56.3563 136.447 56.4244 136.418 56.479 136.37C56.6443 136.263 56.7818 136.117 56.8802 135.946C56.9786 135.775 57.0353 135.583 57.0455 135.386C57.06 135.315 57.0519 135.241 57.0223 135.175C56.9928 135.109 56.9433 135.053 56.8807 135.017C56.8182 134.98 56.7459 134.964 56.6738 134.971C56.6017 134.978 56.5336 135.007 56.479 135.055C56.3138 135.163 56.1763 135.308 56.0779 135.479C55.9794 135.65 55.9228 135.842 55.9126 136.04Z" fill="#396CAA"/>
<path d="M53.513 137.426C53.4985 137.497 53.5065 137.571 53.5361 137.637C53.5656 137.703 53.6152 137.759 53.6777 137.795C53.7402 137.832 53.8126 137.848 53.8846 137.841C53.9567 137.834 54.0248 137.805 54.0794 137.757C54.2446 137.649 54.3821 137.504 54.4805 137.333C54.579 137.162 54.6356 136.97 54.6458 136.772C54.6603 136.701 54.6522 136.628 54.6227 136.562C54.5931 136.495 54.5436 136.44 54.4811 136.404C54.4186 136.367 54.3462 136.351 54.2741 136.358C54.2021 136.365 54.134 136.394 54.0794 136.442C53.9141 136.549 53.7767 136.695 53.6782 136.866C53.5798 137.037 53.5232 137.229 53.513 137.426Z" fill="#D4ECFF"/>
<path d="M51.1135 138.812C51.099 138.883 51.1071 138.957 51.1367 139.023C51.1662 139.09 51.2157 139.145 51.2782 139.181C51.3408 139.218 51.4131 139.234 51.4852 139.227C51.5573 139.22 51.6254 139.191 51.68 139.143C51.8452 139.036 51.9827 138.89 52.0811 138.719C52.1796 138.548 52.2362 138.356 52.2464 138.159C52.2609 138.088 52.2528 138.014 52.2233 137.948C52.1937 137.882 52.1442 137.826 52.0817 137.79C52.0192 137.753 51.9468 137.737 51.8747 137.744C51.8027 137.751 51.7346 137.78 51.68 137.828C51.5147 137.936 51.3772 138.081 51.2788 138.252C51.1804 138.423 51.1237 138.615 51.1135 138.812Z" fill="white"/>
<path d="M55.9126 154.085C55.8981 154.156 55.9062 154.23 55.9357 154.296C55.9653 154.362 56.0148 154.418 56.0773 154.454C56.1398 154.491 56.2122 154.507 56.2843 154.5C56.3563 154.493 56.4244 154.464 56.479 154.416C56.6443 154.308 56.7818 154.163 56.8802 153.992C56.9786 153.821 57.0353 153.629 57.0455 153.432C57.06 153.361 57.0519 153.287 57.0223 153.221C56.9928 153.155 56.9433 153.099 56.8807 153.063C56.8182 153.026 56.7459 153.01 56.6738 153.017C56.6017 153.024 56.5336 153.053 56.479 153.101C56.3138 153.209 56.1763 153.354 56.0779 153.525C55.9794 153.696 55.9228 153.888 55.9126 154.085Z" fill="white"/>
<path d="M53.513 155.433C53.4985 155.504 53.5065 155.577 53.5361 155.644C53.5656 155.71 53.6152 155.765 53.6777 155.801C53.7402 155.838 53.8126 155.854 53.8846 155.847C53.9567 155.84 54.0248 155.811 54.0794 155.763C54.2446 155.656 54.3821 155.51 54.4805 155.339C54.579 155.168 54.6356 154.976 54.6458 154.779C54.6603 154.708 54.6522 154.634 54.6227 154.568C54.5931 154.502 54.5436 154.447 54.4811 154.41C54.4186 154.373 54.3462 154.358 54.2741 154.364C54.2021 154.371 54.134 154.4 54.0794 154.448C53.9141 154.556 53.7767 154.701 53.6782 154.872C53.5798 155.043 53.5232 155.235 53.513 155.433Z" fill="#396CAA"/>
<path d="M51.1135 156.819C51.099 156.89 51.1071 156.964 51.1367 157.03C51.1662 157.096 51.2157 157.151 51.2782 157.188C51.3408 157.224 51.4131 157.24 51.4852 157.233C51.5573 157.226 51.6254 157.197 51.68 157.15C51.8452 157.042 51.9827 156.896 52.0811 156.725C52.1796 156.554 52.2362 156.362 52.2464 156.165C52.2609 156.094 52.2528 156.02 52.2233 155.954C52.1937 155.888 52.1442 155.833 52.0817 155.796C52.0192 155.76 51.9468 155.744 51.8747 155.751C51.8027 155.757 51.7346 155.787 51.68 155.834C51.5147 155.942 51.3772 156.087 51.2788 156.258C51.1804 156.43 51.1237 156.622 51.1135 156.819Z" fill="white"/>
<path d="M55.9126 171.792C55.8981 171.863 55.9062 171.937 55.9357 172.003C55.9653 172.069 56.0148 172.125 56.0773 172.161C56.1398 172.198 56.2122 172.214 56.2843 172.207C56.3563 172.2 56.4244 172.171 56.479 172.123C56.6443 172.015 56.7818 171.87 56.8802 171.699C56.9786 171.528 57.0353 171.336 57.0455 171.139C57.06 171.068 57.0519 170.994 57.0223 170.928C56.9928 170.862 56.9433 170.806 56.8807 170.77C56.8182 170.733 56.7459 170.717 56.6738 170.724C56.6017 170.731 56.5336 170.76 56.479 170.808C56.3138 170.916 56.1763 171.061 56.0779 171.232C55.9794 171.403 55.9228 171.595 55.9126 171.792Z" fill="white"/>
<path d="M53.513 173.179C53.4985 173.25 53.5065 173.323 53.5361 173.39C53.5656 173.456 53.6152 173.511 53.6777 173.547C53.7402 173.584 53.8126 173.6 53.8846 173.593C53.9567 173.586 54.0248 173.557 54.0794 173.51C54.2446 173.402 54.3821 173.256 54.4805 173.085C54.579 172.914 54.6356 172.722 54.6458 172.525C54.6603 172.454 54.6522 172.38 54.6227 172.314C54.5931 172.248 54.5436 172.193 54.4811 172.156C54.4186 172.12 54.3462 172.104 54.2741 172.11C54.2021 172.117 54.134 172.146 54.0794 172.194C53.9141 172.302 53.7767 172.447 53.6782 172.618C53.5798 172.789 53.5232 172.981 53.513 173.179Z" fill="#D4ECFF"/>
<path d="M51.1135 174.565C51.099 174.636 51.1071 174.71 51.1367 174.776C51.1662 174.842 51.2157 174.897 51.2782 174.934C51.3408 174.97 51.4131 174.986 51.4852 174.979C51.5573 174.973 51.6254 174.943 51.68 174.896C51.8452 174.788 51.9827 174.643 52.0811 174.471C52.1796 174.3 52.2362 174.108 52.2464 173.911C52.2609 173.84 52.2528 173.766 52.2233 173.7C52.1937 173.634 52.1442 173.579 52.0817 173.542C52.0192 173.506 51.9468 173.49 51.8747 173.497C51.8027 173.503 51.7346 173.533 51.68 173.58C51.5147 173.688 51.3772 173.833 51.2788 174.005C51.1804 174.176 51.1237 174.368 51.1135 174.565Z" fill="#D4ECFF"/>
<path d="M55.9126 189.783C55.8981 189.854 55.9062 189.927 55.9357 189.994C55.9653 190.06 56.0148 190.115 56.0773 190.151C56.1398 190.188 56.2122 190.204 56.2843 190.197C56.3563 190.19 56.4244 190.161 56.479 190.113C56.6443 190.006 56.7818 189.86 56.8802 189.689C56.9786 189.518 57.0353 189.326 57.0455 189.129C57.06 189.058 57.0519 188.984 57.0223 188.918C56.9928 188.852 56.9433 188.797 56.8807 188.76C56.8182 188.724 56.7459 188.708 56.6738 188.714C56.6017 188.721 56.5336 188.75 56.479 188.798C56.3138 188.906 56.1763 189.051 56.0779 189.222C55.9794 189.393 55.9228 189.585 55.9126 189.783Z" fill="white"/>
<path d="M53.513 191.169C53.4985 191.24 53.5065 191.314 53.5361 191.38C53.5656 191.446 53.6152 191.502 53.6777 191.538C53.7402 191.575 53.8126 191.591 53.8846 191.584C53.9567 191.577 54.0248 191.548 54.0794 191.5C54.2446 191.392 54.3821 191.247 54.4805 191.076C54.579 190.905 54.6356 190.713 54.6458 190.516C54.6603 190.445 54.6522 190.371 54.6227 190.305C54.5931 190.239 54.5436 190.183 54.4811 190.147C54.4186 190.11 54.3462 190.094 54.2741 190.101C54.2021 190.108 54.134 190.137 54.0794 190.185C53.9141 190.293 53.7767 190.438 53.6782 190.609C53.5798 190.78 53.5232 190.972 53.513 191.169Z" fill="#396CAA"/>
<path d="M51.1135 192.556C51.099 192.627 51.1071 192.7 51.1367 192.767C51.1662 192.833 51.2157 192.888 51.2782 192.924C51.3408 192.961 51.4131 192.977 51.4852 192.97C51.5573 192.963 51.6254 192.934 51.68 192.886C51.8452 192.779 51.9827 192.633 52.0811 192.462C52.1796 192.291 52.2362 192.099 52.2464 191.902C52.2609 191.831 52.2528 191.757 52.2233 191.691C52.1937 191.625 52.1442 191.57 52.0817 191.533C52.0192 191.497 51.9468 191.481 51.8747 191.487C51.8027 191.494 51.7346 191.523 51.68 191.571C51.5147 191.679 51.3772 191.824 51.2788 191.995C51.1804 192.166 51.1237 192.358 51.1135 192.556Z" fill="#D4ECFF"/>
<path d="M38.8408 197.739V117.711L38.6756 117.616L5.27119 98.3101V178.33L5.43642 178.425L38.8408 197.739ZM38.1799 118.097V196.62L5.92419 177.984V99.4522L38.1799 118.097Z" fill="#173D7A"/>
<path d="M13.9487 134.315L28.8965 142.979C29.9035 143.562 30.7217 142.979 30.7217 141.601V133.275C30.7101 132.592 30.5391 131.922 30.2221 131.317C29.9051 130.713 29.4511 130.191 28.8965 129.793L13.9487 121.129C12.9417 120.546 12.1235 121.129 12.1235 122.507V130.825C12.1338 131.509 12.3043 132.181 12.6213 132.788C12.9383 133.394 13.393 133.917 13.9487 134.315Z" fill="#0F65B2"/>
<path d="M13.5475 121.003C13.4541 121.271 13.4088 121.554 13.4137 121.838V130.156C13.4253 130.839 13.5964 131.509 13.9133 132.114C14.2303 132.718 14.6843 133.24 15.239 133.637L30.1867 142.302C30.3011 142.368 30.4224 142.421 30.5486 142.459C30.5011 142.628 30.4126 142.782 30.2912 142.909C30.1697 143.035 30.0189 143.129 29.8523 143.183C29.6856 143.237 29.5083 143.248 29.3361 143.217C29.1638 143.186 29.002 143.112 28.865 143.003L13.9172 134.338C13.3626 133.941 12.9086 133.419 12.5916 132.815C12.2747 132.21 12.1036 131.54 12.0921 130.857V122.515C12.1235 121.334 12.7608 120.72 13.5475 121.003Z" fill="#5793CE"/>
<path d="M16.6943 129.305C16.646 129.263 16.5857 129.236 16.5218 129.23C16.4578 129.224 16.3935 129.238 16.3379 129.27C16.2823 129.302 16.2382 129.351 16.2118 129.409C16.1854 129.468 16.178 129.534 16.1907 129.597V131.487C16.201 131.661 16.2519 131.83 16.3393 131.98C16.4268 132.131 16.5484 132.259 16.6943 132.353C16.7425 132.396 16.8028 132.422 16.8667 132.429C16.9307 132.435 16.995 132.421 17.0506 132.389C17.1062 132.357 17.1503 132.308 17.1767 132.249C17.2031 132.191 17.2105 132.125 17.1978 132.062V130.172C17.1876 129.998 17.1367 129.829 17.0492 129.678C16.9617 129.528 16.8402 129.4 16.6943 129.305Z" fill="white"/>
<path d="M18.8341 130.786C18.7859 130.744 18.7256 130.717 18.6617 130.711C18.5978 130.705 18.5335 130.719 18.4778 130.751C18.4222 130.783 18.3781 130.832 18.3517 130.89C18.3253 130.949 18.3179 131.015 18.3307 131.078V132.732C18.3409 132.906 18.3918 133.074 18.4792 133.225C18.5667 133.376 18.6882 133.503 18.8341 133.598C18.8824 133.641 18.9427 133.667 19.0066 133.673C19.0706 133.68 19.1349 133.666 19.1905 133.634C19.2461 133.601 19.2902 133.552 19.3166 133.494C19.343 133.435 19.3504 133.37 19.3377 133.307V131.653C19.3275 131.479 19.2766 131.31 19.1891 131.159C19.1016 131.009 18.98 130.881 18.8341 130.786Z" fill="#D4ECFF"/>
<path d="M20.9821 130.179C20.9339 130.137 20.8736 130.11 20.8096 130.104C20.7457 130.098 20.6814 130.112 20.6258 130.144C20.5701 130.176 20.526 130.225 20.4996 130.283C20.4732 130.342 20.4659 130.408 20.4786 130.471V133.976C20.4888 134.15 20.5397 134.319 20.6272 134.469C20.7146 134.62 20.8362 134.747 20.9821 134.842C21.0303 134.885 21.0906 134.911 21.1546 134.917C21.2185 134.924 21.2828 134.91 21.3384 134.878C21.3941 134.845 21.4382 134.797 21.4646 134.738C21.491 134.679 21.4983 134.614 21.4856 134.551V131.046C21.4754 130.872 21.4245 130.703 21.337 130.552C21.2496 130.402 21.128 130.274 20.9821 130.179Z" fill="#BBEAFF"/>
<path d="M23.1298 129.4C23.0816 129.357 23.0213 129.331 22.9573 129.325C22.8934 129.318 22.8291 129.332 22.7735 129.364C22.7179 129.397 22.6737 129.446 22.6473 129.504C22.6209 129.563 22.6136 129.628 22.6263 129.691V135.205C22.6365 135.379 22.6874 135.548 22.7749 135.698C22.8623 135.849 22.9839 135.977 23.1298 136.072C23.178 136.114 23.2384 136.14 23.3023 136.147C23.3662 136.153 23.4305 136.139 23.4861 136.107C23.5418 136.075 23.5859 136.026 23.6123 135.967C23.6387 135.909 23.6461 135.843 23.6333 135.78V130.266C23.6231 130.093 23.5722 129.924 23.4848 129.773C23.3973 129.622 23.2757 129.495 23.1298 129.4Z" fill="#D4ECFF"/>
<path d="M25.2775 131.243C25.2293 131.2 25.169 131.174 25.1051 131.168C25.0411 131.161 24.9768 131.175 24.9212 131.207C24.8656 131.239 24.8214 131.288 24.795 131.347C24.7686 131.406 24.7613 131.471 24.774 131.534V136.481C24.7842 136.655 24.8351 136.824 24.9226 136.974C25.0101 137.125 25.1316 137.252 25.2775 137.347C25.3257 137.39 25.3861 137.416 25.45 137.422C25.5139 137.429 25.5782 137.415 25.6338 137.383C25.6895 137.35 25.7336 137.302 25.76 137.243C25.7864 137.184 25.7938 137.119 25.781 137.056V132.109C25.7708 131.935 25.7199 131.766 25.6325 131.616C25.545 131.465 25.4234 131.337 25.2775 131.243Z" fill="#D4ECFF"/>
<path d="M27.4252 134.724C27.377 134.682 27.3167 134.655 27.2527 134.649C27.1888 134.643 27.1245 134.657 27.0689 134.689C27.0132 134.721 26.9691 134.77 26.9427 134.828C26.9163 134.887 26.909 134.952 26.9217 135.016V137.702C26.9319 137.875 26.9828 138.044 27.0703 138.195C27.1577 138.345 27.2793 138.473 27.4252 138.568C27.4734 138.61 27.5338 138.637 27.5977 138.643C27.6616 138.649 27.7259 138.636 27.7816 138.603C27.8372 138.571 27.8813 138.522 27.9077 138.464C27.9341 138.405 27.9415 138.34 27.9287 138.277V135.591C27.9185 135.417 27.8676 135.248 27.7802 135.097C27.6927 134.947 27.5711 134.819 27.4252 134.724Z" fill="white"/>
<path d="M17.1741 128.352C17.1879 128.414 17.1813 128.479 17.1555 128.538C17.1297 128.596 17.0859 128.645 17.0305 128.676C16.9751 128.708 16.9112 128.721 16.8478 128.714C16.7845 128.706 16.7251 128.679 16.6785 128.635C16.5342 128.541 16.4141 128.415 16.328 128.266C16.2419 128.116 16.1921 127.949 16.1828 127.777C16.1691 127.715 16.1756 127.649 16.2014 127.591C16.2273 127.533 16.2711 127.484 16.3264 127.453C16.3818 127.421 16.4458 127.408 16.5091 127.415C16.5725 127.422 16.6318 127.45 16.6785 127.493C16.8227 127.587 16.9428 127.714 17.029 127.863C17.1151 128.012 17.1648 128.18 17.1741 128.352Z" fill="#BBEAFF"/>
<path d="M17.1741 126.572C17.1879 126.634 17.1813 126.699 17.1555 126.757C17.1297 126.816 17.0859 126.864 17.0305 126.896C16.9751 126.928 16.9112 126.941 16.8478 126.934C16.7845 126.926 16.7251 126.899 16.6785 126.855C16.5342 126.761 16.4141 126.635 16.328 126.485C16.2419 126.336 16.1921 126.169 16.1828 125.997C16.1686 125.932 16.176 125.865 16.2037 125.806C16.2315 125.746 16.278 125.697 16.3362 125.667C16.3944 125.636 16.461 125.626 16.5257 125.637C16.5904 125.648 16.6496 125.681 16.6942 125.729C16.8335 125.823 16.9493 125.948 17.0325 126.094C17.1158 126.24 17.1642 126.404 17.1741 126.572Z" fill="white"/>
<defs>
<linearGradient id="paint0_linear" x1="21.5201" y1="168.194" x2="-22.1129" y2="92.3646" gradientUnits="userSpaceOnUse">
<stop stop-color="#2D0979"/>
<stop offset="1" stop-color="#5B04F7"/>
</linearGradient>
<linearGradient id="paint1_linear" x1="87.6448" y1="137.112" x2="51.8316" y2="131.529" gradientUnits="userSpaceOnUse">
<stop stop-color="#3919BB"/>
<stop offset="1" stop-color="#6507FA"/>
</linearGradient>
<linearGradient id="paint2_linear" x1="87.6448" y1="137.112" x2="51.8316" y2="131.529" gradientUnits="userSpaceOnUse">
<stop stop-color="#3919BB"/>
<stop offset="1" stop-color="#6507FA"/>
</linearGradient>
</defs>
</svg>
