<svg width="258" height="225" viewBox="0 0 258 225" fill="none" xmlns="http://www.w3.org/2000/svg">
<g clip-path="url(#clip0)">
<path d="M45.267 203.929C93.9329 232.028 172.835 232.028 221.508 203.929C270.181 175.831 270.174 130.276 221.508 102.185C172.842 74.0931 93.9401 74.0859 45.267 102.185C-3.40609 130.284 -3.39888 175.831 45.267 203.929Z" fill="#CACEDC" style="mix-blend-mode:lighten"/>
<path opacity="0.5" d="M237.347 98.7138V73.1478C236.756 64.4309 233.306 56.1254 227.519 48.5342V74.1003C233.292 81.6915 236.756 89.9753 237.347 98.7138ZM224.56 70.5068V44.9407C222.451 42.5739 220.19 40.3467 217.791 38.2732V63.8392C220.19 65.9127 222.451 68.1399 224.56 70.5068ZM213.599 60.4045V34.8673C210.818 32.7603 207.927 30.8021 204.939 29.0007V54.5668C207.928 56.3705 210.818 58.3312 213.599 60.4405V60.4045ZM199.167 58.7953V18.1479C222.72 30.6459 237.412 48.5198 237.412 68.2915V108.975C237.412 89.2032 222.706 71.3294 199.167 58.8314V58.7953Z" fill="#BBEAFF"/>
<path opacity="0.5" d="M156.1 39.2977V31.9519C154.301 31.6056 152.485 31.2856 150.652 30.9922V38.338C152.485 38.6315 154.301 38.9514 156.1 39.2977ZM146.301 30.3428V23.8484C144.439 23.5935 142.56 23.3529 140.665 23.1268V29.6212C142.56 29.828 144.439 30.0686 146.301 30.3428ZM165.539 34.0229V25.1834C163.812 24.7552 162.066 24.3511 160.3 23.9711V32.8323C162.066 33.2123 163.812 33.6164 165.539 34.0445V34.0229ZM136.162 29.2099V16.1202C134.238 15.9566 132.313 15.8171 130.389 15.7016V28.7913C132.337 28.902 134.262 29.0415 136.162 29.2099ZM115.112 28.4883V15.3841C113.14 15.413 111.18 15.4707 109.231 15.5573V28.6398C111.18 28.5532 113.14 28.4955 115.112 28.4666V28.4883ZM104.656 28.9068V12.4328C102.732 12.5579 100.808 12.7118 98.8833 12.8946V29.3542C100.784 29.1762 102.708 29.0222 104.656 28.8924V28.9068ZM125.742 28.5893V9.74849C123.981 9.68595 122.208 9.64507 120.424 9.62582H119.789V28.4522H120.395C122.175 28.4522 123.947 28.4931 125.713 28.5749L125.742 28.5893ZM94.4165 29.816V6.27041C92.5403 6.4917 90.6785 6.73223 88.8312 6.99201V30.5448C90.6737 30.2754 92.5355 30.0349 94.4165 29.8232V29.816ZM76.8739 4.25717C91.1822 1.25695 105.776 -0.165871 120.395 0.0142C140.838 0.216246 159.99 3.36961 176.645 8.73826V49.4217C159.99 44.0458 140.838 40.8997 120.395 40.6976C105.769 40.516 91.1677 41.9388 76.8523 44.9406V4.25717H76.8739Z" fill="#BBEAFF"/>
<path opacity="0.5" d="M7.65654 59.4299V51.2398C5.28415 54.6213 3.34473 58.2867 1.8836 62.1503V86.4103C3.34473 82.5467 5.28415 78.8813 7.65654 75.4998V67.3097C8.36373 66.2947 9.10939 65.2917 9.89355 64.3007V68.7168C11.4214 66.7972 13.0548 64.9639 14.7861 63.2255V58.8093C22.4569 51.0883 32.6822 44.3125 44.7838 38.8573V30.9558C42.6285 31.918 40.5358 32.9306 38.5057 33.9937C37.4906 34.5181 36.49 35.0545 35.5038 35.6029C28.207 39.5618 21.4724 44.4785 15.4789 50.2224L14.7573 50.944V46.5278C13.026 48.2663 11.3926 50.0995 9.86469 52.0191V56.4353C9.08053 57.4263 8.33485 58.4293 7.62767 59.4443L7.65654 59.4299ZM0.288818 59.1701C4.91439 39.3191 24.362 22.2246 51.9494 11.5811V52.2645C24.362 62.908 4.91439 80.0025 0.288818 99.8896V59.1774V59.1701Z" fill="#BBEAFF"/>
<path opacity="0.75" d="M14.7932 50.9371L15.5148 50.2155V58.0953C19.8876 53.8644 24.6881 50.0991 29.8389 46.8601C31.6718 45.6959 33.5721 44.5678 35.5397 43.4758V35.6321C36.5018 35.0837 37.5025 34.5473 38.5416 34.0229V41.9027C40.5718 40.8492 42.6644 39.8366 44.8197 38.8648C32.7181 44.3201 22.5 51.0958 14.822 58.8169V50.9371H14.7932ZM7.66357 59.4303C8.37076 58.4152 9.11644 57.4122 9.90059 56.4212V64.301C9.11644 65.292 8.37076 66.295 7.66357 67.3101V59.4303Z" fill="#BBEAFF"/>
<path opacity="0.88" d="M38.5056 34.0228C40.5358 32.9692 42.6285 31.9566 44.7837 30.9849V38.8935C42.6285 39.8557 40.5358 40.8683 38.5056 41.9314V34.0228Z" fill="#BBEAFF"/>
<path opacity="0.88" d="M15.4788 50.2518C19.8516 46.0209 24.652 42.2556 29.8029 39.0166V46.8964C24.652 50.1354 19.8516 53.9007 15.4788 58.1316V50.2518Z" fill="#BBEAFF"/>
<path opacity="0.97" d="M29.8101 39.0166C31.643 37.8524 33.5432 36.7243 35.5108 35.6323V43.5121C33.5432 44.6041 31.643 45.7322 29.8101 46.8964V39.0166Z" fill="#BBEAFF"/>
<path opacity="0.75" d="M1.87622 62.1581C3.33735 58.2944 5.27677 54.6291 7.64916 51.2476V59.4376C5.27677 62.8191 3.33735 66.4845 1.87622 70.3481V78.2207C3.33735 74.3571 5.27677 70.6917 7.64916 67.3102V75.5003C5.27677 78.8818 3.33735 82.5472 1.87622 86.4108V62.1581Z" fill="#BBEAFF"/>
<path opacity="0.88" d="M1.87622 70.348C3.33735 66.4844 5.27677 62.819 7.64916 59.4375V67.3173C5.27677 70.6988 3.33735 74.3642 1.87622 78.2278V70.348Z" fill="#BBEAFF"/>
<path opacity="0.75" d="M9.89355 64.3009C11.4215 62.3813 13.0548 60.548 14.7861 58.8096V63.2257C13.0548 64.9641 11.4215 66.7974 9.89355 68.717V64.3009ZM9.89355 52.0338C11.4214 50.1142 13.0548 48.2809 14.7861 46.5425V50.9586C13.0548 52.697 11.4214 54.5303 9.89355 56.45V52.0338Z" fill="#BBEAFF"/>
<path opacity="0.88" d="M9.89355 56.421C11.4214 54.5014 13.0548 52.6681 14.7861 50.9297V58.8095C13.0548 60.5479 11.4215 62.3812 9.89355 64.3008V56.421Z" fill="#BBEAFF"/>
<path opacity="0.75" d="M227.519 48.5342C233.292 56.1253 236.756 64.4092 237.347 73.1477V98.7138C236.756 89.9969 233.306 81.6914 227.519 74.1002V48.5342Z" fill="#BBEAFF"/>
<path d="M217.813 38.2729C220.212 40.3464 222.473 42.5736 224.582 44.9405V70.5065C222.473 68.1397 220.212 65.9125 217.813 63.839V38.2729Z" fill="#BBEAFF"/>
<path opacity="0.75" d="M204.968 28.9932C207.956 30.7945 210.847 32.7528 213.628 34.8597V60.4258C210.847 58.3164 207.956 56.3558 204.968 54.552V28.9932Z" fill="#BBEAFF"/>
<path opacity="0.75" d="M160.293 23.9424C162.059 24.3224 163.805 24.7265 165.532 25.1547V34.0158C163.805 33.5877 162.059 33.1836 160.293 32.8036V23.9424Z" fill="#42E8E0"/>
<path opacity="0.75" d="M150.652 30.9561C152.485 31.2543 154.301 31.5742 156.1 31.9158V39.2616C154.301 38.9152 152.485 38.5953 150.652 38.3019V30.9561Z" fill="#42E8E0"/>
<path opacity="0.75" d="M140.658 23.1411C142.553 23.348 144.432 23.5885 146.294 23.8627V30.357C144.432 30.1021 142.553 29.8616 140.658 29.6355V23.1411Z" fill="#BBEAFF"/>
<path opacity="0.75" d="M130.353 15.7017C132.301 15.8123 134.226 15.9518 136.126 16.1202V29.2027C134.202 29.0391 132.277 28.8996 130.353 28.7842V15.7017Z" fill="#BBEAFF"/>
<path opacity="0.75" d="M119.781 9.62598H120.395C122.175 9.62598 123.948 9.66687 125.713 9.74865V28.575C123.952 28.5125 122.18 28.4716 120.395 28.4523H119.76V9.62598H119.781Z" fill="#BBEAFF"/>
<path d="M109.224 15.5575C111.172 15.4709 113.133 15.4131 115.105 15.3843V28.4668C113.133 28.4956 111.172 28.5534 109.224 28.6399V15.5575Z" fill="#BBEAFF"/>
<path opacity="0.75" d="M98.905 12.9164C100.805 12.7384 102.73 12.5845 104.678 12.4546V28.9141C102.754 29.0392 100.829 29.1931 98.905 29.3759V12.9164Z" fill="#BBEAFF"/>
<path d="M88.8672 6.99943C90.7097 6.73003 92.5715 6.4895 94.4525 6.27783V29.8306C92.5763 30.0519 90.7145 30.2925 88.8672 30.5522V6.99943Z" fill="#BBEAFF"/>
<path d="M153.842 188.076C155.862 188.076 157.5 186.438 157.5 184.417C157.5 182.397 155.862 180.759 153.842 180.759C151.821 180.759 150.183 182.397 150.183 184.417C150.183 186.438 151.821 188.076 153.842 188.076Z" fill="#24126A"/>
<path d="M189.858 147.227C191.878 147.227 193.516 145.589 193.516 143.568C193.516 141.548 191.878 139.91 189.858 139.91C187.837 139.91 186.199 141.548 186.199 143.568C186.199 145.589 187.837 147.227 189.858 147.227Z" fill="#24126A"/>
<path d="M197.723 175.145C199.744 175.145 201.382 173.507 201.382 171.487C201.382 169.466 199.744 167.828 197.723 167.828C195.703 167.828 194.065 169.466 194.065 171.487C194.065 173.507 195.703 175.145 197.723 175.145Z" fill="#24126A"/>
<path d="M118.713 168.253C120.734 168.253 122.372 166.616 122.372 164.595C122.372 162.574 120.734 160.937 118.713 160.937C116.693 160.937 115.055 162.574 115.055 164.595C115.055 166.616 116.693 168.253 118.713 168.253Z" fill="#24126A"/>
<path d="M141.322 143.553C143.342 143.553 144.98 141.915 144.98 139.895C144.98 137.874 143.342 136.236 141.322 136.236C139.301 136.236 137.663 137.874 137.663 139.895C137.663 141.915 139.301 143.553 141.322 143.553Z" fill="#24126A"/>
<path d="M159.037 153.432L118.836 161.175C118.671 161.19 118.508 161.214 118.345 161.247V160.98L116.412 160.489V162.77C116.399 162.858 116.399 162.948 116.412 163.037C116.657 163.931 118.107 164.537 119.652 164.393L159.853 156.65L159.037 153.432Z" fill="url(#paint0_linear)"/>
<path d="M192.708 139.643L191.481 140.674C190.869 140.451 190.217 140.36 189.567 140.409C188.918 140.458 188.286 140.644 187.714 140.956L159.081 153.418L163.086 155.734L191.719 143.272C191.99 143.157 192.223 142.97 192.394 142.73C192.565 142.491 192.666 142.209 192.686 141.916V139.643H192.708Z" fill="#0F65B2"/>
<path d="M144.035 136.865C143.313 136.056 141.618 135.739 140.225 136.143C140.067 136.19 139.913 136.248 139.763 136.316C139.694 136.199 139.612 136.09 139.518 135.991C139.257 135.767 138.977 135.566 138.681 135.393V137.666C138.69 137.934 138.795 138.19 138.977 138.387L157.457 155.258L162.508 153.772L144.035 136.865Z" fill="url(#paint1_linear)"/>
<path d="M200.365 167.619L199.686 167.857L199.297 168.665C199.142 168.593 198.983 168.533 198.82 168.484L162.552 153.75L159.976 156.636L196.244 171.371C197.637 171.782 199.347 171.457 200.054 170.649C200.247 170.444 200.353 170.173 200.35 169.892V167.568L200.365 167.619Z" fill="#0F65B2"/>
<path d="M157.472 155.25L151.518 180.766L151.071 180.542V182.902C151.15 183.624 152.117 184.295 153.452 184.417C154.996 184.562 156.447 183.948 156.692 183.061L163.057 155.784L157.472 155.25Z" fill="#0F65B2"/>
<path d="M198.82 166.219L165.185 152.552L191.727 141.006C192.917 140.285 193.047 139.282 192.015 138.683L191.734 138.524C191.098 138.236 190.402 138.1 189.704 138.129C189.006 138.158 188.325 138.35 187.714 138.69L161.173 150.236L144.035 134.584C143.313 133.776 141.617 133.459 140.225 133.863C138.832 134.274 138.276 135.255 138.984 136.027L156.122 151.672L118.836 158.888C117.292 159.032 116.238 159.869 116.483 160.756C116.729 161.644 118.179 162.257 119.724 162.113L157.01 154.897L151.107 180.196C150.861 181.091 151.915 181.928 153.459 182.065C155.003 182.202 156.454 181.596 156.699 180.708L162.602 155.409L196.237 169.076C197.629 169.488 199.34 169.163 200.047 168.355C200.754 167.547 200.213 166.616 198.82 166.219ZM161.585 152.588L160.957 153.31L159.593 153.187L159.376 152.4L160.603 152.04L161.585 152.588Z" fill="#5793CE"/>
<path d="M160.423 154.68C159.646 154.68 158.901 154.372 158.351 153.822C157.802 153.273 157.493 152.528 157.493 151.751V117.792H163.36V151.751C163.36 152.136 163.284 152.518 163.136 152.873C162.989 153.229 162.772 153.553 162.499 153.825C162.226 154.097 161.903 154.313 161.546 154.459C161.19 154.606 160.808 154.681 160.423 154.68Z" fill="#24126A"/>
<path opacity="0.5" d="M115.221 91.6207L114.607 91.2671C112.327 89.9538 112.616 87.6591 115.242 86.1366L133.781 75.4353C136.407 73.92 140.391 73.754 142.664 75.0673L143.277 75.4209C145.557 76.7342 145.269 79.0289 142.642 80.5514L124.104 91.2527C121.477 92.768 117.508 92.934 115.221 91.6207Z" fill="#BBEAFF"/>
<path opacity="0.5" d="M144.821 77.4557C144.754 77.0167 144.58 76.6009 144.315 76.2449C144.049 75.8888 143.7 75.6034 143.299 75.4136L142.685 75.06C140.405 73.7467 136.429 73.9127 133.802 75.428L115.264 86.1292C113.871 86.9374 113.142 87.9621 113.099 88.9435V92.169C113.129 92.6442 113.287 93.1025 113.556 93.4951C113.825 93.8878 114.196 94.2 114.629 94.3987L115.242 94.7523C117.523 96.0656 121.499 95.8996 124.125 94.3843L142.664 83.683C144.013 82.9037 144.742 81.9151 144.829 80.9626V77.4485L144.821 77.4557Z" fill="#BBEAFF"/>
<path d="M154.469 106.557L115.639 128.927C113.713 130.038 112.154 128.862 112.154 126.293C112.154 123.731 113.713 120.751 115.639 119.64L160.12 93.98V95.7335C160.12 99.9187 157.594 104.753 154.469 106.557Z" fill="#515151"/>
<path opacity="0.7" d="M157.327 10.8672C155.978 10.1456 154.239 10.2394 152.348 11.329L151.186 12.0001C146.893 14.4824 143.414 21.1282 143.414 26.8505V103.65L153.726 97.6965V100.135L141.351 110.238L113.208 129.086L152.716 151.455L175.433 133.971L188.371 122.923L196.432 33.0562L157.327 10.8672Z" fill="#BBEAFF"/>
<path d="M128.39 137.622C128.103 136.796 128.047 135.907 128.227 135.052C128.408 134.196 128.818 133.405 129.415 132.766C131.493 130.688 142.404 126.091 143.205 125.6C144.006 125.11 147.924 122.216 147.924 122.216L149.122 119.539C149.122 119.539 126.947 121.704 126.651 122.043C126.355 122.382 116.274 131.424 116.548 131.828C116.823 132.232 123.498 133.834 123.498 133.834L124.797 135.587L128.39 137.622Z" fill="#2D2D2D"/>
<path d="M191.683 33.561L190.522 34.2321C186.228 36.7144 182.75 43.3602 182.75 49.0825V125.867L154.975 141.887C153.048 142.998 151.489 145.978 151.489 148.54C151.489 151.101 153.048 152.285 154.975 151.174L193.805 128.804C196.922 127 199.455 122.165 199.455 117.98V39.4348C199.455 33.7125 195.977 31.0787 191.683 33.561Z" fill="url(#paint2_linear)"/>
<path d="M117.884 154.255C117.884 154.255 112.161 157.957 110.227 160.122C108.293 162.286 104.454 166.71 106.035 168.824C107.615 170.938 112.933 172.114 118.656 166.847C124.378 161.579 122.755 161.262 127.625 158.65C132.496 156.037 133.839 153.194 133.254 151.571C132.67 149.947 130.259 147.075 128.924 147.689C127.589 148.302 117.884 154.255 117.884 154.255Z" fill="#160A5B"/>
<path d="M145.702 169.668C144.783 171.733 143.744 173.742 142.592 175.686C141.531 177.187 136.4 185.832 139.078 187.823C141.755 189.815 146.835 189.266 150.854 184.901C154.874 180.535 155.761 175.231 156.75 173.492C157.739 171.753 160.206 167.099 159.037 164.415C157.868 161.73 157.594 161.269 157.594 161.269L145.702 169.668Z" fill="#160A5B"/>
<path d="M124.934 105.28C124.934 105.28 107.932 122.086 105.147 130.536C104.841 131.96 104.872 133.435 105.238 134.845C105.604 136.254 106.294 137.559 107.254 138.654C110.537 142.226 117.515 153.887 117.515 153.887C117.515 153.887 122.726 160.186 129.444 155.15C129.444 155.15 132.482 150.293 130.613 147.06C128.744 143.828 123.772 133.516 123.772 133.516C123.772 133.516 134.676 126.019 140.052 124.135C142.865 123.183 145.62 122.062 148.3 120.78C147.414 124.442 145.737 127.866 143.385 130.81C139.453 135.76 132.857 143.72 135.051 149.254C136.452 152.941 138.317 156.435 140.6 159.652C142.664 162.842 144.612 169.488 146.373 170.18C148.134 170.873 156.259 171.667 157.58 166.378C158.9 161.088 154.809 150.798 152.961 147.32C152.961 147.32 174.949 121.956 177.042 119.178C179.134 116.4 131.731 101.016 124.934 105.28Z" fill="#24126A"/>
<path d="M130.62 147.039C128.751 143.806 123.779 133.494 123.779 133.494C123.779 133.494 134.683 125.997 140.059 124.114C142.873 123.161 145.627 122.04 148.307 120.758C150.681 117.26 152.65 113.503 154.174 109.559C141.776 105.951 128.318 103.187 124.926 105.331C126.132 108.303 132.446 108.275 132.446 108.275C132.446 108.275 134.805 114.047 136.371 114.769C137.937 115.491 141.682 114.697 141.682 114.697C141.682 114.697 141.076 115.642 138.406 117.583C135.736 119.524 119.002 133.22 119.002 133.22C119.002 133.22 119.954 133.761 124.407 141.814C128.859 149.867 129.458 155.171 129.458 155.171C129.458 155.171 132.489 150.271 130.62 147.039Z" fill="#160A5B"/>
<path d="M168.202 114.214C158.373 113.276 146.929 113.189 149.505 118.356C150.74 120.873 152.597 123.034 154.9 124.633C157.204 126.233 159.877 127.219 162.667 127.498C162.609 130.716 149.122 146.26 149.122 146.26L152.269 152.371C155.415 158.483 155.018 169.61 155.018 169.61C155.652 169.289 156.209 168.834 156.651 168.277C157.093 167.72 157.41 167.075 157.58 166.385C158.9 161.096 154.809 150.806 152.961 147.328C152.961 147.328 174.949 121.964 177.042 119.185C177.655 118.341 173.924 116.414 168.202 114.214Z" fill="#160A5B"/>
<path d="M107.745 60.6064L110.357 58.5788C110.357 58.5788 124.45 50.7567 129.119 48.2167C131.659 46.8457 134.293 44.3922 136.176 42.4439C137.088 41.4999 138.18 40.7485 139.387 40.2341C140.594 39.7197 141.893 39.4528 143.205 39.4493L167.899 39.3267C167.899 39.3267 170.785 43.9376 171.745 44.8396C172.467 45.5035 179.156 51.1247 183.962 55.7429C186.621 58.2969 188.554 61.5119 189.562 65.0587C192.311 74.7569 192.275 94.2976 192.686 108.268C190.757 108.924 188.785 109.445 186.784 109.826C182.584 110.721 183.103 110.151 183.103 110.151C183.103 110.151 176.804 124.323 168.252 125.694C159.701 127.065 148.191 123.068 146.135 109.646C146.135 109.646 129.473 107.149 124.955 105.316C124.863 105.272 124.781 105.208 124.715 105.129C124.649 105.05 124.601 104.958 124.574 104.859C124.546 104.76 124.541 104.656 124.557 104.554C124.573 104.453 124.61 104.356 124.667 104.27C126.68 101.593 134.199 91.2309 134.914 84.4768C135.743 76.6691 135.484 65.3329 134.87 62.2372C134.87 62.2372 122.307 66.9709 118.273 67.808C118.273 67.808 102.975 84.6211 96.5885 89.196C96.5885 89.196 98.7534 85.754 94.3804 83.4232L107.745 60.6064Z" fill="#0F65B2"/>
<path d="M186.783 109.826L188.53 109.436L187.642 107.69L164.464 105.237L150.926 105.958L146.265 110.331C146.507 111.691 146.877 113.024 147.369 114.314C147.369 114.314 153.142 115.144 155.783 114.574C158.424 114.004 179.077 117.035 179.12 117.042C180.63 114.864 181.955 112.564 183.082 110.165C183.067 110.331 183.32 110.562 186.783 109.826Z" fill="#24126A"/>
<path d="M155.501 101.73C155.491 101.688 155.467 101.65 155.433 101.623C155.399 101.596 155.357 101.58 155.314 101.578C154.195 101.578 146.95 101.333 144.215 100.395C141.242 99.3704 138.096 99.558 137.937 99.7312C137.779 99.9044 132.835 102.004 132.54 102.856C132.244 103.707 131.818 106.233 132.46 107.185C132.804 107.708 133.113 108.253 133.384 108.816L133.896 108.874C134.202 109.489 134.549 110.082 134.935 110.649C135.097 110.852 135.233 111.076 135.339 111.313C135.65 111.991 136.198 113.102 136.429 113.124C137.171 113.274 137.924 113.353 138.681 113.362C138.998 113.283 139.287 112.309 139.157 111.883C139.147 111.857 139.143 111.83 139.145 111.802C139.147 111.775 139.155 111.749 139.169 111.725C139.183 111.701 139.202 111.681 139.225 111.666C139.248 111.651 139.274 111.641 139.301 111.637C141.043 111.382 142.81 111.344 144.562 111.522C147.787 111.818 152.341 109.711 152.752 109.516H152.817L157.363 109.105C157.394 109.102 157.423 109.092 157.45 109.076C157.476 109.06 157.499 109.039 157.516 109.014C157.533 108.988 157.545 108.959 157.55 108.929C157.554 108.898 157.552 108.867 157.544 108.838L155.501 101.73Z" fill="#FCD1C5"/>
<path d="M150.032 53.845C150.032 53.845 146.164 68.0964 150.255 82.7087C150.255 82.7087 165.128 54.9562 166.744 50.4535C168.361 45.9507 168.909 42.7541 167.466 41.1377C166.023 39.5213 152.521 47.8774 152.521 47.8774L150.032 53.845Z" fill="#F0F6FF"/>
<path d="M153.863 76.1928C153.863 76.1928 156.699 67.5337 156.201 64.7195C155.921 63.0926 155.52 61.4887 155.003 59.9209L157.558 57.5613L158.684 59.8992C158.684 59.8992 164.312 55.7717 164.68 55.0068C164.68 55.0068 160.149 58.1169 158.727 58.6148C158.345 57.9882 157.805 57.4731 157.161 57.1211C156.266 56.7459 154.051 59.7766 154.051 59.7766L153.64 65.037L151.417 77.3041L152.189 79.1297L153.863 76.1928Z" fill="#C4CCD6"/>
<path d="M151.374 54.0111C151.374 54.0111 150.84 59.6106 151.302 60.0075C151.763 60.4044 153.466 60.4333 154.304 60.0075C155.141 59.5818 157.19 57.1211 157.19 57.1211C157.19 57.1211 154.65 52.6473 151.374 54.0111Z" fill="#24126A"/>
<path d="M154.405 58.9756C155.339 61.9876 155.362 65.2088 154.47 68.2336C153.566 71.6335 152.893 75.0906 152.456 78.5813L150.248 82.7232C150.248 82.7232 147.491 74.6125 148.393 66.4729C148.798 62.8145 151.59 59.5745 151.59 59.5745L154.405 58.9756Z" fill="#24126A"/>
<path d="M143.082 31.1219C143.082 31.1219 142.397 34.5856 142.649 35.2422C142.902 35.8989 143.775 36.339 143.559 37.6884C143.342 39.0378 144.129 43.0787 144.526 44.4209C144.526 44.4209 144.23 45.8641 144.634 46.3042C145.038 46.7444 145.558 46.7372 145.94 47.4155C146.322 48.0938 146.445 51.5935 147.859 52.7625C148.437 53.2473 149.113 53.6015 149.84 53.8008C150.568 54.0001 151.33 54.0397 152.074 53.9171C152.764 53.6941 153.414 53.3629 154 52.9357L156.165 53.8232C156.165 53.8232 167.228 50.6915 166.881 42.9128V42.0901C167.288 41.5258 167.628 40.9155 167.892 40.2717C168.123 39.5501 169.955 36.3174 169.025 34.9247C169.025 34.9247 173.311 18.0106 160.091 16.9859C146.871 15.9612 144.836 25.2409 143.082 31.1219Z" fill="#FCD1C5"/>
<path d="M166.845 42.92V42.8262C166.404 42.5054 165.868 42.3427 165.323 42.3644C163.807 42.6314 164.161 39.478 164.161 39.478C164.161 39.478 163.879 40.0481 163.107 44.0601C162.335 48.0722 153.993 52.9285 153.993 52.9285L156.158 53.8161C156.158 53.8161 167.192 50.6916 166.845 42.92Z" fill="#E2B1A6"/>
<path d="M143.14 23.7404C141.848 26.4824 141.228 29.7873 143.934 31.9954C143.934 31.9954 146.207 32.616 150.522 30.61C152.876 29.6012 155.525 29.5238 157.933 30.3935C158.289 30.5151 158.597 30.7474 158.811 31.0564C159.025 31.3655 159.135 31.735 159.124 32.1109L159.059 34.5643C159.05 34.8698 159.134 35.1708 159.299 35.4281C159.463 35.6855 159.702 35.8874 159.983 36.0075L161.989 36.859L162.386 39.2041C162.413 39.3661 162.476 39.5201 162.569 39.6554C162.662 39.7907 162.784 39.9038 162.925 39.9871C163.067 40.0703 163.225 40.1215 163.389 40.137C163.552 40.1526 163.717 40.1322 163.872 40.0773L164.377 39.8969C164.377 39.8969 164.673 34.687 168.974 34.9539C168.974 34.9539 172.452 27.4277 168.887 20.5221C165.323 13.6164 155.545 14.1288 153.459 14.9081C150.717 15.9328 151.1 15.7812 149.526 16.7554C146.769 18.4197 144.551 20.8453 143.14 23.7404Z" fill="#AA8383"/>
<path d="M178.319 76.8564C178.319 76.8564 176.313 91.613 175.497 95.7911L169.003 99.2042L180.491 98.4826L178.319 76.8564Z" fill="#24126A"/>
<path d="M168.988 34.9323C169.787 33.0083 170.274 30.9696 170.432 28.8926C167.226 31.4109 163.162 32.5739 159.109 32.1325L159.059 34.5643C159.05 34.8698 159.134 35.1708 159.299 35.4282C159.463 35.6855 159.702 35.8874 159.983 36.0075L161.989 36.859L162.386 39.2041C162.413 39.3661 162.476 39.5202 162.569 39.6554C162.662 39.7907 162.784 39.9039 162.925 39.9871C163.067 40.0703 163.225 40.1215 163.389 40.1371C163.552 40.1526 163.717 40.1322 163.872 40.0773L164.377 39.8969C164.377 39.8969 164.688 34.6725 168.988 34.9323Z" fill="#936D6D"/>
<path d="M171.846 47.8994C171.846 47.8994 168.426 59.6614 167.711 61.9272L164.955 61.6386L165.453 65.362L150.616 84.9244L167.091 66.0114L166.434 62.7065L168.938 62.9735L171.846 47.8994Z" fill="#24126A"/>
<path d="M157.276 111.818C157.276 111.818 192.08 110.685 192.968 110.05C193.855 109.415 194.014 100.467 193.935 95.2791C193.877 91.6711 193.935 77.398 190.81 67.4111C193.249 75.8682 191.965 105.785 190.861 107.308C189.757 108.831 156.649 109.711 156.649 109.711C157.002 110.945 157.276 111.818 157.276 111.818Z" fill="#263649"/>
<path d="M88.8961 83.9785C88.8961 83.9785 88.7662 84.8589 87.2508 85.7176C85.7354 86.5763 81.8675 88.4885 81.2397 89.0369C80.6119 89.5853 77.8192 92.0387 77.7399 92.3635C77.6605 92.6882 76.8162 95.4663 76.8234 95.6323C76.8306 95.7982 77.0976 97.0755 77.0976 97.0755L76.2389 101.174C76.2389 101.174 75.1493 102.762 76.3327 103.195C76.7136 103.31 77.1246 103.271 77.477 103.086C77.8294 102.901 78.0949 102.585 78.2161 102.206C79.308 101.677 80.3491 101.049 81.3263 100.33C82.6396 99.3052 87.9219 95.0622 88.8239 95.322C89.7259 95.5818 88.8961 97.1043 88.4631 97.3713C88.0301 97.6383 85.2302 100.366 86.4065 102.271C87.5827 104.176 88.3476 101.196 89.1198 100.59C89.8919 99.9835 91.5661 97.6022 92.5908 97.3064C93.6155 97.0105 95.4772 93.1861 95.7298 91.4687C95.9824 89.7513 97.173 88.6545 97.6349 88.0988C98.0967 87.5432 96.6895 83.293 96.6895 83.293L91.4578 81.6694L89.6249 82.9106L88.8961 83.9785Z" fill="#FCD1C5"/>
<path d="M188.227 61.5445C187.13 59.8199 186.632 61.0899 185.16 62.5187C182.591 64.9193 180.615 67.8835 179.387 71.1778C177.049 78.0402 177.886 95.178 178.665 97.6314C178.665 97.6314 156.873 101.203 155.364 101.138C153.856 101.073 157.233 111.803 157.233 111.803C157.233 111.803 192.037 110.671 192.925 110.036C193.812 109.401 193.971 100.453 193.892 95.2646C193.863 90.8484 193.942 70.55 188.227 61.5445Z" fill="#334659"/>
<path d="M157.277 111.818C157.277 111.818 192.08 110.685 192.968 110.05C193.856 109.415 194.014 100.467 193.935 95.2791C193.877 91.6711 193.935 77.398 190.81 67.4111C193.249 75.8682 191.965 105.785 190.861 107.308C189.757 108.831 156.649 109.711 156.649 109.711C157.003 110.945 157.277 111.818 157.277 111.818Z" fill="#263649"/>
<path opacity="0.5" d="M131.926 169.17L18.4807 103.671L79.3997 68.5005L192.845 134L131.926 169.17Z" fill="#BBEAFF"/>
<path opacity="0.5" d="M18.4807 98.2373V103.671L131.926 169.17L192.845 133.999V128.566L131.926 163.736L18.4807 98.2373Z" fill="#BBEAFF"/>
<path opacity="0.5" d="M131.926 163.736L18.4807 98.2373L79.3997 63.0669L192.845 128.566L131.926 163.736Z" fill="#88DAFF"/>
<path opacity="0.3" d="M138.58 112.72C138.58 112.72 142.909 114.271 146.272 113.723C149.635 113.175 165.633 112.857 165.633 112.857L163.115 111.414L157.493 107.496L143.559 108.434L138.183 110.331L138.58 112.72Z" fill="#180D5B"/>
<path d="M155.501 101.73C155.491 101.688 155.467 101.65 155.433 101.623C155.399 101.596 155.357 101.58 155.314 101.578C154.195 101.578 146.95 101.333 144.215 100.395C141.242 99.3704 138.096 99.558 137.937 99.7312C137.779 99.9044 132.835 102.004 132.54 102.856C132.244 103.707 131.818 106.233 132.46 107.185C132.804 107.708 133.113 108.253 133.384 108.816L133.896 108.874C134.202 109.489 134.549 110.082 134.935 110.649C135.097 110.852 135.233 111.076 135.339 111.313C135.65 111.991 136.198 113.102 136.429 113.124C137.171 113.274 137.924 113.353 138.681 113.362C138.998 113.283 139.287 112.309 139.157 111.883C139.147 111.857 139.143 111.83 139.145 111.802C139.147 111.775 139.155 111.749 139.169 111.725C139.183 111.701 139.202 111.681 139.225 111.666C139.248 111.651 139.274 111.641 139.301 111.637C141.043 111.382 142.81 111.344 144.562 111.522C147.787 111.818 152.341 109.711 152.752 109.516H152.817L157.363 109.105C157.394 109.102 157.423 109.092 157.45 109.076C157.476 109.06 157.499 109.039 157.516 109.014C157.533 108.988 157.545 108.959 157.55 108.929C157.554 108.898 157.552 108.867 157.544 108.838L155.501 101.73Z" fill="#FCD1C5"/>
<path opacity="0.5" d="M168.411 122.158L167.798 121.805C165.518 120.491 165.806 118.197 168.433 116.674L186.971 106.002C189.598 104.486 193.581 104.32 195.854 105.634L196.468 105.987C198.748 107.301 198.459 109.595 195.833 111.118L177.294 121.819C174.668 123.32 170.692 123.472 168.411 122.158Z" fill="#BBEAFF"/>
<path opacity="0.5" d="M198.012 107.993C197.945 107.554 197.771 107.139 197.505 106.782C197.24 106.426 196.891 106.141 196.489 105.951L195.876 105.598C193.596 104.284 189.619 104.45 186.993 105.966L168.454 116.667C167.062 117.475 166.333 118.5 166.29 119.481V122.707C166.319 123.182 166.477 123.64 166.746 124.033C167.016 124.425 167.387 124.738 167.819 124.936L168.433 125.29C170.713 126.603 174.689 126.437 177.316 124.922L195.854 114.221C197.204 113.441 197.932 112.453 198.019 111.5V107.986L198.012 107.993Z" fill="#BBEAFF"/>
<path d="M188.227 61.5445C187.13 59.8199 186.632 61.0899 185.16 62.5187C182.591 64.9193 180.615 67.8835 179.387 71.1778C177.049 78.0402 177.886 95.178 178.665 97.6314C178.665 97.6314 156.873 101.203 155.364 101.138C153.856 101.073 157.233 111.803 157.233 111.803C157.233 111.803 192.037 110.671 192.925 110.036C193.812 109.401 193.971 100.453 193.892 95.2646C193.863 90.8484 193.942 70.55 188.227 61.5445Z" fill="#0F65B2"/>
<path d="M157.276 111.818C157.276 111.818 192.08 110.685 192.968 110.05C193.855 109.415 194.014 100.467 193.935 95.2791C193.877 91.6711 193.935 77.398 190.81 67.4111C193.249 75.8682 191.965 105.785 190.861 107.308C189.757 108.831 156.649 109.711 156.649 109.711C157.002 110.945 157.276 111.818 157.276 111.818Z" fill="#24126A"/>
<path opacity="0.3" d="M94.9001 94.0016C94.9001 94.0016 107.341 84.2817 109.123 83.3364C110.03 82.8917 110.878 82.3367 111.649 81.684L107.485 79.3027L100.442 82.1891L91.5301 90.9709L77.8699 100.655V102.906C77.8699 102.906 89.1415 98.0714 90.3971 97.2415C91.6528 96.4117 94.9001 94.0016 94.9001 94.0016Z" fill="#180D5B"/>
<path opacity="0.63" d="M87.4818 102.805C88.8071 101.599 90.2588 100.539 91.8115 99.6447C93.5217 98.8509 96.2422 96.7583 96.5742 95.1491C96.9061 93.54 99.7348 89.9897 99.7348 89.9897L95.2031 92.6091L88.6364 96.4047L77.7039 102.748C77.9783 102.993 78.3192 103.153 78.6838 103.205C79.0485 103.258 79.4205 103.202 79.7532 103.043C81.1388 102.574 83.7294 100.915 84.9417 100.77C86.154 100.626 88.1529 100.251 88.1529 100.251L87.4818 102.805Z" fill="#2D2D2D"/>
<path d="M88.8961 83.9785C88.8961 83.9785 88.7662 84.8589 87.2508 85.7176C85.7354 86.5763 81.8675 88.4885 81.2397 89.0369C80.6119 89.5853 77.8192 92.0387 77.7399 92.3635C77.6605 92.6882 76.8162 95.4663 76.8234 95.6323C76.8306 95.7982 77.0976 97.0755 77.0976 97.0755L76.2389 101.174C76.2389 101.174 75.1493 102.762 76.3327 103.195C76.7136 103.31 77.1246 103.271 77.477 103.086C77.8294 102.901 78.0949 102.585 78.2161 102.206C79.308 101.677 80.3491 101.049 81.3263 100.33C82.6396 99.3052 87.9219 95.0622 88.8239 95.322C89.7259 95.5818 88.8961 97.1043 88.4631 97.3713C88.0301 97.6383 85.2302 100.366 86.4065 102.271C87.5827 104.176 88.3476 101.196 89.1198 100.59C89.8919 99.9835 91.5661 97.6022 92.5908 97.3064C93.6155 97.0105 95.4772 93.1861 95.7298 91.4687C95.9824 89.7513 97.173 88.6545 97.6349 88.0988C98.0967 87.5432 96.6895 83.293 96.6895 83.293L91.4578 81.6694L89.6249 82.9106L88.8961 83.9785Z" fill="#FCD1C5"/>
<path d="M136.097 55.2811C136.097 55.2811 135.902 47.4879 137.237 41.5059C136.869 41.7882 136.522 42.0969 136.198 42.4295C134.315 44.3922 131.681 46.8456 129.141 48.2022C124.45 50.735 110.379 58.5643 110.379 58.5643L107.766 60.592C99.4967 67.0864 90.2673 81.1719 88.925 83.9644C89.5745 83.0985 91.2342 81.6842 94.4238 83.3799C98.8184 85.7179 96.7257 89.2248 96.7257 89.2248C103.076 84.6644 118.288 67.7574 118.288 67.7574C122.04 66.9709 133.312 62.764 134.712 62.2372C135.615 60.0288 136.086 57.6672 136.097 55.2811Z" fill="#0F65B2"/>
<path d="M118.288 67.7573C122.293 66.9202 134.885 62.1866 134.885 62.1866C135.455 65.0369 135.715 74.8578 135.109 82.4922C138.825 68.616 136.126 55.2593 136.126 55.2593C135.101 60.1517 115.199 66.9058 115.199 66.9058C112.031 71.791 96.9422 85.8765 96.9422 85.8765C97.1312 86.4108 97.2019 86.9798 97.1496 87.5442C97.0972 88.1085 96.9231 88.6548 96.6392 89.1453C102.989 84.5993 118.288 67.7573 118.288 67.7573Z" fill="#24126A"/>
<path d="M57.0295 108.39L60.0459 109.971L90.3538 92.4937C90.666 92.3488 91.0082 92.2804 91.3521 92.2942C91.6959 92.308 92.0315 92.4036 92.3311 92.573L144.547 122.714C145.045 122.433 147.326 121.336 147.326 121.336L146.221 124.222C146.164 124.372 146.053 124.495 145.911 124.568L114.03 142.976C113.718 143.121 113.376 143.19 113.032 143.176C112.688 143.162 112.352 143.066 112.053 142.897L58.6532 112.049C58.4526 111.948 58.2941 111.779 58.2058 111.573L57.0295 108.39Z" fill="#0F65B2"/>
<path d="M57.4987 108.888L112.255 140.501C112.563 140.674 112.906 140.771 113.259 140.786C113.611 140.801 113.962 140.733 114.283 140.588L146.958 121.726C147.477 121.422 147.412 120.903 146.813 120.557L92.057 88.9435C91.7493 88.7714 91.4056 88.6738 91.0534 88.6588C90.7012 88.6437 90.3504 88.7116 90.0292 88.8569L57.3544 107.719C56.8348 108.015 56.8925 108.542 57.4987 108.888Z" fill="#7ED7FF"/>
<path d="M57.4987 108.571L112.255 140.184C112.563 140.356 112.906 140.453 113.259 140.468C113.611 140.483 113.962 140.416 114.283 140.27L146.958 121.408C147.103 121.333 147.216 121.207 147.275 121.054C147.316 121.186 147.306 121.327 147.247 121.452C147.188 121.576 147.085 121.674 146.958 121.725L114.283 140.588C113.962 140.733 113.611 140.801 113.259 140.786C112.906 140.771 112.563 140.673 112.255 140.501L57.4987 108.888C57.3372 108.829 57.202 108.715 57.1174 108.566C57.0327 108.416 57.0042 108.241 57.0369 108.073C57.1255 108.289 57.2896 108.466 57.4987 108.571Z" fill="white"/>
<path d="M128.773 133.661V133.062C128.773 133.004 128.773 132.975 128.693 133.004L126.572 134.223C126.548 134.24 126.529 134.261 126.515 134.286C126.502 134.311 126.494 134.339 126.492 134.368V134.967C126.492 135.024 126.492 135.053 126.572 135.024L128.693 133.805C128.717 133.789 128.736 133.767 128.75 133.742C128.763 133.717 128.771 133.689 128.773 133.661Z" fill="#2842A2"/>
<path d="M125.605 135.493V134.865C125.605 134.808 125.605 134.779 125.525 134.808L123.404 136.027C123.381 136.044 123.361 136.065 123.347 136.09C123.334 136.115 123.326 136.143 123.324 136.172V136.77C123.324 136.828 123.324 136.857 123.404 136.828L125.525 135.609C125.566 135.582 125.594 135.541 125.605 135.493Z" fill="#2842A2"/>
<path d="M128.534 126.012L83.0292 99.7384C82.8801 99.6523 82.7108 99.6069 82.5386 99.6069C82.3663 99.6069 82.197 99.6523 82.0478 99.7384L65.8403 109.119C65.7862 109.149 65.7411 109.193 65.7096 109.246C65.6782 109.3 65.6616 109.36 65.6616 109.422C65.6616 109.484 65.6782 109.545 65.7096 109.598C65.7411 109.651 65.7862 109.695 65.8403 109.725L111.302 135.984C111.451 136.07 111.621 136.116 111.793 136.116C111.965 136.116 112.134 136.07 112.284 135.984L128.513 126.603C128.565 126.574 128.608 126.532 128.639 126.482C128.67 126.431 128.688 126.373 128.69 126.314C128.692 126.254 128.679 126.195 128.652 126.142C128.625 126.089 128.584 126.044 128.534 126.012Z" fill="#BBEAFF"/>
<path d="M128.534 126.618L128.368 126.711L83.0293 100.532C82.8801 100.446 82.7108 100.401 82.5386 100.401C82.3663 100.401 82.197 100.446 82.0478 100.532L66.0063 109.812L65.8403 109.718C65.7862 109.688 65.7411 109.644 65.7096 109.591C65.6782 109.537 65.6616 109.477 65.6616 109.415C65.6616 109.353 65.6782 109.292 65.7096 109.239C65.7411 109.186 65.7862 109.142 65.8403 109.112L82.0478 99.7311C82.197 99.645 82.3663 99.5996 82.5386 99.5996C82.7108 99.5996 82.8801 99.645 83.0293 99.7311L128.534 126.004C128.59 126.034 128.637 126.078 128.67 126.132C128.703 126.186 128.72 126.248 128.72 126.311C128.72 126.374 128.703 126.436 128.67 126.49C128.637 126.544 128.59 126.588 128.534 126.618Z" fill="#3D78BE"/>
<path d="M80.8213 102.113L122.74 126.315L124.818 125.485L82.582 101.095L80.8213 102.113Z" fill="#24126A"/>
<path d="M76.5132 104.602L113.59 126.004L115.351 124.994L78.2739 103.584L76.5132 104.602Z" fill="#24126A"/>
<path d="M73.7061 106.218L117.364 131.423L119.117 130.406L75.4668 105.208L73.7061 106.218Z" fill="#24126A"/>
<path d="M70.8989 107.842L114.557 133.04L116.31 132.029L72.6597 106.824L70.8989 107.842Z" fill="#24126A"/>
<path d="M68.0991 109.458L111.75 134.664L113.503 133.646L69.8527 108.448L68.0991 109.458Z" fill="#24126A"/>
<path d="M122.74 126.315L124.501 127.325L126.254 126.315L124.501 125.297L122.74 126.315Z" fill="#24126A"/>
<path d="M111.461 124.77L120.193 129.814L121.946 128.797L113.157 123.724L111.461 124.77Z" fill="#24126A"/>
<path d="M112.334 114.235L100.067 107.149C99.9606 107.115 99.868 107.048 99.8023 106.958C99.7366 106.868 99.7012 106.759 99.7012 106.648C99.7012 106.536 99.7366 106.428 99.8023 106.338C99.868 106.247 99.9606 106.18 100.067 106.146L108.459 101.304C108.729 101.168 109.027 101.096 109.329 101.096C109.631 101.096 109.929 101.168 110.198 101.304L122.466 108.39C122.572 108.425 122.665 108.492 122.73 108.582C122.796 108.672 122.831 108.78 122.831 108.892C122.831 109.004 122.796 109.112 122.73 109.202C122.665 109.292 122.572 109.359 122.466 109.394L114.073 114.235C113.804 114.372 113.506 114.444 113.204 114.444C112.902 114.444 112.604 114.372 112.334 114.235Z" fill="#EAF8FF"/>
<path d="M122.466 108.802L110.198 101.716C109.929 101.579 109.631 101.507 109.329 101.507C109.026 101.507 108.729 101.579 108.459 101.716L100.067 106.557C99.9384 106.624 99.8328 106.727 99.7636 106.853C99.731 106.787 99.713 106.714 99.7109 106.64C99.7088 106.566 99.7225 106.492 99.7512 106.424C99.7799 106.355 99.823 106.294 99.8774 106.243C99.9318 106.193 99.9963 106.155 100.067 106.132L108.459 101.29C108.729 101.153 109.026 101.082 109.329 101.082C109.631 101.082 109.929 101.153 110.198 101.29L122.466 108.376C122.536 108.399 122.601 108.437 122.655 108.488C122.709 108.538 122.752 108.599 122.781 108.668C122.81 108.736 122.824 108.81 122.822 108.884C122.819 108.958 122.801 109.031 122.769 109.097C122.7 108.971 122.594 108.868 122.466 108.802Z" fill="#BBEAFF"/>
<path d="M57.1161 107.582L64.0364 66.5163L63.4807 66.2854L64.3178 65.8092C64.4179 65.7545 64.5315 65.7295 64.6452 65.7372C64.759 65.7449 64.8682 65.7849 64.96 65.8525L120.279 97.7902C120.514 97.939 120.705 98.148 120.832 98.3954C120.959 98.6428 121.017 98.9197 121.001 99.1973L114.023 140.588C114.015 140.676 113.984 140.762 113.933 140.835C113.883 140.908 113.814 140.967 113.734 141.006L112.919 141.483L112.782 140.718H112.825L57.8377 108.968C57.6061 108.821 57.4175 108.615 57.2908 108.372C57.1641 108.129 57.1038 107.856 57.1161 107.582Z" fill="#7ED7FF"/>
<path d="M119.976 98.9085L120.885 98.5044C120.988 98.7174 121.028 98.9551 121.001 99.1899L114.023 140.581C114.015 140.669 113.984 140.754 113.933 140.827C113.883 140.901 113.814 140.96 113.734 140.999L112.919 141.475L112.782 140.71H112.825L110.04 139.101L119.976 98.9085Z" fill="#0F65B2"/>
<path d="M56.9646 109.48L112.284 141.418C112.355 141.483 112.444 141.526 112.539 141.543C112.634 141.561 112.732 141.551 112.822 141.516C112.912 141.481 112.99 141.421 113.048 141.344C113.106 141.267 113.141 141.175 113.15 141.079L120.128 99.688C120.144 99.4104 120.086 99.1336 119.959 98.8862C119.832 98.6387 119.641 98.4298 119.406 98.2809L64.1086 66.3143C64.0369 66.2495 63.9486 66.206 63.8536 66.1887C63.7586 66.1713 63.6606 66.1807 63.5707 66.216C63.4807 66.2512 63.4024 66.3108 63.3444 66.3881C63.2865 66.4654 63.2512 66.5573 63.2426 66.6535L56.2646 108.044C56.2409 108.324 56.2934 108.606 56.4166 108.859C56.5398 109.111 56.7292 109.326 56.9646 109.48Z" fill="#3D78BE"/>
<path opacity="0.5" d="M37.0551 152.906V146.029C38.431 146.765 39.8382 147.486 41.2766 148.194V155.07C39.8334 154.368 38.4262 153.646 37.0551 152.906ZM23.5176 144.319V131.633C24.6625 132.494 25.8412 133.341 27.0535 134.173V146.837C25.8412 146.009 24.6625 145.163 23.5176 144.297V144.319ZM29.9688 148.778V133.841C31.2341 134.644 32.5306 135.429 33.8584 136.193V151.13C32.5306 150.361 31.2341 149.577 29.9688 148.778ZM12.65 134.512V117.915C13.5304 118.878 14.4468 119.84 15.3994 120.802V137.398C14.4372 136.436 13.5208 135.474 12.65 134.512ZM17.7013 139.563V121.581C18.7164 122.5 19.7676 123.402 20.8548 124.287V142.248C19.7676 141.362 18.7164 140.46 17.7013 139.542V139.563ZM4.76273 123.688V104.205C5.34484 105.259 5.97265 106.303 6.64616 107.337V126.82C5.97746 125.79 5.34965 124.747 4.76273 123.688ZM8.29867 129.223V103.837C9.03472 104.852 9.81166 105.853 10.6295 106.839V132.167C9.81166 131.181 9.03472 130.18 8.29867 129.165V129.223ZM2.06389 117.944V89.2971C2.48724 90.3891 2.96832 91.4715 3.50713 92.5442V121.155C2.99237 120.083 2.51129 119 2.06389 117.908V117.944ZM49.9288 124.294C22.7094 113.333 3.91122 96.0079 -0.0288086 76.1641V116.826C3.91122 136.67 22.7166 153.988 49.9288 164.956V124.251V124.294Z" fill="#BBEAFF"/>
<path opacity="0.5" d="M129.776 169.444V160.266C134.457 160.011 139.056 159.602 143.573 159.039V168.218C139.061 168.776 134.461 169.185 129.776 169.444ZM107.766 169.488V152.761C110.571 152.901 113.405 152.987 116.267 153.021C118.22 153.021 120.164 153.021 122.098 153.021V169.719C120.173 169.752 118.23 169.752 116.267 169.719C113.409 169.69 110.576 169.603 107.766 169.459V169.488ZM86.5509 167.323V141.721C90.9864 142.423 95.523 142.979 100.161 143.388V168.954C95.5278 168.545 90.9912 167.989 86.5509 167.287V167.323ZM150.818 167.215V140.177C155.22 139.46 159.516 138.606 163.706 137.615V164.617C159.526 165.608 155.23 166.462 150.818 167.179V167.215ZM174.559 128.581C157.241 133.913 137.331 136.857 116.26 136.648C102.262 136.544 88.3148 134.957 74.6514 131.914V172.598C88.3148 175.64 102.262 177.227 116.26 177.331C137.331 177.541 157.219 174.604 174.559 169.264V128.544V128.581Z" fill="#BBEAFF"/>
<path opacity="0.5" d="M203.778 140.184V132.304C222.763 121.098 235.117 106.146 237.138 89.5209V97.4007C235.117 113.997 222.756 128.97 203.778 140.184ZM237.412 110.187V69.5039C236.813 89.4054 221.421 107.164 197.384 119.409V160.122C221.436 147.855 236.813 130.111 237.419 110.216L237.412 110.187Z" fill="#BBEAFF"/>
<path opacity="0.75" d="M237.145 89.5205C235.125 106.117 222.763 121.09 203.785 132.304V140.184C222.771 128.977 235.125 114.026 237.145 97.4003V89.5205Z" fill="#BBEAFF"/>
<path d="M100.153 143.388C95.5206 142.979 90.9841 142.423 86.5437 141.721V167.287C90.9792 167.989 95.5158 168.545 100.153 168.954V143.388Z" fill="#BBEAFF"/>
<path d="M143.566 159.039C139.053 159.597 134.454 160.006 129.769 160.266V169.444C134.449 169.189 139.049 168.781 143.566 168.218V159.039Z" fill="#BBEAFF"/>
<path d="M163.692 137.615C159.511 138.606 155.215 139.46 150.804 140.176V167.178C155.206 166.462 159.502 165.608 163.692 164.617V137.615Z" fill="#BBEAFF"/>
<path opacity="0.75" d="M122.091 152.992C120.166 153.025 118.223 153.025 116.26 152.992C113.402 152.963 110.569 152.876 107.759 152.732V169.502C110.564 169.641 113.398 169.728 116.26 169.762C118.213 169.762 120.157 169.762 122.091 169.762V152.992Z" fill="#BBEAFF"/>
<path d="M3.4928 92.544C2.97804 91.4713 2.49696 90.3889 2.04956 89.2969V117.901C2.47291 118.993 2.95399 120.073 3.4928 121.141V92.544Z" fill="#BBEAFF"/>
<path d="M6.67493 107.308C6.00623 106.279 5.37842 105.235 4.7915 104.176V123.659C5.37361 124.713 6.00142 125.757 6.67493 126.791V107.308Z" fill="#BBEAFF"/>
<path opacity="0.75" d="M10.6582 106.861C9.84038 105.875 9.06344 104.874 8.32739 103.859V129.187C9.06344 130.202 9.84038 131.202 10.6582 132.189V106.861Z" fill="#BBEAFF"/>
<path d="M15.4066 120.773C14.4444 119.81 13.528 118.848 12.6572 117.886V134.483C13.5376 135.445 14.4541 136.407 15.4066 137.369V120.773Z" fill="#BBEAFF"/>
<path opacity="0.75" d="M20.8908 124.28C19.8035 123.395 18.7524 122.493 17.7373 121.574V139.534C18.7524 140.453 19.8035 141.355 20.8908 142.24V124.28Z" fill="#BBEAFF"/>
<path opacity="0.75" d="M27.0535 134.144C25.8412 133.317 24.6625 132.47 23.5176 131.604V144.268C24.6625 145.129 25.8412 145.976 27.0535 146.808V134.144Z" fill="#BBEAFF"/>
<path opacity="0.75" d="M33.8656 136.172C32.5378 135.402 31.2413 134.618 29.9761 133.819V148.756C31.2413 149.56 32.5378 150.344 33.8656 151.109V136.172Z" fill="#BBEAFF"/>
<path opacity="0.75" d="M41.2766 148.172C39.8334 147.469 38.4262 146.748 37.0552 146.007V152.905C38.4311 153.641 39.8382 154.363 41.2766 155.07V148.193V148.172Z" fill="#BBEAFF"/>
</g>
<defs>
<linearGradient id="paint0_linear" x1="158.597" y1="153.598" x2="92.353" y2="169.77" gradientUnits="userSpaceOnUse">
<stop stop-color="#5761D7"/>
<stop offset="0.18" stop-color="#5C66D9"/>
<stop offset="0.39" stop-color="#6A73DF"/>
<stop offset="0.61" stop-color="#8289E8"/>
<stop offset="0.85" stop-color="#A3A7F5"/>
<stop offset="1" stop-color="#BCBEFF"/>
</linearGradient>
<linearGradient id="paint1_linear" x1="10269.3" y1="6007.22" x2="9802.37" y2="5465.77" gradientUnits="userSpaceOnUse">
<stop stop-color="#5761D7"/>
<stop offset="0.18" stop-color="#5C66D9"/>
<stop offset="0.39" stop-color="#6A73DF"/>
<stop offset="0.61" stop-color="#8289E8"/>
<stop offset="0.85" stop-color="#A3A7F5"/>
<stop offset="1" stop-color="#BCBEFF"/>
</linearGradient>
<linearGradient id="paint2_linear" x1="20589.3" y1="26294.1" x2="23777.6" y2="26294.1" gradientUnits="userSpaceOnUse">
<stop stop-color="#95DEFF"/>
<stop offset="0.72" stop-color="#4E9CDB"/>
<stop offset="0.93" stop-color="#5472D8"/>
<stop offset="1" stop-color="#5761D7"/>
</linearGradient>
<clipPath id="clip0">
<rect width="258" height="225" fill="white"/>
</clipPath>
</defs>
</svg>
