<svg width="217" height="225" viewBox="0 0 217 225" fill="none" xmlns="http://www.w3.org/2000/svg">
<g clip-path="url(#clip0)">
<g opacity="0.21">
<path opacity="0.5" d="M51.3086 149.685L1.09566 124.573C0.179051 124.114 0.179051 123.369 1.09566 122.911L51.3086 97.7988C51.8331 97.5717 52.3985 97.4546 52.97 97.4546C53.5415 97.4546 54.1069 97.5717 54.6314 97.7988L104.859 122.911C105.775 123.369 105.775 124.114 104.859 124.573L54.6457 149.685C54.1193 149.914 53.5513 150.032 52.9772 150.032C52.403 150.032 51.8351 149.914 51.3086 149.685ZM6.07974 123.742L52.97 147.192L99.846 123.742L52.9557 100.291L6.07974 123.742Z" fill="#73D3FB"/>
<path opacity="0.5" d="M100.956 174.518L50.7429 149.406C49.8263 148.947 49.8263 148.202 50.7429 147.744L100.956 122.632C101.48 122.405 102.046 122.288 102.617 122.288C103.189 122.288 103.754 122.405 104.279 122.632L154.492 147.744C155.408 148.202 155.408 148.947 154.492 149.406L104.286 174.518C103.76 174.746 103.194 174.864 102.621 174.864C102.048 174.864 101.481 174.746 100.956 174.518ZM55.727 148.575L102.617 172.004L149.507 148.553L102.617 125.103L55.727 148.575Z" fill="#73D3FB"/>
<path opacity="0.5" d="M50.9004 199.83L0.687457 174.718C-0.229152 174.26 -0.229152 173.515 0.687457 173.057L50.9004 147.944C51.4249 147.717 51.9903 147.6 52.5617 147.6C53.1332 147.6 53.6987 147.717 54.2231 147.944L104.436 173.057C105.353 173.515 105.353 174.26 104.436 174.718L54.2231 199.83C53.6987 200.058 53.1332 200.175 52.5617 200.175C51.9903 200.175 51.4249 200.058 50.9004 199.83ZM5.67149 173.887L52.5833 197.338L99.4735 173.887L52.5833 150.437L5.67149 173.887Z" fill="#73D3FB"/>
<path opacity="0.5" d="M100.562 224.663L50.3491 199.551C49.4325 199.093 49.4325 198.348 50.3491 197.889L100.562 172.77C101.087 172.543 101.652 172.426 102.223 172.426C102.795 172.426 103.36 172.543 103.885 172.77L154.098 197.882C155.014 198.341 155.014 199.086 154.098 199.544L103.885 224.656C103.361 224.884 102.796 225.003 102.224 225.004C101.653 225.005 101.087 224.889 100.562 224.663ZM55.326 198.72L102.216 222.142L149.107 198.692L102.216 175.241L55.326 198.72Z" fill="#73D3FB"/>
</g>
<path d="M98.342 142.479L26.6388 105.047C23.7744 103.615 21.5044 100.177 21.5044 97.3402L19.9075 55.5605C19.9075 52.6954 23.8031 51.0767 26.6388 52.4949L99.7241 89.0244C102.588 90.4569 104.859 93.895 104.859 96.7314V138.991C104.859 141.877 101.178 143.897 98.342 142.479Z" fill="url(#paint0_linear)"/>
<path d="M98.113 142.364L25.0278 105.835C22.1634 104.402 19.8933 100.964 19.8933 98.1279V55.8684C19.8933 53.0033 22.192 51.8788 25.0278 53.297L98.113 89.8264C100.977 91.259 103.247 94.697 103.247 97.5334V139.793C103.255 142.637 100.949 143.783 98.113 142.364Z" fill="url(#paint1_linear)"/>
<path d="M39.1993 89.8693L29.1023 84.8197C28.4753 84.4904 27.9408 84.009 27.548 83.4196C27.1551 82.8302 26.9164 82.1517 26.8538 81.4461V74.9066C26.8538 73.6674 27.8635 73.1589 29.1023 73.782L39.1993 78.8317C39.8264 79.1609 40.3608 79.6423 40.7537 80.2317C41.1465 80.8211 41.3852 81.4997 41.4479 82.2053V88.7448C41.4479 89.9839 40.4095 90.4853 39.1993 89.8693Z" fill="#FCAA37"/>
<path d="M36.6142 80.1073L32.0598 77.8296V77.6147L36.6142 79.8925V80.1073Z" fill="#8C5E1F"/>
<path d="M36.6142 85.5795L32.0598 83.3018V83.0869L36.6142 85.3646V85.5795Z" fill="#8C5E1F"/>
<line x1="29.1" y1="74" x2="29.1" y2="85" stroke="#8C5E1F" stroke-width="0.2"/>
<line x1="39.1" y1="79" x2="39.1" y2="90" stroke="#8C5E1F" stroke-width="0.2"/>
<path d="M61.5417 81.5611C61.0155 81.5041 60.5063 81.3408 60.0451 81.0812C59.2259 80.6949 58.5302 80.0885 58.0357 79.3296C57.5413 78.5706 57.2676 77.6892 57.2451 76.7836C57.2451 75.0073 58.4482 74.4128 60.2026 75.2866C60.6972 75.5218 61.1516 75.8336 61.5489 76.2106L61.3699 76.7191C61.0317 76.3921 60.6453 76.1191 60.2241 75.9097C58.8993 75.2436 58.0114 75.6519 58.0114 77.1417C58.0189 77.8477 58.2241 78.5373 58.6039 79.1324C58.9836 79.7275 59.5227 80.2041 60.1597 80.5082C60.5296 80.7093 60.9364 80.8336 61.3555 80.8735L61.5417 81.5611Z" fill="white"/>
<path d="M62.4082 79.3762C62.4082 78.8963 62.4082 78.4809 62.4082 78.0869L63.0527 78.4092V79.2186C63.0897 79.1098 63.1523 79.0115 63.2353 78.932C63.3182 78.8526 63.4191 78.7942 63.5293 78.7619C63.6396 78.7296 63.756 78.7243 63.8687 78.7464C63.9814 78.7686 64.0872 78.8175 64.177 78.8891C64.2501 78.9254 64.3197 78.9686 64.3846 79.018V79.7343C64.3054 79.6773 64.2216 79.627 64.134 79.5839C64.0454 79.5143 63.9393 79.4703 63.8274 79.4568C63.7155 79.4432 63.602 79.4607 63.4994 79.5073C63.3967 79.5538 63.3088 79.6276 63.2452 79.7207C63.1815 79.8138 63.1447 79.9226 63.1386 80.0351C63.1286 80.1447 63.1286 80.255 63.1386 80.3646V82.5134L62.4225 82.1481V79.3475L62.4082 79.3762Z" fill="white"/>
<path d="M65.4732 81.8185C65.495 82.2647 65.6405 82.6959 65.8935 83.064C66.1464 83.4322 66.4968 83.7226 66.9054 83.9029C67.2518 84.0965 67.6347 84.216 68.0297 84.2538L68.1586 84.8483C67.6834 84.8008 67.2229 84.6571 66.8051 84.4257C66.2158 84.1612 65.712 83.7375 65.3502 83.2022C64.9884 82.667 64.783 82.0415 64.7571 81.3959C64.7571 80.1711 65.4732 79.5623 66.6619 80.1568C67.1671 80.4193 67.5909 80.815 67.8875 81.301C68.1841 81.7871 68.3423 82.345 68.3448 82.9144C68.3519 83.0241 68.3519 83.1342 68.3448 83.2439L65.4732 81.8185ZM67.6215 82.3772C67.6286 82.0236 67.5365 81.675 67.3554 81.3711C67.1744 81.0672 66.9118 80.8202 66.5975 80.6582C66.4866 80.5786 66.3554 80.5324 66.2191 80.5249C66.0829 80.5175 65.9474 80.5491 65.8285 80.6161C65.7097 80.683 65.6124 80.7826 65.5481 80.903C65.4839 81.0234 65.4554 81.1596 65.466 81.2957L67.6215 82.3772Z" fill="white"/>
<path d="M72.7987 81.4105V86.3241C72.7987 86.6822 72.7987 87.1048 72.7987 87.3913L72.1328 87.0619V86.3456C71.9036 86.6822 71.4167 86.7825 70.7435 86.453C70.2201 86.1608 69.7833 85.7352 69.4776 85.2194C69.172 84.7035 69.0084 84.116 69.0034 83.5164C69.0034 82.1555 69.8341 81.7472 70.8295 82.2414C71.3649 82.5055 71.7962 82.9419 72.054 83.4805V81.0381L72.7987 81.4105ZM72.0826 84.5979C72.0945 84.4884 72.0945 84.3779 72.0826 84.2684C72.0124 83.9748 71.881 83.6994 71.6972 83.4599C71.5133 83.2205 71.2811 83.0225 71.0157 82.8789C70.2494 82.4993 69.7983 82.9434 69.7983 83.8387C69.7868 84.2662 69.8929 84.6887 70.105 85.0601C70.3172 85.4314 70.6272 85.7374 71.0013 85.9445C71.0909 86.0072 71.1937 86.0485 71.3017 86.0653C71.4097 86.0821 71.5202 86.0739 71.6245 86.0414C71.7289 86.0089 71.8245 85.9529 71.9039 85.8778C71.9833 85.8026 72.0444 85.7103 72.0826 85.6079C72.0964 85.508 72.0964 85.4068 72.0826 85.307V84.5908V84.5979Z" fill="white"/>
<path d="M74.8468 83.1868C74.8468 83.4447 74.6678 83.5521 74.3742 83.4017C74.2486 83.337 74.1419 83.241 74.0641 83.1231C73.9864 83.0052 73.9403 82.8693 73.9302 82.7284C73.9302 82.4705 74.1235 82.3631 74.3957 82.4992C74.525 82.5636 74.6348 82.6612 74.7141 82.782C74.7933 82.9028 74.8392 83.0425 74.8468 83.1868ZM74.0233 87.9858V83.9031L74.7394 84.2755V88.3439L74.0233 87.9858Z" fill="white"/>
<path d="M76.8878 84.1827V85.3358L77.9476 85.8659V86.4317L76.8878 85.9017V88.0935C76.8599 88.3064 76.8978 88.5227 76.9964 88.7134C77.0949 88.9042 77.2494 89.0602 77.4392 89.1607C77.5752 89.2329 77.7194 89.2882 77.8688 89.3254V89.8984C77.6377 89.8604 77.4149 89.7829 77.21 89.6692C76.8832 89.5097 76.6078 89.2615 76.4152 88.953C76.2038 88.5886 76.1042 88.1702 76.1287 87.7496V85.5292L75.4985 85.2141V84.6482L76.1287 84.9634V83.9893L76.8878 84.1827Z" fill="white"/>
<path d="M84.5429 93.064C84.0168 93.0068 83.5076 92.8436 83.0463 92.5841C82.2271 92.1979 81.5314 91.5914 81.037 90.8325C80.5425 90.0736 80.2688 89.1921 80.2463 88.2865C80.2463 86.5102 81.4494 85.9157 83.2038 86.7895C83.6984 87.0247 84.1528 87.3365 84.5501 87.7135L84.3711 88.2221C84.0329 87.8951 83.6464 87.6222 83.2253 87.4127C81.9005 86.7466 81.0126 87.1548 81.0126 88.6447C81.0201 89.3506 81.2254 90.0403 81.6052 90.6353C81.9849 91.2304 82.5239 91.707 83.1609 92.0111C83.5308 92.2123 83.9376 92.3365 84.3567 92.3764L84.5429 93.064Z" fill="white"/>
<path d="M87.6292 94.7905L87.5719 94.2461C87.3884 94.3718 87.1712 94.439 86.9488 94.439C86.7265 94.439 86.5093 94.3718 86.3258 94.2461C85.9772 94.0861 85.6778 93.8356 85.4587 93.5207C85.2396 93.2058 85.1088 92.838 85.0798 92.4555C85.0798 91.4742 85.9535 91.3739 87.5289 92.1689V92.083C87.5379 91.7788 87.4544 91.479 87.2895 91.2232C87.1246 90.9674 86.8859 90.7677 86.6051 90.6505C86.2814 90.4734 85.9133 90.3938 85.5453 90.4213L85.3806 89.8483C85.8473 89.8198 86.3123 89.9267 86.7197 90.1562C87.1897 90.3633 87.5876 90.7053 87.863 91.1388C88.1384 91.5724 88.2788 92.078 88.2665 92.5915V94.11C88.2611 94.4478 88.2826 94.7856 88.3309 95.12L87.6292 94.7905ZM87.5217 92.6417C86.7125 92.2191 85.7959 91.9254 85.7959 92.6918C85.8057 92.9165 85.8779 93.1341 86.0044 93.3201C86.1309 93.5061 86.3067 93.6531 86.512 93.7447C87.042 94.0097 87.3785 93.845 87.4931 93.5585C87.5209 93.4902 87.5355 93.4173 87.5361 93.3436V92.6274L87.5217 92.6417Z" fill="white"/>
<path d="M89.4268 92.8923C89.4268 92.4124 89.4268 91.997 89.4268 91.603L90.0712 91.9253V92.7347C90.1082 92.6259 90.1708 92.5277 90.2538 92.4482C90.3367 92.3687 90.4376 92.3103 90.5479 92.278C90.6581 92.2457 90.7745 92.2404 90.8872 92.2625C90.9999 92.2847 91.1057 92.3336 91.1955 92.4052C91.2687 92.4415 91.3383 92.4847 91.4032 92.5342V93.2504C91.3241 93.1932 91.2402 93.1429 91.1526 93.1C91.0639 93.0304 90.9579 92.9864 90.8459 92.9729C90.734 92.9594 90.6206 92.9768 90.5179 93.0234C90.4152 93.0699 90.3273 93.1438 90.2637 93.2368C90.2001 93.3299 90.1632 93.4387 90.1572 93.5513C90.1471 93.6609 90.1471 93.7711 90.1572 93.8807V96.0295L89.4411 95.6642V92.8637L89.4268 92.8923Z" fill="white"/>
<path d="M95.5995 92.8137V97.7273C95.5995 98.0926 95.5995 98.508 95.5995 98.7945L94.9336 98.465V97.7488C94.7044 98.0854 94.2175 98.1857 93.5443 97.8562C93.0208 97.564 92.584 97.1384 92.2784 96.6225C91.9727 96.1067 91.8091 95.5191 91.8042 94.9195C91.8042 93.5586 92.6349 93.1503 93.6302 93.6446C94.1546 93.9066 94.5775 94.3347 94.8333 94.8622V92.4341L95.5995 92.8137ZM94.8834 96.0011C94.8953 95.8916 94.8953 95.7811 94.8834 95.6716C94.8131 95.378 94.6818 95.1025 94.498 94.8631C94.3141 94.6237 94.0819 94.4257 93.8164 94.282C93.0502 93.9024 92.5991 94.3465 92.5991 95.2418C92.5875 95.6694 92.6936 96.0919 92.9058 96.4632C93.118 96.8346 93.428 97.1405 93.8021 97.3477C93.8917 97.4103 93.9944 97.4516 94.1025 97.4684C94.2105 97.4852 94.3209 97.4771 94.4253 97.4446C94.5297 97.4121 94.6253 97.3561 94.7047 97.281C94.7841 97.2058 94.8452 97.1135 94.8834 97.011C94.8972 96.9112 94.8972 96.81 94.8834 96.7102V95.9939V96.0011Z" fill="white"/>
<path d="M28.7515 103.242C28.3011 103.194 27.8651 103.055 27.4697 102.834C26.772 102.506 26.1787 101.991 25.7553 101.346C25.332 100.701 25.0951 99.952 25.0708 99.1811C25.0708 97.6626 26.102 97.1469 27.6058 97.899C28.0294 98.1019 28.4185 98.3702 28.7587 98.694L28.6083 99.131C28.3202 98.843 27.9893 98.6014 27.6273 98.4147C26.4887 97.8489 25.7368 98.1927 25.7368 99.4676C25.7483 100.072 25.9288 100.66 26.2579 101.167C26.587 101.673 27.0515 102.077 27.5986 102.333C27.9156 102.504 28.264 102.608 28.6226 102.641L28.7515 103.242Z" fill="white"/>
<path d="M31.3938 104.754L31.3437 104.288C31.1866 104.396 31.0006 104.453 30.8102 104.453C30.6198 104.453 30.4339 104.396 30.2767 104.288C29.9792 104.15 29.7237 103.935 29.5363 103.666C29.3489 103.397 29.2362 103.082 29.2097 102.755C29.2097 101.91 29.9258 101.824 31.3008 102.505V102.433C31.3033 102.176 31.2289 101.924 31.0873 101.71C30.9456 101.495 30.7432 101.328 30.5059 101.23C30.2279 101.078 29.9119 101.011 29.5964 101.036L29.4532 100.549C29.8527 100.525 30.2507 100.617 30.599 100.814C31.0024 100.992 31.3439 101.286 31.5799 101.658C31.8158 102.031 31.9355 102.465 31.9238 102.906V104.209C31.92 104.499 31.9392 104.789 31.981 105.076L31.3938 104.754ZM31.3008 102.927C30.5847 102.569 29.8256 102.297 29.8256 102.977C29.8323 103.168 29.8913 103.353 29.9961 103.512C30.101 103.671 30.2476 103.798 30.4199 103.88C30.8711 104.109 31.136 103.966 31.2649 103.715C31.2766 103.654 31.2766 103.59 31.2649 103.529V102.927H31.3008Z" fill="white"/>
<path d="M32.9333 103.127C32.9333 102.719 32.9333 102.361 32.9333 102.024L33.4848 102.304V103.02C33.5207 102.93 33.5768 102.849 33.6488 102.784C33.7207 102.719 33.8065 102.671 33.8998 102.644C33.9931 102.617 34.0912 102.612 34.1868 102.628C34.2824 102.645 34.373 102.684 34.4515 102.741C34.5149 102.773 34.5749 102.811 34.6305 102.855V103.45C34.5626 103.401 34.4907 103.358 34.4157 103.321C34.3395 103.262 34.2487 103.225 34.1532 103.214C34.0577 103.203 33.961 103.218 33.8734 103.258C33.7858 103.298 33.7107 103.361 33.6561 103.44C33.6015 103.519 33.5695 103.612 33.5635 103.708C33.5549 103.801 33.5549 103.894 33.5635 103.987V105.842L32.9333 105.527V103.127Z" fill="white"/>
<path d="M38.2254 103.056V107.268C38.2254 107.576 38.2254 107.934 38.2254 108.184L37.6597 107.898V107.275C37.5102 107.438 37.3043 107.538 37.0837 107.556C36.863 107.573 36.644 107.506 36.4709 107.368C36.0234 107.117 35.65 106.752 35.3885 106.311C35.127 105.869 34.9865 105.367 34.9814 104.854C34.9814 103.693 35.6975 103.335 36.5425 103.765C36.9824 103.997 37.3345 104.367 37.5451 104.818V102.741L38.2254 103.056ZM37.5952 105.785C37.6051 105.692 37.6051 105.598 37.5952 105.506C37.5358 105.253 37.4234 105.017 37.2653 104.812C37.1072 104.607 36.9072 104.438 36.6786 104.317C36.0198 103.987 35.6331 104.367 35.6331 105.14C35.6229 105.507 35.7137 105.869 35.8956 106.187C36.0775 106.506 36.3434 106.768 36.6643 106.945C36.739 107.007 36.8281 107.05 36.9234 107.069C37.0187 107.087 37.1173 107.082 37.21 107.053C37.3026 107.023 37.3865 106.971 37.4538 106.901C37.5211 106.831 37.5697 106.745 37.5952 106.652C37.607 106.566 37.607 106.479 37.5952 106.394V105.792V105.785Z" fill="white"/>
<path d="M41.448 104.932V106.967L43.7967 108.141V106.107L44.4269 106.422V111.279L43.7967 110.963V108.686L41.448 107.54V109.817L40.825 109.502V104.646L41.448 104.932Z" fill="white"/>
<path d="M48.6446 111.615C48.6446 112.905 47.7495 113.048 46.9117 112.597C46.4242 112.347 46.0123 111.972 45.7189 111.51C45.4255 111.048 45.2612 110.515 45.2432 109.968C45.2432 108.8 46.0094 108.5 46.9689 108.98C47.4603 109.227 47.8755 109.602 48.1706 110.066C48.4656 110.53 48.6294 111.066 48.6446 111.615ZM45.8805 110.269C45.8775 110.646 45.9739 111.017 46.16 111.346C46.346 111.674 46.6151 111.947 46.9403 112.138C47.5418 112.439 48.0001 112.095 48.0001 111.315C48.0033 110.94 47.9085 110.571 47.7251 110.244C47.5417 109.918 47.2761 109.645 46.9547 109.452C46.2027 109.073 45.8805 109.603 45.8805 110.269Z" fill="white"/>
<path d="M49.4468 108.672L50.077 108.972V114.087L49.4468 113.771V108.657V108.672Z" fill="white"/>
<path d="M54.1517 111.028V115.24C54.1517 115.548 54.1517 115.906 54.1517 116.157L53.586 115.87V115.254C53.4365 115.417 53.2306 115.518 53.0099 115.535C52.7893 115.552 52.5703 115.485 52.3972 115.347C51.9497 115.096 51.5763 114.732 51.3148 114.29C51.0532 113.849 50.9128 113.346 50.9077 112.833C50.9077 111.673 51.6239 111.315 52.4689 111.744C52.9286 111.97 53.2993 112.343 53.5215 112.805V110.72L54.1517 111.028ZM53.5215 113.757C53.5314 113.664 53.5314 113.571 53.5215 113.478C53.4621 113.226 53.3496 112.989 53.1916 112.784C53.0335 112.579 52.8335 112.41 52.6049 112.289C51.9461 111.959 51.5594 112.339 51.5594 113.113C51.55 113.479 51.6411 113.841 51.8229 114.159C52.0047 114.477 52.2702 114.74 52.5906 114.918C52.6652 114.98 52.7543 115.022 52.8497 115.041C52.945 115.06 53.0435 115.054 53.1362 115.025C53.2289 114.996 53.3127 114.944 53.3801 114.874C53.4474 114.804 53.496 114.718 53.5215 114.624C53.5332 114.538 53.5332 114.452 53.5215 114.366V113.764V113.757Z" fill="white"/>
<path d="M55.5552 115.211C55.5677 115.593 55.6861 115.964 55.8973 116.283C56.1084 116.602 56.404 116.855 56.751 117.016C57.0488 117.182 57.3781 117.285 57.7178 117.317L57.8252 117.825C57.4177 117.783 57.0231 117.659 56.6651 117.46C56.1658 117.225 55.7414 116.857 55.4392 116.395C55.137 115.934 54.9689 115.397 54.9536 114.846C54.9536 113.793 55.5695 113.277 56.5863 113.785C57.0178 114.011 57.3793 114.351 57.6317 114.768C57.8842 115.184 58.018 115.662 58.0185 116.149C58.0251 116.245 58.0251 116.34 58.0185 116.436L55.5552 115.211ZM57.4098 115.684C57.4149 115.381 57.3351 115.083 57.1795 114.823C57.0238 114.564 56.7984 114.353 56.529 114.215C56.434 114.147 56.3214 114.107 56.2045 114.1C56.0876 114.094 55.9712 114.12 55.869 114.178C55.7668 114.235 55.6829 114.32 55.6274 114.423C55.5718 114.526 55.5467 114.643 55.5552 114.76L57.4098 115.684Z" fill="white"/>
<path d="M58.8062 116.071C58.8062 115.663 58.8062 115.304 58.8062 114.968L59.3576 115.247V115.963C59.3935 115.873 59.4496 115.792 59.5216 115.727C59.5935 115.662 59.6794 115.614 59.7726 115.587C59.8659 115.56 59.964 115.555 60.0596 115.572C60.1552 115.589 60.2458 115.627 60.3243 115.684C60.3876 115.716 60.4475 115.755 60.5033 115.799V116.393C60.4354 116.344 60.3635 116.301 60.2885 116.264C60.2123 116.206 60.1215 116.169 60.026 116.158C59.9305 116.147 59.8338 116.162 59.7462 116.202C59.6586 116.241 59.5835 116.304 59.5289 116.383C59.4743 116.462 59.4423 116.555 59.4363 116.651C59.4277 116.744 59.4277 116.837 59.4363 116.93V118.785L58.8133 118.47V116.071H58.8062Z" fill="white"/>
<path d="M29.3459 88.6591H28.5796L28.4651 88.1577H29.4318L29.9403 88.4156V92.7132L29.3602 92.4266V88.6663L29.3459 88.6591Z" fill="#333333"/>
<path d="M31.5371 93.5153V93.1572L32.0098 92.9495C33.1412 92.4696 33.6496 92.1688 33.6568 91.517C33.649 91.2411 33.5618 90.9733 33.4055 90.7459C33.2493 90.5185 33.0307 90.341 32.776 90.2348C32.4895 90.0773 32.1526 90.0387 31.8379 90.1274L31.6445 89.6189C32.0716 89.5197 32.5204 89.589 32.8977 89.8123C33.2836 89.9829 33.6145 90.2575 33.8535 90.6053C34.0924 90.9531 34.2302 91.3605 34.2512 91.782C34.2512 92.577 33.6568 92.9208 32.7259 93.3291L32.375 93.4724L34.3657 94.468V94.9479L31.5371 93.5153Z" fill="#333333"/>
<path d="M35.1678 94.6469C35.4499 94.9533 35.7815 95.21 36.1488 95.4062C36.9151 95.793 37.1585 95.4062 37.1514 95.0695C37.1009 94.7519 36.9688 94.4528 36.7679 94.2017C36.5671 93.9506 36.3043 93.756 36.0056 93.637L35.6691 93.4723V93.0353L36.0056 93.2001C36.4424 93.415 36.9938 93.4723 36.9938 92.9637C36.9748 92.7356 36.8923 92.5174 36.7556 92.3338C36.6189 92.1503 36.4335 92.0087 36.2205 91.9251C35.9482 91.7812 35.6376 91.7261 35.3325 91.7676L35.1749 91.2662C35.5781 91.2303 35.9826 91.3177 36.335 91.5169C36.6764 91.6539 36.9744 91.8807 37.1975 92.1732C37.4207 92.4657 37.5606 92.8131 37.6025 93.1786C37.6093 93.2794 37.5905 93.3804 37.548 93.472C37.5055 93.5637 37.4405 93.6432 37.3592 93.7032C37.2778 93.7631 37.1827 93.8016 37.0825 93.8151C36.9824 93.8286 36.8805 93.8166 36.7862 93.7803C37.061 93.9543 37.2928 94.1885 37.464 94.4652C37.6352 94.7419 37.7413 95.0538 37.7744 95.3775C37.7744 96.0938 37.223 96.3946 36.1632 95.8646C35.7309 95.6458 35.3406 95.3524 35.0103 94.9979L35.1678 94.6469Z" fill="#333333"/>
<path d="M40.3665 97.935V96.7961L38.3113 95.7647V95.3636L40.2877 93.6016L40.9322 93.9239V96.5956L41.5481 96.9035V97.3619L40.9322 97.054V98.2286L40.3665 97.935ZM40.3665 96.309V94.8765C40.3665 94.6521 40.3665 94.43 40.3665 94.2104C40.2304 94.3966 40.123 94.5256 40.0013 94.6616L38.9199 95.5856L40.3665 96.309Z" fill="#333333"/>
<path d="M49.0028 98.4291L47.3128 97.5839L47.141 98.601C47.2635 98.6461 47.383 98.6988 47.499 98.7586C47.8567 98.9387 48.1792 99.1812 48.4514 99.4749C48.834 99.8562 49.059 100.368 49.0816 100.907C49.0816 101.745 48.3655 102.032 47.4346 101.552C47.0218 101.347 46.6485 101.07 46.3318 100.735L46.4821 100.37C46.7552 100.66 47.0747 100.902 47.4274 101.086C47.9931 101.366 48.4729 101.251 48.4729 100.678C48.4311 100.32 48.2894 99.9812 48.064 99.7C47.8386 99.4187 47.5385 99.2067 47.1982 99.0881C46.9979 98.9907 46.7924 98.9046 46.5824 98.8302L46.8689 96.9106L49.0172 97.9707V98.4578L49.0028 98.4291Z" fill="#333333"/>
<path d="M52.3542 100.041C52.2097 99.9612 52.0588 99.8942 51.9031 99.84C50.965 99.5248 50.4709 99.9402 50.3635 100.599C50.5264 100.503 50.7132 100.456 50.9022 100.462C51.0911 100.468 51.2744 100.528 51.4305 100.635C51.8171 100.826 52.145 101.118 52.3794 101.479C52.6139 101.841 52.7462 102.26 52.7624 102.691C52.7624 103.479 52.211 103.93 51.2944 103.471C50.8177 103.222 50.4191 102.846 50.1424 102.385C49.8657 101.924 49.7216 101.395 49.7261 100.857C49.6835 100.556 49.7283 100.248 49.8552 99.9713C49.9821 99.6945 50.1859 99.46 50.4422 99.2956C50.6738 99.2119 50.9197 99.1751 51.1655 99.1874C51.4114 99.1997 51.6524 99.2608 51.8744 99.3672C52.0239 99.4199 52.1698 99.4821 52.3112 99.5535V100.033L52.3542 100.041ZM52.1824 102.44C52.1781 102.14 52.0909 101.848 51.9303 101.595C51.7698 101.342 51.5422 101.139 51.2729 101.007C51.1422 100.916 50.9826 100.876 50.8242 100.894C50.6658 100.913 50.5197 100.989 50.4136 101.108C50.366 101.172 50.3431 101.25 50.3491 101.33C50.3396 101.678 50.4253 102.022 50.597 102.325C50.7686 102.628 51.0196 102.878 51.323 103.049C51.8673 103.292 52.1824 103.049 52.1824 102.433V102.44Z" fill="#333333"/>
<path d="M56.1637 101.545V101.932L54.2374 104.89L53.6144 104.582L55.5336 101.717L53.3853 100.635V100.155L56.1637 101.545Z" fill="#333333"/>
<path d="M56.7581 105.04C56.7551 104.93 56.7774 104.821 56.8232 104.722C56.869 104.622 56.937 104.534 57.0222 104.465C57.1073 104.396 57.2071 104.347 57.3141 104.323C57.421 104.298 57.5321 104.298 57.6389 104.324C57.4384 104.162 57.2718 103.963 57.1489 103.736C57.026 103.51 56.9491 103.262 56.9228 103.006C56.9228 102.29 57.5171 102.161 58.2905 102.547C58.6354 102.694 58.9358 102.929 59.1619 103.228C59.3881 103.527 59.532 103.88 59.5795 104.252C59.588 104.345 59.5746 104.439 59.5405 104.526C59.5063 104.613 59.4523 104.691 59.3828 104.754C59.3133 104.816 59.2302 104.862 59.14 104.887C59.0499 104.912 58.9551 104.915 58.8634 104.897C59.1124 105.081 59.3205 105.315 59.4745 105.584C59.6286 105.852 59.7253 106.15 59.7585 106.458C59.7585 107.174 59.0997 107.382 58.2547 106.96C57.86 106.797 57.5144 106.535 57.252 106.198C56.9895 105.862 56.8193 105.462 56.7581 105.04ZM59.1427 106.208C59.1013 105.91 58.9919 105.626 58.823 105.378C58.6541 105.129 58.4302 104.923 58.1688 104.775C57.6532 104.66 57.3739 104.854 57.3739 105.262C57.3944 105.533 57.4878 105.793 57.6441 106.015C57.8004 106.237 58.0139 106.412 58.2619 106.523C58.7918 106.824 59.1355 106.652 59.1355 106.208H59.1427ZM57.4956 103.235C57.5358 103.489 57.6326 103.73 57.7789 103.941C57.9252 104.151 58.1172 104.326 58.3406 104.453C58.7202 104.517 59.0138 104.403 59.0138 104.009C59.0031 103.781 58.9308 103.561 58.8047 103.372C58.6785 103.183 58.5033 103.031 58.2977 102.934C57.7606 102.676 57.4885 102.863 57.4885 103.242L57.4956 103.235Z" fill="#333333"/>
<path d="M64.9791 109.832C65.1354 109.919 65.2982 109.993 65.466 110.054C65.758 110.182 66.0872 110.198 66.3898 110.097C66.5559 110.022 66.6984 109.903 66.8018 109.753C66.9053 109.602 66.9658 109.427 66.977 109.245C66.815 109.33 66.6328 109.37 66.4499 109.36C66.2669 109.35 66.0903 109.29 65.9387 109.187C65.5655 109.004 65.2476 108.726 65.0174 108.38C64.7872 108.034 64.6529 107.633 64.6282 107.218C64.6282 106.401 65.2368 105.993 66.1391 106.444C66.5885 106.695 66.9599 107.066 67.2125 107.514C67.4652 107.963 67.5894 108.472 67.5713 108.987C67.5713 109.932 67.2419 110.419 66.8123 110.627C66.3906 110.774 65.9283 110.751 65.5233 110.563C65.3332 110.496 65.1488 110.415 64.9719 110.319V109.832H64.9791ZM65.1939 107.468C65.2017 107.748 65.2851 108.02 65.4351 108.256C65.5851 108.492 65.7963 108.682 66.046 108.808C66.1713 108.904 66.3248 108.957 66.4829 108.957C66.6409 108.957 66.7945 108.904 66.9197 108.808C66.9624 108.756 66.983 108.689 66.977 108.622C67.0046 108.275 66.9348 107.928 66.7753 107.619C66.6159 107.31 66.3732 107.052 66.0747 106.874C65.552 106.602 65.1939 106.824 65.1939 107.468Z" fill="#333333"/>
<path d="M71.0587 111.121C71.0587 112.554 70.5002 113.112 69.5191 112.625C68.6526 112.196 68.0869 111.114 68.0869 109.682C68.0869 108.249 68.7242 107.762 69.6265 108.249C70.1073 108.549 70.4956 108.976 70.7484 109.483C71.0012 109.99 71.1086 110.557 71.0587 111.121ZM68.6598 109.982C68.6598 111.1 69.0107 111.916 69.5549 112.188C70.0991 112.461 70.4572 111.945 70.4572 110.849C70.4572 109.753 70.1779 108.958 69.5621 108.643C68.9462 108.328 68.6598 108.786 68.6598 109.954V109.982Z" fill="#333333"/>
<path d="M74.5533 112.833C74.5533 114.266 73.9948 114.824 73.0137 114.337C72.1473 113.908 71.5815 112.826 71.5815 111.393C71.5815 109.961 72.2188 109.474 73.1211 109.961C73.6019 110.261 73.9902 110.688 74.2431 111.195C74.4959 111.702 74.6033 112.269 74.5533 112.833ZM72.1472 111.694C72.1472 112.812 72.4981 113.628 73.0424 113.9C73.5866 114.173 73.9447 113.657 73.9447 112.561C73.9447 111.465 73.6654 110.67 73.0495 110.355C72.4337 110.04 72.1472 110.527 72.1472 111.701V111.694Z" fill="#333333"/>
<path d="M78.0406 114.581C78.0406 116.013 77.4821 116.572 76.501 116.085C75.6346 115.655 75.0688 114.574 75.0688 113.141C75.0688 111.708 75.7062 111.221 76.6084 111.708C77.0892 112.008 77.4775 112.435 77.7304 112.942C77.9832 113.449 78.0906 114.016 78.0406 114.581ZM75.6417 113.442C75.6417 114.559 75.9926 115.376 76.5368 115.648C77.0811 115.92 77.4391 115.404 77.4391 114.309C77.4391 113.213 77.1599 112.418 76.544 112.102C75.9282 111.787 75.6417 112.274 75.6417 113.449V113.442Z" fill="#333333"/>
<path d="M85.8605 118.492C85.8605 119.924 85.3019 120.483 84.3209 119.996C83.4544 119.566 82.8887 118.485 82.8887 117.052C82.8887 115.62 83.526 115.133 84.4283 115.62C84.909 115.919 85.2974 116.346 85.5502 116.853C85.803 117.36 85.9104 117.927 85.8605 118.492ZM83.4615 117.353C83.4615 118.47 83.8124 119.287 84.3567 119.559C84.9009 119.831 85.259 119.316 85.259 118.22C85.259 117.124 84.9797 116.329 84.3638 116.014C83.748 115.698 83.4615 116.185 83.4615 117.36V117.353Z" fill="#333333"/>
<path d="M89.3478 120.239C89.3478 121.672 88.7892 122.231 87.8082 121.744C86.9417 121.314 86.376 120.232 86.376 118.8C86.376 117.367 87.0133 116.88 87.9156 117.367C88.3964 117.667 88.7847 118.094 89.0375 118.601C89.2903 119.108 89.3978 119.675 89.3478 120.239ZM86.956 119.108C86.956 120.225 87.3069 121.042 87.8511 121.314C88.3954 121.586 88.7534 121.07 88.7534 119.974C88.7534 118.878 88.4742 118.083 87.8583 117.768C87.2425 117.453 86.956 117.933 86.956 119.108Z" fill="#333333"/>
<path d="M92.8424 121.987C92.8424 123.419 92.2839 123.978 91.3028 123.491C90.4363 123.061 89.8706 121.98 89.8706 120.547C89.8706 119.115 90.5079 118.628 91.4102 119.115C91.891 119.414 92.2793 119.841 92.5322 120.348C92.785 120.855 92.8923 121.423 92.8424 121.987ZM90.4363 120.848C90.4363 121.965 90.7872 122.782 91.3314 123.054C91.8757 123.326 92.2337 122.811 92.2337 121.715C92.2337 120.619 91.9544 119.824 91.3386 119.509C90.7228 119.194 90.4363 119.681 90.4363 120.848Z" fill="#333333"/>
<path d="M96.3297 123.735C96.3297 125.167 95.7712 125.726 94.7901 125.239C93.9236 124.809 93.3579 123.727 93.3579 122.295C93.3579 120.862 93.9953 120.375 94.8975 120.862C95.3783 121.162 95.7666 121.589 96.0195 122.096C96.2723 122.603 96.3797 123.17 96.3297 123.735ZM93.9308 122.581C93.9308 123.699 94.2817 124.515 94.8259 124.787C95.3701 125.06 95.7282 124.544 95.7282 123.448C95.7282 122.352 95.4489 121.557 94.8331 121.242C94.2172 120.927 93.9308 121.428 93.9308 122.581Z" fill="#333333"/>
<path d="M29.4963 88.8095H28.73L28.6155 88.3081H29.5822L30.0906 88.566V92.8635L29.5106 92.577V88.8167L29.4963 88.8095Z" fill="white"/>
<path d="M31.6875 93.6657V93.3076L32.1601 93.0999C33.2915 92.62 33.8 92.3191 33.8072 91.6673C33.7994 91.3915 33.7122 91.1237 33.5559 90.8963C33.3996 90.6688 33.181 90.4914 32.9263 90.3852C32.6398 90.2277 32.3029 90.1891 31.9882 90.2778L31.7949 89.7693C32.2219 89.6701 32.6708 89.7394 33.0481 89.9626C33.4277 90.13 33.7545 90.3979 33.9931 90.7375C34.2316 91.0771 34.3728 91.4754 34.4015 91.8894C34.4015 92.6844 33.8071 93.0282 32.8762 93.4365L32.5253 93.5798L34.5161 94.5754V95.0553L31.6875 93.6657Z" fill="white"/>
<path d="M35.318 94.819C35.6001 95.1253 35.9317 95.382 36.299 95.5782C37.0652 95.965 37.3087 95.5782 37.3015 95.2416C37.2511 94.9239 37.119 94.6249 36.9181 94.3737C36.7172 94.1226 36.4545 93.928 36.1558 93.809L35.8192 93.6443V93.2145L36.1558 93.3793C36.5926 93.5942 37.144 93.6515 37.144 93.1429C37.125 92.9148 37.0425 92.6966 36.9058 92.513C36.7691 92.3295 36.5837 92.1879 36.3706 92.1043C36.0983 91.9604 35.7878 91.9053 35.4827 91.9468L35.3251 91.4454C35.7283 91.4095 36.1328 91.4969 36.4852 91.6961C36.8266 91.8331 37.1246 92.0599 37.3477 92.3524C37.5708 92.6449 37.7107 92.9923 37.7527 93.3578C37.7594 93.4586 37.7407 93.5596 37.6982 93.6512C37.6556 93.7429 37.5907 93.8224 37.5093 93.8824C37.428 93.9423 37.3328 93.9808 37.2327 93.9943C37.1325 94.0078 37.0307 93.9958 36.9364 93.9595C37.2112 94.1335 37.443 94.3677 37.6142 94.6444C37.7854 94.9211 37.8915 95.233 37.9246 95.5567C37.9246 96.273 37.3732 96.5738 36.3134 96.0438C35.8811 95.825 35.4907 95.5316 35.1604 95.1771L35.318 94.819Z" fill="white"/>
<path d="M40.5171 98.0854V96.9107L38.4619 95.8793V95.4925L40.4383 93.7305L41.0828 94.0528V96.7244L41.6987 97.0324V97.5123L41.0828 97.2044V98.379L40.5171 98.0854ZM40.5171 96.4594V95.0269C40.5171 94.8025 40.5171 94.5804 40.5171 94.3608C40.3811 94.547 40.2736 94.6759 40.1519 94.812L39.0706 95.736L40.5171 96.4594Z" fill="white"/>
<path d="M49.1244 98.5795L47.4344 97.7343L47.2626 98.7514C47.385 98.7966 47.5046 98.8492 47.6206 98.909C47.9782 99.0891 48.3008 99.3316 48.573 99.6253C48.9557 100.007 49.1807 100.518 49.2032 101.058C49.2032 101.896 48.4871 102.182 47.5561 101.702C47.1434 101.497 46.7701 101.221 46.4534 100.886L46.6038 100.521C46.8769 100.81 47.1963 101.052 47.549 101.237C48.1147 101.516 48.5945 101.402 48.5945 100.829C48.5527 100.471 48.411 100.132 48.1856 99.8504C47.9602 99.5691 47.6602 99.3571 47.3199 99.2385C47.1196 99.1411 46.9139 99.055 46.704 98.9806L46.9904 97.061L49.1387 98.1211V98.6082L49.1244 98.5795Z" fill="white"/>
<path d="M52.5046 100.191C52.3601 100.112 52.2092 100.044 52.0535 99.9903C51.1154 99.6751 50.6213 100.091 50.5139 100.749C50.6767 100.653 50.8636 100.606 51.0526 100.612C51.2415 100.619 51.4248 100.679 51.5808 100.785C51.9675 100.976 52.2954 101.268 52.5299 101.63C52.7643 101.992 52.8966 102.41 52.9128 102.841C52.9128 103.629 52.3614 104.08 51.4448 103.622C50.9681 103.373 50.5695 102.997 50.2928 102.535C50.0161 102.074 49.872 101.545 49.8765 101.007C49.8339 100.706 49.8787 100.398 50.0056 100.122C50.1326 99.8448 50.3363 99.6102 50.5926 99.4459C50.8242 99.3625 51.0701 99.326 51.3159 99.3383C51.5618 99.3506 51.8027 99.4115 52.0248 99.5175C52.1743 99.5702 52.3202 99.6324 52.4617 99.7037V100.184L52.5046 100.191ZM52.3328 102.59C52.3286 102.291 52.2413 101.998 52.0808 101.745C51.9202 101.492 51.6926 101.289 51.4233 101.158C51.2926 101.066 51.133 101.026 50.9746 101.045C50.8163 101.063 50.6702 101.139 50.564 101.258C50.5164 101.322 50.4935 101.401 50.4996 101.48C50.4901 101.828 50.5757 102.172 50.7473 102.475C50.919 102.778 51.17 103.028 51.4735 103.199C51.989 103.443 52.3328 103.199 52.3328 102.583V102.59Z" fill="white"/>
<path d="M56.3427 101.695V102.082L54.4164 105.04L53.7934 104.732L55.7125 101.867L53.5642 100.786V100.306L56.3427 101.695Z" fill="white"/>
<path d="M56.8799 105.191C56.8769 105.081 56.8992 104.972 56.945 104.872C56.9908 104.773 57.0589 104.685 57.144 104.616C57.2291 104.546 57.329 104.498 57.4359 104.473C57.5428 104.449 57.6539 104.449 57.7607 104.474C57.5602 104.313 57.3937 104.113 57.2708 103.887C57.1479 103.661 57.071 103.413 57.0446 103.156C57.0446 102.44 57.639 102.304 58.4124 102.698C58.7572 102.845 59.0576 103.08 59.2838 103.379C59.5099 103.678 59.6539 104.031 59.7013 104.403C59.7098 104.496 59.6964 104.59 59.6623 104.677C59.6282 104.764 59.5742 104.842 59.5047 104.904C59.4352 104.967 59.352 105.013 59.2619 105.037C59.1717 105.062 59.077 105.066 58.9852 105.047C59.2342 105.232 59.4423 105.466 59.5964 105.734C59.7504 106.003 59.8471 106.301 59.8804 106.609C59.8804 107.325 59.2216 107.533 58.3766 107.11C57.9819 106.948 57.6363 106.685 57.3738 106.349C57.1114 106.012 56.9411 105.613 56.8799 105.191ZM59.2645 106.358C59.2231 106.061 59.1137 105.777 58.9448 105.528C58.7759 105.28 58.552 105.074 58.2906 104.926C57.775 104.811 57.4957 105.004 57.4957 105.413C57.5162 105.683 57.6096 105.944 57.7659 106.165C57.9223 106.387 58.1357 106.563 58.3837 106.673C58.9423 106.953 59.286 106.824 59.286 106.351L59.2645 106.358ZM57.6175 103.386C57.6576 103.639 57.7544 103.88 57.9007 104.091C58.047 104.302 58.2391 104.477 58.4625 104.603C58.842 104.668 59.1356 104.553 59.1356 104.159C59.125 103.932 59.0527 103.712 58.9265 103.523C58.8004 103.333 58.6251 103.182 58.4195 103.085C57.9111 102.827 57.639 103.006 57.639 103.378L57.6175 103.386Z" fill="white"/>
<path d="M65.1223 109.982C65.2786 110.069 65.4414 110.143 65.6092 110.205C65.9012 110.333 66.2303 110.348 66.533 110.247C66.6991 110.172 66.8416 110.053 66.945 109.903C67.0485 109.753 67.1091 109.577 67.1202 109.395C66.9582 109.481 66.776 109.521 66.5931 109.51C66.4102 109.5 66.2334 109.441 66.0818 109.338C65.7101 109.154 65.3936 108.875 65.1647 108.529C64.9358 108.183 64.8026 107.782 64.7786 107.368C64.7786 106.552 65.3872 106.143 66.2895 106.595C66.7389 106.846 67.1103 107.216 67.3629 107.665C67.6156 108.113 67.7397 108.623 67.7217 109.137C67.7217 110.083 67.3923 110.57 66.9627 110.778C66.5409 110.924 66.0787 110.901 65.6737 110.713C65.4836 110.647 65.2992 110.565 65.1223 110.47V109.997V109.982ZM65.3371 107.619C65.3423 107.901 65.4245 108.176 65.5747 108.414C65.7249 108.653 65.9374 108.846 66.1893 108.973C66.3145 109.069 66.468 109.121 66.6261 109.121C66.7841 109.121 66.9377 109.069 67.0629 108.973C67.1056 108.92 67.1262 108.853 67.1202 108.786C67.1478 108.44 67.078 108.092 66.9186 107.784C66.7591 107.475 66.5164 107.217 66.2179 107.039C65.7023 106.752 65.3443 107.01 65.3443 107.619H65.3371Z" fill="white"/>
<path d="M71.2018 111.236C71.2018 112.669 70.6432 113.227 69.6622 112.74C68.7957 112.31 68.23 111.229 68.23 109.796C68.23 108.364 68.8673 107.877 69.7696 108.364C70.2504 108.663 70.6387 109.09 70.8915 109.597C71.1444 110.104 71.2518 110.672 71.2018 111.236ZM68.8029 110.097C68.8029 111.215 69.1538 112.031 69.698 112.303C70.2423 112.575 70.6003 112.06 70.6003 110.964C70.6003 109.868 70.321 109.073 69.7051 108.758C69.0893 108.443 68.81 108.93 68.81 110.104L68.8029 110.097Z" fill="white"/>
<path d="M74.7038 112.984C74.7038 114.416 74.1452 114.975 73.1641 114.488C72.2977 114.058 71.7319 112.976 71.7319 111.544C71.7319 110.111 72.3693 109.624 73.2716 110.111C73.7523 110.411 74.1407 110.838 74.3935 111.345C74.6463 111.852 74.7537 112.419 74.7038 112.984ZM72.2977 111.838C72.2977 112.955 72.6486 113.771 73.1928 114.044C73.737 114.316 74.0951 113.8 74.0951 112.704C74.0951 111.608 73.8158 110.813 73.1999 110.498C72.5841 110.183 72.2977 110.677 72.2977 111.838Z" fill="white"/>
<path d="M78.1911 114.703C78.1911 116.135 77.6325 116.694 76.6514 116.207C75.785 115.777 75.2192 114.696 75.2192 113.263C75.2192 111.831 75.8566 111.343 76.7589 111.831C77.2396 112.13 77.628 112.557 77.8808 113.064C78.1336 113.571 78.241 114.138 78.1911 114.703ZM75.7921 113.564C75.7921 114.681 76.143 115.498 76.6872 115.77C77.2315 116.042 77.5895 115.526 77.5895 114.431C77.5895 113.335 77.3102 112.54 76.6944 112.224C76.0786 111.909 75.785 112.425 75.785 113.6L75.7921 113.564Z" fill="white"/>
<path d="M86.0109 118.642C86.0109 120.075 85.4523 120.633 84.4713 120.146C83.6048 119.717 83.0391 118.635 83.0391 117.203C83.0391 115.77 83.6764 115.283 84.5787 115.77C85.0594 116.07 85.4478 116.497 85.7006 117.004C85.9534 117.511 86.0608 118.078 86.0109 118.642ZM83.6119 117.503C83.6119 118.621 83.9628 119.437 84.5071 119.709C85.0513 119.982 85.4094 119.466 85.4094 118.37C85.4094 117.274 85.1301 116.479 84.5142 116.164C83.8984 115.849 83.6048 116.336 83.6048 117.511L83.6119 117.503Z" fill="white"/>
<path d="M89.4982 120.39C89.4982 121.822 88.9396 122.381 87.9586 121.894C87.0921 121.464 86.5264 120.383 86.5264 118.95C86.5264 117.518 87.1637 117.031 88.066 117.518C88.5467 117.817 88.9351 118.244 89.1879 118.751C89.4407 119.258 89.5481 119.825 89.4982 120.39ZM87.0992 119.251C87.0992 120.368 87.4501 121.185 87.9944 121.457C88.5386 121.729 88.8967 121.213 88.8967 120.118C88.8967 119.022 88.6174 118.227 88.0015 117.912C87.3857 117.596 87.0992 118.083 87.0992 119.251Z" fill="white"/>
<path d="M92.9928 122.137C92.9928 123.57 92.4343 124.129 91.4532 123.641C90.5867 123.212 90.021 122.13 90.021 120.698C90.021 119.265 90.6583 118.778 91.5606 119.265C92.0414 119.565 92.4297 119.992 92.6825 120.499C92.9353 121.006 93.0427 121.573 92.9928 122.137ZM90.5867 120.998C90.5867 122.116 90.9376 122.932 91.4818 123.205C92.0261 123.477 92.3841 122.961 92.3841 121.865C92.3841 120.769 92.1048 119.974 91.489 119.659C90.8731 119.344 90.5867 119.831 90.5867 120.998Z" fill="white"/>
<path d="M96.4803 123.878C96.4803 125.311 95.9218 125.869 94.9407 125.382C94.0743 124.952 93.5085 123.871 93.5085 122.438C93.5085 121.006 94.1458 120.519 95.0481 121.006C95.5289 121.305 95.9172 121.732 96.17 122.239C96.4229 122.747 96.5303 123.314 96.4803 123.878ZM94.0814 122.739C94.0814 123.857 94.4323 124.673 94.9765 124.945C95.5208 125.217 95.8788 124.702 95.8788 123.606C95.8788 122.51 95.5995 121.715 94.9837 121.4C94.3679 121.085 94.0814 121.572 94.0814 122.746V122.739Z" fill="white"/>
<path d="M25.4502 58.1177C25.9109 58.2646 26.3587 58.4491 26.7893 58.6692C27.3938 58.9373 27.9264 59.3447 28.3433 59.8582C28.6372 60.2026 28.804 60.6375 28.8159 61.0902C28.8323 61.2127 28.8167 61.3375 28.7706 61.4522C28.7246 61.567 28.6496 61.6679 28.553 61.745C28.4564 61.8222 28.3414 61.873 28.2193 61.8926C28.0972 61.9121 27.9721 61.8997 27.8563 61.8566C28.1855 62.0852 28.4607 62.3833 28.6624 62.7298C28.864 63.0763 28.9873 63.4628 29.0235 63.8621C29.0447 64.0425 29.0101 64.2251 28.9243 64.3852C28.8385 64.5452 28.7057 64.6752 28.5438 64.7574C28.1499 64.9222 27.5126 64.7574 26.5888 64.3062C26.2011 64.113 25.8235 63.9002 25.4574 63.6687V58.1177H25.4502ZM26.1663 60.8037L26.8323 61.1331C27.6057 61.5199 28.0568 61.3409 28.0568 60.7965C28.0171 60.447 27.8789 60.116 27.6583 59.842C27.4377 59.5681 27.1438 59.3626 26.8108 59.2494C26.6046 59.1395 26.3888 59.0484 26.1663 58.9772V60.8037ZM26.1663 63.5183C26.3645 63.6451 26.5702 63.7599 26.7821 63.8621C27.5412 64.2417 28.2143 64.3134 28.2143 63.4896C28.1612 63.0847 28.0003 62.7016 27.7483 62.3802C27.4964 62.0589 27.1626 61.8112 26.7821 61.6632L26.1735 61.3623V63.5111L26.1663 63.5183Z" fill="white"/>
<path d="M32.2317 67.0854L32.1744 66.541C31.9909 66.6666 31.7737 66.7339 31.5514 66.7339C31.329 66.7339 31.1119 66.6666 30.9284 66.541C30.5798 66.381 30.2804 66.1305 30.0613 65.8156C29.8422 65.5007 29.7113 65.1329 29.6824 64.7503C29.6824 63.769 30.556 63.6688 32.1314 64.4638V64.3492C32.1404 64.045 32.0569 63.7452 31.892 63.4894C31.7271 63.2337 31.4885 63.034 31.2077 62.9167C30.8839 62.7396 30.5158 62.66 30.1478 62.6875L29.9831 62.1145C30.4499 62.0856 30.915 62.1926 31.3222 62.4225C31.7922 62.6295 32.1901 62.9715 32.4655 63.4051C32.7409 63.8386 32.8813 64.3443 32.869 64.8578V66.3763C32.8635 66.7141 32.885 67.0518 32.9335 67.3862L32.2317 67.0854ZM32.1243 64.9366C31.3151 64.514 30.3985 64.2203 30.3985 64.9939C30.4082 65.2186 30.4804 65.4361 30.6069 65.6221C30.7334 65.8081 30.9092 65.9552 31.1146 66.0468C31.6445 66.3118 31.9811 66.147 32.0956 65.8605C32.1235 65.7923 32.138 65.7194 32.1386 65.6457V64.9294L32.1243 64.9366Z" fill="white"/>
<path d="M34.0361 65.0153C34.0361 64.5927 34.0361 64.2489 34.0361 63.8979L34.695 64.2274L34.7379 64.9437C34.9113 64.7648 35.1447 64.6563 35.3932 64.6391C35.6418 64.6219 35.8879 64.6972 36.0842 64.8506C36.5272 65.0851 36.896 65.4386 37.149 65.8714C37.402 66.3042 37.5293 66.799 37.5164 67.3002V69.7283L36.8003 69.3559V66.9994C36.8228 66.6592 36.7462 66.3197 36.5797 66.0222C36.4132 65.7247 36.1639 65.4819 35.8622 65.3233C35.7842 65.2628 35.6934 65.2211 35.5967 65.2013C35.5001 65.1815 35.4001 65.1841 35.3047 65.209C35.2092 65.2339 35.1207 65.2805 35.046 65.345C34.9714 65.4095 34.9125 65.4903 34.874 65.5812C34.8367 65.6844 34.8197 65.7938 34.8239 65.9035V68.3459L34.1078 67.9735V65.0082L34.0361 65.0153Z" fill="white"/>
<path d="M39.4284 68.482C39.5426 68.3824 39.6621 68.2892 39.7865 68.2026L40.9824 67.3932L41.8703 67.8373L40.2949 68.7255L42.0852 72.0131L41.1829 71.5619L39.7507 68.9117L39.3711 69.1409V70.6737L38.655 70.3084V64.3491L39.3711 64.7144V68.482H39.4284Z" fill="white"/>
<path d="M46.1382 90.4069C46.0017 90.3345 45.8859 90.2285 45.8017 90.0989C45.7562 90.0554 45.72 90.0032 45.6952 89.9453C45.6705 89.8875 45.6577 89.8252 45.6577 89.7622C45.6577 89.6993 45.6705 89.637 45.6952 89.5792C45.72 89.5213 45.7562 89.4691 45.8017 89.4256C46.0645 89.3142 46.2867 89.1244 46.4378 88.8822C46.589 88.64 46.662 88.357 46.6467 88.0719C46.5525 87.2989 46.2696 86.561 45.8231 85.9231C45.7746 85.8769 45.736 85.8214 45.7096 85.7598C45.6831 85.6982 45.6696 85.6319 45.6696 85.565C45.6696 85.498 45.6831 85.4317 45.7096 85.3701C45.736 85.3085 45.7746 85.253 45.8231 85.2068C45.9528 85.1711 46.0908 85.1816 46.2136 85.2365C46.3364 85.2914 46.4363 85.3872 46.4963 85.5077C47.121 86.3862 47.5128 87.4089 47.6349 88.4801C47.6694 88.8781 47.5798 89.277 47.3785 89.622C47.1772 89.967 46.874 90.2412 46.5106 90.4069C46.4538 90.4389 46.3897 90.4557 46.3244 90.4557C46.2592 90.4557 46.1951 90.4389 46.1382 90.4069Z" fill="#FAFAFA"/>
<path d="M47.7568 92.4268C47.6203 92.3544 47.5044 92.2485 47.4202 92.1189C47.3747 92.0754 47.3385 92.0231 47.3138 91.9653C47.289 91.9074 47.2763 91.8451 47.2763 91.7822C47.2763 91.7193 47.289 91.657 47.3138 91.5991C47.3385 91.5413 47.3747 91.489 47.4202 91.4456C47.8688 91.2554 48.2474 90.9308 48.5039 90.5165C48.7604 90.1021 48.8821 89.6185 48.8524 89.132C48.6804 87.8245 48.1884 86.5796 47.4202 85.5078C47.3717 85.4616 47.333 85.406 47.3066 85.3445C47.2802 85.2829 47.2666 85.2166 47.2666 85.1496C47.2666 85.0826 47.2802 85.0163 47.3066 84.9548C47.333 84.8932 47.3717 84.8377 47.4202 84.7915C47.5499 84.7572 47.6874 84.7683 47.8098 84.8231C47.9323 84.8778 48.0323 84.9728 48.0933 85.0923C48.1578 85.1854 49.7475 87.4273 49.8048 89.5475C49.8493 90.1414 49.7104 90.7347 49.4069 91.247C49.1033 91.7594 48.6498 92.1663 48.1077 92.4125C48.0547 92.443 47.9951 92.4602 47.934 92.4627C47.8729 92.4652 47.8121 92.4529 47.7568 92.4268Z" fill="#FAFAFA"/>
<path d="M49.5254 94.3608C49.3889 94.2884 49.2731 94.1824 49.1889 94.0528C49.1434 94.0093 49.1071 93.9571 49.0824 93.8992C49.0576 93.8413 49.0449 93.7791 49.0449 93.7161C49.0449 93.6532 49.0576 93.5909 49.0824 93.5331C49.1071 93.4752 49.1434 93.423 49.1889 93.3795C49.7903 93.1158 50.2959 92.6732 50.6367 92.1118C50.9776 91.5504 51.1371 90.8976 51.0937 90.2423C51.0364 87.9359 49.2247 85.3717 49.2032 85.343C49.1523 85.2993 49.1108 85.2457 49.0812 85.1855C49.0517 85.1252 49.0347 85.0596 49.0314 84.9926C49.028 84.9256 49.0384 84.8586 49.0618 84.7957C49.0851 84.7328 49.121 84.6753 49.1674 84.6267C49.297 84.5911 49.4351 84.6016 49.5579 84.6564C49.6807 84.7113 49.7806 84.8072 49.8405 84.9276C49.9264 85.0493 51.9888 87.9287 52.0461 90.6577C52.1088 91.4259 51.9326 92.1947 51.5416 92.8588C51.1506 93.523 50.564 94.0501 49.862 94.3679C49.8091 94.3927 49.7512 94.405 49.6928 94.4037C49.6345 94.4025 49.5772 94.3878 49.5254 94.3608Z" fill="#FAFAFA"/>
<g style="mix-blend-mode:overlay">
<g style="mix-blend-mode:overlay" opacity="0.51">
<path d="M87.307 132.96C85.481 134.006 82.4018 132.58 80.4396 129.765C78.4775 126.95 78.3701 123.82 80.1962 122.775C82.0222 121.729 85.1015 123.154 87.0636 125.969C89.0257 128.784 89.1045 131.893 87.307 132.96Z" fill="white"/>
</g>
<g style="mix-blend-mode:overlay" opacity="0.51">
<path d="M92.1694 135.395C90.3433 136.441 87.2641 135.016 85.3019 132.201C83.3398 129.386 83.2324 126.256 85.0585 125.21C86.8845 124.164 89.9638 125.59 91.9259 128.405C93.888 131.22 93.9954 134.342 92.1694 135.395Z" fill="white"/>
</g>
<g style="mix-blend-mode:overlay" opacity="0.51">
<path d="M97.0246 137.823C95.1985 138.869 92.1193 137.444 90.1572 134.629C88.195 131.814 88.0876 128.684 89.9137 127.638C91.7398 126.592 94.819 128.017 96.7811 130.832C98.7432 133.647 98.8578 136.777 97.0246 137.823Z" fill="white"/>
</g>
</g>
<path opacity="0.64" d="M217 93.5727C217 102.419 209.839 106 200.988 101.581C192.137 97.1612 184.976 86.4029 184.976 77.5571C184.976 68.7112 192.137 65.1299 200.988 69.5493C209.839 73.9686 217 84.734 217 93.5727Z" fill="#6ACBF7"/>
<path opacity="0.64" d="M217 172.204C217 181.05 209.839 184.631 200.988 180.212C192.137 175.793 184.976 165.034 184.976 156.188C184.976 147.343 192.137 143.761 200.988 148.181C209.839 152.6 217 163.358 217 172.204Z" fill="#6ACBF7"/>
<g opacity="0.51">
<path opacity="0.51" d="M159.082 144.599C159.082 145.917 158.015 146.454 156.69 145.795C156.024 145.446 155.455 144.935 155.038 144.31C154.62 143.684 154.365 142.964 154.298 142.214C154.298 140.896 155.365 140.359 156.69 141.018C157.356 141.367 157.924 141.878 158.342 142.504C158.76 143.129 159.014 143.85 159.082 144.599Z" fill="#ABD1FF"/>
<path opacity="0.64" d="M166.142 148.131C166.142 149.448 165.075 149.986 163.751 149.327C163.084 148.977 162.516 148.467 162.098 147.841C161.681 147.215 161.426 146.495 161.359 145.745C161.359 144.427 162.426 143.89 163.751 144.549C164.417 144.898 164.985 145.409 165.403 146.035C165.821 146.661 166.075 147.381 166.142 148.131Z" fill="#6ACBF7"/>
<path opacity="0.64" d="M173.203 151.662C173.203 152.98 172.136 153.517 170.811 152.858C170.145 152.509 169.577 151.998 169.159 151.372C168.741 150.747 168.487 150.026 168.42 149.277C168.42 147.959 169.487 147.422 170.811 148.08C171.478 148.43 172.046 148.941 172.464 149.566C172.882 150.192 173.136 150.912 173.203 151.662Z" fill="#6ACBF7"/>
<path opacity="0.64" d="M180.264 155.193C180.264 156.511 179.197 157.048 177.872 156.389C177.206 156.04 176.638 155.529 176.22 154.903C175.802 154.278 175.548 153.557 175.48 152.808C175.48 151.49 176.547 150.953 177.872 151.612C178.539 151.961 179.107 152.472 179.525 153.097C179.942 153.723 180.197 154.444 180.264 155.193Z" fill="#6ACBF7"/>
</g>
<g opacity="0.51">
<path opacity="0.51" d="M159.082 107.246C159.082 108.564 158.015 109.101 156.69 108.442C156.024 108.093 155.455 107.582 155.038 106.957C154.62 106.331 154.365 105.611 154.298 104.861C154.298 103.543 155.365 103.006 156.69 103.665C157.356 104.014 157.924 104.525 158.342 105.151C158.76 105.776 159.014 106.497 159.082 107.246Z" fill="#ABD1FF"/>
<path opacity="0.64" d="M166.142 110.778C166.142 112.095 165.075 112.633 163.751 111.974C163.084 111.624 162.516 111.114 162.098 110.488C161.681 109.862 161.426 109.142 161.359 108.392C161.359 107.074 162.426 106.537 163.751 107.196C164.417 107.545 164.985 108.056 165.403 108.682C165.821 109.308 166.075 110.028 166.142 110.778Z" fill="#6ACBF7"/>
<path opacity="0.64" d="M173.203 114.309C173.203 115.627 172.136 116.164 170.811 115.505C170.145 115.156 169.577 114.645 169.159 114.019C168.741 113.394 168.487 112.673 168.42 111.924C168.42 110.606 169.487 110.068 170.811 110.727C171.478 111.077 172.046 111.587 172.464 112.213C172.882 112.839 173.136 113.559 173.203 114.309Z" fill="#6ACBF7"/>
<path opacity="0.64" d="M180.264 117.84C180.264 119.158 179.197 119.695 177.872 119.036C177.206 118.687 176.638 118.176 176.22 117.55C175.802 116.925 175.548 116.204 175.48 115.455C175.48 114.137 176.547 113.6 177.872 114.259C178.539 114.608 179.107 115.119 179.525 115.744C179.942 116.37 180.197 117.091 180.264 117.84Z" fill="#6ACBF7"/>
</g>
<g opacity="0.51">
<path opacity="0.51" d="M159.082 67.902C159.082 69.2199 158.015 69.7571 156.69 69.0982C156.024 68.749 155.455 68.2381 155.038 67.6124C154.62 66.9868 154.365 66.2663 154.298 65.5169C154.298 64.1989 155.365 63.6617 156.69 64.3207C157.356 64.6699 157.924 65.1807 158.342 65.8064C158.76 66.4321 159.014 67.1526 159.082 67.902Z" fill="#ABD1FF"/>
<path opacity="0.64" d="M166.142 71.4333C166.142 72.7512 165.075 73.2884 163.751 72.6294C163.084 72.2802 162.516 71.7694 162.098 71.1437C161.681 70.518 161.426 69.7975 161.359 69.0481C161.359 67.7302 162.426 67.193 163.751 67.852C164.417 68.2012 164.985 68.712 165.403 69.3377C165.821 69.9634 166.075 70.6839 166.142 71.4333Z" fill="#6ACBF7"/>
<path opacity="0.64" d="M173.203 74.9645C173.203 76.2824 172.136 76.8196 170.811 76.1607C170.145 75.8115 169.577 75.3006 169.159 74.6749C168.741 74.0493 168.487 73.3288 168.42 72.5794C168.42 71.2614 169.487 70.7242 170.811 71.3832C171.478 71.7324 172.046 72.2432 172.464 72.8689C172.882 73.4946 173.136 74.2151 173.203 74.9645Z" fill="#6ACBF7"/>
<path opacity="0.64" d="M180.264 78.4958C180.264 79.8137 179.197 80.3509 177.872 79.6919C177.206 79.3427 176.638 78.8319 176.22 78.2062C175.802 77.5805 175.548 76.86 175.48 76.1106C175.48 74.7927 176.547 74.2555 177.872 74.9145C178.539 75.2637 179.107 75.7745 179.525 76.4002C179.942 77.0259 180.197 77.7464 180.264 78.4958Z" fill="#6ACBF7"/>
</g>
<path d="M156.468 36.1857L96.7882 6.30312C96.3512 6.02967 95.8518 5.87176 95.337 5.8442C94.8222 5.81663 94.3088 5.92032 93.8451 6.14554L89.1045 8.48773L91.5464 9.58361V131.75C91.5464 133.941 93.3223 136.613 95.5208 137.709L154.692 167.326L154.27 169.669L159.125 167.248C159.556 167.051 159.915 166.724 160.152 166.313C160.388 165.902 160.49 165.427 160.442 164.956V42.145C160.442 39.9532 158.667 37.2815 156.468 36.1857Z" fill="#3999D4"/>
<path d="M151.405 169.446L91.7183 139.571C89.527 138.475 87.7439 135.804 87.7439 133.612V10.794C87.7439 8.60227 89.5199 7.70694 91.7183 8.80999L151.405 38.6854C153.597 39.7812 155.38 42.4529 155.38 44.6447V167.462C155.401 169.654 153.618 170.571 151.405 169.446Z" fill="#BBEAFF"/>
<path d="M147.108 160.121L96.0076 134.536C93.8163 133.44 92.0332 130.768 92.0332 128.577V20.1559C92.0332 17.9641 93.8091 17.0688 96.0076 18.1718L147.108 43.7209C149.3 44.8168 151.083 47.4885 151.083 49.6803V158.13C151.104 160.329 149.328 161.217 147.108 160.121Z" fill="#0F65B2"/>
<path d="M134.441 34.8535L111.64 23.4506C111.296 23.2684 111.003 23.0022 110.789 22.6766C110.575 22.3511 110.446 21.9767 110.416 21.5883C110.416 20.9078 110.967 20.6356 111.64 20.9723L134.441 32.3752C134.782 32.5554 135.073 32.8183 135.287 33.1398C135.501 33.4614 135.631 33.8313 135.665 34.216C135.651 34.918 135.121 35.1973 134.441 34.8535Z" fill="#0F65B2"/>
<path d="M143.414 38.5635C143.414 39.4159 142.698 39.7668 141.867 39.3371C141.435 39.1109 141.067 38.7798 140.797 38.3743C140.527 37.9688 140.363 37.5019 140.32 37.0164C140.32 36.164 141.036 35.813 141.867 36.2428C142.298 36.469 142.666 36.8001 142.937 37.2056C143.207 37.6111 143.371 38.078 143.414 38.5635Z" fill="#0F65B2"/>
<path d="M158.144 74.4412L158.409 74.6776C158.232 74.7734 158.035 74.823 157.834 74.8218C157.633 74.8206 157.436 74.7685 157.261 74.6706C157.086 74.5726 156.939 74.4319 156.832 74.2616C156.726 74.0912 156.665 73.8968 156.654 73.6963V60.9325C156.697 60.4654 156.855 60.0163 157.115 59.626C157.375 59.2357 157.729 58.9166 158.144 58.6978C158.96 58.2895 160.041 58.6978 160.041 59.5143L159.633 72.1993C159.592 72.6677 159.434 73.1183 159.174 73.5099C158.914 73.9015 158.559 74.2217 158.144 74.4412Z" fill="#0C488F"/>
<path d="M158.667 74.6991C157.85 75.1074 157.177 74.7708 157.177 73.9829V61.1904C157.219 60.7233 157.378 60.2742 157.638 59.8839C157.898 59.4936 158.252 59.1745 158.667 58.9557C159.483 58.5474 160.156 58.884 160.156 59.6719V72.4429C160.117 72.9138 159.96 73.3673 159.7 73.7616C159.439 74.1559 159.084 74.4783 158.667 74.6991Z" fill="#0F65B2"/>
<path d="M158.144 93.3006L158.409 93.537C158.232 93.6328 158.035 93.6824 157.834 93.6812C157.633 93.6799 157.436 93.6279 157.261 93.53C157.086 93.432 156.939 93.2913 156.832 93.1209C156.726 92.9506 156.665 92.7561 156.654 92.5557V79.7919C156.697 79.3248 156.855 78.8756 157.115 78.4854C157.375 78.0951 157.729 77.776 158.144 77.5571C158.96 77.1489 160.041 77.5571 160.041 78.3737L159.633 91.0659C159.591 91.533 159.432 91.9821 159.172 92.3724C158.912 92.7627 158.559 93.0817 158.144 93.3006Z" fill="#0C488F"/>
<path d="M158.667 93.5582C157.85 93.9665 157.177 93.6298 157.177 92.8419V80.0566C157.219 79.5895 157.378 79.1404 157.638 78.7501C157.898 78.3598 158.252 78.0408 158.667 77.8219C159.483 77.4136 160.156 77.7503 160.156 78.5381V91.302C160.117 91.7729 159.96 92.2264 159.7 92.6207C159.439 93.015 159.084 93.3374 158.667 93.5582Z" fill="#0F65B2"/>
<g opacity="0.66">
<path opacity="0.64" d="M217 133.024C217 141.87 209.839 145.452 200.988 141.032C192.137 136.613 184.976 125.855 184.976 117.009C184.976 108.163 192.137 104.582 200.988 109.001C209.839 113.42 217 124.179 217 133.024Z" fill="#6ACBF7"/>
</g>
<path d="M194.629 87.5703C192.66 86.5818 191.049 84.1895 191.049 82.2198V81.5465C191.049 79.5768 192.645 78.7817 194.629 79.763V87.5703Z" fill="white"/>
<path d="M208.17 86.5391C210.14 87.5275 211.751 89.9198 211.751 91.8895V92.5628C211.751 94.5326 210.154 95.3276 208.17 94.3463V86.5391Z" fill="white"/>
<path d="M194.214 80.6802L192.975 79.964C193.34 74.7925 196.742 72.9016 201.446 75.2581C206.151 77.6146 209.56 82.9078 209.918 88.4445L208.679 87.9073C208.357 83.0152 205.521 78.5386 201.446 76.4972C197.372 74.4559 194.536 76.1105 194.214 80.6802Z" fill="white"/>
<path d="M201.246 95.6354C198.536 94.3895 196.213 92.4344 194.522 89.9769C193.526 88.5574 192.97 86.8757 192.925 85.1421L193.856 85.6578L193.39 85.3999L193.856 85.6578C193.912 87.1061 194.381 88.5079 195.209 89.6975C196.737 91.8782 198.822 93.6095 201.246 94.7114V95.6425V95.6354Z" fill="white"/>
<path d="M202.334 95.7143C202.334 96.4305 201.733 96.76 200.988 96.3876C200.613 96.1915 200.293 95.9045 200.058 95.5529C199.823 95.2013 199.68 94.7962 199.642 94.3749C199.642 93.6586 200.243 93.3291 200.988 93.7016C201.363 93.8976 201.682 94.1846 201.918 94.5362C202.153 94.8879 202.296 95.2929 202.334 95.7143Z" fill="white"/>
<path d="M188.549 123.398V122.159L189.681 121.7C191.593 120.948 192.545 120.425 192.545 119.416C192.52 118.981 192.372 118.563 192.119 118.209C191.865 117.855 191.516 117.581 191.113 117.417C190.536 117.115 189.866 117.041 189.237 117.209L188.642 115.419C189.63 115.262 190.641 115.449 191.507 115.949C193.49 116.937 194.579 118.649 194.579 120.246C194.579 121.715 193.512 122.359 192.244 122.854L191.435 123.126L194.736 124.78V126.464L188.549 123.398Z" fill="white"/>
<path d="M199.656 128.956V126.879L195.775 124.938V123.584L199.09 119.902L201.597 121.156V126.291L202.649 126.821V128.361L201.597 127.831V129.923L199.656 128.956ZM199.656 125.332V123.391C199.656 122.868 199.656 122.338 199.72 121.793H199.663C199.384 122.216 199.147 122.617 198.854 123.018L197.679 124.343L199.656 125.332Z" fill="white"/>
<path d="M203.158 131.248L206.022 122.918L207.383 123.634L204.518 131.964L203.158 131.248Z" fill="white"/>
<path d="M214.25 127.495V128.792L210.67 134.45L208.521 133.361L212.102 128.118L208.084 126.106V124.422L214.25 127.495Z" fill="white"/>
<path d="M205.385 174.396L194.88 169.139C194.527 168.952 194.218 168.693 193.972 168.38C193.725 168.067 193.546 167.706 193.447 167.319L191.421 158.094C191.319 157.903 191.288 157.681 191.334 157.47C191.38 157.258 191.499 157.069 191.671 156.937C191.843 156.805 192.055 156.738 192.272 156.748C192.488 156.757 192.694 156.844 192.853 156.991L207.261 164.196C207.739 164.454 208.133 164.841 208.4 165.314C208.661 165.721 208.761 166.212 208.679 166.689L206.817 173.973C206.659 174.568 206.072 174.74 205.385 174.396ZM192.223 158.302L194.249 167.527C194.292 167.694 194.369 167.85 194.475 167.986C194.581 168.121 194.714 168.233 194.865 168.315L205.37 173.572C205.42 173.614 205.478 173.644 205.542 173.657C205.605 173.67 205.671 173.668 205.733 173.649C205.795 173.631 205.851 173.597 205.897 173.551C205.942 173.505 205.975 173.448 205.993 173.386L207.855 166.102C207.892 165.893 207.848 165.678 207.734 165.5C207.619 165.294 207.447 165.125 207.239 165.013L192.846 157.815C192.775 157.758 192.688 157.727 192.598 157.726C192.507 157.725 192.419 157.755 192.348 157.811C192.277 157.866 192.226 157.944 192.205 158.032C192.183 158.12 192.192 158.212 192.23 158.294L192.223 158.302Z" fill="white"/>
<path d="M207.848 168.458L192.294 160.672V159.849L207.848 167.627V168.458Z" fill="white"/>
<path d="M207.025 171.674L193.19 164.748V163.924L207.025 170.843V171.674Z" fill="white"/>
<path d="M196.541 169.625L195.302 161.833L196.111 162.098L197.357 169.89L196.541 169.625Z" fill="white"/>
<path d="M203.767 173.228L202.95 172.706L203.96 166.037L204.776 166.56L203.767 173.228Z" fill="white"/>
<path d="M200.515 171.545L199.692 171.137V163.967L200.515 164.376V171.545Z" fill="white"/>
<path d="M208.084 167.52L207.999 167.47C207.894 167.399 207.81 167.303 207.754 167.19C207.699 167.076 207.675 166.951 207.683 166.825L208.98 161.41C208.984 161.362 209.002 161.317 209.032 161.279C209.061 161.241 209.101 161.213 209.146 161.197C209.191 161.181 209.24 161.179 209.287 161.19C209.333 161.201 209.376 161.225 209.409 161.26L213.119 163.115C213.234 163.174 213.332 163.262 213.405 163.369C213.478 163.477 213.522 163.601 213.534 163.731C213.534 163.96 213.348 164.053 213.119 163.938L209.739 162.248L208.514 167.376C208.508 167.424 208.489 167.468 208.459 167.505C208.429 167.541 208.39 167.569 208.345 167.584C208.3 167.599 208.251 167.601 208.205 167.589C208.159 167.578 208.117 167.554 208.084 167.52Z" fill="white"/>
<path d="M197.565 171.402C197.565 172.118 197.006 172.369 196.319 172.025C195.972 171.843 195.677 171.578 195.459 171.253C195.241 170.927 195.109 170.553 195.073 170.163C195.073 169.446 195.632 169.196 196.319 169.54C196.666 169.721 196.961 169.987 197.179 170.312C197.397 170.637 197.529 171.012 197.565 171.402Z" fill="#6ACBF7"/>
<path d="M205.607 175.42C205.607 176.136 205.048 176.387 204.361 176.043C204.014 175.862 203.718 175.596 203.501 175.271C203.283 174.945 203.15 174.571 203.115 174.181C203.115 173.465 203.673 173.214 204.361 173.558C204.707 173.739 205.003 174.005 205.221 174.33C205.439 174.655 205.571 175.03 205.607 175.42Z" fill="#6ACBF7"/>
<path opacity="0.17" d="M143.729 111.687C143.729 121.407 135.851 125.346 126.134 120.483C116.416 115.62 108.539 103.808 108.539 94.0887C108.539 84.369 116.416 80.4295 126.134 85.2929C135.851 90.1564 143.729 101.968 143.729 111.687Z" fill="#6ACBF7"/>
<path opacity="0.33" d="M142.182 112.676C142.182 122.395 134.305 126.335 124.587 121.471C114.87 116.608 107.007 104.797 107.007 95.0769C107.007 85.3572 114.884 81.4178 124.601 86.2812C134.319 91.1446 142.182 102.956 142.182 112.676Z" fill="#6ACBF7"/>
<path opacity="0.5" d="M140.664 113.664C140.664 123.384 132.786 127.323 123.069 122.46C113.351 117.596 105.453 105.785 105.453 96.0797C105.453 86.3744 113.33 82.4206 123.047 87.284C132.765 92.1474 140.664 103.959 140.664 113.664Z" fill="#6ACBF7"/>
<path opacity="0.67" d="M139.088 114.652C139.088 124.372 131.211 128.311 121.494 123.448C111.776 118.584 103.899 106.773 103.899 97.0535C103.899 87.3338 111.776 83.3943 121.494 88.2578C131.211 93.1212 139.088 104.932 139.088 114.652Z" fill="#6ACBF7"/>
<path opacity="0.83" d="M137.534 115.641C137.534 125.361 129.657 129.3 119.94 124.437C110.222 119.573 102.345 107.762 102.345 98.0423C102.345 88.3226 110.222 84.3831 119.94 89.2465C129.657 94.11 137.534 105.928 137.534 115.641Z" fill="#6ACBF7"/>
<path d="M135.987 116.629C135.987 126.349 128.11 130.288 118.393 125.425C108.675 120.561 100.798 108.75 100.798 99.0305C100.798 89.3108 108.675 85.3714 118.393 90.2348C128.11 95.0983 135.987 106.917 135.987 116.629Z" fill="#6ACBF7"/>
<path d="M116.746 117.324C116.277 117.076 115.879 116.711 115.593 116.264L108.024 104.675C107.408 103.73 107.48 102.82 108.06 102.426C109.155 101.71 110.079 102.333 110.695 103.271L116.896 112.776L126.284 103.687C126.786 103.207 127.781 103.515 128.511 104.403C129.242 105.291 129.428 106.358 128.934 106.838L118.071 117.31C117.905 117.442 117.703 117.522 117.491 117.54C117.28 117.558 117.068 117.513 116.882 117.41L116.746 117.324Z" fill="white"/>
<path d="M107.587 62.3506C108.918 62.8174 110.215 63.3775 111.468 64.0266C112.969 64.7064 114.296 65.7178 115.349 66.9848C116.169 68.0045 116.643 69.2589 116.703 70.5661C116.703 71.8124 116.288 72.6576 115.536 72.9943C114.555 73.424 113.108 73.116 111.411 72.278C111.075 72.1135 110.747 71.9318 110.43 71.7336V76.2748L107.565 74.8422V62.3506H107.587ZM110.451 69.5132C110.755 69.7252 111.076 69.9121 111.411 70.0719C112.936 70.8383 113.881 70.5375 113.881 69.2339C113.881 68.0664 113.072 66.9633 111.64 66.2471C111.262 66.0451 110.864 65.8842 110.451 65.7672V69.5132Z" fill="white"/>
<path d="M120.355 78.0012L119.453 80.809L116.474 79.3192L120.355 68.5752L124.122 70.459L128.06 85.1209L124.974 83.5738L123.993 79.8277L120.355 78.0012ZM123.578 77.464L122.761 74.3769C122.532 73.5102 122.31 72.4573 122.124 71.605H122.088C121.902 72.264 121.709 73.1306 121.501 73.7538L120.749 76.0673L123.578 77.464Z" fill="white"/>
<path d="M130.903 86.5389V81.3388L126.893 71.834L130.173 73.4742L131.469 77.1773C131.863 78.2947 132.128 79.1112 132.45 80.0997H132.486C132.765 79.4479 133.073 78.8677 133.445 78.1514L134.727 75.7376L137.95 77.3492L133.768 82.6567V87.9499L130.903 86.5389Z" fill="white"/>
<path opacity="0.64" d="M72.7128 19.6328L35.4755 1.00993C30.7421 -1.3609 26.8823 0.558689 26.8823 5.30752C26.8823 10.0563 30.7206 15.8008 35.4755 18.2003L72.7128 36.8231L81.306 43.9858V32.5255C81.2845 27.7552 77.4462 21.9965 72.7128 19.6328Z" fill="#6ACBF7"/>
<path opacity="0.64" d="M42.1424 32.7619L16.1408 19.7546C11.4074 17.3837 7.54761 19.3033 7.54761 24.0521V35.5124H13.9138C14.6177 36.0615 15.3732 36.5412 16.1695 36.9449L42.1711 49.9523C46.9045 52.3231 50.7643 50.4035 50.7643 45.6547C50.7142 40.8843 46.8544 35.1328 42.1424 32.7619Z" fill="#6ACBF7"/>
<path d="M103.276 192.997L98.4281 158.824L78.2842 168.895L76.7947 206.248L103.276 192.997Z" fill="url(#paint2_linear)"/>
<path d="M87.7367 153.481L90.0354 157.377L98.4281 158.824L78.2842 168.895L67.5928 163.552L87.7367 153.481Z" fill="#CEF0FF"/>
<path d="M96.9673 159.039L89.749 157.793L87.5577 154.083L68.624 163.552L78.2842 168.386L96.9673 159.039Z" fill="#4CC5FB"/>
<path d="M78.4918 168.279L77.1384 163.344L69.2827 163.222L68.1155 163.552L78.2125 168.644L78.4918 168.279Z" fill="#CEF0FF"/>
<path d="M62.7375 199.215L67.5927 163.552L76.7946 163.709L78.2841 168.895L76.7946 206.248L70.9584 200.404L62.7375 199.215Z" fill="#CFF0FF"/>
<path d="M76.7946 163.709L70.9584 200.404L62.7375 199.215L67.5927 163.552L76.7946 163.709Z" fill="#E5F7FF"/>
<path d="M91.8398 166.904C91.8398 167.269 92.1334 167.412 92.4986 167.233C92.6824 167.137 92.8391 166.996 92.9542 166.823C93.0693 166.65 93.1392 166.452 93.1574 166.245C93.1574 165.879 92.8639 165.736 92.4986 165.915C92.3148 166.012 92.1582 166.153 92.0431 166.325C91.928 166.498 91.8581 166.697 91.8398 166.904Z" fill="#5C6FB8"/>
<path d="M84.1348 169.962C84.1348 170.328 84.4284 170.471 84.7936 170.292C84.9774 170.195 85.134 170.054 85.2491 169.882C85.3642 169.709 85.4342 169.51 85.4524 169.303C85.4524 168.938 85.1588 168.795 84.7936 168.974C84.6098 169.07 84.4532 169.211 84.338 169.384C84.2229 169.557 84.153 169.756 84.1348 169.962Z" fill="#5C6FB8"/>
<path d="M91.1023 182.031C91.5071 182.028 91.9032 181.914 92.2481 181.702C96.1365 179.388 93.4869 167.949 93.1718 166.66C93.1357 166.512 93.0423 166.384 92.912 166.305C92.7818 166.226 92.6254 166.201 92.4772 166.238C92.3291 166.274 92.2013 166.367 92.1221 166.497C92.0429 166.628 92.0186 166.784 92.0547 166.932C92.8567 170.227 94.3391 179.109 91.6609 180.713C91.4889 180.824 91.2888 180.882 91.0844 180.882C90.88 180.882 90.6799 180.824 90.508 180.713C87.8942 179.281 85.4093 170.728 85.3592 169.783C85.3518 169.63 85.2844 169.487 85.1718 169.384C85.0592 169.28 84.9103 169.226 84.7577 169.232C84.607 169.237 84.4645 169.302 84.3613 169.412C84.2581 169.522 84.2024 169.668 84.2062 169.819C84.2062 170.571 86.6625 179.925 89.935 181.709C90.2903 181.914 90.6921 182.025 91.1023 182.031Z" fill="#19AAEC"/>
<path d="M87.5575 154.083L86.2471 164.397L88.8537 163.093L89.7488 157.793L87.5575 154.083Z" fill="#2BBAFA"/>
<path d="M142.798 200.339L135.587 149.592L105.675 164.547L103.469 220.008L142.798 200.339Z" fill="url(#paint3_linear)"/>
<path d="M119.711 141.648L123.133 147.443L135.586 149.592L105.675 164.547L89.8062 156.611L119.711 141.648Z" fill="#CEF0FF"/>
<path d="M133.417 149.907L122.704 148.059L119.446 142.544L91.3315 156.611L105.675 163.781L133.417 149.907Z" fill="#4CC5FB"/>
<path d="M105.983 163.63L103.978 156.303L92.3054 156.124L90.5796 156.611L105.575 164.175L105.983 163.63Z" fill="#CEF0FF"/>
<path d="M82.595 209.572L89.8061 156.611L103.469 156.841L105.675 164.548L103.469 220.008L94.7973 211.327L82.595 209.572Z" fill="#CFF0FF"/>
<path d="M103.469 156.841L94.7973 211.327L82.595 209.572L89.8061 156.611L103.469 156.841Z" fill="#E5F7FF"/>
<path d="M125.805 161.589C125.805 162.126 126.241 162.348 126.779 162.076C127.046 161.936 127.275 161.731 127.445 161.482C127.614 161.232 127.72 160.944 127.752 160.644C127.752 160.106 127.316 159.884 126.779 160.157C126.511 160.297 126.282 160.501 126.113 160.751C125.943 161.001 125.837 161.289 125.805 161.589Z" fill="#5C6FB8"/>
<path d="M114.368 166.13C114.368 166.667 114.805 166.889 115.342 166.617C115.61 166.477 115.838 166.272 116.008 166.023C116.178 165.773 116.284 165.485 116.316 165.185C116.316 164.647 115.879 164.425 115.342 164.698C115.075 164.838 114.846 165.042 114.676 165.292C114.506 165.542 114.401 165.83 114.368 166.13Z" fill="#5C6FB8"/>
<path d="M124.716 184.065C125.318 184.061 125.907 183.893 126.42 183.578C132.192 180.148 128.261 163.158 127.788 161.238C127.735 161.018 127.596 160.828 127.403 160.709C127.21 160.591 126.977 160.555 126.757 160.608C126.537 160.661 126.347 160.8 126.228 160.993C126.11 161.186 126.074 161.419 126.127 161.639C127.316 166.531 129.521 179.746 125.547 182.11C125.292 182.273 124.997 182.359 124.695 182.359C124.393 182.359 124.097 182.273 123.842 182.11C119.968 180.033 116.273 167.283 116.202 165.88C116.189 165.655 116.089 165.444 115.923 165.291C115.757 165.139 115.539 165.057 115.314 165.063C115.09 165.072 114.879 165.169 114.727 165.333C114.574 165.496 114.492 165.713 114.497 165.937C114.533 167.054 118.149 180.943 123.005 183.6C123.527 183.896 124.116 184.056 124.716 184.065Z" fill="#19AAEC"/>
<path d="M119.446 142.544L117.505 157.872L121.379 155.931L122.704 148.059L119.446 142.544Z" fill="#2BBAFA"/>
</g>
<defs>
<linearGradient id="paint0_linear" x1="104.859" y1="97.4619" x2="19.9075" y2="97.4619" gradientUnits="userSpaceOnUse">
<stop stop-color="#208DC8"/>
<stop offset="0.47" stop-color="#12517D"/>
<stop offset="1" stop-color="#07386F"/>
</linearGradient>
<linearGradient id="paint1_linear" x1="65.7954" y1="146.017" x2="57.3559" y2="49.6085" gradientUnits="userSpaceOnUse">
<stop stop-color="#6ACBF7"/>
<stop offset="0.29" stop-color="#30BEFE"/>
<stop offset="0.9" stop-color="#0F65B2"/>
<stop offset="1" stop-color="#0C488F"/>
</linearGradient>
<linearGradient id="paint2_linear" x1="90.6369" y1="204.55" x2="85.2208" y2="160.45" gradientUnits="userSpaceOnUse">
<stop stop-color="#6CCDF8"/>
<stop offset="0.13" stop-color="#9EE1FF"/>
<stop offset="0.35" stop-color="#D7F3FF"/>
<stop offset="0.56" stop-color="#EBF8FF"/>
<stop offset="0.78" stop-color="#FBFCFF"/>
<stop offset="1" stop-color="white"/>
</linearGradient>
<linearGradient id="paint3_linear" x1="-11512.9" y1="25323.3" x2="-10142" y2="19089.5" gradientUnits="userSpaceOnUse">
<stop stop-color="#ABBCFF"/>
<stop offset="0.13" stop-color="#C0CDFF"/>
<stop offset="0.35" stop-color="#DBE3FF"/>
<stop offset="0.56" stop-color="#EFF2FF"/>
<stop offset="0.78" stop-color="#FBFCFF"/>
<stop offset="1" stop-color="white"/>
</linearGradient>
<clipPath id="clip0">
<rect width="217" height="225" fill="white"/>
</clipPath>
</defs>
</svg>
