<svg width="242" height="226" viewBox="0 0 242 226" fill="none" xmlns="http://www.w3.org/2000/svg">
<path d="M165.287 86.3501L240.556 129.689C241.691 130.342 241.549 131.485 240.243 132.237L80.4528 224.762C79.7834 225.137 79.0354 225.35 78.2689 225.383C77.5023 225.416 76.7387 225.269 76.0394 224.954L0.770306 181.614C-0.364975 180.962 -0.223074 179.819 1.0825 179.067L160.88 86.563C161.547 86.1857 162.293 85.9699 163.058 85.933C163.823 85.896 164.587 86.0389 165.287 86.3501Z" fill="#889BBA"/>
<path d="M0.0112305 161.243V166.522C0.0330773 166.75 0.113965 166.968 0.245881 167.154C0.377798 167.341 0.556169 167.49 0.763352 167.586L76.0324 210.926C76.7318 211.241 77.4954 211.389 78.2619 211.355C79.0285 211.322 79.7765 211.109 80.4458 210.734L240.258 118.216C240.544 118.093 240.792 117.897 240.979 117.648C241.166 117.399 241.284 117.106 241.322 116.797V111.525L232.992 116.123L165.308 77.1259C164.609 76.8103 163.845 76.6632 163.079 76.6965C162.312 76.7298 161.564 76.9425 160.895 77.3175L7.89433 165.898C8.28459 165.465 8.60388 165.153 8.60388 165.124C8.60388 165.096 0.0112305 161.243 0.0112305 161.243Z" fill="#2573BA"/>
<path d="M79.9065 210.989V189.547L76.4438 187.574V211.096C77.575 211.466 78.8001 211.428 79.9065 210.989Z" fill="#9DE1FF"/>
<path d="M165.287 67.1205L240.549 110.474C241.684 111.127 241.542 112.269 240.236 113.021L80.4528 205.511C79.7834 205.886 79.0354 206.099 78.2689 206.132C77.5024 206.165 76.7387 206.018 76.0394 205.703L0.770306 162.363C-0.364975 161.711 -0.223074 160.568 1.0825 159.816L160.88 67.305C161.549 66.9322 162.296 66.7214 163.062 66.6894C163.827 66.6573 164.589 66.805 165.287 67.1205Z" fill="#BBEAFF"/>
<path d="M76.0395 205.696L0.770443 162.364C0.482258 162.254 0.247691 162.037 0.115536 161.758C-0.0166194 161.479 -0.0361893 161.16 0.0608925 160.867C0.116825 161.048 0.208414 161.216 0.330276 161.361C0.452138 161.506 0.601806 161.625 0.770443 161.711L76.0395 205.051C76.7388 205.366 77.5025 205.513 78.269 205.48C79.0355 205.447 79.7836 205.234 80.4529 204.859L240.279 112.348C240.723 112.125 241.074 111.753 241.272 111.298C241.429 111.873 241.074 112.518 240.237 113.001L80.4529 205.512C79.783 205.886 79.0347 206.097 78.2682 206.129C77.5016 206.161 76.7383 206.013 76.0395 205.696Z" fill="white"/>
<path d="M152.763 72.0024L232.133 117.697L88.5558 200.821L9.19263 155.126L152.763 72.0024Z" fill="#24126A"/>
<path d="M152.763 72.0024L232.133 117.697L88.5558 200.821L9.19263 155.126L152.763 72.0024Z" fill="#24126A"/>
<path style="mix-blend-mode:lighten" d="M152.763 72.0024L232.133 117.697L88.5558 200.821L9.19263 155.126L152.763 72.0024Z" fill="#0F65B2"/>
<path d="M38.8946 176.611L53.2772 184.863C53.6958 185.105 53.9371 185.374 53.6745 185.708C53.5696 185.834 53.4421 185.94 53.2985 186.02C52.9668 186.205 52.5963 186.31 52.2167 186.326C51.8372 186.342 51.4591 186.269 51.113 186.112L36.6027 177.761C36.5547 177.75 36.5121 177.722 36.4821 177.683C36.3615 177.222 36.4041 177.115 37.0001 176.768L37.1988 176.725C37.4383 176.54 37.7274 176.43 38.0294 176.41C38.3314 176.39 38.6325 176.46 38.8946 176.611Z" fill="#173D7A"/>
<path d="M36.482 177.669C36.5869 177.543 36.7144 177.437 36.8581 177.357C37.1897 177.172 37.5602 177.067 37.9398 177.051C38.3194 177.035 38.6974 177.108 39.0435 177.265L53.5538 185.616L53.6673 185.687C53.7329 185.617 53.7802 185.531 53.805 185.438C53.8299 185.345 53.8315 185.247 53.8098 185.154C53.7881 185.06 53.7437 184.973 53.6805 184.9C53.6173 184.827 53.5372 184.771 53.4473 184.737L38.937 176.385C38.591 176.228 38.2129 176.155 37.8333 176.171C37.4538 176.187 37.0832 176.292 36.7516 176.477C36.1627 176.839 36.0633 177.343 36.482 177.669Z" fill="#6ACBF7"/>
<path opacity="0.2" d="M57.74 149.713L52.539 146.711C52.3578 146.651 52.2001 146.535 52.0884 146.381C51.9766 146.226 51.9165 146.04 51.9165 145.849C51.9165 145.658 51.9766 145.472 52.0884 145.317C52.2001 145.163 52.3578 145.047 52.539 144.987C53.002 144.753 53.5136 144.63 54.0326 144.63C54.5515 144.63 55.0632 144.753 55.5262 144.987L60.7272 147.988C60.9084 148.048 61.066 148.164 61.1778 148.319C61.2895 148.474 61.3497 148.66 61.3497 148.85C61.3497 149.041 61.2895 149.227 61.1778 149.382C61.066 149.537 60.9084 149.652 60.7272 149.713C60.2644 149.947 59.7526 150.07 59.2336 150.07C58.7145 150.07 58.2028 149.947 57.74 149.713Z" fill="#6ACBF7"/>
<path opacity="0.6" d="M68.5112 155.928L63.3102 152.927C63.129 152.867 62.9714 152.751 62.8596 152.597C62.7479 152.442 62.6877 152.256 62.6877 152.065C62.6877 151.874 62.7479 151.688 62.8596 151.533C62.9714 151.378 63.129 151.263 63.3102 151.203C63.7732 150.968 64.2849 150.846 64.8038 150.846C65.3228 150.846 65.8344 150.968 66.2974 151.203L71.4984 154.204C71.6796 154.264 71.8373 154.38 71.949 154.535C72.0608 154.689 72.1209 154.875 72.1209 155.066C72.1209 155.257 72.0608 155.443 71.949 155.598C71.8373 155.753 71.6796 155.868 71.4984 155.928C71.0354 156.163 70.5238 156.285 70.0048 156.285C69.4859 156.285 68.9742 156.163 68.5112 155.928Z" fill="#6ACBF7"/>
<path d="M79.2825 162.144L74.0815 159.143C73.9003 159.083 73.7426 158.967 73.6309 158.812C73.5191 158.658 73.459 158.472 73.459 158.281C73.459 158.09 73.5191 157.904 73.6309 157.749C73.7426 157.594 73.9003 157.479 74.0815 157.419C74.5445 157.184 75.0561 157.062 75.5751 157.062C76.094 157.062 76.6057 157.184 77.0687 157.419L82.2697 160.42C82.4509 160.48 82.6085 160.596 82.7203 160.75C82.832 160.905 82.8922 161.091 82.8922 161.282C82.8922 161.473 82.832 161.659 82.7203 161.814C82.6085 161.969 82.4509 162.084 82.2697 162.144C81.8069 162.379 81.2951 162.502 80.7761 162.502C80.257 162.502 79.7453 162.379 79.2825 162.144Z" fill="#6ACBF7"/>
<path opacity="0.6" d="M90.0459 168.366L84.8449 165.365C84.6637 165.305 84.506 165.189 84.3943 165.035C84.2826 164.88 84.2224 164.694 84.2224 164.503C84.2224 164.312 84.2826 164.126 84.3943 163.971C84.506 163.816 84.6637 163.701 84.8449 163.641C85.3079 163.406 85.8196 163.284 86.3385 163.284C86.8575 163.284 87.3691 163.406 87.8321 163.641L93.0331 166.642C93.2143 166.702 93.372 166.818 93.4837 166.973C93.5954 167.127 93.6556 167.313 93.6556 167.504C93.6556 167.695 93.5954 167.881 93.4837 168.036C93.372 168.191 93.2143 168.306 93.0331 168.366C92.5701 168.601 92.0584 168.723 91.5395 168.723C91.0205 168.723 90.5089 168.601 90.0459 168.366Z" fill="#6ACBF7"/>
<path opacity="0.2" d="M100.817 174.582L95.602 171.58C95.4208 171.52 95.2631 171.404 95.1514 171.25C95.0396 171.095 94.9795 170.909 94.9795 170.718C94.9795 170.527 95.0396 170.341 95.1514 170.186C95.2631 170.032 95.4208 169.916 95.602 169.856C96.0648 169.621 96.5765 169.499 97.0956 169.499C97.6146 169.499 98.1264 169.621 98.5892 169.856L103.79 172.857C103.971 172.917 104.129 173.033 104.241 173.188C104.353 173.343 104.413 173.529 104.413 173.719C104.413 173.91 104.353 174.096 104.241 174.251C104.129 174.406 103.971 174.522 103.79 174.582C103.329 174.814 102.82 174.935 102.304 174.935C101.787 174.935 101.278 174.814 100.817 174.582Z" fill="#6ACBF7"/>
<path opacity="0.4" d="M149.436 154.211C132.3 164.102 104.521 164.102 87.3854 154.211C70.2498 144.32 70.2498 128.277 87.3854 118.386C104.521 108.495 132.3 108.495 149.436 118.386C166.571 128.277 166.557 144.313 149.436 154.211Z" fill="#0C488F"/>
<path d="M136.011 146.456C126.29 152.068 110.531 152.068 100.81 146.456C91.0891 140.843 91.0891 131.747 100.81 126.134C110.531 120.522 126.29 120.522 136.011 126.134C145.732 131.747 145.732 140.843 136.011 146.456Z" fill="#0C488F"/>
<g opacity="0.3">
<path opacity="0.3" d="M174.816 46.6661C175.362 49.7527 177.654 57.5009 187.084 62.8651C200.516 69.0666 209.79 77.2264 212.94 86.33C213.177 86.9959 213.447 87.6495 213.749 88.2883C214.097 87.7704 214.097 87.7704 214.097 86.408V71.1172C214.097 62.1414 213.586 60.1618 212.947 57.6358C209.832 48.5322 200.523 40.3724 187.091 34.1709C176.377 30.7083 173.78 40.7627 174.823 46.6519L174.816 46.6661Z" fill="#6ACBF7"/>
<path opacity="0.3" d="M76.302 28.3237C90.493 24.1941 107.352 21.8739 125.311 22.0229C127.676 22.0229 130.022 22.0844 132.349 22.2074C148.116 23.6265 153.728 40.3009 144.22 47.588C139.856 50.93 134.627 50.8732 132.349 50.8732C130.072 50.8732 127.681 50.71 125.311 50.6887C107.352 50.5397 90.5427 52.867 76.302 56.9895C61.9407 60.4876 61.0893 45.8921 66.1129 36.966C68.2849 32.8913 71.9287 29.7981 76.302 28.3166V28.3237Z" fill="#6ACBF7"/>
<path opacity="0.3" d="M33.374 93.1271C33.7643 88.5789 34.0836 84.9885 38.7027 78.7232C48.4591 64.3264 46.5078 47.6023 41.101 48.3687C40.2354 48.4964 39.3271 49.433 38.7027 50.0432C35.4246 54.3005 33.5656 58.8984 33.3882 63.6878C33.3882 63.9385 33.3882 64.1893 33.3882 64.44V93.1129L33.374 93.1271Z" fill="#6ACBF7"/>
</g>
<path d="M150.534 96.6828L147.43 97.939L158.158 124.453L161.263 123.196L150.534 96.6828Z" fill="#0A96D6"/>
<path d="M101.742 86.3357C102.859 80.6964 99.1926 75.2196 93.5533 74.103C87.914 72.9864 82.4372 76.6528 81.3206 82.2921C80.204 87.9314 83.8704 93.4081 89.5097 94.5247C95.149 95.6413 100.626 91.975 101.742 86.3357Z" fill="#0A96D6"/>
<path d="M145.27 99.7031C145.27 119.911 133.208 136.295 118.393 136.295C103.577 136.295 91.5149 119.911 91.5149 99.7031C91.5149 79.4951 103.577 73.4497 118.393 73.4497C133.208 73.4497 145.27 79.4951 145.27 99.7031Z" fill="url(#paint0_radial)"/>
<g style="mix-blend-mode:lighten">
<path d="M145.27 99.7031C145.27 119.911 133.208 136.295 118.393 136.295C103.577 136.295 91.5149 119.911 91.5149 99.7031C91.5149 79.4951 103.577 73.4497 118.393 73.4497C133.208 73.4497 145.27 79.4951 145.27 99.7031Z" fill="#A8E4FF"/>
</g>
<path d="M131.377 91.7989C124.211 95.9356 112.596 95.9356 105.436 91.7989C98.2768 87.6622 98.2697 80.957 105.436 76.8203C112.603 72.6836 124.211 72.6836 131.377 76.8203C138.544 80.957 138.544 87.6622 131.377 91.7989Z" fill="#3996D6"/>
<path d="M105.436 79.6372C112.603 75.5005 124.218 75.5005 131.378 79.6372C134.336 81.3472 136.068 83.49 136.586 85.718C137.295 82.5605 135.585 79.2469 131.378 76.8203C124.211 72.6836 112.596 72.6836 105.436 76.8203C101.229 79.2469 99.4975 82.5605 100.228 85.718C100.746 83.5113 102.478 81.3827 105.436 79.6372Z" fill="#0081BB"/>
<path d="M97.2335 59.1387L100.554 53.4197C102.538 51.3158 104.001 48.7763 104.826 46.0049L108.189 40.215L103.407 37.4406C103.253 37.3363 103.092 37.2438 102.924 37.1639C101.548 36.5111 99.7241 36.6885 97.716 37.8734C93.4587 40.3427 89.9819 46.3384 89.9819 51.2768C89.9819 53.739 90.8476 55.4774 92.2454 56.2863L97.2335 59.1387Z" fill="#0A96D6"/>
<path d="M110.403 45.1957C110.403 50.1625 106.941 56.1299 102.669 58.5991C98.3977 61.0683 94.9351 59.0674 94.9351 54.1289C94.9351 49.1904 98.3977 43.1947 102.669 40.7255C106.941 38.2563 110.403 40.2288 110.403 45.1957Z" fill="#BCBEFF"/>
<path d="M119.194 86.1792C134.332 86.1792 146.604 73.9074 146.604 58.7693C146.604 43.6312 134.332 31.3594 119.194 31.3594C104.056 31.3594 91.7844 43.6312 91.7844 58.7693C91.7844 73.9074 104.056 86.1792 119.194 86.1792Z" fill="#A8E4FF"/>
<path d="M134.819 77.565L138.139 71.846C140.131 69.7443 141.601 67.2046 142.432 64.4312L145.795 58.6413L140.963 55.8386C140.81 55.7342 140.648 55.6417 140.481 55.5618C139.104 54.909 137.281 55.0864 135.273 56.2714C131.015 58.7406 127.539 64.7363 127.539 69.6748C127.539 72.1369 128.404 73.8753 129.802 74.6842L134.819 77.565Z" fill="url(#paint1_radial)"/>
<path style="mix-blend-mode:lighten" d="M134.819 77.565L138.139 71.846C140.131 69.7443 141.601 67.2046 142.432 64.4312L145.795 58.6413L140.963 55.8386C140.81 55.7342 140.648 55.6417 140.481 55.5618C139.104 54.909 137.281 55.0864 135.273 56.2714C131.015 58.7406 127.539 64.7363 127.539 69.6748C127.539 72.1369 128.404 73.8753 129.802 74.6842L134.819 77.565Z" fill="#0A96D6"/>
<path d="M147.988 63.6016C147.988 68.5684 144.525 74.5358 140.254 77.005C135.982 79.4742 132.52 77.4733 132.52 72.5348C132.52 67.5964 135.982 61.6007 140.254 59.1314C144.525 56.6622 147.988 58.6773 147.988 63.6016Z" fill="#6ACBF7"/>
<path d="M132.867 72.5982C132.867 67.6314 136.33 61.6641 140.602 59.1948C141.799 58.4216 143.218 58.0627 144.639 58.1731C143.107 57.9339 141.54 58.2755 140.247 59.131C135.99 61.6002 132.513 67.5959 132.513 72.5344C132.513 75.7557 133.996 77.7283 136.209 78.0192C134.194 77.5793 132.867 75.6493 132.867 72.5982Z" fill="white"/>
<path d="M145.781 64.8784C145.677 66.7971 145.123 68.6643 144.162 70.3286C143.202 71.9929 141.863 73.4074 140.254 74.4573C137.203 76.2241 134.726 74.7908 134.726 71.2644C134.83 69.3457 135.385 67.4784 136.345 65.8142C137.305 64.1499 138.644 62.7354 140.254 61.6854C143.305 59.9187 145.781 61.3519 145.781 64.8784Z" fill="#0A96D6"/>
<path d="M143.426 61.0117C144.071 61.8666 144.393 62.9224 144.334 63.9918C144.23 65.9105 143.676 67.7777 142.715 69.442C141.755 71.1063 140.416 72.5208 138.806 73.5708C137.871 74.1909 136.734 74.4319 135.628 74.2448C136.614 75.4085 138.317 75.5788 140.254 74.4577C141.863 73.4078 143.202 71.9933 144.163 70.329C145.123 68.6647 145.678 66.7975 145.781 64.8788C145.781 62.7146 144.852 61.3452 143.426 61.0117Z" fill="#0081BB"/>
<path d="M110.921 72.0095C110.211 77.4021 106.153 79.105 101.832 75.7914C97.5105 72.4778 94.58 65.4391 95.2825 60.0536C95.9849 54.6681 100.051 52.9581 104.372 56.2717C108.693 59.5853 111.623 66.624 110.921 72.0095Z" fill="#0A96D6"/>
<path d="M107.359 67.3481C107.104 69.3064 105.628 69.9238 104.06 68.7246C103.241 68.0259 102.598 67.1439 102.184 66.1502C101.77 65.1566 101.596 64.0792 101.676 63.0056C101.931 61.0473 103.407 60.43 104.975 61.6291C105.794 62.3278 106.437 63.2098 106.851 64.2035C107.265 65.1972 107.439 66.2745 107.359 67.3481Z" fill="#6ACBF7"/>
<path d="M103.911 74.9967C99.5895 71.6973 96.659 64.6444 97.3615 59.2589C97.6453 57.0593 98.4897 55.477 99.6888 54.5972C97.4325 54.81 95.7224 56.7258 95.2896 60.0465C94.5801 65.4391 97.5247 72.4849 101.839 75.7843C104.4 77.7427 106.869 77.913 108.601 76.6642C106.883 76.7178 105.209 76.1225 103.911 74.9967Z" fill="#0081BB"/>
<path d="M102.207 75.6212C97.8863 72.3218 94.9558 65.2688 95.6583 59.8834C95.9847 57.3857 97.0277 55.6899 98.4965 54.9165C96.8432 55.6261 95.6583 57.3645 95.2964 60.0678C94.5869 65.4604 97.5315 72.5063 101.846 75.8057C104.166 77.5795 106.408 77.9343 108.097 76.9977C106.451 77.6647 104.357 77.2673 102.207 75.6212Z" fill="#6ACBF7"/>
<path d="M159.202 99.3166C160.319 93.6773 156.652 88.2006 151.013 87.084C145.374 85.9674 139.897 89.6337 138.78 95.273C137.664 100.912 141.33 106.389 146.969 107.506C152.609 108.622 158.085 104.956 159.202 99.3166Z" fill="url(#paint2_radial)"/>
<g style="mix-blend-mode:lighten">
<path d="M159.202 99.3166C160.318 93.6773 156.652 88.2006 151.013 87.084C145.373 85.9674 139.897 89.6337 138.78 95.273C137.663 100.912 141.33 106.389 146.969 107.506C152.608 108.622 158.085 104.956 159.202 99.3166Z" fill="#0A96D6"/>
</g>
<path d="M165.592 131.761C165.003 136.728 160.625 146.08 156.68 145.604C152.735 145.129 150.684 134.997 151.273 130.051C151.862 125.105 155.53 121.48 159.504 121.948C163.477 122.416 166.188 126.83 165.592 131.761Z" fill="url(#paint3_radial)"/>
<path d="M165.592 131.761C165.003 136.728 160.625 146.08 156.68 145.604C152.735 145.129 150.684 134.997 151.273 130.051C151.862 125.105 155.53 121.48 159.504 121.948C163.477 122.416 166.188 126.83 165.592 131.761Z" fill="#0A96D6"/>
<path d="M63.9844 99.9522C63.6097 99.9528 63.2457 99.8277 62.9505 99.597C62.6553 99.3663 62.446 99.0432 62.3561 98.6795C62.2661 98.3157 62.3008 97.9324 62.4545 97.5907C62.6082 97.249 62.8721 96.9687 63.2039 96.7947L84.6962 85.5483C84.8914 85.4407 85.1061 85.3732 85.3277 85.3497C85.5494 85.3262 85.7734 85.3471 85.9869 85.4113C86.2003 85.4756 86.3988 85.5817 86.5706 85.7236C86.7425 85.8655 86.8843 86.0403 86.9877 86.2377C87.0911 86.4352 87.1541 86.6512 87.173 86.8733C87.1918 87.0954 87.1661 87.319 87.0974 87.531C87.0287 87.743 86.9184 87.9392 86.7729 88.108C86.6274 88.2769 86.4497 88.415 86.2501 88.5142L64.7578 99.7606C64.5193 99.886 64.2539 99.9517 63.9844 99.9522Z" fill="#0A96D6"/>
<path d="M64.3815 106.218C60.0107 108.609 49.8499 110.475 47.9341 107.012C46.0184 103.55 53.0784 95.9718 57.4492 93.5735C61.82 91.1752 66.9075 92.0693 68.802 95.5602C70.6965 99.0512 68.7311 103.798 64.3815 106.218Z" fill="url(#paint4_radial)"/>
<path d="M64.3815 106.218C60.0107 108.609 49.8499 110.475 47.9341 107.012C46.0184 103.55 53.0784 95.9718 57.4492 93.5735C61.82 91.1752 66.9075 92.0693 68.802 95.5602C70.6965 99.0512 68.7311 103.798 64.3815 106.218Z" fill="#0A96D6"/>
<g opacity="0.5">
<path opacity="0.5" d="M43.8756 101.535C43.2228 106.8 40.4911 109.929 37.6245 106.012C33.9419 100.981 33.5871 96.0783 33.3672 93.1336V64.4536C33.445 69.0792 34.93 73.5713 37.6245 77.3319C43.6911 87.365 44.4078 97.2632 43.8756 101.535Z" fill="#6ACBF7"/>
<path opacity="0.5" d="M129.008 106.785C126.746 106.846 124.462 106.868 122.153 106.849C104.124 106.7 87.4208 104.082 73.4782 99.6965C59.5497 95.9785 58.7124 110.546 63.5445 119.564C67.0071 125.95 71.6901 127.731 73.4782 128.391C87.4208 132.776 104.124 135.394 122.153 135.543C124.457 135.543 126.742 135.522 129.008 135.479C145.37 134.273 149.655 118.556 142.007 111.227C139.878 109.183 135.883 106.749 129.008 106.806V106.785Z" fill="#6ACBF7"/>
<path opacity="0.5" d="M214.097 83.9238C214.019 96.3268 213.288 98.5831 212.365 101.436C208.534 110.475 198.593 118.465 184.693 124.432C172.51 128.022 169.147 115.371 174.099 105.984C176.491 101.564 180.191 97.9927 184.693 95.7591C198.607 89.7918 208.548 81.8023 212.365 72.7626C212.667 72.0896 213.018 71.4398 213.415 70.8185L213.728 70.7759C213.962 71.4358 214.061 71.7125 214.089 75.097V83.9168L214.097 83.9238Z" fill="#6ACBF7"/>
</g>
<g opacity="0.15">
<path d="M224.931 97.087C224.544 97.087 224.172 96.933 223.898 96.6588C223.624 96.3847 223.47 96.013 223.47 95.6253V45.5168C223.47 45.1292 223.624 44.7574 223.898 44.4833C224.172 44.2092 224.544 44.0552 224.931 44.0552C225.319 44.0552 225.691 44.2092 225.965 44.4833C226.239 44.7574 226.393 45.1292 226.393 45.5168V95.6253C226.393 96.013 226.239 96.3847 225.965 96.6588C225.691 96.933 225.319 97.087 224.931 97.087Z" fill="#6ACBF7" style="mix-blend-mode:lighten"/>
</g>
<g opacity="0.15">
<path d="M169.232 62.2623C168.844 62.2623 168.472 62.1083 168.198 61.8341C167.924 61.56 167.77 61.1882 167.77 60.8006V10.6921C167.77 10.3045 167.924 9.9327 168.198 9.65859C168.472 9.38447 168.844 9.23047 169.232 9.23047C169.62 9.23047 169.991 9.38447 170.266 9.65859C170.54 9.9327 170.694 10.3045 170.694 10.6921V60.8006C170.694 61.1882 170.54 61.56 170.266 61.8341C169.991 62.1083 169.62 62.2623 169.232 62.2623Z" fill="#6ACBF7" style="mix-blend-mode:lighten"/>
</g>
<g opacity="0.15">
<path d="M54.8735 84.5977C54.4859 84.5977 54.1141 84.4437 53.84 84.1696C53.5659 83.8955 53.4119 83.5237 53.4119 83.136V33.0276C53.4119 32.6399 53.5659 32.2681 53.84 31.994C54.1141 31.7199 54.4859 31.5659 54.8735 31.5659C55.2612 31.5659 55.633 31.7199 55.9071 31.994C56.1812 32.2681 56.3352 32.6399 56.3352 33.0276V83.136C56.3352 83.5237 56.1812 83.8955 55.9071 84.1696C55.633 84.4437 55.2612 84.5977 54.8735 84.5977Z" fill="#6ACBF7" style="mix-blend-mode:lighten"/>
</g>
<g opacity="0.15">
<path d="M9.19271 143.47C8.79564 143.47 8.41484 143.312 8.13407 143.032C7.8533 142.751 7.69556 142.37 7.69556 141.973V25.2803C7.70299 24.8882 7.864 24.5146 8.14397 24.2399C8.42394 23.9653 8.80051 23.8115 9.19271 23.8115C9.38932 23.8115 9.584 23.8502 9.76564 23.9255C9.94729 24.0007 10.1123 24.111 10.2513 24.25C10.3904 24.3891 10.5007 24.5541 10.5759 24.7357C10.6511 24.9174 10.6899 25.1121 10.6899 25.3087V141.98C10.688 142.376 10.5294 142.755 10.2488 143.034C9.96828 143.313 9.58855 143.47 9.19271 143.47Z" fill="#6ACBF7" style="mix-blend-mode:lighten"/>
</g>
<path opacity="0.2" d="M73.017 28.4807C74.2239 28.4807 75.2024 27.5023 75.2024 26.2953C75.2024 25.0883 74.2239 24.1099 73.017 24.1099C71.81 24.1099 70.8315 25.0883 70.8315 26.2953C70.8315 27.5023 71.81 28.4807 73.017 28.4807Z" fill="#6ACBF7"/>
<path opacity="0.2" d="M160.07 6.41226C161.25 5.23183 161.25 3.31798 160.07 2.13755C158.889 0.957115 156.976 0.957106 155.795 2.13754C154.615 3.31797 154.615 5.23183 155.795 6.41226C156.976 7.59269 158.889 7.59269 160.07 6.41226Z" fill="#6ACBF7"/>
<path opacity="0.2" d="M156.545 53.2277C157.313 53.2277 157.936 52.6051 157.936 51.837C157.936 51.0689 157.313 50.4463 156.545 50.4463C155.777 50.4463 155.155 51.0689 155.155 51.837C155.155 52.6051 155.777 53.2277 156.545 53.2277Z" fill="#6ACBF7"/>
<path opacity="0.2" d="M54.8736 123.318C55.6417 123.318 56.2643 122.695 56.2643 121.927C56.2643 121.159 55.6417 120.537 54.8736 120.537C54.1055 120.537 53.4829 121.159 53.4829 121.927C53.4829 122.695 54.1055 123.318 54.8736 123.318Z" fill="#6ACBF7"/>
<path opacity="0.2" d="M82.8302 73.0569C83.2299 73.0569 83.5539 72.7328 83.5539 72.3331C83.5539 71.9334 83.2299 71.6094 82.8302 71.6094C82.4305 71.6094 82.1064 71.9334 82.1064 72.3331C82.1064 72.7328 82.4305 73.0569 82.8302 73.0569Z" fill="#6ACBF7"/>
<defs>
<radialGradient id="paint0_radial" cx="0" cy="0" r="1" gradientUnits="userSpaceOnUse" gradientTransform="translate(37917.4 21331.6) scale(3507.81 5573.06)">
<stop stop-color="#C0BFF6"/>
<stop offset="1" stop-color="#393091"/>
</radialGradient>
<radialGradient id="paint1_radial" cx="0" cy="0" r="1" gradientUnits="userSpaceOnUse" gradientTransform="translate(6119.94 3637.45) scale(566.141 693.941)">
<stop stop-color="#C0BFF6"/>
<stop offset="1" stop-color="#393091"/>
</radialGradient>
<radialGradient id="paint2_radial" cx="0" cy="0" r="1" gradientUnits="userSpaceOnUse" gradientTransform="translate(-376.884 -2464.08) rotate(11.2) scale(637.245)">
<stop stop-color="#C0BFF6"/>
<stop offset="1" stop-color="#393091"/>
</radialGradient>
<radialGradient id="paint3_radial" cx="0" cy="0" r="1" gradientUnits="userSpaceOnUse" gradientTransform="translate(10207.5 -56714.5) rotate(6.89242) scale(376.947 1016.06)">
<stop stop-color="#C0BFF6"/>
<stop offset="1" stop-color="#393091"/>
</radialGradient>
<radialGradient id="paint4_radial" cx="0" cy="0" r="1" gradientUnits="userSpaceOnUse" gradientTransform="translate(18513.2 -69438.7) rotate(61.1892) scale(567.354 718.112)">
<stop stop-color="#C0BFF6"/>
<stop offset="1" stop-color="#393091"/>
</radialGradient>
</defs>
</svg>
