<svg width="301" height="225" viewBox="0 0 301 225" fill="none" xmlns="http://www.w3.org/2000/svg">
<g clip-path="url(#clip0)">
<path d="M290.894 109.857L212.736 64.6518C208.492 62.1994 201.076 62.4901 196.168 65.3149L32.2721 159.604C27.3645 162.429 26.8192 166.707 31.0724 169.159L109.231 214.364C113.475 216.817 120.891 216.526 125.798 213.701L289.694 119.412C294.602 116.587 295.138 112.309 290.894 109.857Z" fill="#889BBA"/>
<path d="M106.913 203.465L25.6196 156.416C22.9476 154.872 21.7026 152.783 21.7935 150.621V138.813L26.3375 144.109C26.6284 143.918 26.9283 143.718 27.2464 143.536L193.56 47.8849C200.158 44.0883 210.146 43.6887 215.853 46.9767L296.002 93.3627L301.027 87.8403V99.3755C301.145 101.973 299.301 104.743 295.574 106.887L129.261 202.538C122.599 206.371 112.621 206.771 106.913 203.465Z" fill="#2573BA"/>
<path d="M193.542 47.9118C200.14 44.1152 210.127 43.7155 215.835 47.0035L295.983 93.3895L301.009 87.8672V99.4024C301.127 102 299.282 104.77 295.556 106.914L129.243 202.565C125.555 204.567 121.434 205.637 117.237 205.681L117.392 91.7183L193.542 47.9118Z" fill="#2573BA"/>
<path d="M297.156 82.2268L215.862 35.1777C210.155 31.8715 200.176 32.2712 193.569 36.086L27.2555 131.737C20.6575 135.534 19.9304 141.292 25.6378 144.599L106.931 191.648C112.639 194.954 122.618 194.554 129.225 190.739L295.538 95.0881C302.145 91.3096 302.872 85.5147 297.156 82.2268Z" fill="#69CBF7"/>
<path d="M106.886 192.874L25.5923 145.807C22.6477 144.099 21.4299 141.747 21.8298 139.34C21.9752 141.293 23.2294 143.146 25.6559 144.544L106.95 191.593C112.657 194.9 122.636 194.5 129.243 190.685L295.556 95.0338C298.755 93.2172 300.555 90.892 300.936 88.6758C301.127 91.3189 299.291 94.1255 295.484 96.3326L129.17 191.984C122.572 195.762 112.593 196.18 106.886 192.874Z" fill="white"/>
<path d="M290.894 84.0436L212.736 38.8383C208.492 36.386 201.076 36.6766 196.168 39.5014L32.2721 133.808C27.3645 136.633 26.8192 140.911 31.0724 143.364L109.231 188.569C113.475 191.021 120.891 190.731 125.798 187.906L289.694 93.626C294.602 90.8012 295.138 86.5232 290.894 84.0436Z" fill="white"/>
<path d="M205.365 50.7822L43.187 144.599L101.942 178.505C106.795 181.312 112.303 182.79 117.91 182.79C123.517 182.79 129.025 181.312 133.878 178.505L280.097 93.9348L205.365 50.7822Z" fill="#889BBA"/>
<path d="M28.4096 132.455C20.7301 128.195 15.9407 118.831 15.9043 105.497C15.8225 79.0479 34.3624 46.713 57.2464 33.4157L73.8505 23.8242L74.6502 24.2693L150.382 66.8315L131.197 79.2931L123.99 84.5611L114.029 94.9428L112.439 96.3961L101.887 112.373L98.0159 122.364L95.144 130.32L92.7811 147.006L92.6175 148.45L93.4718 155.489L95.9074 164.199L99.3427 170.103L104.341 176.034L28.4096 132.455Z" fill="#2573BA"/>
<path d="M204.356 41.4995V44.297L110.748 98.4761C111.781 96.5029 113.174 94.7407 114.856 93.2807L204.356 41.4995Z" fill="#D4ECFF"/>
<path d="M280.088 84.97L204.347 41.4995L115.129 94.0165L109.385 100.692L100.77 115.833L95.3531 130.956L93.59 142.782L93.3628 154.59L100.761 171.484L110.385 177.097L120.273 177.615L132.133 172.692L269.273 92.5541L280.088 84.97Z" fill="#E5F7FF"/>
<path d="M28.4731 132.455C22.0478 128.895 17.6582 121.765 16.3677 111.71L93.6171 155.962L95.9164 164.191L99.3517 170.094L104.35 176.025L28.464 132.428L28.4731 132.455Z" fill="#2573BA"/>
<path d="M16.6585 113.635C16.1922 110.936 15.9581 108.201 15.9587 105.461C15.9587 103.517 16.0587 101.528 16.2496 99.5298L93.2536 143.636L92.781 146.951L92.6174 148.395L93.4717 155.435L94.1988 158.023L16.6585 113.635Z" fill="#173D7A"/>
<path d="M280.097 87.7677V84.952L133.323 170.031C111.784 182.547 94.1896 172.474 94.1169 147.569C94.0442 122.664 111.503 92.2183 133.042 79.693L150.309 69.6383V66.8408L133.042 76.8955C110.167 90.1928 91.6177 122.528 91.6995 148.977C91.7813 175.426 110.467 186.126 133.341 172.828L280.097 87.7677Z" fill="#173D7A"/>
<path d="M173.239 34.7691L135.895 13.6969C134.976 13.2915 133.973 13.1074 132.97 13.1595C131.966 13.2116 130.988 13.4983 130.115 13.9966L108.776 26.6127C107.077 27.6209 106.904 29.1105 108.395 29.9552L145.738 51.0274C146.658 51.4328 147.66 51.6168 148.664 51.5648C149.667 51.5127 150.645 51.226 151.518 50.7276L172.857 38.1116C174.556 37.1034 174.729 35.6047 173.239 34.7691Z" fill="#889BBA"/>
<path d="M144.429 45.405L105.868 23.6879C105.55 23.5435 105.275 23.3166 105.074 23.0307C104.873 22.7449 104.752 22.4105 104.723 22.0621V17.7659L106.877 19.528L130.833 5.34969C131.837 4.78143 132.959 4.45588 134.112 4.3991C135.264 4.34232 136.413 4.55589 137.468 5.02271L174.329 25.777L177.146 24.1148L177.201 28.4473C177.142 28.9109 176.965 29.3516 176.686 29.727C176.408 30.1024 176.037 30.3999 175.611 30.5909L151.073 45.1234C150.064 45.6859 148.938 46.0044 147.784 46.0533C146.631 46.1022 145.481 45.8802 144.429 45.405Z" fill="#5793CE"/>
<path d="M175.992 22.3527L137.467 0.635673C136.41 0.1701 135.258 -0.0411949 134.105 0.0187473C132.951 0.0786895 131.827 0.408203 130.824 0.980826L106.286 15.5134C104.332 16.6669 104.132 18.3835 105.85 19.3554L144.411 41.0725C145.468 41.538 146.62 41.7493 147.774 41.6894C148.927 41.6294 150.051 41.2999 151.054 40.7273L175.592 26.1948C177.51 25.0049 177.71 23.3155 175.992 22.3527Z" fill="#69CBF7"/>
<path d="M144.375 41.0361L105.814 19.319C105.405 19.1545 105.07 18.8474 104.872 18.4549C104.673 18.0623 104.623 17.6109 104.732 17.1846C104.952 17.6088 105.298 17.9546 105.723 18.1746L144.284 39.8917C145.341 40.3572 146.493 40.5685 147.647 40.5086C148.8 40.4486 149.924 40.1191 150.927 39.5465L175.465 25.014C176.169 24.6573 176.712 24.0471 176.983 23.3064C177.428 24.2147 176.983 25.3319 175.556 26.1493L151.018 40.6819C150.016 41.2559 148.892 41.587 147.739 41.6485C146.585 41.7101 145.433 41.5003 144.375 41.0361Z" fill="white"/>
<path d="M135.532 16.7217C136.95 15.8861 136.941 14.5419 135.532 13.7335C134.726 13.3358 133.838 13.1334 132.94 13.1429C132.041 13.1524 131.158 13.3734 130.361 13.788C128.943 14.6236 128.952 15.9679 130.361 16.7762C131.166 17.174 132.054 17.3763 132.953 17.3668C133.851 17.3574 134.735 17.1363 135.532 16.7217Z" fill="white"/>
<path d="M143.42 21.1631C144.838 20.3275 144.829 18.9833 143.42 18.1749C142.615 17.7772 141.727 17.5748 140.828 17.5843C139.93 17.5938 139.046 17.8148 138.249 18.2294C136.831 19.065 136.84 20.4093 138.249 21.2176C139.055 21.6154 139.943 21.8177 140.841 21.8082C141.74 21.7988 142.623 21.5777 143.42 21.1631Z" fill="white"/>
<path d="M151.3 25.5953C152.717 24.7597 152.708 23.4154 151.3 22.607C150.494 22.2093 149.606 22.007 148.708 22.0164C147.809 22.0259 146.926 22.2469 146.129 22.6615C144.711 23.4971 144.72 24.8414 146.129 25.6498C146.934 26.0475 147.822 26.2498 148.721 26.2404C149.619 26.2309 150.503 26.0099 151.3 25.5953Z" fill="white"/>
<path d="M39.3699 221.603C31.5177 226.145 18.7943 226.145 10.9421 221.603C3.08993 217.062 3.08993 209.732 10.9421 205.2C18.7943 200.667 31.5177 200.658 39.3699 205.2C47.2221 209.741 47.2221 217.08 39.3699 221.603Z" fill="#889BBA"/>
<path d="M50.3121 203.51V198.887H48.9761C47.4909 196.513 45.4106 194.569 42.9416 193.246C33.1173 187.579 17.1948 187.579 7.3705 193.246C4.90117 194.568 2.8208 196.513 1.33596 198.887H0V203.428C0 207.152 2.43562 210.885 7.3614 213.728C17.1857 219.396 33.1082 219.396 42.9325 213.728C47.8583 210.94 50.3121 207.225 50.3121 203.51Z" fill="#396CAA"/>
<path d="M42.9508 209.151C33.1265 214.818 17.204 214.818 7.3797 209.151C-2.4446 203.483 -2.4446 194.291 7.3797 188.623C17.204 182.956 33.1265 182.956 42.9508 188.623C52.7751 194.291 52.766 203.483 42.9508 209.151Z" fill="#6ACBF7"/>
<path d="M42.9506 209.15C33.1262 214.818 17.2038 214.818 7.37948 209.15C2.67181 206.426 0.245274 202.911 0.0544229 199.35C-0.154605 203.219 2.27193 207.125 7.37948 210.077C17.2038 215.745 33.1262 215.745 42.9506 210.077C48.0672 207.125 50.4937 203.219 50.2756 199.35C50.0757 202.911 47.6491 206.435 42.9506 209.15Z" fill="white"/>
<path d="M13.0323 203.691C12.8518 203.611 12.6955 203.485 12.5791 203.326C12.4626 203.167 12.3902 202.979 12.3689 202.783V193.328C12.3689 192.61 13.3868 192.02 14.6318 192.02C15.8769 192.02 16.8948 192.61 16.8948 193.328V201.166L39.6697 198.378C40.8966 198.224 42.0963 198.678 42.3962 199.386C42.6961 200.095 41.8782 200.785 40.6513 200.939L15.1408 204.064C14.4955 204.148 13.8395 204.057 13.2414 203.8L13.0323 203.691Z" fill="white"/>
<path d="M231.012 90.8464L196.922 70.9731L194.778 72.1902L228.876 92.0635L231.012 90.8464Z" fill="#5793CE"/>
<path d="M230.067 79.5023L206.265 65.6328L204.12 66.859L227.922 80.7285L230.067 79.5023Z" fill="#5793CE"/>
<path d="M222.178 80.3012L201.594 68.3027L199.449 69.5289L220.043 81.5274L222.178 80.3012Z" fill="#5793CE"/>
<path d="M235.683 88.1761L225.386 82.1724L223.251 83.3985L233.548 89.3932L235.683 88.1761Z" fill="#5793CE"/>
<path d="M146.192 136.914L112.093 117.05L109.958 118.267L144.057 138.141L146.192 136.914Z" fill="#5793CE"/>
<path d="M145.238 125.579L121.445 111.71L119.3 112.927L143.102 126.797L145.238 125.579Z" fill="#5793CE"/>
<path d="M137.358 126.379L116.774 114.38L114.629 115.597L135.223 127.596L137.358 126.379Z" fill="#5793CE"/>
<path d="M150.864 134.244L140.567 128.25L138.431 129.467L148.728 135.47L150.864 134.244Z" fill="#5793CE"/>
<path d="M226.25 211.576C238.801 218.842 259.149 218.842 271.691 211.576C284.232 204.309 284.241 192.593 271.691 185.354C259.14 178.115 238.791 178.087 226.25 185.354C213.708 192.62 213.699 204.337 226.25 211.576ZM238.528 192.438C244.299 189.105 253.651 189.105 259.431 192.438C265.211 195.772 265.202 201.167 259.431 204.491C253.66 207.815 244.308 207.824 238.528 204.491C232.748 201.158 232.766 195.762 238.528 192.438Z" fill="#889BBA"/>
<path d="M276.444 181.057L264.984 181.239C263.983 179.996 262.748 178.963 261.348 178.196C255.041 174.563 245.135 174.281 238.264 177.351L231.448 170.993L220.96 171.157C221.478 170.821 222.015 170.485 222.569 170.158C237.11 161.747 260.739 161.747 275.353 170.158C277.785 171.52 279.997 173.241 281.915 175.262L276.444 181.057Z" fill="#0C8DC8"/>
<path d="M220.97 154.472V171.102L231.457 170.948V154.308L220.97 154.472Z" fill="#38B3EB"/>
<path d="M238.273 160.712V177.342L231.457 170.948V154.308L238.273 160.712Z" fill="#0C8DC8"/>
<path d="M264.974 164.599V181.23L249.897 168.95L238.273 177.342V160.712L248.979 155.525C248.979 155.525 263.711 160.067 264.484 160.221C265.256 160.376 264.974 164.599 264.974 164.599Z" fill="#0C8DC8"/>
<path d="M276.444 164.417V181.057L264.975 181.239V164.599L276.444 164.417Z" fill="#0C8DC8"/>
<path d="M281.924 158.577V175.217L276.444 181.057V164.417L281.924 158.577Z" fill="#38B3EB"/>
<path d="M276.444 164.417L264.984 164.599C263.983 163.357 262.748 162.323 261.348 161.556C255.041 157.923 245.135 157.642 238.264 160.712L231.448 154.354L220.96 154.517C221.478 154.181 222.015 153.845 222.569 153.518C237.11 145.107 260.739 145.107 275.353 153.518C277.785 154.88 279.997 156.601 281.915 158.623L276.444 164.417Z" fill="#69CBF7"/>
<path d="M234.82 162.755V178.051L224.896 175.671C224.896 175.671 225.477 166.725 225.686 166.479C225.895 166.234 234.82 162.755 234.82 162.755Z" fill="#5793CE"/>
<path d="M242.327 178.051V194.691L241.254 195.835L234.257 191.802C234.257 191.802 235.338 179.086 235.465 178.85C235.593 178.614 242.327 178.051 242.327 178.051Z" fill="#173D7A"/>
<path d="M228.822 173.755L234.82 179.395C229.821 183.346 230.412 188.914 236.638 192.484C238.432 193.492 240.364 194.236 242.372 194.691L236.174 201.294L241.627 206.462C234.934 205.805 228.442 203.803 222.542 200.576C210.009 193.31 208.264 182.256 217.28 173.946L228.822 173.755Z" fill="#396CAA"/>
<path d="M241.618 189.813V206.453L228.013 201.203L211.654 185.599L211.718 167.933L229.022 181.648L241.618 189.813Z" fill="#396CAA"/>
<path d="M228.822 157.115L234.82 162.755C229.821 166.706 230.412 172.274 236.638 175.844C238.432 176.852 240.364 177.596 242.372 178.051L236.174 184.654L241.627 189.822C234.934 189.165 228.442 187.163 222.542 183.936C210.009 176.67 208.264 165.616 217.28 157.305L228.822 157.115Z" fill="#BBEAFF"/>
<path d="M241.663 201.212L247.116 195.39C252.187 195.699 257.449 194.736 261.339 192.493C265.229 190.249 267.01 187.043 266.31 184L279.325 183.8L284.332 178.469C288.713 185.98 285.723 194.6 275.353 200.585C267.737 204.982 257.649 207.071 247.671 206.88L241.663 201.212Z" fill="#396CAA"/>
<path d="M247.68 190.222V206.861L286.286 185.471V168.832L280.652 171.102L247.68 190.222Z" fill="#396CAA"/>
<path d="M241.663 184.563V201.203L247.68 206.861V190.222L241.663 184.563Z" fill="#173D7A"/>
<path d="M241.663 184.563L247.116 178.741C252.187 179.05 257.449 178.087 261.339 175.844C265.229 173.6 267.01 170.394 266.31 167.351L279.325 167.151L284.332 161.82C288.713 169.331 285.723 177.951 275.353 183.937C267.737 188.333 257.649 190.422 247.671 190.231L241.663 184.563Z" fill="#5793CE"/>
<g clip-path="url(#clip1)">
<path d="M207 77.9519C207 77.5878 207 77.2169 207 76.8394C207 76.4618 207 76.0842 207 75.7066C207 75.329 206.96 74.9515 206.879 74.5739C206.798 74.1963 206.744 73.812 206.717 73.4209C206.717 73.0298 206.65 72.6388 206.515 72.2477C206.38 71.8566 206.299 71.4521 206.272 71.0341C206.178 70.6295 206.083 70.2249 205.989 69.8204C205.895 69.4158 205.787 69.0045 205.666 68.5865C205.558 68.182 205.437 67.7774 205.302 67.3729L204.918 66.1794L204.513 65.0063L204.089 63.8735L203.644 62.761L203.179 61.6485L202.674 60.5359L202.087 59.3223L201.38 57.9266C201.016 57.2389 200.638 56.5646 200.247 55.9038C199.695 54.9734 199.122 54.0631 198.529 53.1731C197.936 52.2831 197.451 51.6089 197.073 51.1504L196.042 49.7951L195.153 48.7028L194.061 47.6105L193.171 46.6194L192.242 45.5878L191.271 44.6169L190.26 43.6662L189.229 42.7762L188.198 41.9266L187.187 41.1579L186.176 40.45L185.186 39.8027L184.215 39.1959L183.993 39.0543L183.265 38.6497L182.315 38.1643L181.385 37.7193L180.455 37.3349L179.525 36.9911L178.595 36.6877L177.645 36.4247L176.695 36.2224L175.684 36.0606L174.653 35.9595H173.561H172.368C171.92 36.0032 171.475 36.0707 171.034 36.1617C170.485 36.2712 169.944 36.42 169.416 36.6067C168.771 36.8384 168.148 37.1296 167.556 37.4765L159.692 42.0884C160.284 41.7416 160.906 41.4504 161.552 41.2186C162.08 41.0318 162.62 40.8831 163.169 40.7736C163.61 40.6825 164.056 40.615 164.504 40.5714H165.696H166.788L167.819 40.6725L168.83 40.8343L169.78 41.0366L170.73 41.2995L171.66 41.6029L172.59 41.9468L173.52 42.3311L174.45 42.7762L175.401 43.2616L176.128 43.6662L176.351 43.8077L177.321 44.4146L178.312 45.0619L179.323 45.7698L180.334 46.5385L181.365 47.388L182.396 48.278L183.407 49.2287L184.377 50.1997L185.327 51.1908L186.217 52.182L187.106 53.2338L187.996 54.3261L189.027 55.6813C189.526 56.3556 190.011 57.0298 190.483 57.7041C190.954 58.3784 191.527 59.2886 192.201 60.4348C192.592 61.0956 192.969 61.7698 193.333 62.4576L194.041 63.8533L194.627 65.0669L195.133 66.1794L195.598 67.2919L196.042 68.4045L196.467 69.5372L196.871 70.7104L197.255 71.9038C197.377 72.3084 197.498 72.7129 197.619 73.1175C197.741 73.522 197.848 73.9333 197.943 74.3514C198.037 74.7559 198.131 75.1605 198.226 75.565C198.32 75.9696 198.401 76.3741 198.468 76.7787C198.536 77.1697 198.603 77.5608 198.671 77.9519C198.738 78.3429 198.792 78.7273 198.832 79.1049C198.832 79.4824 198.873 79.86 198.954 80.2376C199.034 80.6152 199.034 80.9928 198.954 81.3703C198.954 81.7479 198.954 82.1188 198.954 82.4829C198.954 82.847 198.954 83.1975 198.954 83.5347C198.954 83.9123 198.954 84.2831 198.954 84.6472C198.954 85.0113 198.954 85.3754 198.954 85.7395C198.954 86.1171 198.913 86.4879 198.832 86.852C198.751 87.2161 198.698 87.5869 198.671 87.9645C198.671 88.3556 198.596 88.7332 198.448 89.0973C198.3 89.4613 198.199 89.8524 198.145 90.2705C198.024 90.6885 197.889 91.0931 197.741 91.4841C197.592 91.8752 197.41 92.3134 197.195 92.7989C196.938 93.3423 196.647 93.8692 196.325 94.3766C195.313 95.9861 193.926 97.3257 192.282 98.2806L200.086 93.7496C201.729 92.7948 203.117 91.4551 204.129 89.8457C204.451 89.3382 204.741 88.8113 204.999 88.2679C205.201 87.8499 205.383 87.4116 205.544 86.9531C205.706 86.4946 205.841 86.0901 205.949 85.7395C206.057 85.3619 206.158 84.9709 206.252 84.5663C206.346 84.1617 206.42 83.7842 206.474 83.4336C206.474 83.0695 206.528 82.6986 206.636 82.321C206.744 81.9435 206.784 81.5726 206.757 81.2085C206.757 80.8444 206.757 80.4803 206.757 80.1162C206.757 79.7521 206.757 79.3813 206.757 79.0037C206.933 78.6936 207.013 78.3429 207 77.9519Z" fill="#2FAFE8"/>
<path d="M176.189 43.7064C188.946 51.0693 199.257 68.9302 199.216 83.5951C199.176 98.2601 188.805 104.187 176.027 96.8038C163.25 89.4207 152.96 71.5597 153 56.8948C153.041 42.2298 163.412 36.3234 176.189 43.7064Z" fill="#69CBF7"/>
<path d="M171.276 57.5426C173.271 58.7859 174.913 60.5199 176.047 62.5792L176.209 62.8826C176.98 62.5352 177.829 62.3972 178.67 62.4824C179.511 62.5677 180.315 62.8731 181.001 63.3681C182.997 64.6092 184.64 66.3438 185.772 68.4047C188.4 72.9762 188.4 77.8915 185.772 79.4085L176.169 84.87L166.465 68.0609C163.836 63.5097 163.857 58.5741 166.465 57.0773C167.236 56.7232 168.088 56.5798 168.933 56.6615C169.778 56.7432 170.587 57.0472 171.276 57.5426Z" fill="white"/>
</g>
</g>
<defs>
<clipPath id="clip0">
<rect width="301" height="225" fill="white"/>
</clipPath>
<clipPath id="clip1">
<rect x="153" y="36" width="54" height="64" fill="white"/>
</clipPath>
</defs>
</svg>
