<svg width="298" height="225" viewBox="0 0 298 225" fill="none" xmlns="http://www.w3.org/2000/svg">
<path d="M294.339 116.6L193.076 57.7796C190.154 56.0911 185.038 56.3049 181.656 58.2499L13.3363 155.329C12.9611 155.543 12.6032 155.786 12.266 156.055C9.09783 157.744 11.2385 160.95 11.1111 160.716C11.1111 160.716 11.9441 161.644 12.5122 161.901L115.574 221.309C118.496 222.998 123.612 222.784 126.994 220.839L295.314 123.803C297.165 122.734 298.086 119.272 294.339 116.6Z" fill="#889BBA"/>
<path d="M293.269 102.707L192.006 43.8866C189.084 42.1981 183.968 42.4118 180.585 44.3568L12.266 141.436C11.8907 141.65 11.5329 141.893 11.1957 142.162C8.02752 143.851 10.1682 147.057 10.0408 146.823C10.0408 146.823 10.8738 147.751 11.4419 148.008L114.504 207.416C117.426 209.105 122.542 208.891 125.924 206.946L294.243 109.91C296.095 108.841 297.015 105.379 293.269 102.707Z" fill="#E5F7FF"/>
<rect x="9.63281" y="136.791" width="5.35163" height="10.6868" rx="2.67581" fill="#E5F7FF"/>
<rect x="287.917" y="98.3184" width="8.56256" height="11.7555" rx="4.28128" fill="#E5F7FF"/>
<path d="M293.269 97.2499L192.006 38.4295C189.084 36.741 183.968 36.9548 180.585 38.8998L12.266 135.979C11.8907 136.193 11.5329 136.436 11.1957 136.705C8.02752 138.394 10.1682 141.6 10.0408 141.366C10.0408 141.366 10.8738 142.294 11.4419 142.551L114.504 201.959C117.426 203.648 122.542 203.434 125.924 201.489L294.243 104.453C296.095 103.384 297.015 99.9216 293.269 97.2499Z" fill="#68CAF6"/>
<path d="M161.459 81.1557L146.977 72.8093L150.52 70.7681C151.133 70.4078 151.778 70.1037 152.446 69.8597C153.066 69.6432 153.709 69.5033 154.362 69.4429C155.041 69.3816 155.725 69.4358 156.385 69.6032C157.108 69.7874 157.8 70.0754 158.44 70.4582C160.224 71.4912 160.513 72.478 159.307 73.4184C160.27 73.0266 161.311 72.8691 162.347 72.9589C163.446 73.0893 164.505 73.4538 165.451 74.0276C166.835 74.8184 167.549 75.6163 167.592 76.4214C167.634 77.2265 166.981 78.0137 165.633 78.7832L161.459 81.1557ZM155.518 74.7436L156.342 74.2734C156.611 74.1825 156.851 74.0233 157.038 73.8115C157.226 73.5997 157.355 73.3427 157.413 73.0658C157.303 72.7872 157.135 72.5348 156.922 72.3249C156.708 72.115 156.452 71.9524 156.171 71.8475C155.816 71.6348 155.435 71.4696 155.037 71.3559C154.684 71.2811 154.319 71.2811 153.966 71.3559C153.62 71.4106 153.282 71.5075 152.96 71.6444C152.56 71.8216 152.171 72.0214 151.794 72.2429L151.43 72.4566L155.518 74.7436ZM162.229 78.6122L163.203 78.0565C163.988 77.6005 164.345 77.1802 164.274 76.7954C164.01 76.1994 163.521 75.731 162.914 75.4916C162.187 75.0355 161.361 74.7606 160.506 74.6901C159.692 74.6847 158.894 74.9108 158.205 75.342L157.381 75.823L162.229 78.6122Z" fill="white"/>
<path d="M170.588 75.8763L159.05 65.8307L161.801 64.249L179.215 70.9069L176.764 72.3175L172.815 70.7145L170.31 72.1572L173.082 74.4335L170.588 75.8763ZM168.865 71.0138L170.802 69.9451L163.888 67.081L168.865 71.0138Z" fill="white"/>
<path d="M180.639 70.084L166.157 61.7376L167.977 60.6689L179.75 63.3513L171.552 58.6277L173.692 57.3667L188.217 65.7345L186.483 66.7283L174.302 63.8215L182.918 68.7909L180.639 70.084Z" fill="white"/>
<path d="M190.357 64.4841L175.876 56.1377L178.509 54.6202L184.792 58.243L181.356 52.9744L183.871 51.521L187.585 56.8644L198.642 59.7178L196.009 61.1712L186.697 58.6812L187.114 59.5254L192.98 62.9024L190.357 64.4841Z" fill="white"/>
<path d="M145.703 161.563L113.433 180.158L109.708 178.01L141.968 159.404L145.703 161.563Z" fill="white"/>
<path d="M185.359 138.704L153.089 157.299L149.364 155.151L181.624 136.545L185.359 138.704Z" fill="white"/>
<path d="M225.015 115.834L192.755 134.44L189.02 132.281L221.279 113.686L225.015 115.834Z" fill="white"/>
<path d="M264.67 92.9752L232.41 111.581L228.675 109.422L260.935 90.8271L264.67 92.9752Z" fill="white"/>
<path d="M102.548 160.441L149.096 133.617L102.548 106.783L55.9995 133.617L102.548 160.441Z" fill="white"/>
<path opacity="0.5" d="M102.548 152.308L134.979 133.617L102.548 114.915L70.1169 133.617L102.548 152.308Z" fill="#2573BA"/>
<path d="M102.548 110.192L146.142 135.316L149.096 133.617L102.548 106.783L55.9995 133.617L58.9536 135.316L102.548 110.192Z" fill="#2573BA"/>
<path d="M102.548 130.24L149.364 103.256V82.5234L102.548 109.508V130.24Z" fill="url(#paint0_linear)"/>
<path d="M102.548 109.508L149.364 82.5237L102.548 55.5396L55.7319 82.5237L102.548 109.508Z" fill="url(#paint1_linear)"/>
<path d="M102.548 103.063L138.19 82.5234L102.548 61.9834L66.906 82.5234L102.548 103.063Z" fill="white"/>
<path d="M55.7319 103.256L102.548 130.24V109.508L55.7319 82.5234V103.256Z" fill="url(#paint2_linear)"/>
<path d="M102.548 96.908L149.364 69.9238V49.1914L102.548 76.1756V96.908Z" fill="url(#paint3_linear)"/>
<path d="M102.548 76.1754L149.364 49.1912L102.548 22.207L55.7319 49.1912L102.548 76.1754Z" fill="url(#paint4_linear)"/>
<path d="M102.548 75.1388L148.465 48.6782L149.364 49.1912L102.548 76.1754L55.7319 49.1912L56.631 48.6782L102.548 75.1388Z" fill="#A9EBFF"/>
<path d="M102.548 108.471L148.465 82L149.364 82.5237L102.548 109.508L55.7319 82.5237L56.631 82L102.548 108.471Z" fill="#A9EBFF"/>
<path d="M102.548 32.5308L135.353 51.4464L102.548 70.3514L69.7424 51.4464L102.548 32.5308Z" fill="white"/>
<path d="M102.548 32.5304L69.7424 51.446L65.8357 49.1911L102.548 28.0312L139.249 49.1911L135.353 51.446L102.548 32.5304Z" fill="#2573BA"/>
<path d="M55.7319 69.9238L102.548 96.908V76.1756L55.7319 49.1914V69.9238Z" fill="url(#paint5_linear)"/>
<path d="M86.2041 77.1267C86.2548 78.0536 86.5234 78.9556 86.9883 79.7596C87.4532 80.5635 88.1012 81.2468 88.8799 81.7541C90.357 82.609 91.5557 81.9144 91.5557 80.2152C91.5051 79.2883 91.2364 78.3863 90.7715 77.5823C90.3066 76.7784 89.6586 76.0951 88.8799 75.5878C87.4029 74.7329 86.2041 75.4275 86.2041 77.1267Z" fill="white"/>
<path d="M76.4641 71.5056C76.5148 72.4326 76.7834 73.3346 77.2483 74.1385C77.7132 74.9425 78.3613 75.6257 79.1399 76.133C80.617 76.988 81.8157 76.2933 81.8157 74.5941C81.7651 73.6672 81.4964 72.7652 81.0315 71.9612C80.5666 71.1573 79.9186 70.474 79.1399 69.9667C77.6629 69.1118 76.4641 69.8064 76.4641 71.5056Z" fill="white"/>
<path d="M66.7134 65.895C66.7641 66.822 67.0327 67.724 67.4976 68.5279C67.9625 69.3319 68.6105 70.0152 69.3892 70.5224C70.8662 71.3774 72.065 70.6827 72.065 68.9835C72.0134 68.0622 71.7465 67.1657 71.2856 66.3658C70.8246 65.566 70.1825 64.885 69.4106 64.3775C67.9121 63.5012 66.7134 64.1852 66.7134 65.895Z" fill="white"/>
<path d="M87.6062 75.2456C87.463 75.5833 87.3937 75.9477 87.4028 76.3143C87.4535 77.2412 87.7222 78.1432 88.1871 78.9472C88.652 79.7511 89.3 80.4344 90.0787 80.9417C90.4721 81.1874 90.9316 81.3068 91.3952 81.2837C90.9992 82.1813 90.0359 82.4164 88.9227 81.7752C88.1441 81.268 87.496 80.5847 87.0311 79.7807C86.5662 78.9768 86.2976 78.0748 86.2469 77.1479C86.2072 76.9334 86.211 76.7132 86.2583 76.5003C86.3057 76.2874 86.3954 76.0862 86.5223 75.9087C86.6491 75.7312 86.8104 75.581 86.9967 75.4671C87.1829 75.3531 87.3902 75.2778 87.6062 75.2456Z" fill="#A9EBFF"/>
<path d="M77.8233 69.6245C77.68 69.9622 77.6107 70.3266 77.6199 70.6932C77.6706 71.6201 77.9393 72.5221 78.4041 73.3261C78.869 74.13 79.5171 74.8133 80.2957 75.3206C80.6892 75.5663 81.1487 75.6857 81.6122 75.6626C81.2162 76.5602 80.2529 76.7954 79.1398 76.1542C78.3611 75.6469 77.7131 74.9636 77.2482 74.1596C76.7833 73.3557 76.5146 72.4537 76.464 71.5268C76.4242 71.3123 76.4281 71.0921 76.4754 70.8792C76.5227 70.6663 76.6125 70.4651 76.7393 70.2876C76.8662 70.1101 77.0275 69.9599 77.2137 69.846C77.4 69.732 77.6072 69.6567 77.8233 69.6245Z" fill="#A9EBFF"/>
<path d="M68.0728 64.0034C67.9295 64.3411 67.8602 64.7055 67.8694 65.0721C67.9201 65.999 68.1887 66.901 68.6536 67.705C69.1185 68.5089 69.7665 69.1922 70.5452 69.6995C70.9387 69.9452 71.3982 70.0646 71.8617 70.0415C71.4657 70.9392 70.5024 71.1743 69.3893 70.5331C68.6106 70.0258 67.9626 69.3425 67.4977 68.5386C67.0328 67.7346 66.7641 66.8326 66.7135 65.9057C66.6737 65.6912 66.6776 65.471 66.7249 65.2581C66.7722 65.0453 66.862 64.8441 66.9888 64.6665C67.1157 64.489 67.277 64.3388 67.4632 64.2249C67.6495 64.111 67.8568 64.0356 68.0728 64.0034Z" fill="#A9EBFF"/>
<path d="M86.2041 110.459C86.2548 111.386 86.5234 112.288 86.9883 113.092C87.4532 113.896 88.1012 114.579 88.8799 115.086C90.357 115.941 91.5557 115.246 91.5557 113.547C91.5051 112.62 91.2364 111.718 90.7715 110.914C90.3066 110.11 89.6586 109.427 88.8799 108.92C87.4029 108.065 86.2041 108.749 86.2041 110.459Z" fill="white"/>
<path d="M76.4641 104.838C76.5148 105.765 76.7834 106.667 77.2483 107.471C77.7132 108.274 78.3613 108.958 79.1399 109.465C80.617 110.32 81.8157 109.625 81.8157 107.926C81.7651 106.999 81.4964 106.097 81.0315 105.293C80.5666 104.489 79.9186 103.806 79.1399 103.299C77.6629 102.444 76.4641 103.138 76.4641 104.838Z" fill="white"/>
<path d="M66.7134 99.2165C66.7641 100.143 67.0327 101.045 67.4976 101.849C67.9625 102.653 68.6105 103.337 69.3892 103.844C70.8662 104.699 72.065 104.004 72.065 102.305C72.0143 101.378 71.7457 100.476 71.2808 99.6721C70.8159 98.8682 70.1679 98.1849 69.3892 97.6776C67.9121 96.8227 66.7134 97.5066 66.7134 99.2165Z" fill="white"/>
<path d="M87.6062 108.567C87.463 108.905 87.3937 109.269 87.4028 109.636C87.4535 110.563 87.7222 111.465 88.1871 112.269C88.652 113.073 89.3 113.756 90.0787 114.263C90.4721 114.509 90.9316 114.629 91.3952 114.605C90.9992 115.503 90.0359 115.738 88.9227 115.097C88.1441 114.59 87.496 113.906 87.0311 113.103C86.5662 112.299 86.2976 111.397 86.2469 110.47C86.2072 110.255 86.211 110.035 86.2583 109.822C86.3057 109.609 86.3954 109.408 86.5223 109.23C86.6491 109.053 86.8104 108.903 86.9967 108.789C87.1829 108.675 87.3902 108.6 87.6062 108.567Z" fill="#A9EBFF"/>
<path d="M77.8233 102.957C77.68 103.294 77.6107 103.659 77.6199 104.025C77.6706 104.952 77.9393 105.854 78.4041 106.658C78.869 107.462 79.5171 108.145 80.2957 108.653C80.6892 108.898 81.1487 109.018 81.6122 108.995C81.2162 109.892 80.2529 110.127 79.1398 109.486C78.3611 108.979 77.7131 108.296 77.2482 107.492C76.7833 106.688 76.5146 105.786 76.464 104.859C76.4242 104.644 76.4281 104.424 76.4754 104.211C76.5227 103.998 76.6125 103.797 76.7393 103.62C76.8662 103.442 77.0275 103.292 77.2137 103.178C77.4 103.064 77.6072 102.989 77.8233 102.957Z" fill="#A9EBFF"/>
<path d="M68.0728 97.3354C67.9295 97.6732 67.8602 98.0375 67.8694 98.4041C67.9201 99.3311 68.1887 100.233 68.6536 101.037C69.1185 101.841 69.7665 102.524 70.5452 103.032C70.9387 103.277 71.3982 103.397 71.8617 103.374C71.4657 104.271 70.5024 104.506 69.3893 103.865C68.6106 103.358 67.9626 102.675 67.4977 101.871C67.0328 101.067 66.7641 100.165 66.7135 99.2377C66.6737 99.0233 66.6776 98.8031 66.7249 98.5902C66.7722 98.3773 66.862 98.1761 66.9888 97.9986C67.1157 97.821 67.277 97.6708 67.4632 97.5569C67.6495 97.443 67.8568 97.3677 68.0728 97.3354Z" fill="#A9EBFF"/>
<path d="M102.548 62.4325L149.364 35.4376V26.9844L102.548 53.9686V62.4325Z" fill="url(#paint6_linear)"/>
<path d="M102.548 53.9684L149.364 26.9842L102.548 0L55.7319 26.9842L102.548 53.9684Z" fill="url(#paint7_linear)"/>
<path d="M102.548 52.9317L148.465 26.4712L149.364 26.9842L102.548 53.9683L55.7319 26.9842L56.631 26.4712L102.548 52.9317Z" fill="#A9EBFF"/>
<path d="M55.7319 35.4376L102.548 62.4325V53.9686L55.7319 26.9844V35.4376Z" fill="url(#paint8_linear)"/>
<path opacity="0.5" d="M149.364 69.9238V82.5236L102.548 109.508V96.908L149.364 69.9238Z" fill="white"/>
<path opacity="0.5" d="M55.7319 69.9238V82.5236L102.548 109.508V96.908L55.7319 69.9238Z" fill="white"/>
<path d="M116.002 116.358L135.888 104.891C136.863 104.2 137.662 103.289 138.22 102.233C138.777 101.177 139.079 100.004 139.099 98.8103C139.099 96.4699 137.676 95.3906 135.888 96.4058L116.002 107.873C115.027 108.564 114.228 109.475 113.67 110.531C113.113 111.587 112.811 112.76 112.791 113.954C112.823 116.294 114.246 117.373 116.002 116.358Z" fill="white"/>
<path d="M132.506 102.732C133.481 102.041 134.28 101.13 134.838 100.074C135.395 99.0178 135.697 97.8455 135.717 96.6516C135.717 96.6516 135.717 96.5661 135.717 96.5234L135.921 96.4058C137.687 95.3906 139.132 96.4699 139.132 98.8103C139.111 100.004 138.81 101.177 138.252 102.233C137.694 103.289 136.896 104.2 135.921 104.891L116.034 116.358C114.311 117.352 112.909 116.358 112.823 114.082L132.506 102.732Z" fill="url(#paint9_linear)"/>
<defs>
<linearGradient id="paint0_linear" x1="153.485" y1="87.4287" x2="94.8034" y2="127.941" gradientUnits="userSpaceOnUse">
<stop stop-color="#3A9BD5"/>
<stop offset="1" stop-color="#2573BA"/>
</linearGradient>
<linearGradient id="paint1_linear" x1="137.644" y1="67.466" x2="71.5831" y2="95.8918" gradientUnits="userSpaceOnUse">
<stop stop-color="#7BDAFF"/>
<stop offset="1" stop-color="#59BDEF"/>
</linearGradient>
<linearGradient id="paint2_linear" x1="108.542" y1="97.5277" x2="45.8582" y2="116.454" gradientUnits="userSpaceOnUse">
<stop stop-color="#2573BA"/>
<stop offset="1" stop-color="#0063AD"/>
</linearGradient>
<linearGradient id="paint3_linear" x1="-78717.8" y1="7749.69" x2="-76117.2" y2="9508.97" gradientUnits="userSpaceOnUse">
<stop stop-color="#3A9BD5"/>
<stop offset="1" stop-color="#2573BA"/>
</linearGradient>
<linearGradient id="paint4_linear" x1="-156199" y1="7724.03" x2="-151797" y2="11005.8" gradientUnits="userSpaceOnUse">
<stop stop-color="#7BDAFF"/>
<stop offset="1" stop-color="#59BDEF"/>
</linearGradient>
<linearGradient id="paint5_linear" x1="-76798.9" y1="8201.09" x2="-74047.8" y2="9014.8" gradientUnits="userSpaceOnUse">
<stop stop-color="#2573BA"/>
<stop offset="1" stop-color="#0063AD"/>
</linearGradient>
<linearGradient id="paint6_linear" x1="-78590" y1="4874.16" x2="-76737.9" y2="6560.78" gradientUnits="userSpaceOnUse">
<stop stop-color="#3A9BD5"/>
<stop offset="1" stop-color="#2573BA"/>
</linearGradient>
<linearGradient id="paint7_linear" x1="-156199" y1="6579.82" x2="-151797" y2="9861.63" gradientUnits="userSpaceOnUse">
<stop stop-color="#7BDAFF"/>
<stop offset="1" stop-color="#59BDEF"/>
</linearGradient>
<linearGradient id="paint8_linear" x1="-76693.1" y1="5166.96" x2="-74323.5" y2="6110.15" gradientUnits="userSpaceOnUse">
<stop stop-color="#2573BA"/>
<stop offset="1" stop-color="#0063AD"/>
</linearGradient>
<linearGradient id="paint9_linear" x1="41885.4" y1="4290.52" x2="41303.7" y2="4799.72" gradientUnits="userSpaceOnUse">
<stop stop-color="#2573BA"/>
<stop offset="1" stop-color="#0063AD"/>
</linearGradient>
</defs>
</svg>
