<svg width="265" height="226" viewBox="0 0 265 226" fill="none" xmlns="http://www.w3.org/2000/svg">
<g clip-path="url(#clip0)">
<g opacity="0.1">
<path opacity="0.1" d="M141.162 120.592L202.945 84.2204C203.632 83.823 204.413 83.6138 205.207 83.6138C206.001 83.6138 206.781 83.823 207.469 84.2204L263.8 116.955C264.177 117.176 264.489 117.492 264.707 117.872C264.924 118.252 265.038 118.681 265.038 119.119C265.038 119.556 264.924 119.986 264.707 120.366C264.489 120.745 264.177 121.061 263.8 121.283L202.454 157.327C201.758 157.731 200.969 157.944 200.164 157.944C199.36 157.944 198.57 157.731 197.875 157.327L141.162 124.411C140.831 124.215 140.556 123.935 140.365 123.6C140.175 123.266 140.074 122.887 140.074 122.501C140.074 122.116 140.175 121.737 140.365 121.402C140.556 121.067 140.831 120.788 141.162 120.592Z" fill="#606060"/>
</g>
<path d="M140.036 112.317L202.945 78.801C203.633 78.4036 204.413 78.1943 205.207 78.1943C206.002 78.1943 206.782 78.4036 207.47 78.801L265 109.007C265 109.007 265 112.645 265 113.445C265.054 113.927 264.965 114.415 264.746 114.848C264.526 115.281 264.185 115.64 263.764 115.882L202.418 151.926C201.723 152.33 200.933 152.543 200.129 152.543C199.324 152.543 198.535 152.33 197.839 151.926L141.163 118.955C140.825 118.764 140.544 118.487 140.35 118.151C140.155 117.815 140.053 117.434 140.054 117.046C140 116.3 140 113.136 140.036 112.317Z" fill="#6492C9"/>
<path d="M141.164 109.934L202.946 73.5627C203.634 73.1653 204.414 72.9561 205.208 72.9561C206.003 72.9561 206.783 73.1653 207.471 73.5627L263.801 106.297C264.178 106.518 264.491 106.835 264.708 107.214C264.925 107.594 265.039 108.024 265.039 108.461C265.039 108.898 264.925 109.328 264.708 109.708C264.491 110.087 264.178 110.404 263.801 110.625L202.455 146.669C201.76 147.073 200.97 147.286 200.166 147.286C199.362 147.286 198.572 147.073 197.876 146.669L141.164 113.753C140.832 113.557 140.558 113.278 140.367 112.943C140.176 112.608 140.076 112.229 140.076 111.844C140.076 111.458 140.176 111.079 140.367 110.745C140.558 110.41 140.832 110.13 141.164 109.934Z" fill="#E6F7FF"/>
<path d="M213.448 90.8947L204.254 85.5845L195.132 90.8947L196.731 91.8222L204.272 87.4394L211.867 91.8222L213.448 90.8947Z" fill="#24126A"/>
<path d="M175.343 104.261L173.726 103.333L164.604 108.662L173.799 113.972L175.38 113.045L167.802 108.662L175.343 104.261Z" fill="#24126A"/>
<path d="M244.412 108.789L235.217 103.479L233.618 104.406L241.214 108.789L233.673 113.172L235.272 114.099L244.412 108.789Z" fill="#24126A"/>
<path d="M213.884 126.538L212.285 125.611L204.744 129.994L197.149 125.611L195.568 126.538L204.763 131.849L213.884 126.538Z" fill="#24126A"/>
<path d="M196.731 96.2046L203.999 92.0037L204.453 91.7309L212.194 96.2046L204.508 100.678L196.767 96.2046H196.731ZM215.229 96.2046L204.326 89.9487L203.872 90.2215L193.569 96.2046L204.472 102.46L215.229 96.2046Z" fill="#24126A"/>
<path d="M218.372 108.717L225.641 104.516L226.095 104.243L233.836 108.717L226.15 113.191L218.409 108.717H218.372ZM236.871 108.717L225.968 102.461L225.514 102.734L215.211 108.717L226.113 114.973L236.871 108.717Z" fill="#24126A"/>
<path d="M209.051 96.205L204.417 93.5317L199.802 96.205L204.435 98.8783L209.051 96.205Z" fill="#24126A"/>
<path d="M230.711 108.717L226.077 106.043L221.462 108.717L226.096 111.39L230.711 108.717Z" fill="#24126A"/>
<path d="M195.204 98.8962L192.115 97.0776L190.571 97.9687L193.66 99.7873L195.204 98.8962Z" fill="#24126A"/>
<path d="M215.302 110.499L213.757 109.608L210.686 111.426L213.775 113.245L215.32 112.354L213.775 111.463L215.32 110.572L215.302 110.499Z" fill="#24126A"/>
<path d="M175.216 108.717L182.484 104.516L182.939 104.243L190.68 108.717L182.957 113.191L175.216 108.717ZM193.714 108.717L182.812 102.461L182.357 102.734L172.054 108.717L182.957 114.973L193.714 108.717Z" fill="#24126A"/>
<path d="M187.536 108.717L182.957 106.043L178.341 108.717L182.975 111.39L187.59 108.717H187.536Z" fill="#24126A"/>
<path d="M196.84 117.664L195.295 116.773L192.224 118.592L190.68 117.7L189.135 118.592L192.224 120.41L196.84 117.737V117.664Z" fill="#24126A"/>
<path d="M198.348 109.608L196.803 108.717L195.259 109.608L196.803 110.499L198.348 109.608ZM213.794 114.973L210.704 113.154L209.16 114.045L210.704 114.936L209.16 115.827L204.526 113.154L202.982 114.045L204.526 114.936L202.982 115.827L201.437 114.936L202.982 114.045L201.437 113.154L199.893 114.045L198.348 113.154L199.893 112.263L196.803 110.444L193.733 112.263L195.277 113.154L193.733 114.045L192.188 113.154L193.733 112.263L192.188 111.372L189.117 113.19L190.662 114.082L189.117 114.973L187.572 114.082L184.502 115.9L187.591 117.719L189.135 116.828L190.68 117.719L192.224 116.828L190.68 115.936L189.135 116.828L187.591 115.936L189.135 115.045L190.68 115.936L192.224 115.045L195.313 116.864L196.858 115.973L195.313 115.082L196.858 114.191L198.403 115.082L196.858 115.973L198.403 116.864L199.947 115.973L204.581 118.646L206.125 117.755L204.581 116.864L206.125 115.973L207.67 116.864L206.125 117.755L209.214 119.574L210.759 118.683L212.304 119.574L213.848 118.683L210.759 116.864L213.83 115.045L213.794 114.973ZM212.213 108.717L210.668 107.826L209.124 108.717L210.668 109.608L212.213 108.717ZM216.828 106.043L215.284 105.152L212.213 106.971L210.668 106.08L212.213 105.189L210.668 104.298L209.124 105.189L207.579 104.298L209.124 103.407L207.579 102.515L204.508 104.334L206.053 105.225L204.508 106.116L202.964 105.225L199.893 107.044L198.348 106.153L196.803 107.044L195.259 106.153L196.803 105.261L198.348 106.153L199.893 105.261L198.348 104.37L196.803 105.261L195.259 104.37L196.803 103.479L198.348 104.37L199.893 103.479L201.437 104.37L202.982 103.479L201.437 102.588L199.893 103.479L198.348 102.588L199.893 101.697L196.803 99.8785L195.259 100.77L196.803 101.661L195.259 102.552L193.714 101.661L192.17 102.552L189.081 100.733L187.536 101.624L185.992 100.733L184.447 101.624L187.536 103.443L189.081 102.552L192.17 104.37L190.625 105.261L196.803 108.899L199.874 107.08L202.964 108.899L204.508 108.008L202.964 107.116L204.508 106.225L207.597 108.044L209.142 107.153L210.686 108.044L212.231 107.153L213.775 108.044L216.846 106.225L216.828 106.043ZM218.318 98.0054L216.774 97.1143L215.229 98.0054L216.774 98.8965L218.318 98.0054ZM222.952 100.679L221.407 99.7876L218.336 101.606L216.792 100.715L218.336 99.8239L216.792 98.9328H216.646L213.721 100.624L215.265 101.515L212.194 103.334L215.284 105.152L219.899 102.479L221.444 103.37L222.988 102.479L221.444 101.588L222.988 100.697L222.952 100.679Z" fill="#24126A"/>
<path d="M210.741 120.337L209.196 119.446L208.742 119.719L208.124 120.083L207.67 120.356L204.581 118.537L203.036 119.428L206.125 121.247L207.67 120.356L209.214 121.247L210.759 120.356L210.741 120.337Z" fill="#24126A"/>
<path d="M224.587 115.864L223.043 114.973L221.498 115.864H221.353L216.865 113.263L215.32 114.154L218.409 115.973L216.865 116.864L215.32 115.973L213.775 116.864L216.865 118.683L215.32 119.574L216.865 120.465L221.48 117.791L219.935 116.9L221.48 116.009L223.025 116.9L224.569 116.009L224.587 115.864Z" fill="#24126A"/>
<path d="M209.142 112.3L207.597 111.408H207.452L206.071 112.209L207.615 113.1L209.16 112.209L209.142 112.3ZM209.142 110.481L207.597 109.59L206.052 110.481L204.508 109.59L202.963 110.481L201.419 109.59L199.874 110.481L201.419 111.372L202.963 110.481L204.508 111.372L206.052 110.481L207.597 111.372L209.142 110.481Z" fill="#24126A"/>
<path d="M213.848 122.047L212.303 121.156L209.232 122.975L207.67 122.047L204.599 123.866L203.054 122.975L204.599 122.083L201.51 120.265L199.965 121.156L198.42 120.265L201.491 118.446L199.947 117.555L193.805 121.192L196.894 123.011L199.965 121.192L201.491 122.047L198.42 123.866L199.965 124.757L201.51 123.866L206.143 126.539L209.214 124.72L207.67 123.866L209.214 122.975L210.759 123.866L213.83 122.047H213.848Z" fill="#24126A"/>
<path d="M177.614 125.047H177.432L176.197 125.32L177.069 125.829L177.541 125.102V124.993L177.614 125.047ZM173.544 125.229L178.523 124.193L179.104 124.52L177.287 127.412L176.378 126.884L176.615 126.521L175.052 125.611L174.416 125.757L173.507 125.229H173.544ZM181.321 128.012H181.43L183.247 126.975L184.065 127.448L180.667 129.321L179.904 128.885L180.303 127.066V126.957H180.194L178.377 128.012L177.559 127.539L180.939 125.575L181.703 126.011L181.339 127.83V127.939L181.321 128.012ZM169.364 122.047C169.474 122.104 169.595 122.134 169.719 122.134C169.842 122.134 169.964 122.104 170.073 122.047C170.309 121.901 170.073 121.61 169.691 121.229C169.31 120.847 169.183 120.501 169.691 120.156C170.055 120.002 170.45 119.935 170.844 119.96C171.238 119.985 171.621 120.102 171.963 120.301C172.617 120.683 172.726 121.21 172.363 121.61L171.363 121.283C171.407 121.242 171.44 121.19 171.458 121.133C171.476 121.076 171.479 121.014 171.466 120.956C171.453 120.897 171.425 120.842 171.385 120.798C171.344 120.753 171.293 120.72 171.236 120.701C171.133 120.645 171.017 120.616 170.9 120.616C170.782 120.616 170.667 120.645 170.564 120.701C170.364 120.81 170.564 121.065 170.872 121.392C171.181 121.72 171.508 122.229 170.872 122.592C170.495 122.768 170.079 122.846 169.664 122.821C169.248 122.796 168.846 122.667 168.492 122.447C167.783 122.029 167.674 121.519 168.074 121.028L169.073 121.374C169.029 121.429 168.998 121.494 168.984 121.563C168.969 121.632 168.972 121.704 168.992 121.772C169.011 121.84 169.047 121.902 169.096 121.953C169.145 122.004 169.206 122.043 169.273 122.065L169.364 122.047ZM171.945 124.393C171.731 124.322 171.545 124.185 171.413 124.002C171.281 123.82 171.21 123.6 171.21 123.374C171.21 123.149 171.281 122.929 171.413 122.746C171.545 122.564 171.731 122.427 171.945 122.356C172.486 122.072 173.087 121.924 173.698 121.924C174.309 121.924 174.911 122.072 175.452 122.356C175.59 122.402 175.718 122.477 175.827 122.574C175.936 122.672 176.024 122.791 176.085 122.924C176.146 123.057 176.18 123.201 176.183 123.347C176.187 123.493 176.16 123.639 176.106 123.774L175.052 123.429C175.051 123.301 175.013 123.176 174.942 123.069C174.871 122.962 174.77 122.879 174.652 122.829C174.373 122.679 174.06 122.601 173.743 122.601C173.427 122.601 173.114 122.679 172.835 122.829C172.253 123.174 172.272 123.593 172.835 123.902C173.191 124.091 173.597 124.168 173.998 124.12L174.616 124.72C173.736 124.914 172.816 124.792 172.017 124.375L171.945 124.393ZM192.405 130.721L165.149 114.936C164.971 114.845 164.775 114.798 164.576 114.798C164.377 114.798 164.181 114.845 164.004 114.936L159.061 117.81C158.993 117.833 158.933 117.877 158.891 117.935C158.849 117.994 158.826 118.065 158.826 118.137C158.826 118.209 158.849 118.28 158.891 118.338C158.933 118.397 158.993 118.441 159.061 118.464L186.318 134.249C186.496 134.339 186.692 134.386 186.89 134.386C187.089 134.386 187.285 134.339 187.463 134.249L192.405 131.376C192.474 131.353 192.533 131.309 192.575 131.25C192.617 131.192 192.64 131.121 192.64 131.049C192.64 130.976 192.617 130.906 192.575 130.847C192.533 130.789 192.474 130.745 192.405 130.721Z" fill="#6ACBF7"/>
<path d="M172.054 120.356C171.713 120.157 171.33 120.04 170.936 120.014C170.541 119.989 170.147 120.056 169.783 120.21C169.183 120.556 169.438 120.956 169.783 121.283C170.128 121.61 170.401 121.974 170.164 122.101C170.055 122.159 169.934 122.189 169.81 122.189C169.687 122.189 169.565 122.159 169.456 122.101C169.389 122.079 169.328 122.041 169.279 121.99C169.23 121.939 169.194 121.877 169.174 121.809C169.154 121.741 169.152 121.669 169.166 121.599C169.18 121.53 169.211 121.465 169.256 121.41L168.256 121.065C167.857 121.556 167.966 122.083 168.674 122.483C169.028 122.703 169.431 122.832 169.846 122.857C170.262 122.883 170.677 122.804 171.055 122.629C171.709 122.247 171.382 121.829 171.055 121.429C170.728 121.028 170.546 120.847 170.746 120.738C170.849 120.682 170.965 120.653 171.082 120.653C171.199 120.653 171.315 120.682 171.418 120.738C171.475 120.756 171.527 120.79 171.567 120.834C171.607 120.879 171.635 120.933 171.648 120.992C171.661 121.051 171.658 121.112 171.64 121.169C171.622 121.227 171.59 121.279 171.545 121.319L172.545 121.647C172.908 121.247 172.799 120.719 172.145 120.337L172.054 120.356Z" fill="white"/>
<path d="M175.452 122.338C174.911 122.054 174.309 121.906 173.699 121.906C173.088 121.906 172.486 122.054 171.945 122.338C171.731 122.409 171.545 122.546 171.413 122.728C171.281 122.911 171.21 123.131 171.21 123.356C171.21 123.582 171.281 123.802 171.413 123.984C171.545 124.167 171.731 124.304 171.945 124.375C172.744 124.792 173.664 124.914 174.544 124.72L173.926 124.12C173.525 124.168 173.119 124.092 172.763 123.902C172.236 123.593 172.218 123.156 172.763 122.829C173.042 122.679 173.354 122.601 173.671 122.601C173.988 122.601 174.3 122.679 174.58 122.829C174.698 122.879 174.799 122.962 174.87 123.069C174.941 123.176 174.979 123.301 174.98 123.429L176.034 123.775C176.088 123.639 176.115 123.493 176.111 123.347C176.107 123.201 176.074 123.057 176.013 122.924C175.951 122.791 175.864 122.672 175.755 122.575C175.646 122.477 175.518 122.403 175.379 122.356L175.452 122.338Z" fill="white"/>
<path d="M176.197 125.375L177.433 125.102H177.615V125.211L177.142 125.939L176.27 125.43L176.197 125.375ZM179.105 124.52L178.523 124.193L173.544 125.229L174.453 125.757L175.089 125.611L176.651 126.521L176.415 126.884L177.324 127.412L179.141 124.52H179.105Z" fill="white"/>
<path d="M184.047 127.375L183.229 126.902L181.449 127.939L181.34 128.011L181.394 127.902L181.758 126.047L180.994 125.611L177.615 127.575L178.432 128.048L180.231 126.993L180.358 126.92L180.286 127.029L179.904 128.884L180.667 129.339L184.047 127.375Z" fill="white"/>
</g>
<path d="M101.128 3.126L106.502 0.0893593C106.663 0.0173525 106.841 -0.0119354 107.018 0.00440628C107.195 0.020748 107.364 0.0821484 107.51 0.182506L165.938 33.2036C166.422 33.5428 166.817 33.9884 167.093 34.5044C167.369 35.0204 167.517 35.5926 167.527 36.1751V176.568C167.555 176.808 167.518 177.051 167.42 177.271C167.321 177.492 167.164 177.684 166.966 177.826L161.592 180.863L161.44 173.625L108.879 143.911C108.396 143.571 108 143.126 107.724 142.61C107.448 142.094 107.3 141.521 107.291 140.939V6.53523C107.158 6.9544 107.053 7.26179 107.034 7.2711C107.015 7.28042 101.128 3.126 101.128 3.126Z" fill="#2573BA"/>
<path d="M167.45 35.7002L151.207 44.8939L148.545 43.3849L166.186 33.3994C166.866 33.9998 167.313 34.813 167.45 35.7002Z" fill="#82B8EA"/>
<path d="M102.222 147.739L160.613 180.76C161.488 181.254 162.201 180.76 162.201 179.586V39.193C162.192 38.6106 162.043 38.0384 161.767 37.5224C161.492 37.0063 161.096 36.5608 160.613 36.2216L102.222 3.20049C101.347 2.70681 100.634 3.20049 100.634 4.37416V144.767C100.643 145.35 100.791 145.922 101.067 146.438C101.343 146.954 101.739 147.4 102.222 147.739Z" fill="#D4ECFF"/>
<path d="M160.575 36.2216L102.222 3.20046C102.032 3.06163 101.797 2.9971 101.561 3.01949C101.325 3.04189 101.107 3.14959 100.948 3.32155C101.092 3.2915 101.242 3.29002 101.387 3.31721C101.533 3.3444 101.671 3.39971 101.794 3.4799L160.185 36.501C160.668 36.8402 161.064 37.2858 161.34 37.8018C161.616 38.3178 161.764 38.89 161.773 39.4724V179.856C161.795 180.232 161.684 180.604 161.459 180.909C161.717 180.8 161.93 180.61 162.065 180.368C162.199 180.127 162.247 179.848 162.201 179.577V39.193C162.188 38.6074 162.033 38.0331 161.751 37.5168C161.468 37.0005 161.065 36.5568 160.575 36.2216Z" fill="white"/>
<path d="M100.596 137.642L162.163 172.46V46.3189L100.596 11.5V137.642Z" fill="#24126A"/>
<path opacity="0.51" d="M100.596 135.174L162.163 169.992V48.7784L100.596 13.9595V135.174Z" fill="#0F65B2"/>
<path d="M126.577 22.8177L137.713 29.1332C138.036 29.3195 138.312 29.3754 138.436 29.068C138.481 28.952 138.503 28.8288 138.502 28.7047C138.496 28.4163 138.422 28.1332 138.285 27.8778C138.148 27.6224 137.952 27.4017 137.713 27.233L126.463 20.9548C126.435 20.9272 126.398 20.9107 126.358 20.9082C126.006 21.0014 125.949 21.0759 125.949 21.5975L125.997 21.7C125.973 21.9212 126.016 22.1444 126.118 22.3427C126.221 22.541 126.381 22.7059 126.577 22.8177Z" fill="#0F65B2"/>
<path d="M126.358 20.8709C126.313 20.987 126.291 21.1101 126.292 21.2342C126.298 21.5226 126.372 21.8057 126.509 22.0611C126.646 22.3165 126.842 22.5372 127.081 22.7059L138.36 29.068H138.464C138.442 29.1376 138.403 29.2008 138.35 29.2522C138.297 29.3035 138.232 29.3414 138.161 29.3625C138.09 29.3837 138.014 29.3874 137.941 29.3734C137.868 29.3594 137.799 29.3281 137.742 29.2822L126.482 22.9202C126.243 22.7515 126.047 22.5307 125.91 22.2753C125.773 22.0199 125.699 21.7369 125.692 21.4484C125.673 20.9548 125.997 20.7126 126.358 20.8709Z" fill="#0C488F"/>
<path d="M164.835 55.6713L164.959 55.5968C165.037 55.5429 165.128 55.5102 165.224 55.502C165.319 55.4939 165.414 55.5105 165.501 55.5502L165.977 55.8203H165.739C165.786 55.9486 165.809 56.0845 165.805 56.2209V63.8031C165.799 64.1156 165.719 64.4225 165.57 64.699C165.422 64.9756 165.209 65.2143 164.949 65.396L164.826 65.4705L164.655 65.545L164.778 65.7965L164.265 65.5077C164.158 65.4325 164.073 65.3307 164.02 65.2128C163.966 65.095 163.946 64.9653 163.96 64.8371V57.2827C163.965 56.9655 164.047 56.6539 164.2 56.3737C164.352 56.0935 164.57 55.8528 164.835 55.6713Z" fill="#E9E9FD"/>
<path d="M165.32 65.6662L165.444 65.5916C165.704 65.41 165.916 65.1713 166.065 64.8947C166.213 64.6181 166.294 64.3113 166.3 63.9988V56.4631C166.3 55.8483 165.919 55.5316 165.444 55.8297L165.32 55.9042C165.061 56.0859 164.848 56.3246 164.699 56.6011C164.551 56.8777 164.47 57.1845 164.464 57.497V65.0328C164.464 65.6662 164.854 65.9735 165.32 65.6662Z" fill="#6ACBF7"/>
<path d="M164.835 67.1747L164.959 67.1002C165.037 67.0463 165.128 67.0136 165.224 67.0054C165.319 66.9973 165.414 67.0139 165.501 67.0536L165.977 67.3237H165.739C165.786 67.4521 165.809 67.5879 165.805 67.7243V75.26C165.802 75.5677 165.727 75.8707 165.585 76.1453C165.443 76.42 165.239 76.6589 164.987 76.8435L164.864 76.918L164.693 76.9926L164.816 77.244L164.303 76.9553C164.196 76.88 164.111 76.7782 164.058 76.6604C164.004 76.5425 163.984 76.4128 163.998 76.2846V68.7489C164.005 68.4412 164.084 68.1391 164.229 67.8661C164.374 67.593 164.582 67.3565 164.835 67.1747Z" fill="#E9E9FD"/>
<path d="M165.32 77.2072L165.444 77.1327C165.704 76.951 165.916 76.7123 166.065 76.4358C166.213 76.1592 166.294 75.8523 166.3 75.5398V68.0041C166.3 67.3893 165.919 67.0726 165.444 67.3707L165.32 67.4452C165.061 67.6269 164.848 67.8656 164.699 68.1422C164.551 68.4187 164.47 68.7256 164.464 69.0381V76.5738C164.464 77.1886 164.854 77.468 165.32 77.2072Z" fill="#6ACBF7"/>
<g opacity="0.11">
<g opacity="0.11">
<path opacity="0.5" d="M150.761 174.752L74.6052 127.861L105.627 108.794L153.908 141.741L175.819 168.483L150.761 174.752Z" fill="#0F054C"/>
<path opacity="0.11" d="M215 145.774V150.767C215.002 150.805 214.992 150.844 214.972 150.877C214.951 150.91 214.921 150.936 214.886 150.953L159.443 182.102C159.334 182.156 159.213 182.184 159.091 182.184C158.969 182.184 158.848 182.156 158.739 182.102L149.705 176.96C149.664 176.942 149.627 176.914 149.597 176.881C149.568 176.847 149.546 176.807 149.534 176.764V171.725L153.918 174.175L205.043 145.439C205.152 145.385 205.273 145.356 205.395 145.356C205.517 145.356 205.638 145.385 205.747 145.439L208.847 147.199L215 145.774Z" fill="url(#paint0_linear)"/>
<path opacity="0.11" d="M205.091 140.399L149.676 171.539C149.496 171.641 149.515 171.818 149.724 171.939L158.758 177.081C158.868 177.135 158.988 177.163 159.11 177.163C159.233 177.163 159.353 177.135 159.462 177.081L214.876 145.941C215.057 145.839 215.038 145.662 214.829 145.541L205.794 140.399C205.685 140.345 205.565 140.317 205.443 140.317C205.32 140.317 205.2 140.345 205.091 140.399Z" fill="url(#paint1_linear)"/>
<path opacity="0.6" d="M203.094 147.898L159.548 171.921C159.213 170.182 158.716 168.476 158.064 166.825L201.525 142.402C202.232 144.178 202.757 146.019 203.094 147.898Z" fill="#24126A"/>
<path opacity="0.11" d="M207.012 143.278L154.764 172.647C154.641 172.712 154.66 172.843 154.764 172.917L157.037 174.212C157.112 174.25 157.195 174.269 157.28 174.269C157.364 174.269 157.447 174.25 157.522 174.212L209.798 144.842C209.922 144.777 209.903 144.647 209.798 144.572L207.525 143.278C207.447 143.235 207.358 143.213 207.268 143.213C207.179 143.213 207.09 143.235 207.012 143.278Z" fill="#24126A"/>
<path opacity="0.11" d="M209.798 144.842L208.733 145.439L207.506 144.74C207.431 144.702 207.348 144.683 207.264 144.683C207.179 144.683 207.096 144.702 207.021 144.74L155.839 173.504L154.793 172.908C154.65 172.824 154.631 172.703 154.793 172.638L207.04 143.268C207.115 143.231 207.198 143.211 207.283 143.211C207.367 143.211 207.45 143.231 207.525 143.268L209.798 144.563C209.903 144.665 209.922 144.786 209.798 144.842Z" fill="#453C9E"/>
<path opacity="0.8" d="M205.11 147.488L161.64 171.92C161.64 171.529 161.64 171.129 161.64 170.728L205.1 146.305C205.1 146.705 205.119 147.096 205.11 147.488Z" fill="#453C9E"/>
<g opacity="0.32">
<path opacity="0.32" d="M142.734 110.144L152.558 104.574L151.607 104.034L141.783 109.604L142.734 110.144Z" fill="#453C9E"/>
<path opacity="0.32" d="M137.694 112.995L141.232 110.992L140.281 110.452L136.743 112.464L137.694 112.995Z" fill="#453C9E"/>
<path opacity="0.32" d="M133.785 115.211L136.191 113.842L135.24 113.311L132.834 114.671L133.785 115.211Z" fill="#453C9E"/>
<path opacity="0.32" d="M149.372 108.831L154.726 105.794L153.775 105.263L148.421 108.291L149.372 108.831Z" fill="#453C9E"/>
<path opacity="0.32" d="M141.308 113.395L147.87 109.678L146.919 109.147L140.357 112.864L141.308 113.395Z" fill="#453C9E"/>
<path opacity="0.32" d="M137.399 115.612L139.805 114.252L138.854 113.712L136.458 115.072L137.399 115.612Z" fill="#453C9E"/>
<path opacity="0.32" d="M133.69 117.717L136.087 116.357L135.136 115.817L132.739 117.177L133.69 117.717Z" fill="#453C9E"/>
<path opacity="0.32" d="M153.014 109.213L156.894 107.024L155.943 106.483L152.073 108.682L153.014 109.213Z" fill="#453C9E"/>
<path opacity="0.32" d="M150.19 110.815L151.512 110.07L150.57 109.529L149.239 110.284L150.19 110.815Z" fill="#453C9E"/>
<path opacity="0.32" d="M146.291 113.032L148.687 111.663L147.746 111.132L145.34 112.492L146.291 113.032Z" fill="#453C9E"/>
<path opacity="0.32" d="M144.76 116.348L159.063 108.244L158.112 107.704L143.809 115.808L144.76 116.348Z" fill="#453C9E"/>
<path opacity="0.32" d="M139.72 119.198L143.257 117.196L142.316 116.655L138.778 118.667L139.72 119.198Z" fill="#453C9E"/>
<path opacity="0.32" d="M157.351 111.662L161.221 109.464L160.28 108.933L156.4 111.122L157.351 111.662Z" fill="#453C9E"/>
<path opacity="0.32" d="M148.259 116.814L155.848 112.51L154.907 111.979L147.318 116.274L148.259 116.814Z" fill="#453C9E"/>
<path opacity="0.32" d="M144.36 119.031L146.757 117.661L145.815 117.13L143.409 118.49L144.36 119.031Z" fill="#453C9E"/>
<path opacity="0.32" d="M155.468 115.183L163.39 110.694L162.448 110.153L154.517 114.643L155.468 115.183Z" fill="#453C9E"/>
<path opacity="0.32" d="M148.24 119.282L153.965 116.031L153.024 115.5L147.289 118.742L148.24 119.282Z" fill="#453C9E"/>
<path opacity="0.32" d="M142.858 122.328L146.738 120.13L145.787 119.599L141.916 121.788L142.858 122.328Z" fill="#453C9E"/>
<path opacity="0.32" d="M162.886 113.433L165.558 111.914L164.616 111.374L161.935 112.892L162.886 113.433Z" fill="#453C9E"/>
<path opacity="0.32" d="M157.845 116.283L161.383 114.28L160.432 113.749L156.894 115.752L157.845 116.283Z" fill="#453C9E"/>
<path opacity="0.32" d="M150.646 120.363L156.343 117.14L155.401 116.6L149.695 119.832L150.646 120.363Z" fill="#453C9E"/>
<path opacity="0.32" d="M159.529 117.783L167.736 113.134L166.785 112.604L158.578 117.252L159.529 117.783Z" fill="#453C9E"/>
<path opacity="0.32" d="M150.352 122.989L158.026 118.639L157.085 118.099L149.401 122.449L150.352 122.989Z" fill="#453C9E"/>
<path opacity="0.32" d="M146.443 125.197L148.849 123.837L147.898 123.306L145.492 124.666L146.443 125.197Z" fill="#453C9E"/>
<path opacity="0.32" d="M142.696 127.321L145.102 125.961L144.151 125.43L141.745 126.79L142.696 127.321Z" fill="#453C9E"/>
<path opacity="0.32" d="M164.987 117.149L169.904 114.364L168.953 113.824L164.036 116.609L164.987 117.149Z" fill="#453C9E"/>
<path opacity="0.32" d="M122.801 121.434L115.983 125.29L115.041 124.759L121.85 120.894L122.801 121.434Z" fill="#453C9E"/>
<path opacity="0.32" d="M123.505 123.483L118.151 126.52L117.209 125.979L122.564 122.952L123.505 123.483Z" fill="#453C9E"/>
<path opacity="0.32" d="M124.199 125.542L120.319 127.74L119.378 127.209L123.248 125.011L124.199 125.542Z" fill="#453C9E"/>
<path opacity="0.32" d="M128.127 125.775L122.488 128.96L121.546 128.429L127.176 125.234L128.127 125.775Z" fill="#453C9E"/>
<path opacity="0.32" d="M128.536 127.991L124.656 130.19L123.714 129.649L127.585 127.46L128.536 127.991Z" fill="#453C9E"/>
<path opacity="0.32" d="M131.741 128.625L126.824 131.41L125.883 130.879L130.79 128.094L131.741 128.625Z" fill="#453C9E"/>
<path opacity="0.32" d="M131.674 131.121L128.992 132.63L128.051 132.099L130.723 130.581L131.674 131.121Z" fill="#453C9E"/>
<path opacity="0.32" d="M136.353 130.916L131.16 133.86L130.219 133.319L135.402 130.385L136.353 130.916Z" fill="#453C9E"/>
<path opacity="0.32" d="M138.246 132.295L133.329 135.08L132.387 134.549L137.295 131.764L138.246 132.295Z" fill="#453C9E"/>
<path opacity="0.32" d="M161.393 119.18L163.485 117.997L162.534 117.457L160.451 118.64L161.393 119.18Z" fill="#453C9E"/>
<path opacity="0.32" d="M155.192 122.691L159.89 120.027L158.949 119.496L154.241 122.16L155.192 122.691Z" fill="#453C9E"/>
<path opacity="0.32" d="M126.738 111.43L134.679 106.931L133.728 106.4L125.797 110.899L126.738 111.43Z" fill="#453C9E"/>
<path opacity="0.32" d="M121.308 114.513L124.428 112.743L123.486 112.203L120.357 113.972L121.308 114.513Z" fill="#453C9E"/>
</g>
<path opacity="0.11" d="M161.859 120.447L161.726 117.354L160.993 115.538L160.527 117.037L161.859 120.447Z" fill="#DD821F"/>
<path opacity="0.11" d="M128.66 121.043L128.536 118.006C128.536 118.006 131.161 120.568 131.161 120.633C131.161 120.698 128.66 121.043 128.66 121.043Z" fill="#FFD85A"/>
<path opacity="0.11" d="M145.483 130.06C154.65 129.845 161.925 125.281 161.726 117.354C161.526 109.427 153.946 103.177 144.779 103.382C135.611 103.587 128.336 110.2 128.536 118.118C128.736 126.036 136.315 130.274 145.483 130.06Z" fill="#FFD85A"/>
<path opacity="0.11" d="M145.605 135.199C154.773 134.984 162.048 128.385 161.854 120.46C161.661 112.534 154.072 106.284 144.904 106.498C135.737 106.713 128.462 113.312 128.655 121.237C128.849 129.163 136.438 135.413 145.605 135.199Z" fill="#FFD85A"/>
<path opacity="0.11" d="M156.837 110.499C158.344 111.715 159.57 113.23 160.434 114.945C161.298 116.66 161.78 118.536 161.849 120.447C162.039 128.374 154.774 134.969 145.606 135.183C141.35 135.323 137.184 133.957 133.871 131.336L156.837 110.499Z" fill="#DD821F"/>
<path opacity="0.11" d="M145.59 134.556C154.348 134.351 161.298 128.047 161.113 120.477C160.928 112.906 153.678 106.936 144.92 107.141C136.162 107.346 129.212 113.649 129.397 121.22C129.582 128.79 136.831 134.761 145.59 134.556Z" fill="#F9BF30"/>
<path opacity="0.11" d="M145.524 131.855C152.554 131.691 158.134 126.629 157.985 120.55C157.837 114.471 152.017 109.677 144.986 109.841C137.956 110.006 132.376 115.068 132.525 121.147C132.673 127.226 138.493 132.02 145.524 131.855Z" fill="#F2B42A"/>
<path opacity="0.11" d="M132.53 121.136C132.53 120.884 132.53 120.633 132.53 120.391C133.12 126.11 138.74 130.507 145.473 130.348C152.206 130.19 157.608 125.532 157.921 119.794C157.921 120.046 157.921 120.288 157.969 120.54C158.121 126.622 152.539 131.717 145.511 131.848C138.483 131.978 132.654 127.218 132.53 121.136Z" fill="#FFD85A"/>
<path opacity="0.11" d="M145.654 111.151C138.626 111.318 133.044 116.376 133.196 122.459C133.225 123.661 133.48 124.849 133.947 125.961C133.06 124.498 132.572 122.837 132.53 121.136C132.378 115.053 137.96 109.958 144.988 109.828C150.589 109.697 155.449 112.715 157.227 117.028C156 115.135 154.282 113.594 152.249 112.562C150.216 111.529 147.941 111.042 145.654 111.151Z" fill="#DD821F"/>
<path opacity="0.11" d="M161.725 117.354C161.836 118.402 161.788 119.459 161.583 120.493C161.221 119.329 160.423 115.836 160.423 115.836L159.158 113.041L158.102 112.194L156.324 110.917L156.181 106.931C157.842 108.151 159.203 109.721 160.162 111.525C161.122 113.329 161.656 115.321 161.725 117.354Z" fill="#DD821F"/>
<path opacity="0.11" d="M129.61 116.898L129.544 116.078C129.544 116.024 129.522 115.972 129.483 115.933C129.443 115.895 129.39 115.873 129.335 115.873H129.268C129.241 115.874 129.214 115.881 129.189 115.892C129.164 115.904 129.141 115.92 129.123 115.94C129.104 115.96 129.09 115.983 129.081 116.008C129.071 116.033 129.067 116.06 129.068 116.087L129.135 116.907C129.135 116.961 129.157 117.013 129.196 117.052C129.235 117.09 129.289 117.112 129.344 117.112H129.411C129.438 117.111 129.465 117.104 129.49 117.093C129.515 117.081 129.537 117.065 129.556 117.045C129.574 117.025 129.589 117.002 129.598 116.977C129.608 116.952 129.612 116.925 129.61 116.898Z" fill="#DD821F"/>
<path opacity="0.11" d="M131.066 113.814L130.98 112.343C130.98 112.281 130.955 112.222 130.91 112.178C130.866 112.134 130.805 112.11 130.742 112.11H130.6C130.568 112.111 130.536 112.119 130.507 112.132C130.478 112.145 130.452 112.164 130.431 112.188C130.409 112.211 130.393 112.239 130.383 112.269C130.373 112.298 130.369 112.33 130.371 112.361L130.457 113.833C130.457 113.895 130.482 113.954 130.527 113.998C130.571 114.041 130.632 114.066 130.695 114.066H130.837C130.869 114.065 130.901 114.057 130.93 114.044C130.959 114.03 130.985 114.011 131.006 113.988C131.028 113.964 131.044 113.937 131.054 113.907C131.064 113.877 131.068 113.846 131.066 113.814Z" fill="#DD821F"/>
<path opacity="0.11" d="M133.082 111.085L132.996 109.66C132.997 109.625 132.991 109.59 132.979 109.558C132.966 109.525 132.946 109.495 132.922 109.47C132.897 109.445 132.867 109.425 132.834 109.411C132.801 109.397 132.766 109.39 132.73 109.39H132.473C132.437 109.391 132.402 109.4 132.37 109.414C132.337 109.429 132.308 109.45 132.284 109.476C132.26 109.502 132.242 109.533 132.23 109.566C132.218 109.599 132.214 109.635 132.216 109.67L132.302 111.095C132.301 111.13 132.307 111.165 132.319 111.197C132.332 111.23 132.352 111.26 132.376 111.285C132.401 111.31 132.431 111.33 132.464 111.344C132.497 111.358 132.532 111.365 132.568 111.365H132.825C132.861 111.364 132.896 111.355 132.928 111.341C132.961 111.326 132.99 111.305 133.014 111.279C133.038 111.253 133.056 111.222 133.068 111.189C133.08 111.156 133.084 111.12 133.082 111.085Z" fill="#DD821F"/>
<path opacity="0.11" d="M136.115 108.878L136.02 107.154C136.022 107.119 136.016 107.084 136.003 107.052C135.99 107.019 135.971 106.989 135.946 106.964C135.921 106.939 135.891 106.919 135.858 106.905C135.825 106.891 135.79 106.884 135.754 106.884H135.507C135.471 106.885 135.436 106.894 135.403 106.908C135.371 106.923 135.342 106.944 135.318 106.97C135.294 106.997 135.275 107.027 135.264 107.06C135.252 107.094 135.247 107.129 135.25 107.164L135.345 108.887C135.344 108.922 135.35 108.957 135.363 108.99C135.375 109.022 135.395 109.052 135.42 109.077C135.444 109.103 135.474 109.123 135.507 109.136C135.54 109.15 135.576 109.157 135.611 109.157H135.868C135.903 109.155 135.937 109.146 135.969 109.13C136 109.115 136.028 109.094 136.051 109.068C136.074 109.042 136.092 109.012 136.103 108.979C136.114 108.946 136.118 108.912 136.115 108.878Z" fill="#DD821F"/>
<path opacity="0.11" d="M139.159 107.434L139.063 105.45C139.065 105.415 139.059 105.38 139.046 105.347C139.033 105.314 139.014 105.285 138.989 105.259C138.964 105.234 138.934 105.214 138.901 105.2C138.868 105.187 138.833 105.18 138.797 105.18H138.54C138.505 105.181 138.469 105.189 138.437 105.204C138.404 105.219 138.375 105.24 138.351 105.266C138.327 105.292 138.309 105.323 138.297 105.356C138.286 105.389 138.281 105.424 138.284 105.459L138.379 107.443C138.377 107.478 138.383 107.513 138.396 107.546C138.409 107.579 138.428 107.608 138.453 107.634C138.478 107.659 138.508 107.679 138.541 107.693C138.574 107.706 138.609 107.713 138.645 107.713H138.902C138.938 107.712 138.973 107.704 139.005 107.689C139.038 107.674 139.067 107.653 139.091 107.627C139.115 107.601 139.133 107.57 139.145 107.537C139.156 107.504 139.161 107.469 139.159 107.434Z" fill="#DD821F"/>
<path opacity="0.11" d="M142.211 106.549L142.116 104.639C142.117 104.604 142.111 104.569 142.098 104.537C142.086 104.504 142.066 104.474 142.041 104.449C142.017 104.424 141.987 104.404 141.954 104.39C141.921 104.376 141.885 104.369 141.85 104.369H141.593C141.557 104.37 141.522 104.379 141.489 104.393C141.457 104.408 141.428 104.429 141.404 104.455C141.38 104.481 141.361 104.512 141.35 104.545C141.338 104.578 141.334 104.614 141.336 104.649L141.431 106.558C141.43 106.593 141.436 106.628 141.449 106.661C141.462 106.694 141.481 106.723 141.506 106.749C141.531 106.774 141.56 106.794 141.593 106.808C141.626 106.821 141.662 106.828 141.698 106.828H141.954C141.99 106.827 142.025 106.819 142.058 106.804C142.09 106.789 142.119 106.768 142.143 106.742C142.167 106.716 142.186 106.685 142.197 106.652C142.209 106.619 142.214 106.584 142.211 106.549Z" fill="#DD821F"/>
<path opacity="0.11" d="M145.292 106.251L145.197 104.313C145.199 104.278 145.193 104.243 145.18 104.21C145.167 104.178 145.148 104.148 145.123 104.123C145.098 104.097 145.068 104.077 145.035 104.064C145.002 104.05 144.967 104.043 144.931 104.043H144.674C144.638 104.044 144.603 104.052 144.571 104.067C144.538 104.082 144.509 104.103 144.485 104.129C144.461 104.155 144.443 104.186 144.431 104.219C144.42 104.252 144.415 104.287 144.417 104.322L144.513 106.26C144.511 106.295 144.517 106.33 144.53 106.363C144.543 106.395 144.562 106.425 144.587 106.45C144.612 106.476 144.642 106.496 144.675 106.509C144.708 106.523 144.743 106.53 144.779 106.53H145.017C145.054 106.531 145.091 106.525 145.126 106.511C145.161 106.498 145.192 106.477 145.218 106.451C145.244 106.424 145.264 106.393 145.277 106.358C145.29 106.324 145.295 106.287 145.292 106.251Z" fill="#DD821F"/>
<path opacity="0.11" d="M148.374 106.316L148.279 104.453C148.28 104.418 148.274 104.383 148.261 104.351C148.248 104.318 148.229 104.288 148.204 104.263C148.179 104.238 148.149 104.217 148.116 104.204C148.083 104.19 148.048 104.183 148.012 104.183H147.756C147.72 104.184 147.684 104.192 147.652 104.207C147.619 104.222 147.59 104.243 147.566 104.269C147.542 104.295 147.524 104.326 147.512 104.359C147.501 104.392 147.496 104.428 147.499 104.463L147.594 106.326C147.593 106.361 147.599 106.395 147.611 106.428C147.624 106.461 147.644 106.491 147.668 106.516C147.693 106.541 147.723 106.561 147.756 106.575C147.789 106.589 147.824 106.596 147.86 106.596H148.117C148.153 106.594 148.188 106.586 148.22 106.571C148.253 106.557 148.282 106.536 148.306 106.509C148.33 106.483 148.348 106.453 148.36 106.42C148.372 106.386 148.376 106.351 148.374 106.316Z" fill="#DD821F"/>
<path opacity="0.11" d="M151.464 106.977L151.369 105.217C151.37 105.182 151.364 105.147 151.352 105.114C151.339 105.082 151.319 105.052 151.295 105.026C151.27 105.001 151.24 104.981 151.207 104.967C151.174 104.954 151.139 104.947 151.103 104.947H150.846C150.81 104.948 150.775 104.956 150.743 104.971C150.71 104.986 150.681 105.007 150.657 105.033C150.633 105.059 150.615 105.09 150.603 105.123C150.591 105.156 150.587 105.191 150.589 105.226L150.684 106.987C150.683 107.022 150.689 107.057 150.702 107.089C150.715 107.122 150.734 107.152 150.759 107.177C150.784 107.202 150.814 107.222 150.847 107.236C150.879 107.25 150.915 107.257 150.951 107.257H151.207C151.243 107.256 151.278 107.247 151.311 107.233C151.343 107.218 151.373 107.197 151.397 107.171C151.421 107.145 151.439 107.114 151.451 107.081C151.462 107.048 151.467 107.012 151.464 106.977Z" fill="#DD821F"/>
<path opacity="0.11" d="M154.584 108.458L154.489 106.595C154.49 106.56 154.484 106.525 154.471 106.493C154.458 106.46 154.439 106.43 154.414 106.405C154.389 106.38 154.359 106.36 154.326 106.346C154.293 106.332 154.258 106.325 154.222 106.325H153.965C153.93 106.326 153.894 106.335 153.862 106.349C153.829 106.364 153.8 106.385 153.776 106.411C153.752 106.437 153.734 106.468 153.722 106.501C153.711 106.534 153.706 106.57 153.709 106.605L153.804 108.468C153.803 108.503 153.808 108.538 153.821 108.57C153.834 108.603 153.853 108.633 153.878 108.658C153.903 108.683 153.933 108.703 153.966 108.717C153.999 108.731 154.034 108.738 154.07 108.738H154.327C154.363 108.737 154.398 108.728 154.43 108.714C154.463 108.699 154.492 108.678 154.516 108.652C154.54 108.625 154.558 108.595 154.57 108.562C154.582 108.528 154.586 108.493 154.584 108.458Z" fill="#DD821F"/>
</g>
</g>
<path d="M76.1553 217.563L0 170.672L31.0213 151.604L79.3031 184.551L101.214 211.294L76.1553 217.563Z" fill="#889BBA"/>
<path opacity="0.5" d="M52.6239 146.241C60.4119 143.571 66.0473 139.51 65.211 137.169C64.3747 134.829 57.3834 135.096 49.5955 137.766C41.8075 140.436 36.1721 144.497 37.0084 146.838C37.8447 149.178 44.836 148.911 52.6239 146.241Z" fill="#0F054C"/>
<path d="M45.4954 128.672L45.5905 126.268L46.1611 124.853L46.5224 126.026L45.4954 128.672Z" fill="#DD821F"/>
<path d="M71.2672 129.128L71.3623 126.762C71.3623 126.762 69.3271 128.756 69.3271 128.802C69.3271 128.849 71.2672 129.128 71.2672 129.128Z" fill="#FFD85A"/>
<path d="M58.2005 136.132C51.0776 135.965 45.4287 132.407 45.5809 126.268C45.733 120.13 51.6292 115.258 58.7426 115.426C65.856 115.593 71.5144 120.716 71.3623 126.874C71.2101 133.031 65.3235 136.3 58.2005 136.132Z" fill="#CDF0FF"/>
<path d="M71.2627 129.266C71.413 123.11 65.763 117.984 58.6431 117.817C51.5232 117.65 45.6295 122.506 45.4792 128.662C45.3289 134.818 50.9789 139.944 58.0988 140.111C65.2187 140.277 71.1124 135.422 71.2627 129.266Z" fill="#CDF0FF"/>
<path d="M49.385 120.94C48.2145 121.886 47.2625 123.064 46.592 124.397C45.9214 125.73 45.5477 127.187 45.4954 128.672C45.3433 134.829 50.9922 139.952 58.1151 140.12C61.4232 140.229 64.6608 139.168 67.2351 137.13L49.385 120.94Z" fill="#35ACE1"/>
<path d="M70.6828 129.252C70.8265 123.369 65.4307 118.47 58.6311 118.311C51.8315 118.151 46.2028 122.792 46.0592 128.675C45.9155 134.559 51.3113 139.458 58.1109 139.617C64.9105 139.776 70.5392 135.136 70.6828 129.252Z" fill="#92D7F6"/>
<path d="M68.2583 129.195C68.3736 124.474 64.0403 120.543 58.5796 120.415C53.1189 120.287 48.5987 124.011 48.4834 128.732C48.3681 133.453 52.7014 137.384 58.1621 137.512C63.6228 137.64 68.1431 133.917 68.2583 129.195Z" fill="#ABE5FF"/>
<path d="M68.2621 129.202C68.2621 129.007 68.2621 128.811 68.2621 128.625C67.8057 133.068 63.4406 136.487 58.2102 136.366C52.9797 136.244 48.7763 132.64 48.5481 128.168C48.5481 128.364 48.5481 128.55 48.5481 128.746C48.434 133.469 52.761 137.399 58.2292 137.53C63.6974 137.66 68.148 133.925 68.2621 129.202Z" fill="#CDF0FF"/>
<path d="M60.2738 129.696L58.2482 127.833C56.2987 128.271 52.6564 129.081 49.7463 129.752C50.142 130.842 50.7709 131.836 51.591 132.668C52.4111 133.5 53.4034 134.151 54.5013 134.577L60.2738 129.696Z" fill="#CDF0FF"/>
<path d="M57.0879 135.239C57.4112 135.239 57.7346 135.304 58.0389 135.313C60.2822 135.383 62.4786 134.674 64.2393 133.31L60.9299 130.311L57.0879 135.239Z" fill="#CDF0FF"/>
<path d="M56.0704 125.877L52.2664 122.412C50.9245 123.38 49.9586 124.766 49.5276 126.343L56.0704 125.877Z" fill="#CDF0FF"/>
<path d="M58.0674 121.443C63.5261 121.573 67.8626 125.504 67.7485 130.227C67.7235 131.161 67.5237 132.083 67.1589 132.947C67.8451 131.817 68.2248 130.535 68.262 129.221C68.3762 124.498 64.0492 120.567 58.581 120.437C56.6066 120.329 54.6446 120.803 52.9489 121.8C51.2533 122.796 49.9023 124.269 49.071 126.026C50.0235 124.552 51.3578 123.351 52.9381 122.546C54.5184 121.741 56.2882 121.36 58.0674 121.443Z" fill="#35ACE1"/>
<path d="M45.581 126.268C45.4961 127.083 45.5345 127.905 45.6951 128.709C45.9804 127.777 46.5986 125.104 46.5986 125.104L47.5496 122.962L48.3674 122.3L49.7463 121.313L49.9175 118.202C48.6256 119.144 47.5655 120.357 46.8151 121.753C46.0646 123.149 45.643 124.692 45.581 126.268Z" fill="#35ACE1"/>
<path d="M70.5351 125.951L70.5922 125.318C70.5922 125.276 70.6092 125.236 70.6395 125.206C70.6699 125.176 70.711 125.16 70.7539 125.16H70.8394C70.8607 125.161 70.8815 125.166 70.9006 125.175C70.9198 125.184 70.9369 125.197 70.9511 125.213C70.9652 125.228 70.976 125.246 70.983 125.266C70.99 125.286 70.9929 125.307 70.9916 125.327L70.9345 125.961C70.9345 126.003 70.9175 126.043 70.8872 126.073C70.8569 126.102 70.8157 126.119 70.7729 126.119H70.7253C70.701 126.123 70.676 126.122 70.6522 126.116C70.6285 126.109 70.6066 126.097 70.5882 126.081C70.5698 126.065 70.5555 126.045 70.5463 126.022C70.5371 126 70.5333 125.976 70.5351 125.951Z" fill="#35ACE1"/>
<path d="M69.4033 123.52L69.4699 122.384C69.4698 122.336 69.4886 122.29 69.5222 122.256C69.5558 122.221 69.6018 122.2 69.6506 122.198H69.7647C69.8134 122.202 69.8585 122.225 69.8904 122.262C69.9223 122.298 69.9386 122.345 69.9359 122.393L69.8883 123.53C69.8884 123.578 69.8697 123.624 69.836 123.658C69.8024 123.693 69.7564 123.714 69.7076 123.716H69.5935C69.5677 123.716 69.5422 123.711 69.5185 123.701C69.4947 123.691 69.4733 123.677 69.4555 123.658C69.4377 123.64 69.4239 123.618 69.415 123.595C69.406 123.571 69.402 123.546 69.4033 123.52Z" fill="#35ACE1"/>
<path d="M67.8342 121.396L67.9008 120.288C67.9008 120.234 67.9228 120.181 67.9621 120.143C68.0013 120.105 68.0545 120.083 68.11 120.083H68.3097C68.3372 120.084 68.3642 120.091 68.3891 120.102C68.414 120.114 68.4364 120.13 68.4549 120.15C68.4735 120.169 68.4878 120.193 68.4972 120.218C68.5065 120.243 68.5107 120.27 68.5094 120.297L68.4428 121.406C68.4428 121.46 68.4208 121.512 68.3816 121.551C68.3423 121.589 68.2891 121.611 68.2336 121.611H67.9864C67.9395 121.598 67.8987 121.569 67.871 121.53C67.8432 121.491 67.8302 121.444 67.8342 121.396Z" fill="#35ACE1"/>
<path d="M65.4756 119.692L65.5517 118.351C65.5517 118.297 65.5737 118.244 65.6129 118.206C65.6522 118.168 65.7054 118.146 65.7609 118.146H65.9606C65.9881 118.147 66.015 118.154 66.04 118.165C66.0649 118.177 66.0873 118.193 66.1058 118.213C66.1244 118.232 66.1387 118.256 66.1481 118.281C66.1574 118.306 66.1616 118.333 66.1603 118.36L66.0842 119.692C66.0842 119.747 66.0622 119.799 66.0229 119.837C65.9837 119.876 65.9305 119.897 65.875 119.897H65.6753C65.6215 119.895 65.5707 119.872 65.5335 119.834C65.4963 119.796 65.4755 119.745 65.4756 119.692Z" fill="#35ACE1"/>
<path d="M63.1172 118.565L63.1933 117.019C63.1933 116.965 63.2153 116.912 63.2545 116.874C63.2938 116.836 63.347 116.814 63.4025 116.814H63.6022C63.6297 116.815 63.6566 116.822 63.6815 116.833C63.7065 116.844 63.7288 116.861 63.7474 116.881C63.7659 116.9 63.7803 116.924 63.7897 116.949C63.799 116.974 63.8032 117.001 63.8019 117.028L63.7258 118.574C63.7258 118.629 63.7038 118.681 63.6645 118.719C63.6253 118.758 63.5721 118.779 63.5166 118.779H63.3169C63.2894 118.778 63.2624 118.772 63.2375 118.76C63.2126 118.749 63.1902 118.733 63.1717 118.713C63.1531 118.693 63.1387 118.67 63.1294 118.644C63.12 118.619 63.1159 118.592 63.1172 118.565Z" fill="#35ACE1"/>
<path d="M60.7399 117.829L60.816 116.348C60.816 116.294 60.838 116.242 60.8773 116.203C60.9165 116.165 60.9697 116.143 61.0252 116.143H61.2249C61.2524 116.144 61.2794 116.151 61.3043 116.162C61.3292 116.174 61.3516 116.19 61.3701 116.21C61.3887 116.23 61.403 116.253 61.4124 116.278C61.4217 116.303 61.4259 116.33 61.4246 116.357L61.3295 117.885C61.3295 117.939 61.3075 117.991 61.2682 118.03C61.229 118.068 61.1758 118.09 61.1203 118.09H60.9206C60.89 118.087 60.8605 118.077 60.8341 118.062C60.8077 118.047 60.785 118.026 60.7678 118.001C60.7505 117.976 60.7391 117.948 60.7343 117.918C60.7295 117.888 60.7314 117.858 60.7399 117.829Z" fill="#35ACE1"/>
<path d="M58.3528 117.643L58.4288 116.134C58.4288 116.079 58.4509 116.027 58.4901 115.989C58.5294 115.95 58.5826 115.929 58.6381 115.929H58.8378C58.8653 115.93 58.8922 115.936 58.9172 115.948C58.9421 115.959 58.9644 115.975 58.983 115.995C59.0015 116.015 59.0159 116.038 59.0253 116.064C59.0346 116.089 59.0388 116.116 59.0375 116.143L58.9614 117.652C58.9614 117.706 58.9394 117.758 58.9001 117.797C58.8609 117.835 58.8077 117.857 58.7522 117.857H58.5525C58.525 117.856 58.498 117.849 58.4731 117.838C58.4482 117.826 58.4258 117.81 58.4073 117.79C58.3887 117.77 58.3743 117.747 58.365 117.722C58.3556 117.696 58.3515 117.67 58.3528 117.643Z" fill="#35ACE1"/>
<path d="M55.9562 117.689L56.0323 116.273C56.0323 116.219 56.0543 116.167 56.0935 116.128C56.1328 116.09 56.186 116.068 56.2415 116.068H56.4412C56.4687 116.07 56.4956 116.076 56.5206 116.087C56.5455 116.099 56.5679 116.115 56.5864 116.135C56.605 116.155 56.6193 116.178 56.6287 116.203C56.638 116.229 56.6422 116.256 56.6409 116.283L56.5743 117.708C56.5743 117.762 56.5523 117.814 56.513 117.853C56.4738 117.891 56.4206 117.913 56.3651 117.913H56.1654C56.1363 117.913 56.1074 117.907 56.0807 117.896C56.054 117.884 56.03 117.867 56.0103 117.846C55.9906 117.825 55.9756 117.8 55.9663 117.773C55.957 117.746 55.9535 117.718 55.9562 117.689Z" fill="#35ACE1"/>
<path d="M53.5502 118.202L53.6263 116.832C53.6263 116.778 53.6483 116.726 53.6876 116.687C53.7268 116.649 53.78 116.627 53.8355 116.627H54.0352C54.0627 116.629 54.0897 116.635 54.1146 116.647C54.1395 116.658 54.1619 116.674 54.1804 116.694C54.199 116.714 54.2133 116.737 54.2227 116.763C54.232 116.788 54.2362 116.815 54.2349 116.842L54.1588 118.211C54.1588 118.265 54.1368 118.317 54.0976 118.356C54.0583 118.394 54.0051 118.416 53.9496 118.416H53.7214C53.671 118.407 53.6258 118.38 53.5943 118.341C53.5627 118.301 53.547 118.252 53.5502 118.202Z" fill="#35ACE1"/>
<path d="M51.1347 119.357L51.2108 117.876C51.2108 117.821 51.2329 117.769 51.2721 117.731C51.3113 117.692 51.3646 117.671 51.42 117.671H51.6197C51.6472 117.672 51.6742 117.679 51.6991 117.69C51.724 117.701 51.7464 117.718 51.765 117.737C51.7835 117.757 51.7979 117.781 51.8072 117.806C51.8166 117.831 51.8207 117.858 51.8195 117.885L51.7434 119.366C51.7434 119.421 51.7213 119.473 51.6821 119.511C51.6429 119.55 51.5896 119.571 51.5342 119.571H51.3345C51.307 119.57 51.28 119.563 51.2551 119.552C51.2302 119.541 51.2078 119.524 51.1892 119.505C51.1707 119.485 51.1563 119.461 51.147 119.436C51.1376 119.411 51.1335 119.384 51.1347 119.357Z" fill="#35ACE1"/>
<path d="M140.395 188.622V193.614C140.397 193.653 140.387 193.691 140.366 193.724C140.346 193.758 140.316 193.784 140.281 193.801L84.8378 224.949C84.7287 225.004 84.6082 225.032 84.4859 225.032C84.3637 225.032 84.2431 225.004 84.1341 224.949L75.0996 219.808C75.0584 219.789 75.0217 219.762 74.9921 219.728C74.9626 219.695 74.9409 219.655 74.9285 219.612V214.573L79.3125 217.023L130.438 188.286C130.547 188.232 130.667 188.204 130.79 188.204C130.912 188.204 131.032 188.232 131.142 188.286L134.242 190.047L140.395 188.622Z" fill="#396CAA"/>
<path d="M130.485 183.21L75.0713 214.35C74.8906 214.452 74.9096 214.629 75.1188 214.75L84.1532 219.892C84.2623 219.946 84.3828 219.974 84.5051 219.974C84.6273 219.974 84.7479 219.946 84.857 219.892L140.262 188.771C140.442 188.668 140.423 188.492 140.214 188.37L131.18 183.229C131.073 183.173 130.955 183.143 130.835 183.139C130.714 183.136 130.595 183.16 130.485 183.21Z" fill="#BBEAFF"/>
<path d="M128.479 190.708L84.9425 214.703C84.6074 212.964 84.1109 211.259 83.459 209.608L126.948 185.212C127.642 186.99 128.155 188.831 128.479 190.708Z" fill="#1A4E8F"/>
<path d="M132.406 186.088L80.159 215.458C80.0354 215.523 80.0544 215.653 80.159 215.728L82.4318 217.023C82.5069 217.06 82.59 217.08 82.6744 217.08C82.7587 217.08 82.8418 217.06 82.9168 217.023L135.193 187.69C135.316 187.625 135.297 187.495 135.193 187.42L132.92 186.125C132.845 186.077 132.758 186.048 132.668 186.042C132.578 186.035 132.488 186.051 132.406 186.088Z" fill="#396CAA"/>
<path d="M135.193 187.691L134.128 188.287L132.901 187.588C132.826 187.55 132.743 187.531 132.658 187.531C132.574 187.531 132.491 187.55 132.416 187.588L81.2336 216.352L80.1875 215.756C80.0448 215.672 80.0258 215.551 80.1875 215.486L132.435 186.116C132.51 186.079 132.593 186.059 132.677 186.059C132.762 186.059 132.845 186.079 132.92 186.116L135.193 187.411C135.297 187.476 135.316 187.607 135.193 187.691Z" fill="#5793CE"/>
<path opacity="0.96" d="M0.694115 135.527L44.1639 111.094C44.1639 118.723 49.5846 128.01 56.3176 131.848L116.23 165.931C124.142 170.439 130.542 181.356 130.495 190.317L87.006 214.703C87.006 205.733 80.6344 194.816 72.7412 190.317L12.8288 156.262C6.09575 152.434 0.656079 143.137 0.675099 135.508L0.694115 135.527Z" fill="#E5F7FF"/>
<path d="M130.504 190.308L87.0061 214.703C87.0061 214.312 87.0061 213.911 87.0061 213.511L130.466 189.087C130.495 189.553 130.514 189.916 130.504 190.308Z" fill="#20579B"/>
<g opacity="0.32">
<path opacity="0.32" d="M67.5679 171.985L57.7251 177.518L58.6666 178.059L68.5188 172.526L67.5679 171.985Z" fill="#453C9E"/>
<path opacity="0.32" d="M72.6175 169.154L69.0703 171.138L70.0213 171.678L73.5685 169.685L72.6175 169.154Z" fill="#453C9E"/>
<path opacity="0.32" d="M76.5261 166.946L74.1201 168.306L75.0711 168.846L77.4771 167.487L76.5261 166.946Z" fill="#453C9E"/>
<path opacity="0.32" d="M60.9205 173.271L55.5569 176.289L56.5079 176.829L61.8715 173.811L60.9205 173.271Z" fill="#453C9E"/>
<path opacity="0.32" d="M69.0037 168.734L62.4229 172.423L63.3738 172.963L69.9452 169.275L69.0037 168.734Z" fill="#453C9E"/>
<path opacity="0.32" d="M72.9124 166.536L70.5063 167.887L71.4573 168.427L73.8633 167.076L72.9124 166.536Z" fill="#453C9E"/>
<path opacity="0.32" d="M76.6401 164.44L74.2341 165.8L75.1756 166.331L77.5816 164.981L76.6401 164.44Z" fill="#453C9E"/>
<path opacity="0.32" d="M57.278 172.879L53.3979 175.059L54.3394 175.599L58.2195 173.41L57.278 172.879Z" fill="#453C9E"/>
<path opacity="0.32" d="M60.1024 171.287L58.7805 172.032L59.7315 172.572L61.0534 171.827L60.1024 171.287Z" fill="#453C9E"/>
<path opacity="0.32" d="M64.0205 169.088L61.6145 170.439L62.556 170.979L64.9715 169.629L64.0205 169.088Z" fill="#453C9E"/>
<path opacity="0.32" d="M65.5612 165.772L51.2297 173.83L52.1807 174.37L66.5027 166.313L65.5612 165.772Z" fill="#453C9E"/>
<path opacity="0.32" d="M70.6109 162.94L67.0637 164.934L68.0052 165.465L71.5524 163.481L70.6109 162.94Z" fill="#453C9E"/>
<path opacity="0.32" d="M52.9511 170.411L49.071 172.591L50.0125 173.131L53.8926 170.951L52.9511 170.411Z" fill="#453C9E"/>
<path opacity="0.32" d="M62.0615 165.297L54.4536 169.564L55.4046 170.104L63.003 165.838L62.0615 165.297Z" fill="#453C9E"/>
<path opacity="0.32" d="M65.9702 163.099L63.5642 164.45L64.5057 164.99L66.9212 163.63L65.9702 163.099Z" fill="#453C9E"/>
<path opacity="0.32" d="M54.8436 166.899L46.9028 171.361L47.8538 171.901L55.7946 167.44L54.8436 166.899Z" fill="#453C9E"/>
<path opacity="0.32" d="M62.0902 162.829L56.3462 166.052L57.2972 166.592L63.0412 163.369L62.0902 162.829Z" fill="#453C9E"/>
<path opacity="0.32" d="M67.4821 159.802L63.6021 161.981L64.5435 162.522L68.4236 160.342L67.4821 159.802Z" fill="#453C9E"/>
<path opacity="0.32" d="M47.4257 168.623L44.7439 170.132L45.6854 170.672L48.3672 169.163L47.4257 168.623Z" fill="#453C9E"/>
<path opacity="0.32" d="M52.4757 165.791L48.9285 167.784L49.8795 168.315L53.4171 166.331L52.4757 165.791Z" fill="#453C9E"/>
<path opacity="0.32" d="M59.684 161.729L53.978 164.943L54.9195 165.483L60.635 162.27L59.684 161.729Z" fill="#453C9E"/>
<path opacity="0.32" d="M50.7922 164.282L42.5757 168.902L43.5267 169.443L51.7432 164.822L50.7922 164.282Z" fill="#453C9E"/>
<path opacity="0.32" d="M59.9979 159.112L52.2949 163.444L53.2459 163.975L60.9394 159.653L59.9979 159.112Z" fill="#453C9E"/>
<path opacity="0.32" d="M63.9065 156.914L61.5005 158.265L62.4515 158.805L64.8575 157.454L63.9065 156.914Z" fill="#453C9E"/>
<path opacity="0.32" d="M67.6628 154.799L65.2568 156.159L66.1983 156.7L68.6138 155.34L67.6628 154.799Z" fill="#453C9E"/>
<path opacity="0.32" d="M45.3336 164.906L40.417 167.673L41.3585 168.213L46.2846 165.447L45.3336 164.906Z" fill="#453C9E"/>
<path opacity="0.32" d="M87.5386 160.761L94.3667 156.923L95.3082 157.464L88.4896 161.301L87.5386 160.761Z" fill="#453C9E"/>
<path opacity="0.32" d="M86.835 158.712L92.1986 155.694L93.1495 156.234L87.786 159.252L86.835 158.712Z" fill="#453C9E"/>
<path opacity="0.32" d="M86.1597 156.644L90.0397 154.464L90.9812 155.005L87.1012 157.184L86.1597 156.644Z" fill="#453C9E"/>
<path opacity="0.32" d="M82.2319 156.401L87.8713 153.234L88.8223 153.775L83.1734 156.942L82.2319 156.401Z" fill="#453C9E"/>
<path opacity="0.32" d="M81.8325 154.185L85.7126 152.005L86.654 152.536L82.774 154.725L81.8325 154.185Z" fill="#453C9E"/>
<path opacity="0.32" d="M78.6279 153.533L83.5445 150.766L84.4955 151.306L79.5694 154.073L78.6279 153.533Z" fill="#453C9E"/>
<path opacity="0.32" d="M78.7039 151.046L81.3856 149.537L82.3271 150.077L79.6453 151.586L78.7039 151.046Z" fill="#453C9E"/>
<path opacity="0.32" d="M74.0249 151.232L79.2173 148.307L80.1683 148.847L74.9664 151.772L74.0249 151.232Z" fill="#453C9E"/>
<path opacity="0.32" d="M72.1326 149.844L77.0587 147.078L78.0002 147.618L73.0836 150.384L72.1326 149.844Z" fill="#453C9E"/>
<path opacity="0.32" d="M48.9284 162.885L46.8362 164.058L47.7872 164.599L49.8794 163.425L48.9284 162.885Z" fill="#453C9E"/>
<path opacity="0.32" d="M55.1478 159.392L50.4404 162.037L51.3819 162.577L56.0988 159.932L55.1478 159.392Z" fill="#453C9E"/>
<path opacity="0.32" d="M49.2613 149.946L41.311 154.408L42.262 154.948L50.2123 150.477L49.2613 149.946Z" fill="#453C9E"/>
<path opacity="0.32" d="M54.7103 146.882L51.5815 148.642L52.523 149.183L55.6613 147.422L54.7103 146.882Z" fill="#453C9E"/>
</g>
<path opacity="0.3" d="M79.037 175.12C89.0607 171.684 96.3144 166.458 95.2387 163.447C94.163 160.437 85.1651 160.782 75.1414 164.218C65.1177 167.655 57.864 172.881 58.9397 175.891C60.0155 178.902 69.0133 178.557 79.037 175.12Z" fill="#0F054C"/>
<path d="M69.8503 152.499L69.974 149.406L70.7062 147.59L71.1722 149.09L69.8503 152.499Z" fill="#DD821F"/>
<path d="M86.2169 162.112C77.0494 161.898 69.7743 157.333 69.974 149.406C70.1737 141.479 77.7531 135.229 86.9206 135.434C96.0882 135.639 103.363 142.253 103.164 150.17C102.964 158.088 95.3845 162.326 86.2169 162.112Z" fill="#CDF0FF"/>
<path d="M103.042 153.266C103.236 145.341 95.9607 138.742 86.793 138.527C77.6253 138.312 70.0366 144.563 69.8431 152.488C69.6495 160.414 76.9246 167.012 86.0922 167.227C95.2599 167.442 102.849 161.191 103.042 153.266Z" fill="#CDF0FF"/>
<path d="M74.8621 142.551C73.3623 143.77 72.1435 145.288 71.2862 147.003C70.4288 148.717 69.9524 150.591 69.8884 152.499C69.6982 160.426 76.9638 167.021 86.1313 167.235C90.3879 167.375 94.5536 166.01 97.8666 163.388L74.8621 142.551Z" fill="#35ACE1"/>
<path d="M69.9739 149.406C69.8634 150.454 69.7687 151.466 69.9738 152.5C70.3352 151.336 71.2768 147.888 71.2768 147.888L72.5416 145.093L73.5001 143.5L75.0001 142L75.5182 138.983C73.8571 140.204 72.4967 141.774 71.5371 143.578C70.5776 145.382 70.0434 147.373 69.9739 149.406Z" fill="#35ACE1"/>
<path d="M101.754 152.235C101.909 144.662 94.9324 138.384 86.1717 138.213C77.4111 138.041 70.1839 144.041 70.0292 151.613C69.8746 159.186 76.8512 165.464 85.6118 165.635C94.3724 165.807 101.6 159.807 101.754 152.235Z" fill="#92D7F6"/>
<path d="M99.1726 153.175C99.321 147.096 93.7419 142.035 86.7112 141.87C79.6806 141.705 73.8608 146.5 73.7124 152.579C73.5639 158.658 79.1431 163.719 86.1737 163.884C93.2044 164.049 99.0242 159.254 99.1726 153.175Z" fill="#ABE5FF"/>
<path d="M99.1693 153.226C99.1693 152.974 99.1693 152.723 99.1693 152.48C98.5797 158.2 92.9594 162.596 86.2263 162.438C79.4933 162.28 74.0822 157.622 73.7779 151.884C73.7779 152.136 73.7779 152.378 73.7303 152.629C73.5782 158.712 79.1605 163.807 86.1883 163.938C93.2161 164.068 99.0172 159.271 99.1693 153.226Z" fill="#CDF0FF"/>
<path d="M88.9081 153.822L86.2928 151.456C83.7822 152.014 79.0938 153.058 75.3469 153.924C75.8621 155.329 76.6787 156.61 77.7416 157.68C78.8046 158.75 80.0894 159.585 81.5093 160.128L88.9081 153.822Z" fill="#CDF0FF"/>
<path d="M84.7712 160.957C85.1897 161.003 85.6081 161.041 86.0361 161.05C88.9225 161.145 91.7497 160.234 94.0149 158.479L89.7544 154.613L84.7712 160.957Z" fill="#CDF0FF"/>
<path d="M83.4685 148.903L78.5519 144.441C76.8971 145.857 75.4231 147.413 75.0237 149.499L83.4685 148.903Z" fill="#CDF0FF"/>
<path d="M86.0552 143.203C93.0831 143.37 98.6654 148.428 98.5132 154.511C98.4838 155.714 98.2291 156.901 97.7619 158.013C98.6489 156.551 99.1368 154.889 99.1789 153.188C99.3311 147.106 93.7488 142.01 86.7209 141.88C81.1196 141.75 76.26 144.768 74.4817 149.08C75.7095 147.187 77.4271 145.646 79.4599 144.614C81.4926 143.582 83.7681 143.095 86.0552 143.203Z" fill="#2470B6"/>
<path d="M102.089 148.996L102.155 148.177C102.155 148.122 102.177 148.07 102.217 148.032C102.256 147.993 102.309 147.972 102.365 147.972H102.431C102.459 147.973 102.486 147.979 102.511 147.991C102.536 148.002 102.558 148.018 102.576 148.038C102.595 148.058 102.609 148.081 102.619 148.107C102.628 148.132 102.632 148.159 102.631 148.186L102.564 149.006C102.564 149.06 102.542 149.112 102.503 149.151C102.464 149.189 102.411 149.211 102.355 149.211H102.289C102.261 149.209 102.234 149.203 102.209 149.191C102.184 149.18 102.162 149.164 102.143 149.144C102.125 149.124 102.11 149.101 102.101 149.075C102.092 149.05 102.088 149.023 102.089 148.996Z" fill="#35ACE1"/>
<path d="M100.634 145.867L100.719 144.395C100.719 144.333 100.744 144.274 100.789 144.23C100.834 144.187 100.894 144.162 100.957 144.162H101.1C101.132 144.163 101.163 144.171 101.192 144.184C101.221 144.198 101.247 144.217 101.269 144.24C101.29 144.264 101.306 144.291 101.316 144.321C101.327 144.351 101.331 144.382 101.328 144.414L101.271 145.876C101.271 145.938 101.246 145.997 101.201 146.041C101.157 146.084 101.096 146.109 101.033 146.109H100.891C100.857 146.112 100.823 146.107 100.791 146.096C100.76 146.085 100.731 146.067 100.706 146.045C100.682 146.022 100.663 145.994 100.651 145.963C100.638 145.933 100.632 145.9 100.634 145.867Z" fill="#35ACE1"/>
<path d="M98.6081 143.138L98.6937 141.713C98.6924 141.677 98.6984 141.643 98.7112 141.61C98.724 141.577 98.7434 141.547 98.7683 141.522C98.7931 141.497 98.8229 141.477 98.8559 141.463C98.8888 141.449 98.9242 141.442 98.96 141.442H99.2168C99.2526 141.444 99.2878 141.452 99.3203 141.467C99.3528 141.481 99.3819 141.502 99.4059 141.529C99.4298 141.555 99.4482 141.585 99.4598 141.618C99.4714 141.652 99.4761 141.687 99.4735 141.722L99.3689 143.156C99.3702 143.191 99.3643 143.226 99.3514 143.259C99.3386 143.292 99.3192 143.322 99.2944 143.347C99.2695 143.372 99.2397 143.392 99.2068 143.406C99.1738 143.419 99.1384 143.426 99.1026 143.426H98.8459C98.8108 143.423 98.7768 143.413 98.7459 143.396C98.7149 143.38 98.6876 143.358 98.6654 143.331C98.6433 143.304 98.6269 143.273 98.6171 143.24C98.6072 143.207 98.6042 143.172 98.6081 143.138Z" fill="#35ACE1"/>
<path d="M95.5651 140.93L95.6602 139.207C95.659 139.172 95.6649 139.137 95.6777 139.104C95.6905 139.071 95.7099 139.041 95.7348 139.016C95.7596 138.991 95.7894 138.971 95.8224 138.957C95.8553 138.944 95.8907 138.937 95.9265 138.937H96.1833C96.2191 138.938 96.2543 138.946 96.2868 138.961C96.3193 138.976 96.3484 138.997 96.3724 139.023C96.3964 139.049 96.4147 139.079 96.4263 139.113C96.438 139.146 96.4426 139.181 96.4401 139.216L96.345 140.939C96.3462 140.974 96.3403 141.009 96.3275 141.042C96.3147 141.075 96.2953 141.104 96.2704 141.13C96.2455 141.155 96.2158 141.175 96.1828 141.189C96.1499 141.202 96.1145 141.209 96.0787 141.209H95.8219C95.7861 141.208 95.7509 141.2 95.7184 141.185C95.6859 141.17 95.6568 141.149 95.6328 141.123C95.6088 141.097 95.5905 141.067 95.5789 141.033C95.5672 141 95.5626 140.965 95.5651 140.93Z" fill="#35ACE1"/>
<path d="M92.541 139.486L92.6361 137.502C92.6348 137.467 92.6407 137.432 92.6535 137.399C92.6663 137.367 92.6858 137.337 92.7106 137.312C92.7355 137.286 92.7653 137.266 92.7982 137.253C92.8311 137.239 92.8666 137.232 92.9023 137.232H93.1591C93.1949 137.233 93.2301 137.241 93.2626 137.256C93.2951 137.271 93.3242 137.292 93.3482 137.318C93.3722 137.344 93.3905 137.375 93.4022 137.408C93.4138 137.441 93.4185 137.476 93.4159 137.511L93.3208 139.495C93.3221 139.53 93.3161 139.565 93.3033 139.598C93.2905 139.631 93.2711 139.661 93.2462 139.686C93.2214 139.711 93.1916 139.731 93.1587 139.745C93.1257 139.759 93.0903 139.766 93.0545 139.766H92.7977C92.7619 139.764 92.7267 139.756 92.6942 139.741C92.6617 139.727 92.6326 139.705 92.6086 139.679C92.5846 139.653 92.5663 139.623 92.5547 139.59C92.543 139.556 92.5384 139.521 92.541 139.486Z" fill="#35ACE1"/>
<path d="M89.4787 138.601L89.5738 136.692C89.581 136.624 89.6149 136.562 89.6682 136.518C89.7214 136.475 89.7899 136.454 89.8591 136.459H90.1159C90.1517 136.46 90.1869 136.468 90.2194 136.483C90.2519 136.498 90.281 136.519 90.305 136.545C90.3289 136.571 90.3473 136.602 90.3589 136.635C90.3705 136.668 90.3752 136.703 90.3726 136.738L90.2775 138.648C90.2788 138.683 90.2729 138.718 90.2601 138.75C90.2472 138.783 90.2278 138.813 90.203 138.838C90.1781 138.863 90.1483 138.883 90.1154 138.897C90.0825 138.911 90.047 138.918 90.0113 138.918H89.7545C89.7134 138.92 89.6722 138.913 89.6343 138.897C89.5965 138.882 89.5628 138.857 89.5361 138.827C89.5094 138.796 89.4903 138.76 89.4803 138.721C89.4704 138.681 89.4698 138.641 89.4787 138.601Z" fill="#35ACE1"/>
<path d="M86.407 138.322L86.5021 136.384C86.5009 136.349 86.5068 136.314 86.5196 136.282C86.5324 136.249 86.5518 136.219 86.5767 136.194C86.6015 136.169 86.6313 136.149 86.6643 136.135C86.6972 136.121 86.7326 136.114 86.7684 136.114H87.0062C87.042 136.115 87.0772 136.124 87.1097 136.138C87.1422 136.153 87.1713 136.174 87.1953 136.2C87.2193 136.227 87.2376 136.257 87.2492 136.29C87.2609 136.324 87.2655 136.359 87.2629 136.394L87.1678 138.331C87.1691 138.366 87.1632 138.401 87.1504 138.434C87.1376 138.467 87.1181 138.496 87.0933 138.522C87.0684 138.547 87.0386 138.567 87.0057 138.581C86.9728 138.594 86.9373 138.601 86.9016 138.601H86.6448C86.5758 138.594 86.5124 138.561 86.468 138.509C86.4236 138.457 86.4017 138.39 86.407 138.322Z" fill="#35ACE1"/>
<path d="M83.3259 138.322L83.421 136.459C83.4197 136.424 83.4256 136.389 83.4384 136.356C83.4513 136.323 83.4707 136.293 83.4955 136.268C83.5204 136.243 83.5502 136.223 83.5831 136.209C83.6161 136.195 83.6515 136.188 83.6873 136.188H83.944C83.9798 136.19 84.0151 136.198 84.0476 136.213C84.08 136.227 84.1092 136.249 84.1331 136.275C84.1571 136.301 84.1755 136.331 84.1871 136.365C84.1987 136.398 84.2034 136.433 84.2008 136.468L84.1057 138.331C84.107 138.366 84.101 138.401 84.0882 138.434C84.0754 138.466 84.056 138.496 84.0312 138.521C84.0063 138.547 83.9765 138.567 83.9436 138.58C83.9106 138.594 83.8752 138.601 83.8394 138.601H83.5826C83.5468 138.6 83.5116 138.592 83.4791 138.577C83.4466 138.562 83.4175 138.541 83.3936 138.515C83.3696 138.489 83.3512 138.458 83.3396 138.425C83.328 138.392 83.3233 138.357 83.3259 138.322Z" fill="#35ACE1"/>
<path d="M80.2351 139.03L80.3302 137.269C80.3289 137.234 80.3348 137.199 80.3476 137.166C80.3604 137.134 80.3799 137.104 80.4047 137.079C80.4296 137.053 80.4593 137.033 80.4923 137.02C80.5252 137.006 80.5606 136.999 80.5964 136.999H80.8532C80.889 137 80.9242 137.008 80.9567 137.023C80.9892 137.038 81.0183 137.059 81.0423 137.085C81.0663 137.111 81.0846 137.142 81.0963 137.175C81.1079 137.208 81.1126 137.243 81.11 137.278L81.0149 139.039C81.0161 139.074 81.0102 139.109 80.9974 139.142C80.9846 139.174 80.9652 139.204 80.9403 139.229C80.9155 139.255 80.8857 139.275 80.8527 139.288C80.8198 139.302 80.7844 139.309 80.7486 139.309H80.4918C80.456 139.308 80.4208 139.3 80.3883 139.285C80.3558 139.27 80.3267 139.249 80.3027 139.223C80.2788 139.197 80.2604 139.166 80.2488 139.133C80.2372 139.1 80.2325 139.065 80.2351 139.03Z" fill="#35ACE1"/>
<path d="M77.1157 140.511L77.2108 138.648C77.1998 138.607 77.1991 138.564 77.2087 138.523C77.2183 138.482 77.238 138.443 77.2661 138.411C77.2941 138.379 77.3297 138.354 77.3698 138.339C77.4099 138.323 77.4532 138.317 77.4961 138.322H77.7529C77.7887 138.323 77.8239 138.331 77.8564 138.346C77.8889 138.361 77.918 138.382 77.942 138.408C77.9659 138.434 77.9843 138.465 77.9959 138.498C78.0076 138.531 78.0122 138.566 78.0096 138.601L77.9145 140.464C77.9158 140.499 77.9099 140.534 77.8971 140.567C77.8843 140.6 77.8649 140.629 77.84 140.655C77.8151 140.68 77.7854 140.7 77.7524 140.714C77.7195 140.727 77.6841 140.734 77.6483 140.734H77.3915C77.3254 140.737 77.2605 140.716 77.2095 140.675C77.1585 140.633 77.1251 140.575 77.1157 140.511Z" fill="#35ACE1"/>
<path d="M21.6517 213.659C30.4509 210.643 36.8175 206.052 35.8719 203.406C34.9263 200.759 27.0266 201.06 18.2273 204.076C9.42811 207.093 3.06148 211.683 4.00708 214.33C4.95269 216.976 12.8524 216.676 21.6517 213.659Z" fill="#889BBA"/>
<path d="M13.5801 193.792L13.6942 191.072L14.3314 189.479L14.7498 190.792L13.5801 193.792Z" fill="#DD821F"/>
<path d="M42.7185 194.313L42.8231 191.64C42.8231 191.64 40.5217 193.894 40.5217 193.95C40.5217 194.006 42.7185 194.313 42.7185 194.313Z" fill="#FFD85A"/>
<path d="M27.9496 202.222C19.9042 202.035 13.5136 198.03 13.6848 191.044C13.8559 184.058 20.5129 178.599 28.5583 178.785C36.6036 178.972 42.9943 184.766 42.8231 191.724C42.6519 198.682 35.995 202.417 27.9496 202.222Z" fill="#CDF0FF"/>
<path d="M42.723 194.466C42.8929 187.507 36.5054 181.714 28.4562 181.525C20.4069 181.336 13.7439 186.824 13.574 193.783C13.4041 200.741 19.7916 206.535 27.8409 206.724C35.8902 206.912 42.5531 201.424 42.723 194.466Z" fill="#CDF0FF"/>
<path d="M17.9738 185.054C16.65 186.122 15.5728 187.453 14.8137 188.959C14.0546 190.466 13.631 192.113 13.5707 193.791C13.3996 200.75 19.7902 206.544 27.8356 206.73C31.575 206.853 35.2346 205.652 38.1443 203.349L17.9738 185.054Z" fill="#35ACE1"/>
<path d="M42.0668 194.45C42.2292 187.8 36.1293 182.264 28.4423 182.084C20.7553 181.904 14.3921 187.148 14.2298 193.798C14.0674 200.448 20.1673 205.985 27.8543 206.165C35.5413 206.345 41.9045 201.1 42.0668 194.45Z" fill="#92D7F6"/>
<path d="M39.3194 194.386C39.4497 189.048 34.554 184.603 28.3844 184.458C22.2149 184.314 17.1078 188.524 16.9775 193.863C16.8471 199.201 21.7429 203.646 27.9124 203.79C34.0819 203.935 39.189 199.725 39.3194 194.386Z" fill="#ABE5FF"/>
<path d="M39.3234 194.397C39.3234 194.173 39.3234 193.959 39.3234 193.735C38.8098 198.756 33.8742 202.622 27.9115 202.482C21.9488 202.342 17.2509 198.253 16.9846 193.214C16.9846 193.428 16.9846 193.652 16.9846 193.866C16.8515 199.203 21.7395 203.646 27.921 203.786C34.1024 203.926 39.1902 199.734 39.3234 194.397Z" fill="#CDF0FF"/>
<path d="M30.289 194.947L28.0447 192.87C25.8384 193.363 21.7206 194.276 18.4397 195.031C18.8917 196.265 19.6086 197.39 20.542 198.33C21.4754 199.27 22.6037 200.003 23.8508 200.48L30.289 194.947Z" fill="#CDF0FF"/>
<path d="M26.6848 201.215C27.0462 201.215 27.4171 201.29 27.7975 201.299C30.3336 201.381 32.8172 200.579 34.8063 199.036L31.0689 195.645L26.6848 201.215Z" fill="#CDF0FF"/>
<path d="M25.5437 190.634L21.2262 186.759C19.7073 187.852 18.6139 189.419 18.126 191.202L25.5437 190.634Z" fill="#CDF0FF"/>
<path d="M27.7974 185.622C33.9694 185.771 38.867 190.215 38.7338 195.543C38.7059 196.599 38.4803 197.64 38.0681 198.617C38.8462 197.335 39.2752 195.878 39.3139 194.388C39.4471 189.05 34.559 184.607 28.3775 184.467C23.4609 184.355 19.21 187.01 17.6313 190.792C18.7104 189.129 20.2189 187.775 22.0042 186.867C23.7895 185.959 25.7881 185.53 27.7974 185.622Z" fill="#35ACE1"/>
<path d="M13.6849 191.072C13.5834 192.004 13.6251 192.946 13.8085 193.866C14.1318 192.842 14.8261 189.796 14.8261 189.796L15.9387 187.365L16.8897 186.619L18.4493 185.502L18.5349 181.962C17.0853 183.031 15.8976 184.404 15.0585 185.98C14.2194 187.556 13.7501 189.296 13.6849 191.072Z" fill="#35ACE1"/>
<path d="M41.8816 190.718L41.9387 190C41.9374 189.976 41.9411 189.952 41.9496 189.93C41.9581 189.907 41.9712 189.886 41.9881 189.869C42.005 189.852 42.0254 189.838 42.0479 189.828C42.0705 189.819 42.0948 189.814 42.1194 189.814H42.1764C42.2002 189.815 42.2234 189.821 42.2449 189.831C42.2663 189.841 42.2856 189.855 42.3015 189.872C42.3174 189.89 42.3296 189.91 42.3375 189.932C42.3455 189.954 42.3489 189.977 42.3476 190L42.2905 190.718C42.2918 190.742 42.2881 190.766 42.2796 190.788C42.2711 190.811 42.258 190.831 42.2411 190.849C42.2242 190.866 42.2038 190.88 42.1813 190.889C42.1587 190.899 42.1344 190.904 42.1098 190.904H42.0528C42.0291 190.903 42.0058 190.897 41.9843 190.887C41.9629 190.877 41.9436 190.863 41.9277 190.845C41.9118 190.828 41.8996 190.808 41.8917 190.786C41.8837 190.764 41.8803 190.741 41.8816 190.718Z" fill="#35ACE1"/>
<path d="M40.6074 187.97L40.6835 186.684C40.6835 186.63 40.7055 186.578 40.7448 186.54C40.784 186.501 40.8372 186.479 40.8927 186.479H41.0163C41.0438 186.481 41.0708 186.487 41.0957 186.499C41.1206 186.51 41.143 186.526 41.1615 186.546C41.1801 186.566 41.1945 186.589 41.2038 186.615C41.2132 186.64 41.2173 186.667 41.216 186.694L41.14 187.979C41.14 188.034 41.1179 188.086 41.0787 188.124C41.0394 188.163 40.9862 188.184 40.9307 188.184H40.8071C40.7796 188.183 40.7527 188.176 40.7277 188.165C40.7028 188.154 40.6804 188.137 40.6619 188.118C40.6433 188.098 40.629 188.074 40.6196 188.049C40.6103 188.024 40.6061 187.997 40.6074 187.97Z" fill="#35ACE1"/>
<path d="M38.8291 185.566L38.9051 184.318C38.9051 184.257 38.9302 184.197 38.9748 184.154C39.0194 184.11 39.0798 184.085 39.1429 184.085H39.3616C39.3928 184.087 39.4235 184.094 39.4519 184.107C39.4803 184.12 39.5058 184.138 39.527 184.16C39.5482 184.183 39.5647 184.209 39.5754 184.238C39.5862 184.267 39.5911 184.297 39.5899 184.328L39.5138 185.576C39.5138 185.638 39.4887 185.697 39.4441 185.74C39.3996 185.784 39.3391 185.809 39.276 185.809H39.0573C39.0261 185.807 38.9954 185.8 38.967 185.787C38.9386 185.775 38.9131 185.756 38.8919 185.734C38.8707 185.711 38.8542 185.685 38.8435 185.656C38.8327 185.628 38.8278 185.597 38.8291 185.566Z" fill="#35ACE1"/>
<path d="M36.1757 183.638L36.2518 182.12C36.2518 182.058 36.2769 181.999 36.3214 181.955C36.366 181.912 36.4265 181.887 36.4896 181.887H36.7083C36.7395 181.888 36.7702 181.896 36.7986 181.908C36.827 181.921 36.8525 181.939 36.8737 181.962C36.8949 181.984 36.9113 182.011 36.9221 182.04C36.9329 182.068 36.9378 182.099 36.9365 182.129L36.8604 183.648C36.8604 183.71 36.8354 183.769 36.7908 183.812C36.7462 183.856 36.6857 183.881 36.6227 183.881H36.404C36.3727 183.879 36.3421 183.872 36.3137 183.859C36.2853 183.847 36.2598 183.828 36.2386 183.806C36.2174 183.783 36.2009 183.757 36.1901 183.728C36.1794 183.7 36.1745 183.669 36.1757 183.638Z" fill="#35ACE1"/>
<path d="M33.5034 182.362L33.589 180.621C33.589 180.559 33.614 180.5 33.6586 180.456C33.7032 180.412 33.7637 180.388 33.8267 180.388H34.0454C34.0767 180.389 34.1073 180.396 34.1357 180.409C34.1641 180.422 34.1896 180.44 34.2108 180.462C34.232 180.485 34.2485 180.511 34.2593 180.54C34.2701 180.569 34.2749 180.599 34.2737 180.63L34.1881 182.372C34.1881 182.434 34.163 182.493 34.1185 182.536C34.0739 182.58 34.0134 182.605 33.9503 182.605H33.7506C33.7178 182.606 33.6851 182.601 33.6544 182.589C33.6238 182.577 33.596 182.559 33.5728 182.537C33.5496 182.514 33.5314 182.487 33.5195 182.457C33.5075 182.427 33.502 182.395 33.5034 182.362Z" fill="#35ACE1"/>
<path d="M30.8122 181.589L30.8978 179.913C30.8978 179.851 30.9228 179.792 30.9674 179.748C31.012 179.704 31.0725 179.68 31.1355 179.68H31.3543C31.3855 179.681 31.4162 179.688 31.4446 179.701C31.4729 179.714 31.4985 179.732 31.5197 179.754C31.5409 179.777 31.5573 179.803 31.5681 179.832C31.5789 179.861 31.5838 179.891 31.5825 179.922L31.4969 181.599C31.4969 181.66 31.4719 181.72 31.4273 181.763C31.3827 181.807 31.3222 181.831 31.2592 181.831H31.0404C31.0092 181.83 30.9785 181.823 30.9502 181.81C30.9218 181.797 30.8963 181.779 30.8751 181.757C30.8539 181.734 30.8374 181.708 30.8266 181.679C30.8158 181.65 30.8109 181.62 30.8122 181.589Z" fill="#35ACE1"/>
<path d="M28.1208 181.328L28.2064 179.623C28.2064 179.562 28.2314 179.503 28.276 179.459C28.3206 179.415 28.3811 179.391 28.4441 179.391H28.6629C28.6941 179.392 28.7248 179.399 28.7532 179.412C28.7815 179.425 28.807 179.443 28.8282 179.465C28.8494 179.488 28.8659 179.514 28.8767 179.543C28.8875 179.572 28.8924 179.602 28.8911 179.633L28.8055 181.337C28.8055 181.399 28.7805 181.458 28.7359 181.502C28.6913 181.546 28.6308 181.57 28.5678 181.57H28.349C28.3178 181.569 28.2871 181.562 28.2588 181.549C28.2304 181.536 28.2048 181.518 28.1837 181.496C28.1625 181.473 28.146 181.447 28.1352 181.418C28.1244 181.389 28.1195 181.359 28.1208 181.328Z" fill="#35ACE1"/>
<path d="M25.4105 181.384L25.4961 179.791C25.4961 179.73 25.5211 179.67 25.5657 179.627C25.6103 179.583 25.6708 179.559 25.7338 179.559H25.9526C25.9838 179.56 26.0145 179.567 26.0428 179.58C26.0712 179.593 26.0967 179.611 26.1179 179.633C26.1391 179.656 26.1556 179.682 26.1664 179.711C26.1772 179.74 26.1821 179.77 26.1808 179.801L26.1428 181.394C26.1428 181.455 26.1177 181.515 26.0731 181.558C26.0285 181.602 25.9681 181.627 25.905 181.627H25.6863C25.6512 181.632 25.6153 181.63 25.5812 181.62C25.5471 181.61 25.5156 181.593 25.4892 181.57C25.4627 181.547 25.4419 181.518 25.4283 181.486C25.4147 181.454 25.4086 181.419 25.4105 181.384Z" fill="#35ACE1"/>
<path d="M22.6906 181.962L22.7762 180.415C22.7762 180.354 22.8013 180.294 22.8459 180.251C22.8904 180.207 22.9509 180.183 23.014 180.183H23.2327C23.2639 180.184 23.2946 180.191 23.323 180.204C23.3514 180.217 23.3769 180.235 23.3981 180.257C23.4193 180.28 23.4357 180.306 23.4465 180.335C23.4573 180.364 23.4622 180.394 23.4609 180.425L23.3753 181.971C23.3753 182.033 23.3503 182.092 23.3057 182.136C23.2611 182.179 23.2006 182.204 23.1376 182.204H22.9189C22.8876 182.203 22.857 182.196 22.8286 182.183C22.8002 182.17 22.7747 182.152 22.7535 182.129C22.7323 182.107 22.7158 182.08 22.705 182.052C22.6942 182.023 22.6894 181.992 22.6906 181.962Z" fill="#35ACE1"/>
<path d="M19.9614 183.266L20.047 181.589C20.047 181.528 20.072 181.468 20.1166 181.425C20.1612 181.381 20.2217 181.356 20.2847 181.356H20.5035C20.5347 181.358 20.5654 181.365 20.5938 181.378C20.6221 181.391 20.6477 181.409 20.6689 181.431C20.6901 181.454 20.7065 181.48 20.7173 181.509C20.7281 181.537 20.733 181.568 20.7317 181.599L20.6461 183.275C20.6461 183.337 20.6211 183.396 20.5765 183.44C20.5319 183.484 20.4714 183.508 20.4084 183.508H20.1801C20.1188 183.503 20.0617 183.475 20.0209 183.43C19.9801 183.385 19.9587 183.326 19.9614 183.266Z" fill="#35ACE1"/>
<g style="mix-blend-mode:lighten">
<g style="mix-blend-mode:lighten">
<path d="M127.223 71.3387L120.452 67.5103V66.0479L127.223 69.8763V71.3387Z" fill="#6ACBF7"/>
</g>
<g style="mix-blend-mode:lighten">
<path d="M130.695 73.3039L128.26 71.9253V70.4629L130.695 71.8415V73.3039Z" fill="#6ACBF7"/>
</g>
<g style="mix-blend-mode:lighten">
<path d="M133.386 74.8226L131.731 73.8911V72.4287L133.386 73.3695V74.8226Z" fill="#6ACBF7"/>
</g>
<g style="mix-blend-mode:lighten">
<path d="M124.142 72.922L120.452 70.8355V69.373L124.142 71.4689V72.922Z" fill="#6ACBF7"/>
</g>
<g style="mix-blend-mode:lighten">
<path d="M129.696 76.0611L125.179 73.5088V72.0464L129.696 74.608V76.0611Z" fill="#6ACBF7"/>
</g>
<g style="mix-blend-mode:lighten">
<path d="M132.387 77.5887L130.733 76.6479V75.1948L132.387 76.1263V77.5887Z" fill="#6ACBF7"/>
</g>
<g style="mix-blend-mode:lighten">
<path d="M134.955 79.0326L133.291 78.1011V76.6387L134.955 77.5795V79.0326Z" fill="#6ACBF7"/>
</g>
<g style="mix-blend-mode:lighten">
<path d="M123.115 75.6701L120.452 74.1611V72.708L123.115 74.217V75.6701Z" fill="#6ACBF7"/>
</g>
<g style="mix-blend-mode:lighten">
<path d="M125.065 76.7784L124.152 76.2568V74.8037L125.065 75.316V76.7784Z" fill="#6ACBF7"/>
</g>
<g style="mix-blend-mode:lighten">
<path d="M127.756 78.2968L126.101 77.3559V75.9028L127.756 76.8436V78.2968Z" fill="#6ACBF7"/>
</g>
<g style="mix-blend-mode:lighten">
<path d="M130.305 83.0659L120.452 77.4956V76.0332L130.305 81.6128V83.0659Z" fill="#6ACBF7"/>
</g>
<g style="mix-blend-mode:lighten">
<path d="M133.776 85.0315L131.341 83.6529V82.1904L133.776 83.5783V85.0315Z" fill="#6ACBF7"/>
</g>
<g style="mix-blend-mode:lighten">
<path d="M123.115 82.3303L120.452 80.8213V79.3589L123.115 80.8772V82.3303Z" fill="#6ACBF7"/>
</g>
<g style="mix-blend-mode:lighten">
<path d="M129.392 85.8791L124.152 82.917V81.4546L129.392 84.4167V85.8791Z" fill="#6ACBF7"/>
</g>
<g style="mix-blend-mode:lighten">
<path d="M132.083 87.3973L130.419 86.4565V85.0034L132.083 85.9349V87.3973Z" fill="#6ACBF7"/>
</g>
<g style="mix-blend-mode:lighten">
<path d="M125.911 87.239L120.452 84.1465V82.6934L125.911 85.7766V87.239Z" fill="#6ACBF7"/>
</g>
<g style="mix-blend-mode:lighten">
<path d="M130.904 90.0613L126.948 87.8257V86.3633L130.904 88.5988V90.0613Z" fill="#6ACBF7"/>
</g>
<g style="mix-blend-mode:lighten">
<path d="M134.603 92.1575L131.931 90.6485V89.186L134.603 90.695V92.1575Z" fill="#6ACBF7"/>
</g>
<g style="mix-blend-mode:lighten">
<path d="M122.297 88.5247L120.452 87.4815V86.019L122.297 87.0623V88.5247Z" fill="#6ACBF7"/>
</g>
<g style="mix-blend-mode:lighten">
<path d="M125.769 90.49L123.334 89.102V87.6489L125.769 89.0275V90.49Z" fill="#6ACBF7"/>
</g>
<g style="mix-blend-mode:lighten">
<path d="M130.733 93.2936L126.805 91.0674V89.6143L130.733 91.8312V93.2936Z" fill="#6ACBF7"/>
</g>
<g style="mix-blend-mode:lighten">
<path d="M126.101 94.0016L120.452 90.8066V89.3535L126.101 92.5485V94.0016Z" fill="#6ACBF7"/>
</g>
<g style="mix-blend-mode:lighten">
<path d="M132.435 97.5785L127.138 94.5884V93.126L132.435 96.1254V97.5785Z" fill="#6ACBF7"/>
</g>
<g style="mix-blend-mode:lighten">
<path d="M135.126 99.1063L133.471 98.1655V96.7124L135.126 97.6532V99.1063Z" fill="#6ACBF7"/>
</g>
<g style="mix-blend-mode:lighten">
<path d="M137.713 100.569L136.049 99.6279V98.1748L137.713 99.1063V100.569Z" fill="#6ACBF7"/>
</g>
<g style="mix-blend-mode:lighten">
<path d="M123.838 96.0512L120.452 94.1323V92.6792L123.838 94.5887V96.0512Z" fill="#6ACBF7"/>
</g>
<g style="mix-blend-mode:lighten">
<path d="M137.998 77.4307L142.696 80.0854V78.6323L137.998 75.9775V77.4307Z" fill="#6ACBF7"/>
</g>
<g style="mix-blend-mode:lighten">
<path d="M139.006 81.3335L142.696 83.4201V81.9576L139.006 79.8711V81.3335Z" fill="#6ACBF7"/>
</g>
<g style="mix-blend-mode:lighten">
<path d="M140.024 85.2364L142.696 86.7454V85.2922L140.024 83.7739V85.2364Z" fill="#6ACBF7"/>
</g>
<g style="mix-blend-mode:lighten">
<path d="M138.816 87.8726L142.696 90.0709V88.6177L138.816 86.4194V87.8726Z" fill="#6ACBF7"/>
</g>
<g style="mix-blend-mode:lighten">
<path d="M140.024 91.8872L142.696 93.4055V91.9431L140.024 90.4341V91.8872Z" fill="#6ACBF7"/>
</g>
<g style="mix-blend-mode:lighten">
<path d="M139.311 94.812L142.696 96.7309V95.2777L139.311 93.3589V94.812Z" fill="#6ACBF7"/>
</g>
<g style="mix-blend-mode:lighten">
<path d="M140.851 99.0132L142.696 100.056V98.6033L140.851 97.5601V99.0132Z" fill="#6ACBF7"/>
</g>
<g style="mix-blend-mode:lighten">
<path d="M139.12 101.36L142.696 103.391V101.929L139.12 99.9072V101.36Z" fill="#6ACBF7"/>
</g>
<g style="mix-blend-mode:lighten">
<path d="M139.311 104.798L142.696 106.717V105.264L139.311 103.345V104.798Z" fill="#6ACBF7"/>
</g>
<g style="mix-blend-mode:lighten">
<path d="M126.311 97.4481L124.875 96.6377V95.1753L126.311 95.995V97.4481Z" fill="#6ACBF7"/>
</g>
<g style="mix-blend-mode:lighten">
<path d="M130.59 99.8702L127.347 98.0352V96.5728L130.59 98.4078V99.8702Z" fill="#6ACBF7"/>
</g>
<g style="mix-blend-mode:lighten">
<path d="M133.272 111.067L127.794 107.974V106.512L133.272 109.604V111.067Z" fill="#6ACBF7"/>
</g>
<g style="mix-blend-mode:lighten">
<path d="M137.019 113.181L134.86 111.961V110.508L137.019 111.728V113.181Z" fill="#6ACBF7"/>
</g>
</g>
<g style="mix-blend-mode:lighten">
<path d="M150.875 129.743C150.67 129.737 150.47 129.68 150.295 129.575L112.512 108.207C112.132 107.946 111.82 107.601 111.604 107.199C111.387 106.797 111.271 106.351 111.266 105.897V52.3455C111.246 52.132 111.284 51.9172 111.376 51.7226C111.468 51.528 111.61 51.3605 111.789 51.237C111.944 51.1546 112.12 51.1162 112.296 51.126C112.473 51.1359 112.643 51.1937 112.787 51.2929L150.57 72.6612C150.95 72.9216 151.262 73.267 151.478 73.6687C151.695 74.0705 151.811 74.517 151.816 74.9713V128.513C151.836 128.726 151.798 128.941 151.706 129.136C151.615 129.33 151.472 129.498 151.293 129.621C151.167 129.697 151.023 129.739 150.875 129.743ZM150.57 129.118C150.635 129.165 150.711 129.194 150.791 129.204C150.871 129.214 150.952 129.204 151.027 129.174C151.119 129.094 151.19 128.992 151.233 128.878C151.276 128.765 151.29 128.642 151.274 128.522V74.9806C151.272 74.6194 151.185 74.2636 151.02 73.9406C150.855 73.6176 150.617 73.336 150.323 73.1176L112.54 51.7494C112.475 51.703 112.399 51.6735 112.319 51.6637C112.24 51.654 112.158 51.6642 112.084 51.6935C111.992 51.7743 111.921 51.8759 111.878 51.9895C111.835 52.1031 111.82 52.2253 111.837 52.3455V105.887C111.839 106.248 111.926 106.604 112.09 106.927C112.255 107.25 112.494 107.532 112.787 107.75L150.57 129.118Z" fill="#6ACBF7"/>
</g>
<defs>
<linearGradient id="paint0_linear" x1="150.205" y1="168.967" x2="210.161" y2="170.179" gradientUnits="userSpaceOnUse">
<stop stop-color="#5761D7"/>
<stop offset="0.04" stop-color="#5C66D9"/>
<stop offset="0.09" stop-color="#6A73DF"/>
<stop offset="0.14" stop-color="#8289E8"/>
<stop offset="0.19" stop-color="#A3A7F5"/>
<stop offset="0.22" stop-color="#BCBEFF"/>
</linearGradient>
<linearGradient id="paint1_linear" x1="-6377.53" y1="-65756.1" x2="-5157.32" y2="-64440.6" gradientUnits="userSpaceOnUse">
<stop stop-color="#C0BFF6"/>
<stop offset="0.29" stop-color="#C5C4F7"/>
<stop offset="0.64" stop-color="#D3D2F9"/>
<stop offset="1" stop-color="#E9E9FD"/>
</linearGradient>
<clipPath id="clip0">
<rect x="140" y="73" width="125" height="85" fill="white"/>
</clipPath>
</defs>
</svg>
