<svg width="67" height="67" viewBox="0 0 67 67" fill="none" xmlns="http://www.w3.org/2000/svg">
<path d="M65.5552 30.2067L63.3366 29.9264L64.709 28.1626C65.2177 27.5055 65.1599 26.5726 64.5738 25.9838L62.2287 23.6386C61.6403 23.052 60.7074 22.9942 60.0509 23.5034L58.2892 24.8791L58.0112 22.6605C57.907 21.835 57.2047 21.2161 56.3727 21.2167H53.0587C52.5331 21.2232 52.0429 21.4833 51.7419 21.9146L50.2779 19.4746C50.6383 18.8988 50.604 18.16 50.1923 17.6197L48.8199 15.8569L51.0385 15.5788C51.864 15.4747 52.4829 14.7724 52.4824 13.9403V10.6263C52.4818 9.79537 51.863 9.09418 51.0385 8.99004L48.8199 8.70978L50.1923 6.9459C50.701 6.28888 50.6432 5.35596 50.0571 4.7671L47.712 2.42199C47.1237 1.83585 46.1907 1.77805 45.5343 2.28677L43.7726 3.66243L43.4945 1.44381C43.3904 0.618311 42.6881 -0.000544887 41.856 3.60013e-07H38.542C37.7111 0.000545607 37.0099 0.619401 36.9057 1.44381L36.6255 3.66243L34.8616 2.29004C34.2046 1.78132 33.2717 1.83912 32.6828 2.42526L30.3377 4.77037C29.7515 5.35869 29.6937 6.29161 30.2025 6.94809L31.5781 8.70978L29.3595 8.98785C28.534 9.092 27.9151 9.79428 27.9157 10.6263V11.5276L17.899 15.5395L16.0222 13.6623C15.2256 12.8657 13.9601 12.7871 13.0708 13.4791L8.32604 17.1698C8.0616 17.0521 7.80479 16.9452 7.55561 16.8481L6.8108 10.9C6.67612 9.7801 5.72739 8.9366 4.59982 8.93333H2.23236V3.60013e-07H-0.000976562V67H2.23236V58.0666H4.59982C5.72576 58.0639 6.6734 57.2231 6.8108 56.1059L7.55343 50.1518C7.8026 50.0548 8.05942 49.9479 8.32386 49.8301L13.0582 53.5149C13.9535 54.2112 15.2267 54.1321 16.0288 53.3306L18.3324 51.0319L27.9157 55.1299V56.3693C27.9157 57.2052 28.5384 57.9102 29.3671 58.0143L31.5792 58.2864L30.2139 60.0443C29.697 60.7002 29.7537 61.6396 30.3453 62.2285L32.6904 64.5736C33.2777 65.163 34.2128 65.2219 34.8692 64.711L36.6255 63.3397L36.8992 65.5529C37.005 66.3811 37.7111 67.0016 38.5464 67H41.8517C42.6875 67 43.3925 66.3773 43.4967 65.5485L43.7688 63.3365L45.5266 64.7018C46.1831 65.2176 47.1215 65.1614 47.7109 64.5704L50.056 62.2252C50.6465 61.6386 50.7054 60.7029 50.1934 60.0464L48.8221 58.2902L51.0353 58.0165C51.8635 57.9107 52.484 57.2046 52.4824 56.3693V53.064C52.4818 52.2287 51.8597 51.5237 51.0309 51.4201L48.8221 51.1431L50.1874 49.3858C50.6062 48.8454 50.6421 48.1012 50.2768 47.5232L51.7419 45.0821C52.0418 45.5145 52.532 45.7757 53.0587 45.7833H56.3727C57.2037 45.7828 57.9048 45.1639 58.009 44.3395L58.2892 42.1209L60.0531 43.4933C60.7101 44.0031 61.6436 43.9453 62.2319 43.3581L64.577 41.0129C65.1632 40.4246 65.221 39.4917 64.7123 38.8352L63.3366 37.0735L65.5552 36.7955C66.3807 36.6913 66.9996 35.989 66.999 35.157V31.843C66.9985 31.012 66.3796 30.3108 65.5552 30.2067ZM46.2267 24.6234L44.1979 21.2423L45.5375 22.2821C46.1946 22.7919 47.128 22.7341 47.7164 22.1468L48.6913 21.1709L50.7201 24.5519L49.3804 23.5127C48.7234 23.004 47.791 23.0618 47.2016 23.6474L46.2267 24.6234ZM30.149 11.1421L32.7967 10.8073C33.2204 10.7539 33.5765 10.4638 33.7144 10.0598C33.8093 9.78773 33.921 9.5222 34.0497 9.26375C34.2373 8.88044 34.1899 8.42352 33.9276 8.08711L32.2864 5.983L33.8987 4.3707L36.0072 6.00862C36.3441 6.27089 36.8005 6.31832 37.1838 6.13076C37.4423 6.00208 37.7078 5.89031 37.9804 5.79543C38.3844 5.65749 38.674 5.30144 38.7274 4.87778L39.0578 2.23333H41.3402L41.675 4.88105C41.7284 5.30471 42.0185 5.66076 42.4225 5.7987C42.6946 5.89358 42.9607 6.00535 43.2186 6.13403C43.6019 6.3216 44.0588 6.27416 44.3952 6.0119L46.5037 4.37397L48.116 5.98627L46.4737 8.09147C46.2115 8.42843 46.164 8.8848 46.3516 9.26811C46.4803 9.52656 46.592 9.79209 46.6869 10.0647C46.8249 10.4687 47.1809 10.7583 47.6046 10.8117L50.2523 11.1465V13.4289L47.6046 13.7642C47.1809 13.8171 46.8249 14.1072 46.6869 14.5112C46.592 14.7833 46.4803 15.0494 46.3516 15.3073C46.164 15.6906 46.2115 16.1475 46.4737 16.4845L48.1117 18.5924L46.4994 20.2052L44.3909 18.5668C44.0561 18.3018 43.5992 18.2511 43.2142 18.4359C42.9558 18.5646 42.6903 18.6764 42.4176 18.7712C42.0136 18.9092 41.7241 19.2652 41.6706 19.6889L41.3402 22.3333H39.0578L38.723 19.6856C38.6696 19.2619 38.3795 18.9059 37.9755 18.768C37.7034 18.6731 37.4379 18.5613 37.1794 18.4326C36.7961 18.2451 36.3392 18.2925 36.0028 18.5548L33.8943 20.1927L32.282 18.5804L33.92 16.4719C34.1822 16.1366 34.2313 15.6819 34.0465 15.2985C33.9178 15.0401 33.806 14.7746 33.7111 14.5019C33.5732 14.0979 33.2171 13.8084 32.7935 13.755L30.149 13.4245V11.1421ZM2.23236 24.1703C6.43567 24.9816 9.4727 28.6609 9.4727 32.9417C9.4727 37.2224 6.43567 40.9017 2.23236 41.713V24.1703ZM14.4328 51.7521L9.15591 47.6492C8.82113 47.3885 8.36748 47.34 7.98526 47.5243C7.39858 47.8127 6.79335 48.0635 6.17395 48.2745C5.76556 48.4109 5.47222 48.7696 5.41933 49.1971L4.59982 55.8333H2.23236V43.9856C7.70064 43.1678 11.7475 38.471 11.7475 32.9417C11.7475 27.4123 7.70064 22.7155 2.23236 21.8977V11.1667H4.59764L5.42369 17.7996C5.47658 18.2271 5.77047 18.5858 6.17886 18.7222C6.79771 18.9332 7.40294 19.184 7.98962 19.4724C8.37184 19.6562 8.82549 19.6082 9.16027 19.3476L14.4432 15.238L19.3668 20.1791L15.2649 25.4598C15.0042 25.7946 14.9557 26.2482 15.14 26.6304C15.4284 27.2171 15.6792 27.8223 15.8903 28.4417C16.0266 28.8501 16.3853 29.1435 16.8128 29.1964L23.449 30.0159V36.9819L16.8161 37.808C16.3886 37.8609 16.0298 38.1548 15.8935 38.5632C15.6825 39.182 15.4317 39.7872 15.1433 40.3739C14.9595 40.7561 15.0075 41.2098 15.2681 41.5446L19.3777 46.8275L14.4328 51.7521ZM21.1328 45.4562L17.448 40.7114C17.5658 40.447 17.6727 40.1902 17.7697 39.941L23.7184 39.1995C24.8389 39.0637 25.6818 38.1128 25.6824 36.9841V30.0159C25.6796 28.8899 24.8389 27.9423 23.7216 27.8049L17.7675 27.0623C17.6705 26.8136 17.5636 26.5568 17.4459 26.2918L21.1306 21.5574C21.8264 20.6621 21.7473 19.389 20.9463 18.5869L19.6187 17.2603L27.9157 13.9338V13.9403C27.9162 14.7713 28.5351 15.4725 29.3595 15.5766L31.5781 15.8547L30.2057 17.6186C29.697 18.2756 29.7548 19.2085 30.341 19.7974L32.6861 22.1425C33.2744 22.7292 34.2073 22.787 34.8638 22.2777L36.6255 20.9042L36.9035 23.1228C37.0077 23.9483 37.71 24.5672 38.542 24.5667H41.856C42.3816 24.5601 42.8718 24.3 43.1728 23.8687L44.6368 26.3087C44.2764 26.8845 44.3107 27.6233 44.7224 28.1637L46.0948 29.9264L43.8762 30.2045C43.0507 30.3087 42.4318 31.0109 42.4324 31.843V35.157C42.4329 35.9879 43.0518 36.6891 43.8762 36.7933L46.0948 37.0714L44.7224 38.8352C44.3107 39.3761 44.2764 40.1149 44.6368 40.6912L43.1728 43.1301C42.8696 42.6989 42.3784 42.4399 41.8517 42.4333H38.5464C37.7105 42.4333 37.0055 43.056 36.9014 43.8848L36.6255 46.0936L34.8681 44.7283C34.2122 44.2114 33.2733 44.2681 32.6839 44.8597L30.3388 47.2048C29.7483 47.7915 29.6894 48.7271 30.2014 49.3836L31.5759 51.1431L29.3628 51.4168C28.6692 51.5111 28.1125 52.0362 27.9784 52.7232L20.0341 49.322L20.9534 48.4032C21.7484 47.6066 21.8269 46.3433 21.1366 45.4551L21.1328 45.4562ZM47.7098 44.8608C47.1226 44.2708 46.1875 44.2119 45.531 44.7234L44.2001 45.7599L46.2289 42.3821L47.2038 43.3581C47.7921 43.9453 48.7251 44.0031 49.3815 43.4933L50.7212 42.4535L48.6858 45.8357L47.7098 44.8608ZM50.249 53.5733V55.86L47.5991 56.1872C47.1624 56.2422 46.7987 56.5481 46.67 56.9691C46.5833 57.2346 46.4765 57.493 46.3505 57.7428C46.1673 58.1244 46.2158 58.5775 46.4759 58.9118L48.1127 61.017L46.4961 62.6336L44.3909 60.9968C44.0566 60.7367 43.6035 60.6882 43.2219 60.8719C42.9722 60.9973 42.7137 61.1042 42.4482 61.1909C42.0272 61.3196 41.7208 61.6833 41.6663 62.12L41.3424 64.7666H39.0556L38.7285 62.1167C38.6734 61.68 38.3675 61.3163 37.9466 61.1876C37.6811 61.1009 37.4226 60.9941 37.1729 60.8681C36.7912 60.6849 36.3381 60.7334 36.0039 60.9935L33.8987 62.6304L32.282 61.0137L33.9189 58.9085C34.1789 58.5743 34.2275 58.1212 34.0437 57.7395C33.9183 57.4898 33.8115 57.2313 33.7248 56.9658C33.5961 56.5449 33.2324 56.2384 32.7957 56.1839L30.149 55.86V53.5733L32.7989 53.2461C33.2357 53.191 33.5993 52.8852 33.728 52.4642C33.8147 52.1987 33.9216 51.9402 34.0475 51.6905C34.2307 51.3088 34.1822 50.8557 33.9221 50.5215L32.2853 48.4163L33.902 46.7997L36.0072 48.4365C36.3414 48.6966 36.7945 48.7451 37.1762 48.5613C37.4259 48.4359 37.6843 48.3291 37.9499 48.2424C38.3708 48.1137 38.6772 47.75 38.7318 47.3133L39.0556 44.6666H41.3435L41.6696 47.3133C41.723 47.7511 42.0294 48.1164 42.4514 48.2457C42.717 48.3323 42.9754 48.4392 43.2251 48.5652C43.6068 48.7484 44.0599 48.6998 44.3942 48.4398L46.4994 46.8029L48.116 48.4196L46.4792 50.5248C46.2191 50.859 46.1706 51.3121 46.3543 51.6938C46.4797 51.9435 46.5866 52.202 46.6733 52.4675C46.802 52.8884 47.1656 53.1949 47.6024 53.2494L50.249 53.5733ZM64.7657 34.6412L62.118 34.976C61.6943 35.0294 61.3383 35.3195 61.2003 35.7235C61.1054 35.9956 60.9937 36.2611 60.865 36.5196C60.6774 36.9029 60.7249 37.3598 60.9871 37.6962L62.625 39.8047L61.0128 41.417L58.9043 39.7791C58.569 39.5168 58.1142 39.4677 57.7309 39.6526C57.4725 39.7812 57.2069 39.893 56.9343 39.9879C56.5303 40.1258 56.2407 40.4819 56.1873 40.9055L55.8569 43.55H53.5745L53.2397 40.9023C53.1863 40.4786 52.8962 40.1226 52.4922 39.9846C52.2201 39.8897 51.9546 39.778 51.6961 39.6493C51.3128 39.4617 50.8559 39.5092 50.5195 39.7714L48.411 41.4093L46.7987 39.797L48.4366 37.6886C48.6989 37.3532 48.748 36.8985 48.5631 36.5152C48.4344 36.2568 48.3227 35.9912 48.2278 35.7186C48.0898 35.3146 47.7338 35.025 47.3101 34.9716L44.6657 34.6412V32.3588L47.3134 32.024C47.7371 31.9706 48.0931 31.6805 48.2311 31.2765C48.3259 31.0044 48.4377 30.7389 48.5664 30.4804C48.754 30.0971 48.7065 29.6402 48.4443 29.3038L46.8063 27.1953L48.4186 25.583L50.5271 27.2209C50.8641 27.4832 51.3204 27.5306 51.7043 27.3425C51.9622 27.2144 52.2283 27.1026 52.5004 27.0077C52.9044 26.8698 53.1945 26.5132 53.2473 26.0895L53.5821 23.4424H55.8645L56.1999 26.0895C56.2527 26.5132 56.5428 26.8698 56.9468 27.0077C57.2189 27.1026 57.485 27.2144 57.7429 27.3425C58.1262 27.5306 58.5831 27.4832 58.9201 27.2209L61.028 25.583L62.6409 27.1953L61.0024 29.3038C60.7347 29.6391 60.6823 30.0982 60.8683 30.4848C60.9969 30.7432 61.1087 31.0088 61.2036 31.2814C61.3415 31.6854 61.6976 31.9749 62.1212 32.0284L64.769 32.3631L64.7657 34.6412Z" fill="#3683E9"/>
<path d="M54.7161 27.917C51.6328 27.917 49.1328 30.417 49.1328 33.5003C49.1328 36.5837 51.6328 39.0837 54.7161 39.0837C57.7995 39.0837 60.2995 36.5837 60.2995 33.5003C60.2957 30.418 57.7984 27.9208 54.7161 27.917ZM54.7161 36.8503C52.8661 36.8503 51.3661 35.3503 51.3661 33.5003C51.3661 31.6503 52.8661 30.1503 54.7161 30.1503C56.5662 30.1503 58.0661 31.6503 58.0661 33.5003C58.0661 35.3503 56.5662 36.8503 54.7161 36.8503Z" fill="#3683E9"/>
<path d="M40.1986 17.8669C43.2819 17.8669 45.7819 15.3669 45.7819 12.2835C45.7819 9.20016 43.2819 6.7002 40.1986 6.7002C37.1152 6.7002 34.6152 9.20016 34.6152 12.2835C34.6191 15.3658 37.1163 17.863 40.1986 17.8669ZM40.1986 8.93353C42.0486 8.93353 43.5486 10.4335 43.5486 12.2835C43.5486 14.1336 42.0486 15.6335 40.1986 15.6335C38.3485 15.6335 36.8486 14.1336 36.8486 12.2835C36.8486 10.4335 38.3485 8.93353 40.1986 8.93353Z" fill="#3683E9"/>
<path d="M40.1992 49.1338C37.9686 49.1365 35.9545 50.4669 35.075 52.5165C34.1961 54.5666 34.6214 56.9428 36.1568 58.5606L36.1639 58.566C37.9185 60.4101 40.6981 60.8337 42.9222 59.5966C45.1463 58.3588 46.2526 55.7738 45.6114 53.3109C44.9702 50.8475 42.7445 49.13 40.1992 49.1338ZM40.1992 58.0671C39.2865 58.0759 38.4119 57.7024 37.7871 57.0366L36.9719 57.7989L37.7783 57.0263C37.1808 56.4063 36.8476 55.5781 36.8492 54.7171C36.8492 52.8671 38.3492 51.3671 40.1992 51.3671C42.0493 51.3671 43.5492 52.8671 43.5492 54.7171C43.5492 56.5672 42.0493 58.0671 40.1992 58.0671Z" fill="#3683E9"/>
</svg>
