<svg width="72" height="71" viewBox="0 0 72 71" fill="none" xmlns="http://www.w3.org/2000/svg">
<path d="M66.341 35.5085C67.835 32.5303 69.011 29.5364 69.8273 26.5864C72.3868 17.343 71.1474 9.60286 66.3367 4.79267C61.5265 -0.0175112 53.7863 -1.25743 44.543 1.30204C41.593 2.11836 38.599 3.29491 35.6208 4.78834C31.9157 2.92873 28.2051 1.56801 24.63 0.784186C16.3259 -1.03588 9.32678 0.387671 4.92232 4.79267C2.09525 7.61974 0.455559 11.5919 0.181465 16.2802C-0.0650027 20.4978 0.789781 25.3378 2.65264 30.3235C1.12292 31.5331 0.138672 33.403 0.138672 35.4999C0.138672 37.5967 1.12292 39.4666 2.65264 40.6762C0.789781 45.6619 -0.0650027 50.5024 0.181465 54.7195C0.456101 59.4078 2.09525 63.38 4.92232 66.207C8.07927 69.3645 12.5087 70.9923 17.8589 70.9923C18.9331 70.9923 20.0446 70.9268 21.1908 70.7946C25.7784 70.2654 30.6801 68.7026 35.6279 66.2146C38.6039 67.707 41.5957 68.8819 44.543 69.6977C47.6886 70.5687 50.6603 70.9999 53.4017 70.9999C58.7152 70.9999 63.1635 69.3802 66.3367 66.207C70.7417 61.8026 72.1653 54.8034 70.3452 46.4988C69.5614 42.9242 68.2007 39.2137 66.341 35.5085ZM45.0988 3.31008C53.5875 0.959693 60.6067 2.00948 64.8633 6.26606C69.1199 10.5226 70.1697 17.5418 67.8193 26.0306C67.1612 28.4086 66.2571 30.8191 65.1325 33.2275C63.1175 29.6139 60.6392 26.0333 57.7677 22.618C58.6474 21.4967 59.174 20.0856 59.174 18.5532C59.174 17.0716 58.6946 15.6719 57.7867 14.5051L56.1421 15.7841C56.7629 16.582 57.0906 17.5397 57.0906 18.5532C57.0906 21.0428 55.0653 23.0676 52.5762 23.0676C50.0872 23.0676 48.0618 21.0428 48.0618 18.5532C48.0618 16.0636 50.0872 14.0387 52.5762 14.0387C53.3887 14.0387 54.1856 14.2565 54.8795 14.6693L55.9444 12.8784C54.9282 12.2745 53.7636 11.9549 52.5762 11.9549C51.0438 11.9549 49.6327 12.4819 48.5119 13.3616C45.096 10.4901 41.5155 8.01192 37.9019 5.9963C40.3102 4.8723 42.7207 3.96823 45.0988 3.31008ZM6.39571 6.26606C12.0287 0.633056 22.3576 0.84323 33.3485 5.99035C27.983 8.98263 22.7206 12.9895 17.9196 17.7899C14.3596 21.3499 11.2265 25.1737 8.59442 29.1654C8.00127 28.9931 7.37725 28.9016 6.73697 28.9016C5.94881 28.9016 5.19316 29.0413 4.49167 29.2954C0.881867 19.4567 1.55789 11.1033 6.39571 6.26606ZM17.9131 68.9014C13.1998 68.9014 9.19298 67.5309 6.39517 64.7337C1.55789 59.8964 0.881326 51.5436 4.49167 41.7043C5.19316 41.9589 5.94881 42.0982 6.73697 42.0982C7.38104 42.0982 8.00289 42.0034 8.59225 41.8306C11.2243 45.8239 14.3585 49.6487 17.9196 53.2098C22.7189 58.0086 27.9798 62.0144 33.3436 65.0067C27.8341 67.5851 22.5337 68.9019 17.9131 68.9014ZM35.6236 63.8729C29.996 60.9169 24.4388 56.7817 19.393 51.7364C16.0025 48.3454 13.0119 44.7118 10.4903 40.9222C12.2075 39.7299 13.3347 37.7446 13.3347 35.5004C13.3347 35.3049 13.3266 35.1071 13.3093 34.9127L11.2335 35.0963C11.2454 35.2296 11.2514 35.365 11.2514 35.4999C11.2514 37.9895 9.22603 40.0143 6.73697 40.0143C4.24792 40.0143 2.22254 37.9895 2.22254 35.4999C2.22254 33.0103 4.24792 30.9854 6.73697 30.9854C8.45629 30.9854 10.0039 31.941 10.7753 33.4788L12.6376 32.545C12.1284 31.5293 11.3863 30.688 10.4947 30.07C13.0157 26.2836 16.0047 22.6516 19.393 19.2633C24.4399 14.2164 29.9992 10.0801 35.6284 7.1241C39.4598 9.1408 43.3361 11.7409 47.0916 14.8897C46.3885 15.9384 45.9779 17.1984 45.9779 18.5532C45.9779 22.1911 48.9382 25.1509 52.5762 25.1509C53.931 25.1509 55.1909 24.7403 56.2397 24.0372C59.3885 27.7927 61.988 31.6696 64.0047 35.5004C61.0488 41.1296 56.9124 46.689 51.8661 51.7364C51.3108 52.2911 50.7404 52.8425 50.1641 53.3826C49.0141 52.4097 47.5293 51.8214 45.9086 51.8214C44.4271 51.8214 43.0273 52.3014 41.8605 53.2087L43.14 54.8533C43.9374 54.233 44.8951 53.9053 45.9086 53.9048C48.3976 53.9048 50.423 55.9301 50.423 58.4192C50.423 60.9088 48.3976 62.9336 45.9086 62.9336C43.4195 62.9336 41.3942 60.9088 41.3942 58.4192C41.3942 57.6067 41.6119 56.8104 42.0247 56.1165L40.2339 55.051C39.6299 56.0672 39.3103 57.2318 39.3103 58.4192C39.3103 59.4647 39.5557 60.4527 39.9901 61.3319C38.5303 62.2636 37.072 63.1108 35.6236 63.8729ZM64.8633 64.7337C60.6067 68.9908 53.5875 70.04 45.0988 67.6902C42.7224 67.032 40.314 66.129 37.9073 65.0056C39.0048 64.3924 40.1028 63.7342 41.1975 63.0333C42.3963 64.2564 44.0647 65.0175 45.9086 65.0175C49.5466 65.0175 52.5069 62.0577 52.5069 58.4197C52.5069 57.1527 52.1472 55.9692 51.5259 54.9627C52.1402 54.388 52.7479 53.8008 53.3389 53.2098C58.1399 48.4083 62.1462 43.1458 65.139 37.7804C70.2862 48.7717 70.4963 59.1006 64.8633 64.7337Z" fill="#3683E9"/>
<path d="M52.7147 46.2659H50.562V41.0164C50.562 38.6948 49.0014 36.6331 46.767 36.0026L45.988 35.7832L45.4225 37.7885L46.2015 38.0085C47.5416 38.3866 48.4782 39.6232 48.4782 41.0164V46.2659H44.7275V43.4183H42.6442V46.2659H33.2676V48.3493H52.7147V46.2659Z" fill="#3683E9"/>
<path d="M39.075 35.9979L43.4172 37.2232L43.9832 35.2173L39.7272 34.0169V31.25C41.654 29.9359 42.922 27.7242 42.922 25.221V22.1648C42.922 18.1439 39.6508 14.8721 35.6293 14.8721C31.6084 14.8721 28.3366 18.1439 28.3366 22.1648V25.221C28.3366 27.7242 29.6047 29.9359 31.5314 31.25V34.0169L24.4917 36.0022C22.2572 36.6327 20.6966 38.6944 20.6966 41.0161V46.2656H18.5439V48.3489H31.1842V46.2656H28.6145V43.4179H26.5311V46.2656H22.7805V41.0161C22.7805 39.6229 23.7171 38.3862 25.0572 38.0081L32.1836 35.9984C33.0612 36.9583 34.3006 37.5146 35.6293 37.5146C36.9581 37.5146 38.198 36.9578 39.075 35.9979ZM35.6293 16.9559C38.5013 16.9559 40.8382 19.2928 40.8382 22.1654V23.3256L38.6481 20.4287H30.7189C31.4356 18.4077 33.3656 16.9559 35.6293 16.9559ZM30.4204 25.221V22.5126H37.6113L40.6654 26.5514C40.0755 28.7815 38.0414 30.4299 35.6293 30.4299C32.7573 30.4299 30.4204 28.093 30.4204 25.221ZM33.6153 34.4692V32.2283C34.255 32.413 34.9305 32.5138 35.6293 32.5138C36.3281 32.5138 37.003 32.413 37.6433 32.2283V34.4692C37.1536 35.0754 36.4202 35.4307 35.6293 35.4307C34.8384 35.4307 34.1045 35.0754 33.6153 34.4692Z" fill="#3683E9"/>
<path d="M41.1321 40.9082L38.1973 40.0805L38.7633 38.0752L41.6976 38.9029L41.1321 40.9082Z" fill="#3683E9"/>
<path d="M45.7062 40.0294L45.1401 42.0347L43.1348 41.4692L43.7008 39.4639L45.7062 40.0294Z" fill="#3683E9"/>
<path d="M51.5347 17.5117H53.618V19.5956H51.5347V17.5117Z" fill="#3683E9"/>
<path d="M44.8667 57.3779H46.95V59.4613H44.8667V57.3779Z" fill="#3683E9"/>
<path d="M5.69482 34.458H7.7787V36.5413H5.69482V34.458Z" fill="#3683E9"/>
</svg>
