<svg width="65" height="67" viewBox="0 0 65 67" fill="none" xmlns="http://www.w3.org/2000/svg">
<path d="M25.8769 12.0631C26.1326 12.3192 26.4684 12.447 26.8038 12.447C27.1392 12.447 27.4746 12.3192 27.7303 12.0631L31.8758 7.91847C32.387 7.40639 32.387 6.5764 31.8758 6.06472C31.3641 5.55264 30.5341 5.55264 30.0224 6.06472L25.8769 10.2098C25.3652 10.7219 25.3652 11.5519 25.8769 12.0631Z" fill="#3683E9"/>
<path d="M32.7738 12.0631C33.0298 12.3192 33.3648 12.447 33.6998 12.447C34.0356 12.447 34.3706 12.3192 34.6267 12.0631L38.7722 7.91847C39.2842 7.40639 39.2842 6.5764 38.7722 6.06472C38.2605 5.55264 37.4305 5.55264 36.9184 6.06472L32.7734 10.2098C32.2617 10.7219 32.2617 11.5519 32.7738 12.0631Z" fill="#3683E9"/>
<path d="M62.7539 50.9322H58.1171V46.5816C58.1171 45.8583 57.5297 45.2709 56.8063 45.2709H51.8805V42.2904H56.5177C57.6013 42.2904 58.4834 41.4091 58.4834 40.3247V28.4292C58.4834 27.3456 57.6013 26.4635 56.5177 26.4635H51.8805V22.2179C51.8805 21.4938 51.2935 20.9072 50.5698 20.9072H33.7119V17.9324H43.2334C44.3601 17.9324 45.2772 17.0153 45.2772 15.8877V2.24151C45.2772 1.11437 44.3601 0.197266 43.2334 0.197266H37.4389C36.7147 0.197266 36.1282 0.783837 36.1282 1.50799C36.1282 2.23174 36.7147 2.81872 37.4389 2.81872H42.6566V15.3109H22.1473V2.81872H26.9238C27.6475 2.81872 28.2345 2.23174 28.2345 1.50799C28.2345 0.783837 27.6475 0.197266 26.9238 0.197266H21.5697C20.443 0.197266 19.5259 1.11437 19.5259 2.24151V15.8877C19.5259 17.0153 20.443 17.9324 21.5697 17.9324H31.0912V20.9072H13.5389C12.8151 20.9072 12.2281 21.4938 12.2281 22.2179V26.4635H7.59132C6.50692 26.4635 5.62523 27.3456 5.62523 28.4292V40.3247C5.62523 41.4091 6.50692 42.2904 7.59132 42.2904H12.2281V45.2709H8.18074C7.45659 45.2709 6.87002 45.8583 6.87002 46.5816V50.9322H2.16198C1.07757 50.9322 0.196289 51.8143 0.196289 52.8979V64.7934C0.196289 65.8778 1.07757 66.7599 2.16198 66.7599H14.0575C15.141 66.7599 16.0231 65.8778 16.0231 64.7934V52.8979C16.0231 51.8143 15.141 50.9322 14.0575 50.9322H9.49107V47.8919H31.0912V50.9322H26.5322C25.405 50.9322 24.4883 51.8493 24.4883 52.9769V64.7152C24.4883 65.8428 25.405 66.7599 26.5322 66.7599H27.1961C27.9198 66.7599 28.5068 66.1729 28.5068 65.4492C28.5068 64.7254 27.9198 64.1384 27.1961 64.1384H27.1094V53.5537H37.6941V64.1384H37.6025C36.8788 64.1384 36.2918 64.7254 36.2918 65.4492C36.2918 66.1729 36.8788 66.7599 37.6025 66.7599H38.2709C39.3981 66.7599 40.3148 65.8428 40.3148 64.7152V52.9769C40.3148 51.8493 39.3981 50.9322 38.2709 50.9322H33.7119V47.8919H55.4956V50.9322H50.8584C49.7744 50.9322 48.8927 51.8143 48.8927 52.8979V64.7934C48.8927 65.8778 49.7744 66.7599 50.8584 66.7599H62.7539C63.8375 66.7599 64.7196 65.8778 64.7196 64.7934V52.8979C64.7196 51.8143 63.8375 50.9322 62.7539 50.9322ZM13.4017 53.5537V64.1384H2.81693V53.5537H13.4017ZM8.24628 39.6697V29.085H18.831V39.6697H8.24628ZM49.2595 45.2709H14.8496V42.2904H19.4868C20.5704 42.2904 21.4525 41.4091 21.4525 40.3247V28.4292C21.4525 27.3456 20.5704 26.4635 19.4868 26.4635H14.8496V23.5282H49.2595V26.4635H44.6223C43.5379 26.4635 42.6566 27.3456 42.6566 28.4292V40.3247C42.6566 41.4091 43.5379 42.2904 44.6223 42.2904H49.2595V45.2709ZM45.2772 39.6697V29.085H55.862V39.6697H45.2772ZM62.0981 64.1384H51.5134V53.5537H62.0981V64.1384Z" fill="#3683E9"/>
<path d="M31.4236 2.55152L31.4618 2.58042C31.6991 2.76075 31.9776 2.84827 32.2544 2.84827C32.6496 2.84827 33.0408 2.66957 33.2985 2.33008C33.7365 1.75369 33.6245 0.932243 33.0481 0.493841L33.0095 0.464533C32.4331 0.0265377 31.6108 0.138479 31.1732 0.715281C30.7348 1.29127 30.8472 2.11312 31.4236 2.55152Z" fill="#3683E9"/>
<path d="M33.2134 64.374L33.1755 64.3451C32.5991 63.9075 31.7769 64.0194 31.3385 64.5958C30.9009 65.1722 31.0136 65.9945 31.59 66.4325L31.6279 66.4618C31.8652 66.6417 32.1436 66.7289 32.4196 66.7289C32.8157 66.7289 33.2069 66.5502 33.4649 66.2111C33.9025 65.6339 33.7902 64.812 33.2134 64.374Z" fill="#3683E9"/>
</svg>
