<svg width="62" height="62" viewBox="0 0 62 62" fill="none" xmlns="http://www.w3.org/2000/svg">
<path d="M11.3667 4.16602H7.2334V6.23268H11.3667V4.16602Z" fill="#3683E9"/>
<path d="M17.5669 4.16602H13.4336V6.23268H17.5669V4.16602Z" fill="#3683E9"/>
<path d="M23.7661 4.16602H19.6328V6.23268H23.7661V4.16602Z" fill="#3683E9"/>
<path d="M29.9663 4.16602H25.833V6.23268H29.9663V4.16602Z" fill="#3683E9"/>
<path d="M36.1665 4.16602H32.0332V6.23268H36.1665V4.16602Z" fill="#3683E9"/>
<path d="M11.3667 8.29883H7.2334V10.3655H11.3667V8.29883Z" fill="#3683E9"/>
<path d="M17.5669 8.29883H13.4336V10.3655H17.5669V8.29883Z" fill="#3683E9"/>
<path d="M23.7661 8.29883H19.6328V10.3655H23.7661V8.29883Z" fill="#3683E9"/>
<path d="M29.9663 8.29883H25.833V10.3655H29.9663V8.29883Z" fill="#3683E9"/>
<path d="M36.1665 8.29883H32.0332V10.3655H36.1665V8.29883Z" fill="#3683E9"/>
<path d="M11.3667 22.7656H7.2334V24.8323H11.3667V22.7656Z" fill="#3683E9"/>
<path d="M17.5669 22.7656H13.4336V24.8323H17.5669V22.7656Z" fill="#3683E9"/>
<path d="M23.7661 22.7656H19.6328V24.8323H23.7661V22.7656Z" fill="#3683E9"/>
<path d="M29.9663 22.7656H25.833V24.8323H29.9663V22.7656Z" fill="#3683E9"/>
<path d="M36.1665 22.7656H32.0332V24.8323H36.1665V22.7656Z" fill="#3683E9"/>
<path d="M11.3667 26.8994H7.2334V28.9661H11.3667V26.8994Z" fill="#3683E9"/>
<path d="M17.5669 26.8994H13.4336V28.9661H17.5669V26.8994Z" fill="#3683E9"/>
<path d="M23.7661 26.8994H19.6328V28.9661H23.7661V26.8994Z" fill="#3683E9"/>
<path d="M29.9663 26.8994H25.833V28.9661H29.9663V26.8994Z" fill="#3683E9"/>
<path d="M36.1665 26.8994H32.0332V28.9661H36.1665V26.8994Z" fill="#3683E9"/>
<path d="M11.3667 41.3662H7.2334V43.4329H11.3667V41.3662Z" fill="#3683E9"/>
<path d="M17.5669 41.3662H13.4336V43.4329H17.5669V41.3662Z" fill="#3683E9"/>
<path d="M23.7661 41.3662H19.6328V43.4329H23.7661V41.3662Z" fill="#3683E9"/>
<path d="M29.9663 41.3662H25.833V43.4329H29.9663V41.3662Z" fill="#3683E9"/>
<path d="M36.1665 41.3662H32.0332V43.4329H36.1665V41.3662Z" fill="#3683E9"/>
<path d="M11.3667 45.499H7.2334V47.5657H11.3667V45.499Z" fill="#3683E9"/>
<path d="M17.5669 45.499H13.4336V47.5657H17.5669V45.499Z" fill="#3683E9"/>
<path d="M23.7661 45.499H19.6328V47.5657H23.7661V45.499Z" fill="#3683E9"/>
<path d="M29.9663 45.499H25.833V47.5657H29.9663V45.499Z" fill="#3683E9"/>
<path d="M36.1665 45.499H32.0332V47.5657H36.1665V45.499Z" fill="#3683E9"/>
<path d="M53.7334 4.16602H39.2667C38.6963 4.16602 38.2334 4.62895 38.2334 5.19935V11.3993C38.2334 11.9697 38.6963 12.4327 39.2667 12.4327H53.7334C54.3038 12.4327 54.7667 11.9697 54.7667 11.3993V5.19935C54.7667 4.62895 54.3038 4.16602 53.7334 4.16602ZM52.7001 10.366H40.3001V6.23268H52.7001V10.366Z" fill="#3683E9"/>
<path d="M53.7334 22.7656H39.2667C38.6963 22.7656 38.2334 23.2286 38.2334 23.799V29.999C38.2334 30.5694 38.6963 31.0323 39.2667 31.0323H53.7334C54.3038 31.0323 54.7667 30.5694 54.7667 29.999V23.799C54.7667 23.2286 54.3038 22.7656 53.7334 22.7656ZM52.7001 28.9656H40.3001V24.8323H52.7001V28.9656Z" fill="#3683E9"/>
<path d="M53.7334 41.3662H39.2667C38.6963 41.3662 38.2334 41.8291 38.2334 42.3995V48.5995C38.2334 49.1699 38.6963 49.6329 39.2667 49.6329H53.7334C54.3038 49.6329 54.7667 49.1699 54.7667 48.5995V42.3995C54.7667 41.8291 54.3038 41.3662 53.7334 41.3662ZM52.7001 47.5662H40.3001V43.4329H52.7001V47.5662Z" fill="#3683E9"/>
<path d="M32.0333 59.9005V53.7656H57.8667C58.4371 53.7656 58.9 53.3026 58.9 52.7322V38.2656C58.9 37.6952 58.4371 37.2322 57.8667 37.2322H56.8333V35.1656H57.8667C58.4371 35.1656 58.9 34.7026 58.9 34.1322V19.6656C58.9 19.0952 58.4371 18.6322 57.8667 18.6322H56.8333V16.5656H57.8667C58.4371 16.5656 58.9 16.1026 58.9 15.5322V1.06556C58.9 0.49516 58.4371 0.0322266 57.8667 0.0322266H4.13333C3.56293 0.0322266 3.1 0.49516 3.1 1.06556V15.5322C3.1 16.1026 3.56293 16.5656 4.13333 16.5656H5.16667V18.6322H4.13333C3.56293 18.6322 3.1 19.0952 3.1 19.6656V34.1322C3.1 34.7026 3.56293 35.1656 4.13333 35.1656H5.16667V37.2322H4.13333C3.56293 37.2322 3.1 37.6952 3.1 38.2656V52.7322C3.1 53.3026 3.56293 53.7656 4.13333 53.7656H29.9667V59.9005H0V61.9671H62V59.9005H32.0333ZM5.16667 2.09889H56.8333V14.4989H5.16667V2.09889ZM54.7667 16.5656V18.6322H7.23333V16.5656H54.7667ZM5.16667 20.6989H56.8333V33.0989H5.16667V20.6989ZM54.7667 35.1656V37.2322H7.23333V35.1656H54.7667ZM5.16667 51.6989V39.2989H56.8333V51.6989H5.16667Z" fill="#3683E9"/>
</svg>
