<svg width="88" height="77" viewBox="0 0 88 77" fill="none" xmlns="http://www.w3.org/2000/svg">
<path d="M44.3823 37.9309L32.1845 36.6386C31.1282 36.5251 30.3903 37.6813 30.9805 38.5251L33.2337 41.7477L30.9805 44.9702C30.4245 45.7659 31.044 46.8641 32.0434 46.8641H34.8556C34.8554 46.8911 34.8542 46.9181 34.8542 46.9452C34.8542 51.916 39.0955 55.9599 44.3089 55.9599C47.3868 55.9599 50.2817 54.5241 52.052 52.1192C52.0678 52.0978 52.0812 52.0753 52.0953 52.0534C52.1064 52.0393 52.1186 52.0265 52.129 52.0118C53.1981 50.514 53.7634 48.7621 53.7634 46.9454C53.7636 41.9979 49.5617 37.9687 44.3823 37.9309ZM44.3089 53.5234C40.5045 53.5234 37.4096 50.5724 37.4096 46.9452C37.4096 46.9181 37.412 46.8911 37.4123 46.864H46.3571L49.496 51.2794C48.1928 52.6947 46.3042 53.5234 44.3089 53.5234ZM50.8963 48.9067L48.0922 44.9624C47.8543 44.628 47.4583 44.4278 47.0347 44.4278H34.4309L35.8323 42.4235C36.1183 42.0142 36.1183 41.4811 35.8322 41.072L34.6274 39.3489L44.1679 40.3597C44.2149 40.3645 44.262 40.3671 44.3091 40.3671C48.1134 40.3671 51.2083 43.3182 51.2083 46.9454C51.2081 47.6175 51.1022 48.2772 50.8963 48.9067Z" fill="#3683E9"/>
<path d="M49.7605 56.123H38.8579C35.899 56.123 33.4917 58.4183 33.4917 61.2395V75.533C33.4917 76.206 34.0636 76.7513 34.7694 76.7513H53.849C54.5547 76.7513 55.1267 76.206 55.1267 75.533V61.2395C55.1265 58.4183 52.7193 56.123 49.7605 56.123ZM45.2622 58.5596L44.7512 60.0215H43.8672L43.3561 58.5596H45.2622ZM44.0544 62.4578H44.5638L45.6796 69.9049L44.3091 71.2115L42.9386 69.9048L44.0544 62.4578ZM52.5713 74.315H36.0469V61.2395C36.0469 59.7618 37.308 58.5596 38.8577 58.5596H40.6625L41.6388 61.352L40.3185 70.1632C40.2616 70.5428 40.3956 70.9256 40.6798 71.1968L43.4054 73.7956C43.8978 74.2649 44.72 74.2649 45.2124 73.7956L47.938 71.1968C48.2223 70.9256 48.3563 70.5427 48.2993 70.1632L46.9791 61.352L47.9555 58.5596H49.7603C51.3102 58.5596 52.5711 59.7619 52.5711 61.2395V74.315H52.5713Z" fill="#3683E9"/>
<path d="M87.8325 33.9163C87.8125 33.2672 87.2378 32.7344 86.5567 32.7344H62.0258C61.3311 32.7344 60.748 33.2899 60.748 33.9526V49.5456C60.748 50.2185 61.32 50.7639 62.0258 50.7639H65.6032C66.3089 50.7639 66.8809 50.2185 66.8809 49.5456C66.8809 48.8727 66.3089 48.3273 65.6032 48.3273H63.3035V36.4433L73.5069 44.0099C73.9629 44.3482 74.6197 44.3482 75.0757 44.0099L85.279 36.4433V48.3273H71.3953C70.6895 48.3273 70.1175 48.8727 70.1175 49.5456C70.1175 50.2185 70.6895 50.7639 71.3953 50.7639H86.5567C87.2624 50.7639 87.8344 50.2185 87.8344 49.5456V33.9526C87.8344 33.9403 87.8329 33.9285 87.8325 33.9163ZM74.2912 41.505L65.7495 35.1707H82.8329L74.2912 41.505Z" fill="#3683E9"/>
<path d="M44.4793 0.248047C37.1055 0.248047 31.1064 5.96791 31.1064 12.9986C31.1064 20.0293 37.1055 25.7491 44.4793 25.7491C45.185 25.7491 45.757 25.2038 45.757 24.5309C45.757 23.858 45.185 23.3126 44.4793 23.3126C38.5144 23.3126 33.6619 18.6857 33.6619 12.9986C33.6619 7.31148 38.5146 2.68455 44.4793 2.68455C50.8484 2.68455 55.2966 6.58701 55.2966 12.1749C55.2966 16.7056 51.995 17.9256 50.0765 18.2521V7.23237C50.0765 6.55945 49.5046 6.01412 48.7988 6.01412C48.093 6.01412 47.5211 6.55945 47.5211 7.23237V7.8312C46.6445 7.20384 45.6002 6.83779 44.4791 6.83779C41.3929 6.83779 38.8818 9.60143 38.8818 12.9984C38.8818 16.3954 41.3929 19.1591 44.4791 19.1591C45.6004 19.1591 46.6446 18.793 47.5211 18.1657V19.5882C47.5211 20.2611 48.093 20.8064 48.7988 20.8064C49.2709 20.8064 51.7424 20.7379 54.0116 19.3857C55.7635 18.3416 57.8519 16.2434 57.8519 12.1748C57.8521 5.26403 52.2279 0.248047 44.4793 0.248047ZM44.4793 16.7229C42.8018 16.7229 41.4372 15.0522 41.4372 12.9986C41.4372 10.945 42.802 9.2743 44.4793 9.2743C46.1565 9.2743 47.5213 10.945 47.5213 12.9986C47.5213 15.0522 46.1567 16.7229 44.4793 16.7229Z" fill="#3683E9"/>
<path d="M19.7781 23.6377H6.14989C3.19102 23.6377 0.783691 25.933 0.783691 28.7542V54.7424C0.783691 57.5636 3.19102 59.8589 6.14989 59.8589H19.7782C22.7371 59.8589 25.1444 57.5636 25.1444 54.7424V28.7542C25.1443 25.933 22.7369 23.6377 19.7781 23.6377ZM6.14989 26.074H19.7782C20.8679 26.074 21.8124 26.6695 22.2787 27.5359H3.64939C4.11559 26.6695 5.06022 26.074 6.14989 26.074ZM22.5889 54.7424C22.5889 56.2202 21.3278 57.4224 19.7781 57.4224H6.14989C4.59998 57.4224 3.3391 56.2201 3.3391 54.7424V53.3617H22.5889V54.7424ZM22.5889 50.9254H3.33893V29.9723H22.5889V50.9254Z" fill="#3683E9"/>
<path d="M13.0491 54.1738H12.8788C12.173 54.1738 11.6011 54.7192 11.6011 55.3921C11.6011 56.065 12.173 56.6103 12.8788 56.6103H13.0491C13.7549 56.6103 14.3268 56.065 14.3268 55.3921C14.3268 54.719 13.7549 54.1738 13.0491 54.1738Z" fill="#3683E9"/>
<path d="M52.7542 22.3154C52.4138 22.2095 52.0686 22.109 51.7284 22.0171C51.0494 21.8339 50.3431 22.2097 50.1508 22.857C49.9583 23.5043 50.3528 24.1777 51.0317 24.3612C51.3398 24.4445 51.6526 24.5353 51.9617 24.6314C52.0933 24.6724 52.2269 24.6919 52.3582 24.6919C52.8961 24.6919 53.3968 24.3652 53.5726 23.8512C53.7915 23.2117 53.4252 22.524 52.7542 22.3154Z" fill="#3683E9"/>
<path d="M59.6947 25.5901C58.9857 25.125 58.2456 24.6873 57.4953 24.2895C56.8784 23.9625 56.1006 24.1742 55.7578 24.7622C55.4151 25.3502 55.637 26.092 56.2536 26.4188C56.9335 26.7791 57.6041 27.1757 58.2464 27.5971C58.4673 27.7426 58.7196 27.8121 58.9694 27.8121C59.3759 27.8121 59.7753 27.6276 60.0231 27.2843C60.423 26.73 60.276 25.9715 59.6947 25.5901Z" fill="#3683E9"/>
<path d="M64.396 29.4991C64.1569 29.2492 63.9089 28.9997 63.6588 28.7576C63.1633 28.2783 62.3544 28.2729 61.852 28.7452C61.3494 29.2176 61.3436 29.9887 61.8389 30.4679C62.0658 30.6877 62.291 30.914 62.5076 31.1407C62.7595 31.4042 63.1054 31.5381 63.4522 31.5381C63.7596 31.5381 64.0675 31.4333 64.3127 31.2202C64.8339 30.767 64.8712 29.9965 64.396 29.4991Z" fill="#3683E9"/>
<path d="M29.89 26.4013C29.4686 25.8617 28.6684 25.7493 28.1023 26.151C27.8219 26.3499 27.5368 26.5605 27.2551 26.7771C26.7057 27.1994 26.6195 27.9662 27.0623 28.4901C27.3146 28.7887 27.6844 28.9437 28.0577 28.9437C28.3391 28.9437 28.6224 28.8555 28.8587 28.6739C29.1147 28.4773 29.3734 28.286 29.6274 28.1059C30.1937 27.7042 30.3114 26.9412 29.89 26.4013Z" fill="#3683E9"/>
<path d="M34.5967 24.0204C34.3005 23.4097 33.5405 23.1436 32.9007 23.4268C32.5779 23.5691 32.2535 23.7202 31.9357 23.8753C31.3078 24.1824 31.0597 24.9164 31.3818 25.5152C31.6081 25.9357 32.0556 26.1778 32.5197 26.1778C32.7157 26.1778 32.915 26.1343 33.1017 26.0432C33.389 25.9028 33.6827 25.7663 33.9742 25.6374C34.6147 25.3549 34.8934 24.6309 34.5967 24.0204Z" fill="#3683E9"/>
<path d="M31.31 66.8805C31.0365 66.7179 30.7622 66.5478 30.4953 66.3752C29.9116 65.9978 29.1169 66.1424 28.7206 66.6991C28.3243 67.2559 28.4765 68.0135 29.0603 68.3912C29.3548 68.5817 29.6571 68.7692 29.9589 68.9487C30.5506 69.2998 31.3508 69.1218 31.7189 68.5588C32.092 67.9877 31.909 67.2363 31.31 66.8805Z" fill="#3683E9"/>
<path d="M28.2878 64.7658C27.9369 64.4788 27.5907 64.1791 27.2585 63.8748C26.7494 63.4086 25.941 63.4245 25.452 63.9092C24.963 64.3944 24.9795 65.1655 25.4881 65.6316C25.8546 65.9673 26.237 66.2982 26.6238 66.615C27.1524 67.0473 27.9724 66.987 28.4255 66.4835C28.8851 65.9732 28.8234 65.204 28.2878 64.7658Z" fill="#3683E9"/>
<path d="M25.3641 61.9333C25.1574 61.6958 24.9533 61.4522 24.7578 61.209C24.3285 60.6748 23.5265 60.5734 22.9665 60.9829C22.4064 61.3922 22.3002 62.1568 22.7293 62.6908C22.9449 62.9591 23.17 63.2281 23.3982 63.49C23.8429 64.0007 24.6618 64.0728 25.1975 63.6489C25.7405 63.2191 25.815 62.4511 25.3641 61.9333Z" fill="#3683E9"/>
<path d="M69.2504 53.714C68.5824 53.4985 67.8568 53.8398 67.6305 54.4773C67.5269 54.7695 67.4157 55.0626 67.3008 55.3485C67.0483 55.9769 67.3775 56.6812 68.0361 56.9221C68.6865 57.1599 69.4373 56.8406 69.6865 56.221C69.8135 55.9049 69.9361 55.5811 70.0507 55.2584C70.2774 54.6213 69.919 53.9297 69.2504 53.714Z" fill="#3683E9"/>
<path d="M64.2528 62.7406C63.7329 62.2857 62.9246 62.3188 62.4474 62.8142C62.0317 63.2461 61.5929 63.6688 61.1438 64.0704C60.6292 64.5308 60.6033 65.3016 61.0858 65.7925C61.5619 66.2765 62.384 66.3015 62.892 65.8478C63.3874 65.4047 63.8711 64.9383 64.33 64.462C64.8071 63.9663 64.7726 63.1958 64.2528 62.7406Z" fill="#3683E9"/>
<path d="M67.4598 58.0838C66.8465 57.7505 66.0663 57.9549 65.7174 58.54C65.4131 59.0498 65.0844 59.5549 64.741 60.0413C64.3469 60.5994 64.5018 61.3564 65.087 61.7321C65.665 62.1031 66.4716 61.9525 66.8603 61.4022C67.2394 60.8654 67.6019 60.3079 67.9379 59.7451C68.2873 59.1604 68.0732 58.4166 67.4598 58.0838Z" fill="#3683E9"/>
<path d="M60.0367 66.5985C59.6361 66.0442 58.8404 65.9048 58.2598 66.2864C57.9939 66.4609 57.7212 66.6329 57.4486 66.7972C56.8524 67.157 56.6749 67.9095 57.0521 68.4782C57.4243 69.0389 58.226 69.2114 58.8151 68.8562C59.1155 68.675 59.4165 68.4855 59.7094 68.2927C60.2905 67.9109 60.4369 67.1523 60.0367 66.5985Z" fill="#3683E9"/>
</svg>
