<svg width="67" height="67" viewBox="0 0 67 67" fill="none" xmlns="http://www.w3.org/2000/svg">
<path d="M11.784 51.8137C10.846 51.8137 9.94429 52.0478 9.14431 52.4874C4.93023 47.0854 2.61719 40.3747 2.61719 33.5C2.61719 16.4709 16.4709 2.61719 33.5 2.61719C35.5702 2.61719 37.6395 2.82319 39.6504 3.22957C40.3578 3.3727 41.049 2.91469 41.1921 2.20621C41.3352 1.49773 40.8772 0.807648 40.1687 0.664009C37.9876 0.223381 35.744 0 33.5 0C24.552 0 16.1392 3.48464 9.8119 9.8119C3.48464 16.1392 0 24.552 0 33.5C0 41.027 2.55585 48.3725 7.20902 54.2611C6.60993 55.1562 6.2879 56.2082 6.2879 57.3098C6.2879 58.7778 6.85989 60.158 7.89808 61.1957C8.93575 62.2339 10.3159 62.8059 11.784 62.8059C13.2521 62.8059 14.6322 62.2339 15.6704 61.1957C16.7086 60.158 17.2801 58.7773 17.2801 57.3092C17.2801 55.8417 16.7086 54.461 15.6704 53.4233C14.6322 52.3852 13.2521 51.8137 11.784 51.8137ZM13.8195 59.3452C13.2761 59.8891 12.5528 60.1887 11.784 60.1887C11.0152 60.1887 10.2924 59.8891 9.74851 59.3452C9.20463 58.8014 8.90508 58.0786 8.90508 57.3098C8.90508 56.5405 9.20463 55.8177 9.74851 55.2738C10.2919 54.7299 11.0152 54.4309 11.784 54.4309C12.5528 54.4309 13.2756 54.7304 13.8195 55.2738C14.3633 55.8177 14.6629 56.5405 14.6629 57.3098C14.6629 58.0786 14.3633 58.8014 13.8195 59.3452Z" fill="#3683E9"/>
<path d="M59.7901 12.7375C61.2127 10.6034 60.9842 7.68562 59.1026 5.80401C58.0644 4.76633 56.6842 4.19434 55.2162 4.19434C53.7481 4.19434 52.3679 4.76633 51.3297 5.80401C50.2916 6.84219 49.7201 8.22235 49.7201 9.69043C49.7201 11.1585 50.2916 12.5387 51.3297 13.5769C52.3679 14.615 53.7481 15.1865 55.2162 15.1865C56.1542 15.1865 57.0559 14.9524 57.8558 14.5128C62.0699 19.9154 64.383 26.6255 64.383 33.5002C64.383 50.5293 50.5292 64.383 33.5002 64.383C31.4504 64.383 29.4006 64.1811 27.4085 63.7824C26.7001 63.6408 26.0105 64.1003 25.8684 64.8088C25.7268 65.5178 26.1863 66.2069 26.8948 66.349C29.0555 66.7809 31.2781 67.0002 33.5002 67.0002C42.4482 67.0002 50.861 63.5155 57.1883 57.1883C63.5155 50.861 67.0002 42.4482 67.0002 33.5002C67.0002 25.9727 64.4438 18.6267 59.7901 12.7375ZM53.1807 11.7264C52.6368 11.1825 52.3373 10.4597 52.3373 9.69043C52.3373 8.92163 52.6368 8.19884 53.1807 7.65495C53.7241 7.11107 54.4474 6.81152 55.2162 6.81152C55.985 6.81152 56.7083 7.11107 57.2521 7.65495C58.3742 8.77748 58.3742 10.6039 57.2521 11.7264C56.7083 12.2698 55.985 12.5693 55.2162 12.5693C54.4469 12.5693 53.7241 12.2698 53.1807 11.7264Z" fill="#3683E9"/>
<path d="M28.1001 56.0078C28.1001 56.7306 28.6864 57.3164 29.4087 57.3164H37.591C38.3138 57.3164 38.8996 56.7306 38.8996 56.0078V53.4709C40.6202 53.0078 42.2651 52.3259 43.8109 51.4354L45.602 53.2265C45.8474 53.4719 46.1802 53.6099 46.5278 53.6099C46.8743 53.6099 47.2076 53.4719 47.453 53.226L53.2363 47.4386C53.747 46.9274 53.747 46.0988 53.2363 45.5881L51.4473 43.799C52.3377 42.2533 53.0196 40.6083 53.4827 38.8877H56.0099C56.7327 38.8877 57.3185 38.3019 57.3185 37.5791V29.3968C57.3185 28.674 56.7327 28.0882 56.0099 28.0882H53.4822C53.0191 26.3682 52.3377 24.7232 51.4473 23.1774L53.2266 21.3981C53.472 21.1527 53.61 20.8194 53.61 20.4723C53.6095 20.1253 53.4715 19.792 53.2261 19.5466L47.4381 13.7632C46.9275 13.2526 46.0989 13.2526 45.5877 13.7637L43.8109 15.5411C42.2651 14.6506 40.6202 13.9687 38.8996 13.5056V10.9922C38.8996 10.2694 38.3138 9.68359 37.591 9.68359H29.4087C28.6864 9.68359 28.1001 10.2694 28.1001 10.9922V13.5061C26.38 13.9687 24.7351 14.6506 23.1893 15.5411L21.412 13.7637C20.9013 13.2531 20.0727 13.2526 19.5615 13.7632L13.7741 19.5471C13.5282 19.7925 13.3902 20.1253 13.3902 20.4723C13.3902 20.8194 13.5282 21.1527 13.7736 21.3981L15.5529 23.1774C14.6625 24.7232 13.9806 26.3677 13.5175 28.0882H10.9948C10.272 28.0882 9.68624 28.674 9.68624 29.3963L9.68164 37.5786C9.68113 37.9257 9.81915 38.259 10.0645 38.5043C10.3099 38.7497 10.6426 38.8877 10.9902 38.8877H13.5175C13.9806 40.6083 14.6625 42.2533 15.5529 43.799L13.7638 45.5881C13.2532 46.0988 13.2527 46.9274 13.7638 47.4386L19.5472 53.226C19.7926 53.4714 20.1253 53.6099 20.4724 53.6099H20.4729C20.82 53.6099 21.1528 53.4719 21.3982 53.2265L23.1888 51.4354C24.7351 52.3259 26.38 53.0078 28.1001 53.4709V56.0078ZM23.702 48.6833C23.1842 48.3484 22.5028 48.421 22.0663 48.8571L20.4729 50.4504L16.5395 46.5139L18.1313 44.9216C18.5673 44.4855 18.6399 43.8042 18.3051 43.2863C17.1186 41.4502 16.2844 39.4377 15.8264 37.3041C15.6966 36.7015 15.1639 36.2705 14.547 36.2705H12.2993L12.3024 30.7054H14.547C15.1639 30.7054 15.6966 30.275 15.8264 29.6719C16.2844 27.5387 17.1186 25.5263 18.3051 23.6901C18.6399 23.1723 18.5673 22.4909 18.1313 22.0549L16.5497 20.4728L20.4862 16.5394L22.0663 18.1199C22.5028 18.556 23.1837 18.628 23.702 18.2937C25.5376 17.1073 27.5501 16.2731 29.6837 15.8151C30.2864 15.6852 30.7173 15.1521 30.7173 14.5356V12.3008H36.2824V14.5351C36.2824 15.1521 36.7128 15.6852 37.316 15.8146C39.4491 16.2731 41.4621 17.1068 43.2977 18.2932C43.8155 18.628 44.4969 18.556 44.9329 18.1194L46.5134 16.5394L50.45 20.4728L48.8684 22.0544C48.4319 22.4909 48.3598 23.1723 48.6946 23.6901C49.881 25.5263 50.7147 27.5387 51.1733 29.6719C51.3026 30.275 51.8357 30.7054 52.4527 30.7054H54.7014V36.2705H52.4527C51.8357 36.2705 51.3031 36.7015 51.1733 37.3041C50.7153 39.4372 49.881 41.4502 48.6946 43.2858C48.3598 43.8042 48.4324 44.4855 48.8684 44.9216L50.4602 46.5134L46.5267 50.4499L44.9334 48.8571C44.4969 48.4205 43.8155 48.3484 43.2977 48.6833C41.4616 49.8697 39.4491 50.7034 37.316 51.1619C36.7128 51.2918 36.2824 51.8244 36.2824 52.4414V54.6992H30.7173V52.4414C30.7173 51.8249 30.2864 51.2918 29.6837 51.1619C27.5506 50.7039 25.5381 49.8697 23.702 48.6833Z" fill="#3683E9"/>
<path d="M44.313 33.5003C44.313 27.538 39.4625 22.6875 33.5003 22.6875C27.538 22.6875 22.6875 27.538 22.6875 33.5003C22.6875 39.4625 27.538 44.313 33.5003 44.313C39.4625 44.313 44.313 39.4625 44.313 33.5003ZM25.3047 33.5003C25.3047 28.981 28.981 25.3047 33.5003 25.3047C38.0195 25.3047 41.6958 28.9815 41.6958 33.5003C41.6958 38.019 38.0195 41.6958 33.5003 41.6958C28.981 41.6958 25.3047 38.0195 25.3047 33.5003Z" fill="#3683E9"/>
<path d="M45.5488 4.9488C45.8934 4.9488 46.2307 4.80874 46.474 4.56542C46.7174 4.32057 46.8574 3.9832 46.8574 3.63867C46.8574 3.29619 46.7179 2.95831 46.474 2.71346C46.2307 2.47014 45.8934 2.33008 45.5488 2.33008C45.2033 2.33008 44.8674 2.47014 44.6241 2.71346C44.3803 2.95831 44.2402 3.29465 44.2402 3.63867C44.2402 3.98422 44.3803 4.32057 44.6241 4.56542C44.8674 4.80874 45.2033 4.9488 45.5488 4.9488Z" fill="#3683E9"/>
<path d="M21.5078 62.0742C21.1638 62.0742 20.8259 62.2143 20.5826 62.4576C20.3393 62.7009 20.1992 63.0388 20.1992 63.3828C20.1992 63.7284 20.3393 64.0647 20.5826 64.308C20.8259 64.5513 21.1638 64.6914 21.5078 64.6914C21.8518 64.6914 22.1897 64.5513 22.433 64.308C22.6763 64.0647 22.8164 63.7268 22.8164 63.3828C22.8164 63.0388 22.6763 62.7009 22.433 62.4576C22.1897 62.2143 21.8518 62.0742 21.5078 62.0742Z" fill="#3683E9"/>
</svg>
