<svg width="63" height="63" viewBox="0 0 63 63" fill="none" xmlns="http://www.w3.org/2000/svg">
<path d="M16.2581 24.5741V16.2581H22.3548V0H8.12903V16.2581H14.2258V24.5741C13.5765 24.8057 13.0288 25.2447 12.6671 25.8198C11.7525 24.9368 10.5139 24.3871 9.14516 24.3871C6.34369 24.3871 4.06452 26.6663 4.06452 29.4677C4.06452 32.2692 6.34369 34.5484 9.14516 34.5484C10.2934 34.5484 11.342 34.1511 12.1935 33.5058V34.5484H9.14516H5.08065C2.27918 34.5484 0 36.8276 0 39.629V47.7581C0 49.4387 1.36771 50.8064 3.04839 50.8064C3.40505 50.8064 3.74748 50.7445 4.06452 50.6327V63H14.2258V41.5587C16.5416 41.0862 18.2903 39.0346 18.2903 36.5806V27.4355C18.2903 26.1125 17.4378 24.9947 16.2581 24.5741ZM10.1613 14.2258V2.03226H20.3226V14.2258H10.1613ZM9.14516 32.5161C7.46448 32.5161 6.09677 31.1484 6.09677 29.4677C6.09677 27.7871 7.46448 26.4194 9.14516 26.4194C10.8258 26.4194 12.1935 27.7871 12.1935 29.4677C12.1935 31.1484 10.8258 32.5161 9.14516 32.5161ZM4.06452 47.7581C4.06452 48.319 3.60929 48.7742 3.04839 48.7742C2.48748 48.7742 2.03226 48.319 2.03226 47.7581V42.6774H4.06452V47.7581ZM4.06452 40.6452H2.03226V39.629C2.03226 37.9484 3.39997 36.5806 5.08065 36.5806H8.12903V44.7097H6.09677V39.629H4.06452V40.6452ZM8.12903 60.9677H6.09677V58.9355H8.12903V60.9677ZM12.1935 60.9677H10.1613V58.9355H12.1935V60.9677ZM12.1935 56.9032H10.1613V48.7742H8.12903V56.9032H6.09677V46.7419H12.1935V56.9032ZM16.2581 36.5806C16.2581 38.2613 14.8904 39.629 13.2097 39.629H12.1935V44.7097H10.1613V36.5806H14.2258V35.5645H16.2581V36.5806ZM16.2581 33.5323H14.2258V27.4355C14.2258 26.8746 14.681 26.4194 15.2419 26.4194C15.8028 26.4194 16.2581 26.8746 16.2581 27.4355V33.5323Z" fill="#3683E9"/>
<path d="M16.2579 4.06445H12.1934V6.09671H14.2256V10.1612H12.1934V12.1935H18.2901V10.1612H16.2579V4.06445Z" fill="#3683E9"/>
<path d="M36.5803 24.5741V16.2581H42.6771V0H28.4513V16.2581H34.5481V24.5741C33.8988 24.8057 33.3511 25.2447 32.9893 25.8198C32.0748 24.9368 30.8362 24.3871 29.4674 24.3871C26.666 24.3871 24.3868 26.6663 24.3868 29.4677C24.3868 32.2692 26.666 34.5484 29.4674 34.5484C30.6157 34.5484 31.6643 34.1511 32.5158 33.5058V34.5484H29.4674H25.4029C22.6014 34.5484 20.3223 36.8276 20.3223 39.629V47.7581C20.3223 49.4387 21.69 50.8064 23.3707 50.8064C23.7273 50.8064 24.0698 50.7445 24.3868 50.6327V63H34.5481V41.5587C36.8638 41.0862 38.6126 39.0346 38.6126 36.5806V27.4355C38.6126 26.1125 37.7601 24.9947 36.5803 24.5741ZM30.4836 14.2258V2.03226H40.6449V14.2258H30.4836ZM29.4674 32.5161C27.7868 32.5161 26.419 31.1484 26.419 29.4677C26.419 27.7871 27.7868 26.4194 29.4674 26.4194C31.1481 26.4194 32.5158 27.7871 32.5158 29.4677C32.5158 31.1484 31.1481 32.5161 29.4674 32.5161ZM30.4836 36.5806L29.4674 37.9351L28.4513 36.5806H30.4836ZM24.3868 47.7581C24.3868 48.319 23.9316 48.7742 23.3707 48.7742C22.8098 48.7742 22.3545 48.319 22.3545 47.7581V46.7419H24.3868V47.7581ZM28.4513 60.9677H26.419V58.9355H28.4513V60.9677ZM32.5158 60.9677H30.4836V58.9355H32.5158V60.9677ZM32.5158 56.9032H30.4836V48.7742H28.4513V56.9032H26.419V46.7419H32.5158V56.9032ZM36.5803 36.5806C36.5803 38.2613 35.2126 39.629 33.5319 39.629H32.5158V44.7097H26.419V39.629H24.3868V44.7097H22.3545V39.629C22.3545 37.9484 23.7222 36.5806 25.4029 36.5806H25.911L29.4674 41.3229L33.0239 36.5806H34.5481V30.4839H36.5803V36.5806ZM36.5803 28.4516H34.5481V27.4355C34.5481 26.8746 35.0033 26.4194 35.5642 26.4194C36.1251 26.4194 36.5803 26.8746 36.5803 27.4355V28.4516Z" fill="#3683E9"/>
<path d="M63.0004 16.2581V0H48.7745V16.2581H54.8713V24.5741C54.222 24.8057 53.6743 25.2447 53.3126 25.8198C52.3981 24.9368 51.1594 24.3871 49.7907 24.3871C46.9892 24.3871 44.71 26.6663 44.71 29.4677C44.71 32.2692 46.9892 34.5484 49.7907 34.5484C50.9389 34.5484 51.9875 34.1511 52.8391 33.5058V34.5484H49.7907H45.7262C42.9247 34.5484 40.6455 36.8276 40.6455 39.629V47.7581C40.6455 49.4387 42.0132 50.8064 43.6939 50.8064C44.0506 50.8064 44.393 50.7445 44.71 50.6327V63H54.8713V41.5587C57.1871 41.0862 58.9358 39.0346 58.9358 36.5806V27.4355C58.9358 26.1125 58.0833 24.9947 56.9036 24.5741V16.2581H63.0004ZM49.7907 32.5161C48.11 32.5161 46.7423 31.1484 46.7423 29.4677C46.7423 27.7871 48.11 26.4194 49.7907 26.4194C51.4714 26.4194 52.8391 27.7871 52.8391 29.4677C52.8391 31.1484 51.4714 32.5161 49.7907 32.5161ZM44.71 47.7581C44.71 48.319 44.2548 48.7742 43.6939 48.7742C43.133 48.7742 42.6778 48.319 42.6778 47.7581V43.6935H44.71V47.7581ZM48.7745 60.9677H46.7423V58.9355H48.7745V60.9677ZM52.8391 60.9677H50.8068V58.9355H52.8391V60.9677ZM52.8391 56.9032H50.8068V48.7742H48.7745V56.9032H46.7423V46.7419H52.8391V56.9032ZM56.9036 36.5806C56.9036 38.2613 55.5359 39.629 53.8552 39.629H52.8391V44.7097H46.7423V39.629H44.71V41.6613H42.6778V39.629C42.6778 37.9484 44.0455 36.5806 45.7262 36.5806H54.8713V34.5484H56.9036V36.5806ZM56.9036 32.5161H54.8713V27.4355C54.8713 26.8746 55.3265 26.4194 55.8874 26.4194C56.4484 26.4194 56.9036 26.8746 56.9036 27.4355V32.5161ZM50.8068 14.2258V2.03226H60.9681V14.2258H50.8068Z" fill="#3683E9"/>
<path d="M56.3953 4.06445H52.8389V6.09671H56.3953C56.6748 6.09671 56.9034 6.32534 56.9034 6.60478C56.9034 6.88421 56.6748 7.11284 56.3953 7.11284H52.8389V9.1451H56.3953C56.6748 9.1451 56.9034 9.37373 56.9034 9.65316C56.9034 9.9326 56.6748 10.1612 56.3953 10.1612H52.8389V12.1935H56.3953C57.7966 12.1935 58.9356 11.0544 58.9356 9.65316C58.9356 9.08108 58.7456 8.55371 58.4266 8.12897C58.7456 7.70423 58.9356 7.17686 58.9356 6.60478C58.9356 5.20353 57.7966 4.06445 56.3953 4.06445Z" fill="#3683E9"/>
<path d="M38.6134 6.96449C38.6134 5.3651 37.3127 4.06445 35.7133 4.06445H35.4176C33.8172 4.06445 32.5166 5.3651 32.5166 6.96449V7.11284H34.5489V6.96449C34.5489 6.48691 34.9391 6.09671 35.4166 6.09671H35.7123C36.1909 6.09671 36.5811 6.48691 36.5811 6.96449C36.5811 7.29473 36.3972 7.59245 36.1005 7.74081L32.5166 9.53326V12.1935H38.6134V10.1612H35.8048L37.0099 9.55866C37.9996 9.06381 38.6134 8.07003 38.6134 6.96449Z" fill="#3683E9"/>
</svg>
