<svg width="68" height="68" viewBox="0 0 68 68" fill="none" xmlns="http://www.w3.org/2000/svg">
<path d="M62.9 0H5.1C2.28823 0 0 2.28823 0 5.1V62.9C0 65.7118 2.28823 68 5.1 68H62.9C65.7118 68 68 65.7118 68 62.9V5.1C68 2.28823 65.7118 0 62.9 0ZM65.7333 62.9C65.7333 64.4628 64.4628 65.7333 62.9 65.7333H5.1C3.53826 65.7333 2.26671 64.4628 2.26671 62.9V5.1C2.26671 3.53706 3.53826 2.26671 5.1 2.26671H62.9C64.4617 2.26671 65.7333 3.5372 65.7333 5.1V62.9Z" fill="#3683E9"/>
<path d="M10.1998 4.5332H5.66649C5.04095 4.5332 4.5332 5.03975 4.5332 5.66649V10.1999C4.5332 10.8267 5.04095 11.3332 5.66649 11.3332H10.1998C10.8253 11.3332 11.3331 10.8267 11.3331 10.1999V5.66663C11.3331 5.03988 10.8253 4.5332 10.1998 4.5332ZM9.06649 9.06663H6.79978V6.79992H9.06649V9.06663Z" fill="#3683E9"/>
<path d="M19.2672 4.5332H14.7339C14.1083 4.5332 13.6006 5.03975 13.6006 5.66649V10.1999C13.6006 10.8267 14.1083 11.3332 14.7339 11.3332H19.2672C19.8927 11.3332 20.4005 10.8267 20.4005 10.1999V5.66663C20.4005 5.03988 19.8927 4.5332 19.2672 4.5332ZM18.1337 9.06663H15.867V6.79992H18.1337V9.06663Z" fill="#3683E9"/>
<path d="M28.3336 4.5332H23.8003C23.1747 4.5332 22.667 5.03975 22.667 5.66649V10.1999C22.667 10.8267 23.1747 11.3332 23.8003 11.3332H28.3336C28.9591 11.3332 29.4669 10.8267 29.4669 10.1999V5.66663C29.467 5.03988 28.9592 4.5332 28.3336 4.5332ZM27.2003 9.06663H24.9336V6.79992H27.2003V9.06663Z" fill="#3683E9"/>
<path d="M62.9 0H5.1C2.28823 0 0 2.28823 0 5.1V14.7333C0 15.36 0.507742 15.8666 1.13329 15.8666H66.8666C67.4921 15.8666 67.9999 15.36 67.9999 14.7333V5.1C68 2.28823 65.7118 0 62.9 0ZM65.7333 13.6H2.26671V5.1C2.26671 3.53706 3.53826 2.26671 5.1 2.26671H62.9C64.4617 2.26671 65.7333 3.5372 65.7333 5.1V13.6Z" fill="#3683E9"/>
<path d="M41.9335 56.667H32.8668C30.9923 56.667 29.4668 58.1925 29.4668 60.067C29.4668 61.9415 30.9923 63.467 32.8668 63.467H41.9335C43.808 63.467 45.3335 61.9415 45.3335 60.067C45.3335 58.1925 43.808 56.667 41.9335 56.667ZM41.9335 61.2003H32.8668C32.2413 61.2003 31.7335 60.6925 31.7335 60.067C31.7335 59.4414 32.2413 58.9337 32.8668 58.9337H41.9335C42.5591 58.9337 43.0668 59.4414 43.0668 60.067C43.0669 60.6925 42.5592 61.2003 41.9335 61.2003Z" fill="#3683E9"/>
<path d="M62.3334 18.1328H30.6001C29.9745 18.1328 29.4668 18.6394 29.4668 19.2661V23.7995C29.4668 24.4263 29.9745 24.9328 30.6001 24.9328H62.3334C62.9589 24.9328 63.4667 24.4263 63.4667 23.7995V19.2662C63.4668 18.6395 62.9591 18.1328 62.3334 18.1328ZM61.2001 22.6662H31.7334V20.3995H61.2001V22.6662Z" fill="#3683E9"/>
<path d="M62.3334 27.2002H30.6001C29.9745 27.2002 29.4668 27.7067 29.4668 28.3335V32.8668C29.4668 33.4935 29.9745 34.0001 30.6001 34.0001H62.3334C62.9589 34.0001 63.4667 33.4935 63.4667 32.8668V28.3335C63.4668 27.7067 62.9591 27.2002 62.3334 27.2002ZM61.2001 31.7335H31.7334V29.4668H61.2001V31.7335Z" fill="#3683E9"/>
<path d="M62.3334 36.2666H30.6001C29.9745 36.2666 29.4668 36.7732 29.4668 37.3999V53.2666C29.4668 53.8933 29.9745 54.3999 30.6001 54.3999H62.3334C62.9589 54.3999 63.4667 53.8933 63.4667 53.2666V37.3999C63.4668 36.7732 62.9591 36.2666 62.3334 36.2666ZM61.2001 52.1332H31.7334V38.5332H61.2001V52.1332Z" fill="#3683E9"/>
<path d="M26.0665 18.1328H5.66649C5.04095 18.1328 4.5332 18.6394 4.5332 19.2661V37.3995C4.5332 38.0263 5.04095 38.5328 5.66649 38.5328H26.0665C26.692 38.5328 27.1998 38.0263 27.1998 37.3995V19.2662C27.1998 18.6395 26.692 18.1328 26.0665 18.1328ZM24.9331 36.2662H6.79978V20.3995H24.9331V36.2662Z" fill="#3683E9"/>
<path d="M15.8667 22.667C15.2411 22.667 14.7334 23.1735 14.7334 23.8003V32.867C14.7334 33.4937 15.2411 34.0003 15.8667 34.0003C16.4922 34.0003 17 33.4937 17 32.867V23.8003C17 23.1735 16.4922 22.667 15.8667 22.667Z" fill="#3683E9"/>
<path d="M16.6679 22.9994C16.2259 22.5562 15.5074 22.5562 15.0654 22.9994L11.6654 26.3994C11.2222 26.8425 11.2222 27.5588 11.6654 28.0019C11.8864 28.2229 12.1766 28.3339 12.4667 28.3339C12.7569 28.3339 13.0469 28.2229 13.2679 28.0019L16.6679 24.6019C17.111 24.1588 17.111 23.4425 16.6679 22.9994Z" fill="#3683E9"/>
<path d="M20.0683 26.3994L16.6683 22.9994C16.2263 22.5562 15.5078 22.5562 15.0658 22.9994C14.6226 23.4426 14.6226 24.1588 15.0658 24.6019L18.4658 28.0019C18.6868 28.2229 18.977 28.3339 19.2671 28.3339C19.5572 28.3339 19.8473 28.2229 20.0683 28.0019C20.5114 27.5588 20.5114 26.8426 20.0683 26.3994Z" fill="#3683E9"/>
<path d="M58.9334 56.667H49.8667C49.2411 56.667 48.7334 57.1735 48.7334 57.8003C48.7334 58.427 49.2411 58.9336 49.8667 58.9336H58.9334C59.5589 58.9336 60.0667 58.427 60.0667 57.8003C60.0667 57.1735 59.5591 56.667 58.9334 56.667Z" fill="#3683E9"/>
<path d="M62.3334 61.2002H49.8667C49.2411 61.2002 48.7334 61.7067 48.7334 62.3335C48.7334 62.9602 49.2411 63.4668 49.8667 63.4668H62.3334C62.9589 63.4668 63.4667 62.9602 63.4667 62.3335C63.4667 61.7067 62.9591 61.2002 62.3334 61.2002Z" fill="#3683E9"/>
</svg>
