<svg width="26" height="24" viewBox="0 0 26 24" fill="none" xmlns="http://www.w3.org/2000/svg"><path d="M23.445 0H2.968C1.718 0 .706.972.706 2.171v19.658C.706 23.028 1.72 24 2.968 24h20.477c1.249 0 2.261-.972 2.261-2.171V2.17C25.706.972 24.694 0 23.445 0zM8.442 20.723a.645.645 0 0 1-.658.632H4.983a.645.645 0 0 1-.658-.632V9.45c0-.349.294-.631.658-.631h2.801c.364 0 .658.282.658.631v11.274zM6.384 7.755c-1.47 0-2.662-1.144-2.662-2.555 0-1.411 1.192-2.555 2.662-2.555s2.66 1.144 2.66 2.555c0 1.411-1.19 2.555-2.66 2.555zm16.699 13.02c0 .32-.271.58-.605.58H19.47a.593.593 0 0 1-.605-.58v-5.289c0-.789.241-3.457-2.147-3.457-1.853 0-2.229 1.826-2.304 2.646v6.1c0 .32-.271.58-.605.58h-2.908a.593.593 0 0 1-.605-.58V9.398c0-.321.271-.581.605-.581h2.908c.334 0 .605.26.605.58v.984c.687-.99 1.708-1.754 3.882-1.754 4.813 0 4.786 4.318 4.786 6.69v5.456z" fill="#fff"/></svg>