<svg width="22" height="25" viewBox="0 0 22 25" fill="none" xmlns="http://www.w3.org/2000/svg"><path d="M21.02 12.918a2.548 2.548 0 0 0-.803-1.38 2.553 2.553 0 0 0-1.43-.656c-1.711-.186-4.292-.28-7.743-.28-3.45 0-6.027.094-7.729.28a2.531 2.531 0 0 0-1.437.655 2.65 2.65 0 0 0-.809 1.381c-.242 1.08-.363 2.707-.363 4.883 0 2.214.121 3.841.363 4.883a2.55 2.55 0 0 0 .802 1.381c.414.372.89.586 1.43.642 1.712.195 4.293.293 7.743.293s6.032-.098 7.743-.293a2.441 2.441 0 0 0 1.423-.642c.41-.372.68-.832.81-1.38.241-1.08.362-2.707.362-4.884 0-2.213-.121-3.84-.363-4.883zm-14.412 1.41H5.115v7.938H3.72v-7.938H2.255v-1.312h4.353v1.312zm3.767 7.938H9.133v-.754c-.502.568-.977.851-1.423.851-.428 0-.698-.172-.81-.516-.073-.223-.11-.563-.11-1.019v-5.454h1.24v5.078c0 .297.006.46.015.488.028.195.125.293.293.293.251 0 .516-.195.795-.586v-5.273h1.242v6.892zm4.743-2.065c0 .679-.042 1.144-.125 1.395-.159.511-.489.767-.99.767-.447 0-.88-.256-1.298-.767v.67h-1.242v-9.25h1.242v3.028c.4-.502.832-.753 1.297-.753.502 0 .832.26.99.78.084.243.126.703.126 1.382V20.2zm4.716-1.144h-2.498v1.214c0 .642.214.962.642.962.307 0 .493-.167.558-.502.018-.093.028-.377.028-.851h1.27v.181c0 .456-.01.726-.029.81-.027.25-.125.502-.293.753-.334.493-.837.74-1.506.74-.642 0-1.144-.238-1.507-.712-.27-.344-.404-.884-.404-1.619V17.62c0-.735.13-1.274.39-1.619.363-.474.86-.71 1.493-.71.623 0 1.116.236 1.479.71.251.345.377.884.377 1.619v1.437z" fill="#fff"/><path d="M13.332 16.42c-.214 0-.423.103-.628.307v4.2c.205.204.414.306.628.306.363 0 .544-.311.544-.935v-2.943c0-.623-.181-.935-.544-.935zm4.632 0c-.418 0-.628.317-.628.949v.642h1.256v-.642c0-.633-.21-.949-.628-.949zM5.8 5.566v3.781h1.394v-3.78L8.882 0H7.46l-.948 3.67L5.52 0H4.04c.26.781.563 1.65.907 2.609.437 1.283.72 2.27.851 2.957zm4.952 3.879c.641 0 1.134-.237 1.478-.712.26-.344.39-.893.39-1.646V4.646c0-.744-.13-1.288-.39-1.633-.344-.474-.837-.711-1.479-.711-.623 0-1.111.237-1.464.711-.26.345-.391.889-.391 1.633v2.441c0 .744.13 1.293.39 1.646.354.475.842.712 1.466.712zm-.6-5.05c0-.642.2-.963.6-.963.4 0 .6.32.6.963v2.93c0 .65-.2.976-.6.976-.4 0-.6-.326-.6-.977v-2.93zm4.436 5.05c.465 0 .944-.288 1.437-.865v.767h1.27V2.386h-1.27V7.7c-.28.4-.544.6-.795.6-.168 0-.266-.103-.293-.307-.01-.019-.014-.182-.014-.489v-5.12h-1.27v5.497c0 .475.037.823.112 1.047.12.344.395.516.823.516z" fill="#fff"/></svg>