<svg width="88" height="83" viewBox="0 0 88 83" fill="none" xmlns="http://www.w3.org/2000/svg">
<path d="M76.5562 39.2067L74.3376 38.9264L75.71 37.1626C76.2187 36.5055 76.1609 35.5726 75.5747 34.9838L73.2296 32.6386C72.6413 32.052 71.7084 31.9942 71.0519 32.5034L69.2902 33.8791L69.0121 31.6605C68.908 30.835 68.2057 30.2161 67.3737 30.2167H64.0597C63.534 30.2232 63.0439 30.4833 62.7429 30.9146L61.2789 28.4746C61.6393 27.8988 61.605 27.16 61.1933 26.6197L59.8209 24.8569L62.0395 24.5788C62.865 24.4747 63.4839 23.7724 63.4833 22.9403V19.6263C63.4828 18.7954 62.8639 18.0942 62.0395 17.99L59.8209 17.7098L61.1933 15.9459C61.702 15.2889 61.6442 14.356 61.0581 13.7671L58.713 11.422C58.1246 10.8358 57.1917 10.7781 56.5352 11.2868L54.7736 12.6624L54.4955 10.4438C54.3913 9.61831 53.6891 8.99946 52.857 9H49.543C48.712 9.00055 48.0108 9.6194 47.9067 10.4438L47.6264 12.6624L45.8626 11.29C45.2056 10.7813 44.2726 10.8391 43.6838 11.4253L41.3387 13.7704C40.7525 14.3587 40.6947 15.2916 41.2034 15.9481L42.5791 17.7098L40.3605 17.9879C39.535 18.092 38.9161 18.7943 38.9167 19.6263V20.5276L28.8999 24.5395L27.0232 22.6623C26.2266 21.8657 24.9611 21.7871 24.0718 22.4791L19.327 26.1698C19.0626 26.0521 18.8058 25.9452 18.5566 25.8481L17.8118 19.9C17.6771 18.7801 16.7284 17.9366 15.6008 17.9333H13.2333V9H11V76H13.2333V67.0666H15.6008C16.7267 67.0639 17.6744 66.2231 17.8118 65.1059L18.5544 59.1518C18.8036 59.0548 19.0604 58.9479 19.3248 58.8301L24.0592 62.5149C24.9545 63.2112 26.2277 63.1321 27.0297 62.3306L29.3334 60.0319L38.9167 64.1299V65.3693C38.9167 66.2052 39.5393 66.9102 40.3681 67.0143L42.5802 67.2864L41.2149 69.0443C40.698 69.7002 40.7547 70.6396 41.3463 71.2285L43.6914 73.5736C44.2786 74.163 45.2137 74.2219 45.8702 73.711L47.6264 72.3397L47.9002 74.5529C48.0059 75.3811 48.712 76.0016 49.5474 76H52.8526C53.6885 76 54.3935 75.3773 54.4977 74.5485L54.7697 72.3365L56.5276 73.7018C57.1841 74.2176 58.1225 74.1614 58.7119 73.5704L61.057 71.2252C61.6475 70.6386 61.7064 69.7029 61.1944 69.0464L59.8231 67.2902L62.0362 67.0165C62.8645 66.9107 63.485 66.2046 63.4833 65.3693V62.064C63.4828 61.2287 62.8607 60.5237 62.0319 60.4201L59.8231 60.1431L61.1884 58.3858C61.6071 57.8454 61.6431 57.1012 61.2778 56.5232L62.7429 54.0821C63.0428 54.5145 63.533 54.7757 64.0597 54.7833H67.3737C68.2046 54.7828 68.9058 54.1639 69.01 53.3395L69.2902 51.1209L71.0541 52.4933C71.7111 53.0031 72.6446 52.9453 73.2329 52.3581L75.578 50.0129C76.1642 49.4246 76.2219 48.4917 75.7132 47.8352L74.3376 46.0735L76.5562 45.7955C77.3817 45.6913 78.0005 44.989 78 44.157V40.843C77.9995 40.012 77.3806 39.3108 76.5562 39.2067ZM57.2277 33.6234L55.1988 30.2423L56.5385 31.2821C57.1955 31.7919 58.129 31.7341 58.7173 31.1468L59.6922 30.1709L61.7211 33.5519L60.3814 32.5127C59.7244 32.004 58.792 32.0618 58.2026 32.6474L57.2277 33.6234ZM41.15 20.1421L43.7977 19.8073C44.2214 19.7539 44.5774 19.4638 44.7154 19.0598C44.8102 18.7877 44.922 18.5222 45.0507 18.2637C45.2383 17.8804 45.1908 17.4235 44.9286 17.0871L43.2874 14.983L44.8997 13.3707L47.0081 15.0086C47.3451 15.2709 47.8015 15.3183 48.1848 15.1308C48.4432 15.0021 48.7088 14.8903 48.9814 14.7954C49.3854 14.6575 49.6749 14.3014 49.7284 13.8778L50.0588 11.2333H52.3412L52.676 13.8811C52.7294 14.3047 53.0195 14.6608 53.4235 14.7987C53.6956 14.8936 53.9617 15.0054 54.2196 15.134C54.6029 15.3216 55.0598 15.2742 55.3962 15.0119L57.5047 13.374L59.117 14.9863L57.4747 17.0915C57.2124 17.4284 57.165 17.8848 57.3526 18.2681C57.4813 18.5266 57.593 18.7921 57.6879 19.0647C57.8258 19.4687 58.1819 19.7583 58.6055 19.8117L61.2533 20.1465V22.4289L58.6055 22.7642C58.1819 22.8171 57.8258 23.1072 57.6879 23.5112C57.593 23.7833 57.4813 24.0494 57.3526 24.3073C57.165 24.6906 57.2124 25.1475 57.4747 25.4845L59.1126 27.5924L57.5003 29.2052L55.3919 27.5668C55.0571 27.3018 54.6002 27.2511 54.2152 27.4359C53.9568 27.5646 53.6912 27.6764 53.4186 27.7712C53.0146 27.9092 52.7251 28.2652 52.6716 28.6889L52.3412 31.3333H50.0588L49.724 28.6856C49.6706 28.2619 49.3805 27.9059 48.9765 27.768C48.7044 27.6731 48.4389 27.5613 48.1804 27.4326C47.7971 27.2451 47.3402 27.2925 47.0038 27.5548L44.8953 29.1927L43.283 27.5804L44.9209 25.4719C45.1832 25.1366 45.2323 24.6819 45.0474 24.2985C44.9188 24.0401 44.807 23.7746 44.7121 23.5019C44.5742 23.0979 44.2181 22.8084 43.7944 22.755L41.15 22.4245V20.1421ZM13.2333 33.1703C17.4366 33.9816 20.4737 37.6609 20.4737 41.9417C20.4737 46.2224 17.4366 49.9017 13.2333 50.713V33.1703ZM25.4338 60.7521L20.1569 56.6492C19.8221 56.3885 19.3685 56.34 18.9862 56.5243C18.3996 56.8127 17.7943 57.0635 17.1749 57.2745C16.7665 57.4109 16.4732 57.7696 16.4203 58.1971L15.6008 64.8333H13.2333V52.9856C18.7016 52.1678 22.7484 47.471 22.7484 41.9417C22.7484 36.4123 18.7016 31.7155 13.2333 30.8977V20.1667H15.5986L16.4247 26.7996C16.4776 27.2271 16.7714 27.5858 17.1798 27.7222C17.7987 27.9332 18.4039 28.184 18.9906 28.4724C19.3728 28.6562 19.8265 28.6082 20.1612 28.3476L25.4441 24.238L30.3677 29.1791L26.2658 34.4598C26.0052 34.7946 25.9567 35.2482 26.141 35.6304C26.4294 36.2171 26.6802 36.8223 26.8912 37.4417C27.0275 37.8501 27.3863 38.1435 27.8138 38.1964L34.45 39.0159V45.9819L27.8171 46.808C27.3896 46.8609 27.0308 47.1548 26.8945 47.5632C26.6835 48.182 26.4327 48.7872 26.1442 49.3739C25.9605 49.7561 26.0085 50.2098 26.2691 50.5446L30.3786 55.8275L25.4338 60.7521ZM32.1338 54.4562L28.449 49.7114C28.5668 49.447 28.6736 49.1902 28.7707 48.941L34.7194 48.1995C35.8398 48.0637 36.6828 47.1128 36.6833 45.9841V39.0159C36.6806 37.8899 35.8398 36.9423 34.7226 36.8049L28.7685 36.0623C28.6715 35.8136 28.5646 35.5568 28.4468 35.2918L32.1316 30.5574C32.8273 29.6621 32.7483 28.389 31.9473 27.5869L30.6196 26.2603L38.9167 22.9338V22.9403C38.9172 23.7713 39.5361 24.4725 40.3605 24.5766L42.5791 24.8547L41.2067 26.6186C40.698 27.2756 40.7558 28.2085 41.3419 28.7974L43.687 31.1425C44.2754 31.7292 45.2083 31.787 45.8648 31.2777L47.6264 29.9042L47.9045 32.1228C48.0087 32.9483 48.7109 33.5672 49.543 33.5667H52.857C53.3826 33.5601 53.8728 33.3 54.1738 32.8687L55.6378 35.3087C55.2774 35.8845 55.3117 36.6233 55.7234 37.1637L57.0958 38.9264L54.8771 39.2045C54.0516 39.3087 53.4328 40.0109 53.4333 40.843V44.157C53.4339 44.9879 54.0527 45.6891 54.8771 45.7933L57.0958 46.0714L55.7234 47.8352C55.3117 48.3761 55.2774 49.1149 55.6378 49.6912L54.1738 52.1301C53.8706 51.6989 53.3794 51.4399 52.8526 51.4333H49.5474C48.7115 51.4333 48.0065 52.056 47.9023 52.8848L47.6264 55.0936L45.8691 53.7283C45.2132 53.2114 44.2743 53.2681 43.6849 53.8597L41.3397 56.2048C40.7492 56.7915 40.6904 57.7271 41.2023 58.3836L42.5769 60.1431L40.3638 60.4168C39.6702 60.5111 39.1135 61.0362 38.9794 61.7232L31.0351 58.322L31.9544 57.4032C32.7494 56.6066 32.8279 55.3433 32.1376 54.4551L32.1338 54.4562ZM58.7108 53.8608C58.1236 53.2708 57.1885 53.2119 56.532 53.7234L55.201 54.7599L57.2299 51.3821L58.2048 52.3581C58.7931 52.9453 59.726 53.0031 60.3825 52.4933L61.7222 51.4535L59.6868 54.8357L58.7108 53.8608ZM61.25 62.5733V64.86L58.6001 65.1872C58.1634 65.2422 57.7997 65.5481 57.671 65.9691C57.5843 66.2346 57.4774 66.493 57.3515 66.7428C57.1683 67.1244 57.2168 67.5775 57.4769 67.9118L59.1137 70.017L57.4971 71.6336L55.3919 69.9968C55.0576 69.7367 54.6045 69.6882 54.2229 69.8719C53.9731 69.9973 53.7147 70.1042 53.4491 70.1909C53.0282 70.3196 52.7218 70.6833 52.6673 71.12L52.3434 73.7666H50.0566L49.7295 71.1167C49.6744 70.68 49.3685 70.3163 48.9476 70.1876C48.682 70.1009 48.4236 69.9941 48.1739 69.8681C47.7922 69.6849 47.3391 69.7334 47.0049 69.9935L44.8997 71.6304L43.283 70.0137L44.9198 67.9085C45.1799 67.5743 45.2285 67.1212 45.0447 66.7395C44.9193 66.4898 44.8124 66.2313 44.7257 65.9658C44.5971 65.5449 44.2334 65.2384 43.7966 65.1839L41.15 64.86V62.5733L43.7999 62.2461C44.2366 62.191 44.6003 61.8852 44.729 61.4642C44.8157 61.1987 44.9226 60.9402 45.0485 60.6905C45.2317 60.3088 45.1832 59.8557 44.9231 59.5215L43.2863 57.4163L44.9029 55.7997L47.0081 57.4365C47.3424 57.6966 47.7955 57.7451 48.1771 57.5613C48.4269 57.4359 48.6853 57.3291 48.9509 57.2424C49.3718 57.1137 49.6782 56.75 49.7327 56.3133L50.0566 53.6666H52.3445L52.6705 56.3133C52.724 56.7511 53.0304 57.1164 53.4524 57.2457C53.718 57.3323 53.9764 57.4392 54.2261 57.5652C54.6078 57.7484 55.0609 57.6998 55.3951 57.4398L57.5003 55.8029L59.117 57.4196L57.4802 59.5248C57.2201 59.859 57.1716 60.3121 57.3553 60.6938C57.4807 60.9435 57.5876 61.202 57.6743 61.4675C57.8029 61.8884 58.1666 62.1949 58.6034 62.2494L61.25 62.5733ZM75.7667 43.6412L73.1189 43.976C72.6953 44.0294 72.3392 44.3195 72.2013 44.7235C72.1064 44.9956 71.9946 45.2611 71.866 45.5196C71.6784 45.9029 71.7258 46.3598 71.9881 46.6962L73.626 48.8047L72.0137 50.417L69.9053 48.7791C69.5699 48.5168 69.1152 48.4677 68.7319 48.6526C68.4734 48.7812 68.2079 48.893 67.9353 48.9879C67.5312 49.1258 67.2417 49.4819 67.1883 49.9055L66.8579 52.55H64.5755L64.2407 49.9023C64.1872 49.4786 63.8972 49.1226 63.4931 48.9846C63.2211 48.8897 62.9555 48.778 62.6971 48.6493C62.3138 48.4617 61.8569 48.5092 61.5204 48.7714L59.412 50.4093L57.7997 48.797L59.4376 46.6886C59.6999 46.3532 59.7489 45.8985 59.5641 45.5152C59.4354 45.2568 59.3236 44.9912 59.2288 44.7186C59.0908 44.3146 58.7348 44.025 58.3111 43.9716L55.6667 43.6412V41.3588L58.3144 41.024C58.738 40.9706 59.0941 40.6805 59.232 40.2765C59.3269 40.0044 59.4387 39.7389 59.5674 39.4804C59.7549 39.0971 59.7075 38.6402 59.4452 38.3038L57.8073 36.1953L59.4196 34.583L61.5281 36.2209C61.865 36.4832 62.3214 36.5306 62.7053 36.3425C62.9632 36.2144 63.2292 36.1026 63.5013 36.0077C63.9054 35.8698 64.1954 35.5132 64.2483 35.0895L64.5831 32.4424H66.8655L67.2008 35.0895C67.2537 35.5132 67.5438 35.8698 67.9478 36.0077C68.2199 36.1026 68.486 36.2144 68.7439 36.3425C69.1272 36.5306 69.5841 36.4832 69.9211 36.2209L72.029 34.583L73.6418 36.1953L72.0034 38.3038C71.7357 38.6391 71.6833 39.0982 71.8692 39.4848C71.9979 39.7432 72.1097 40.0088 72.2046 40.2814C72.3425 40.6854 72.6986 40.9749 73.1222 41.0284L75.7699 41.3631L75.7667 43.6412Z" fill="#3683E9"/>
<path d="M65.7166 36.917C62.6333 36.917 60.1333 39.417 60.1333 42.5003C60.1333 45.5837 62.6333 48.0837 65.7166 48.0837C68.8 48.0837 71.3 45.5837 71.3 42.5003C71.2962 39.418 68.7989 36.9208 65.7166 36.917ZM65.7166 45.8503C63.8666 45.8503 62.3666 44.3503 62.3666 42.5003C62.3666 40.6503 63.8666 39.1503 65.7166 39.1503C67.5667 39.1503 69.0666 40.6503 69.0666 42.5003C69.0666 44.3503 67.5667 45.8503 65.7166 45.8503Z" fill="#3683E9"/>
<path d="M51.2 26.8669C54.2834 26.8669 56.7834 24.3669 56.7834 21.2835C56.7834 18.2002 54.2834 15.7002 51.2 15.7002C48.1167 15.7002 45.6167 18.2002 45.6167 21.2835C45.6205 24.3658 48.1177 26.863 51.2 26.8669ZM51.2 17.9335C53.0501 17.9335 54.55 19.4335 54.55 21.2835C54.55 23.1336 53.0501 24.6335 51.2 24.6335C49.35 24.6335 47.85 23.1336 47.85 21.2835C47.85 19.4335 49.35 17.9335 51.2 17.9335Z" fill="#3683E9"/>
<path d="M51.2001 58.1338C48.9695 58.1365 46.9554 59.4669 46.0759 61.5165C45.1969 63.5666 45.6222 65.9428 47.1576 67.5606L47.1647 67.566C48.9193 69.4101 51.699 69.8337 53.9231 68.5966C56.1471 67.3588 57.2534 64.7738 56.6122 62.3109C55.971 59.8475 53.7453 58.13 51.2001 58.1338ZM51.2001 67.0671C50.2874 67.0759 49.4128 66.7024 48.7879 66.0366L47.9728 66.7989L48.7792 66.0263C48.1816 65.4063 47.8485 64.5781 47.8501 63.7171C47.8501 61.8671 49.3501 60.3671 51.2001 60.3671C53.0501 60.3671 54.5501 61.8671 54.5501 63.7171C54.5501 65.5672 53.0501 67.0671 51.2001 67.0671Z" fill="#3683E9"/>
</svg>
