<svg width="65" height="65" viewBox="0 0 65 65" fill="none" xmlns="http://www.w3.org/2000/svg">
<path d="M22.5313 18.2399H46.1355C46.42 18.2399 46.6929 18.1269 46.8941 17.9257C47.0953 17.7244 47.2084 17.4515 47.2084 17.167V11.8024C47.2084 11.5179 47.0953 11.245 46.8941 11.0437C46.6929 10.8425 46.42 10.7295 46.1355 10.7295H22.5313C22.2467 10.7295 21.9738 10.8425 21.7726 11.0437C21.5714 11.245 21.4584 11.5179 21.4584 11.8024V17.167C21.4584 17.4515 21.5714 17.7244 21.7726 17.9257C21.9738 18.1269 22.2467 18.2399 22.5313 18.2399ZM23.6042 12.8753H45.0625V16.0941H23.6042V12.8753Z" fill="#3683E9"/>
<path d="M11.802 37.5521H24.677C24.9616 37.5521 25.2345 37.439 25.4357 37.2378C25.6369 37.0366 25.75 36.7637 25.75 36.4792V23.6042C25.75 23.3196 25.6369 23.0467 25.4357 22.8455C25.2345 22.6443 24.9616 22.5312 24.677 22.5312H11.802C11.5175 22.5312 11.2446 22.6443 11.0434 22.8455C10.8422 23.0467 10.7291 23.3196 10.7291 23.6042V36.4792C10.7291 36.7637 10.8422 37.0366 11.0434 37.2378C11.2446 37.439 11.5175 37.5521 11.802 37.5521ZM12.875 24.6771H23.6041V35.4062H12.875V24.6771Z" fill="#3683E9"/>
<path d="M46.1354 22.5312H31.1145C30.83 22.5312 30.5571 22.6443 30.3559 22.8455C30.1547 23.0467 30.0416 23.3196 30.0416 23.6042C30.0416 23.8887 30.1547 24.1616 30.3559 24.3628C30.5571 24.564 30.83 24.6771 31.1145 24.6771H46.1354C46.4199 24.6771 46.6928 24.564 46.894 24.3628C47.0953 24.1616 47.2083 23.8887 47.2083 23.6042C47.2083 23.3196 47.0953 23.0467 46.894 22.8455C46.6928 22.6443 46.4199 22.5312 46.1354 22.5312Z" fill="#3683E9"/>
<path d="M46.1354 26.8232H31.1145C30.83 26.8232 30.5571 26.9363 30.3559 27.1375C30.1547 27.3387 30.0416 27.6116 30.0416 27.8962C30.0416 28.1807 30.1547 28.4536 30.3559 28.6548C30.5571 28.856 30.83 28.9691 31.1145 28.9691H46.1354C46.4199 28.9691 46.6928 28.856 46.894 28.6548C47.0953 28.4536 47.2083 28.1807 47.2083 27.8962C47.2083 27.6116 47.0953 27.3387 46.894 27.1375C46.6928 26.9363 46.4199 26.8232 46.1354 26.8232Z" fill="#3683E9"/>
<path d="M46.1354 31.1143H31.1145C30.83 31.1143 30.5571 31.2273 30.3559 31.4285C30.1547 31.6297 30.0416 31.9026 30.0416 32.1872C30.0416 32.4717 30.1547 32.7446 30.3559 32.9458C30.5571 33.1471 30.83 33.2601 31.1145 33.2601H46.1354C46.4199 33.2601 46.6928 33.1471 46.894 32.9458C47.0953 32.7446 47.2083 32.4717 47.2083 32.1872C47.2083 31.9026 47.0953 31.6297 46.894 31.4285C46.6928 31.2273 46.4199 31.1143 46.1354 31.1143Z" fill="#3683E9"/>
<path d="M39.6979 35.4062H31.1145C30.83 35.4062 30.5571 35.5193 30.3559 35.7205C30.1547 35.9217 30.0416 36.1946 30.0416 36.4792C30.0416 36.7637 30.1547 37.0366 30.3559 37.2378C30.5571 37.439 30.83 37.5521 31.1145 37.5521H39.6979C39.9824 37.5521 40.2553 37.439 40.4565 37.2378C40.6578 37.0366 40.7708 36.7637 40.7708 36.4792C40.7708 36.1946 40.6578 35.9217 40.4565 35.7205C40.2553 35.5193 39.9824 35.4062 39.6979 35.4062Z" fill="#3683E9"/>
<path d="M33.2604 41.8438H11.802C11.5175 41.8438 11.2446 41.9568 11.0434 42.158C10.8422 42.3592 10.7291 42.6321 10.7291 42.9167C10.7291 43.2012 10.8422 43.4741 11.0434 43.6753C11.2446 43.8765 11.5175 43.9896 11.802 43.9896H33.2604C33.5449 43.9896 33.8178 43.8765 34.019 43.6753C34.2203 43.4741 34.3333 43.2012 34.3333 42.9167C34.3333 42.6321 34.2203 42.3592 34.019 42.158C33.8178 41.9568 33.5449 41.8438 33.2604 41.8438Z" fill="#3683E9"/>
<path d="M33.2604 46.1357H11.802C11.5175 46.1357 11.2446 46.2488 11.0434 46.45C10.8422 46.6512 10.7291 46.9241 10.7291 47.2087C10.7291 47.4932 10.8422 47.7661 11.0434 47.9673C11.2446 48.1685 11.5175 48.2816 11.802 48.2816H33.2604C33.5449 48.2816 33.8178 48.1685 34.019 47.9673C34.2203 47.7661 34.3333 47.4932 34.3333 47.2087C34.3333 46.9241 34.2203 46.6512 34.019 46.45C33.8178 46.2488 33.5449 46.1357 33.2604 46.1357Z" fill="#3683E9"/>
<path d="M33.2604 50.4268H11.802C11.5175 50.4268 11.2446 50.5398 11.0434 50.741C10.8422 50.9422 10.7291 51.2151 10.7291 51.4997C10.7291 51.7842 10.8422 52.0571 11.0434 52.2583C11.2446 52.4596 11.5175 52.5726 11.802 52.5726H33.2604C33.5449 52.5726 33.8178 52.4596 34.019 52.2583C34.2203 52.0571 34.3333 51.7842 34.3333 51.4997C34.3333 51.2151 34.2203 50.9422 34.019 50.741C33.8178 50.5398 33.5449 50.4268 33.2604 50.4268Z" fill="#3683E9"/>
<path d="M63.3021 46.1354H60.7904L62.5682 44.363C62.668 44.2633 62.7471 44.145 62.8011 44.0147C62.8551 43.8845 62.8829 43.7449 62.8829 43.6039C62.8829 43.4629 62.8551 43.3233 62.8011 43.193C62.7471 43.0628 62.668 42.9444 62.5682 42.8448L58.0083 38.2849C57.8071 38.0837 57.5343 37.9706 57.2498 37.9705C57.1088 37.9707 56.9692 37.9986 56.8391 38.0528C56.7089 38.1069 56.5907 38.1861 56.4912 38.286L54.7187 40.0638V37.5521C54.7187 37.2675 54.6057 36.9946 54.4045 36.7934C54.2033 36.5922 53.9304 36.4792 53.6458 36.4792V5.36458C53.6458 5.08003 53.5328 4.80713 53.3316 4.60592C53.1304 4.40471 52.8575 4.29167 52.5729 4.29167H49.3542V1.07292C49.3542 0.788361 49.2411 0.515461 49.0399 0.31425C48.8387 0.113039 48.5658 0 48.2812 0H11.8021C11.5176 6.07672e-05 11.2447 0.11314 11.0435 0.314365L0.314365 11.0435C0.11314 11.2447 6.07672e-05 11.5176 0 11.8021V54.7187C0 55.0033 0.113039 55.2762 0.31425 55.4774C0.515461 55.6786 0.788361 55.7917 1.07292 55.7917H4.29167V59.0104C4.29167 59.295 4.40471 59.5679 4.60592 59.7691C4.80713 59.9703 5.08003 60.0833 5.36458 60.0833H40.3588L42.8448 62.5693C43.0459 62.7705 43.3188 62.8836 43.6033 62.8836C43.7443 62.8835 43.8838 62.8555 44.014 62.8014C44.1441 62.7473 44.2624 62.668 44.3619 62.5682L46.1354 60.7904V63.3021C46.1354 63.5866 46.2485 63.8595 46.4497 64.0607C46.6509 64.262 46.9238 64.375 47.2083 64.375H53.6458C53.9304 64.375 54.2033 64.262 54.4045 64.0607C54.6057 63.8595 54.7187 63.5866 54.7187 63.3021V60.7904L56.4912 62.5682C56.5907 62.668 56.7089 62.7473 56.8391 62.8014C56.9692 62.8555 57.1088 62.8835 57.2498 62.8836C57.5343 62.8836 57.8071 62.7705 58.0083 62.5693L62.5682 58.0094C62.668 57.9097 62.7471 57.7914 62.8011 57.6612C62.8551 57.5309 62.8829 57.3913 62.8829 57.2503C62.8829 57.1093 62.8551 56.9697 62.8011 56.8394C62.7471 56.7092 62.668 56.5909 62.5682 56.4912L60.7904 54.7187H63.3021C63.5866 54.7187 63.8595 54.6057 64.0607 54.4045C64.262 54.2033 64.375 53.9304 64.375 53.6458V47.2083C64.375 46.9238 64.262 46.6509 64.0607 46.4497C63.8595 46.2485 63.5866 46.1354 63.3021 46.1354ZM12.875 2.14583H47.2083V4.29167H16.0938C15.8092 4.29173 15.5364 4.40481 15.3352 4.60603L12.875 7.06623V2.14583ZM15.0208 7.9546V15.0208H7.9546L15.0208 7.9546ZM10.7292 3.66294V9.21206L9.21206 10.7292H3.66294L10.7292 3.66294ZM4.60603 15.3352C4.40481 15.5364 4.29173 15.8092 4.29167 16.0938V53.6458H2.14583V12.875H7.06623L4.60603 15.3352ZM6.4375 17.1667H16.0938C16.3783 17.1667 16.6512 17.0536 16.8524 16.8524C17.0536 16.6512 17.1667 16.3783 17.1667 16.0938V6.4375H51.5V36.4792H47.2083C46.9238 36.4792 46.6509 36.5922 46.4497 36.7934C46.2485 36.9946 46.1354 37.2675 46.1354 37.5521V40.0638L44.363 38.286C44.2634 38.1861 44.1452 38.1069 44.0151 38.0528C43.8849 37.9986 43.7454 37.9707 43.6044 37.9705C43.3199 37.9706 43.047 38.0837 42.8459 38.2849L38.286 42.8448C38.1862 42.9444 38.1071 43.0628 38.0531 43.193C37.9991 43.3233 37.9713 43.4629 37.9713 43.6039C37.9713 43.7449 37.9991 43.8845 38.0531 44.0147C38.1071 44.145 38.1862 44.2633 38.286 44.363L40.0638 46.1354H37.5521C37.2675 46.1354 36.9946 46.2485 36.7934 46.4497C36.5922 46.6509 36.4792 46.9238 36.4792 47.2083V53.6458C36.4792 53.9304 36.5922 54.2033 36.7934 54.4045C36.9946 54.6057 37.2675 54.7187 37.5521 54.7187H40.0638L38.286 56.4912C38.0932 56.6796 37.9804 56.9351 37.9713 57.2045C37.9621 57.4738 38.0571 57.7364 38.2366 57.9375H6.4375V17.1667ZM62.2292 52.5729H58.195C57.9793 52.5729 57.7685 52.638 57.5904 52.7596C57.4122 52.8812 57.2748 53.0537 57.1961 53.2546C57.1174 53.4555 57.1012 53.6754 57.1494 53.8857C57.1976 54.096 57.3081 54.2868 57.4665 54.4334L57.5169 54.4806C57.5362 54.502 57.5566 54.5246 57.577 54.5449L60.2979 57.2519L57.2519 60.2979L54.5449 57.5824C54.5246 57.562 54.5031 57.5427 54.4816 57.5233L54.4334 57.4719C54.2871 57.3138 54.0968 57.2035 53.887 57.1551C53.6772 57.1067 53.4578 57.1225 53.2571 57.2005C53.0565 57.2785 52.8839 57.415 52.7619 57.5924C52.6399 57.7698 52.574 57.9797 52.5729 58.195V62.2292H48.2812V58.195C48.2812 57.9793 48.2161 57.7685 48.0945 57.5904C47.9729 57.4122 47.8004 57.2748 47.5995 57.1961C47.3987 57.1174 47.1787 57.1012 46.9685 57.1494C46.7582 57.1976 46.5673 57.3081 46.4208 57.4665L46.3736 57.5169C46.3521 57.5362 46.3296 57.5566 46.3092 57.577L43.6023 60.2979L40.5616 57.2573L43.2772 54.5503C43.2976 54.5299 43.3169 54.5085 43.3362 54.487L43.3877 54.4387C43.548 54.2926 43.6602 54.1013 43.7096 53.8901C43.759 53.6789 43.7432 53.4576 43.6643 53.2556C43.5854 53.0535 43.4471 52.8801 43.2677 52.7583C43.0882 52.6364 42.8761 52.5718 42.6592 52.5729H38.625V48.2812H42.6592C42.8749 48.2812 43.0856 48.2161 43.2638 48.0945C43.442 47.9729 43.5794 47.8004 43.6581 47.5995C43.7367 47.3987 43.753 47.1787 43.7048 46.9685C43.6565 46.7582 43.546 46.5673 43.3877 46.4208L43.3372 46.3736C43.3179 46.3521 43.2976 46.3296 43.2772 46.3092L40.5616 43.6023L43.6023 40.5616L46.3092 43.2772C46.3296 43.2976 46.3511 43.3169 46.3725 43.3362L46.4208 43.3877C46.5673 43.546 46.7582 43.6565 46.9685 43.7048C47.1787 43.753 47.3987 43.7367 47.5995 43.6581C47.8004 43.5794 47.9729 43.442 48.0945 43.2638C48.2161 43.0856 48.2812 42.8749 48.2812 42.6592V38.625H52.5729V42.6592C52.5729 42.8749 52.638 43.0856 52.7596 43.2638C52.8812 43.442 53.0537 43.5794 53.2546 43.6581C53.4555 43.7367 53.6754 43.753 53.8857 43.7048C54.096 43.6565 54.2868 43.546 54.4334 43.3877L54.4806 43.3372C54.502 43.3179 54.5246 43.2976 54.5449 43.2772L57.2519 40.5616L60.2979 43.6023L57.5824 46.3092C57.562 46.3296 57.5427 46.3511 57.5233 46.3725L57.4719 46.4208C57.3138 46.567 57.2035 46.7574 57.1551 46.9671C57.1067 47.1769 57.1225 47.3964 57.2005 47.5971C57.2785 47.7977 57.415 47.9703 57.5924 48.0923C57.7698 48.2143 57.9797 48.2801 58.195 48.2812H62.2292V52.5729Z" fill="#3683E9"/>
<path d="M50.4271 45.0625C49.3661 45.0625 48.3289 45.3771 47.4467 45.9666C46.5645 46.5561 45.8769 47.3939 45.4709 48.3742C45.0648 49.3544 44.9586 50.433 45.1656 51.4737C45.3726 52.5143 45.8835 53.4702 46.6338 54.2204C47.384 54.9707 48.3399 55.4816 49.3805 55.6886C50.4211 55.8956 51.4998 55.7894 52.48 55.3833C53.4603 54.9773 54.2981 54.2897 54.8876 53.4075C55.4771 52.5253 55.7917 51.4881 55.7917 50.4271C55.79 49.0048 55.2242 47.6413 54.2185 46.6356C53.2129 45.6299 51.8493 45.0642 50.4271 45.0625ZM50.4271 53.6458C49.7905 53.6458 49.1682 53.4571 48.6388 53.1034C48.1095 52.7497 47.697 52.247 47.4534 51.6589C47.2097 51.0707 47.146 50.4235 47.2702 49.7991C47.3944 49.1748 47.7009 48.6012 48.1511 48.1511C48.6012 47.7009 49.1748 47.3944 49.7991 47.2702C50.4235 47.146 51.0707 47.2097 51.6589 47.4534C52.247 47.697 52.7497 48.1095 53.1034 48.6388C53.4571 49.1682 53.6458 49.7905 53.6458 50.4271C53.6458 51.2808 53.3067 52.0995 52.7031 52.7031C52.0995 53.3067 51.2808 53.6458 50.4271 53.6458Z" fill="#3683E9"/>
</svg>
