<svg width="43" height="43" viewBox="0 0 43 43" fill="none" xmlns="http://www.w3.org/2000/svg"><path d="M40.484 6.031h-6.328V2.516a2.11 2.11 0 0 0-2.11-2.11H10.954a2.11 2.11 0 0 0-2.11 2.11V6.03H2.517a2.11 2.11 0 0 0-2.11 2.11v26.718a2.11 2.11 0 0 0 2.11 2.11h6.328v3.515a2.11 2.11 0 0 0 2.11 2.11h21.093a2.11 2.11 0 0 0 2.11-2.11V36.97h6.327a2.11 2.11 0 0 0 2.11-2.11V8.141a2.11 2.11 0 0 0-2.11-2.11zM14.47 1.813h14.06v.703a.703.703 0 0 1-.703.703H15.172a.703.703 0 0 1-.703-.703v-.704zm-4.219.703a.703.703 0 0 1 .703-.704h2.11v.704a2.11 2.11 0 0 0 2.109 2.109h12.656a2.11 2.11 0 0 0 2.11-2.11v-.703h2.109a.703.703 0 0 1 .703.704V6.03h-22.5V2.516zM2.516 7.437h37.968a.703.703 0 0 1 .703.704v2.109H1.813V8.14a.703.703 0 0 1 .703-.703zM32.75 40.484a.703.703 0 0 1-.703.703H10.953a.703.703 0 0 1-.703-.703V36.97h22.5v3.515zm7.734-4.922H2.516a.703.703 0 0 1-.704-.703V11.656h39.376V34.86a.703.703 0 0 1-.704.703z" fill="#fff"/><path d="M33.453 13.063a6.328 6.328 0 1 0 6.328 6.328 6.335 6.335 0 0 0-6.328-6.328zm0 11.25a4.922 4.922 0 1 1 0-9.845 4.922 4.922 0 0 1 0 9.845z" fill="#fff"/><path d="M34.156 15.172H32.75v.703a1.407 1.407 0 0 0-1.406 1.406v1.407a1.406 1.406 0 0 0 1.406 1.406h1.406V21.5h-2.812v1.406h1.406v.703h1.406v-.703a1.406 1.406 0 0 0 1.407-1.406v-1.406a1.406 1.406 0 0 0-1.407-1.407H32.75v-1.406h2.813v-1.406h-1.407v-.703zM21.5 29.938h-.703V21.5h1.406a.703.703 0 0 0 .428-1.26l-9.14-7.031a.703.703 0 0 0-.857 0l-9.14 7.031a.704.704 0 0 0 .428 1.26h1.406v8.438h-.703a1.406 1.406 0 0 0-1.406 1.406v1.406a1.406 1.406 0 0 0 1.406 1.406H21.5a1.407 1.407 0 0 0 1.406-1.406v-1.406a1.406 1.406 0 0 0-1.406-1.406zm-2.11 0h-1.406V21.5h1.407v8.438zM16.579 21.5v8.438H9.547V21.5h7.031zm-3.515-6.847l7.073 5.44H5.989l7.074-5.44zM6.734 21.5h1.407v8.438H6.734V21.5zM4.625 32.75v-1.406H21.5v1.406H4.625zM3.219 8.14h1.406v1.407H3.219V8.14zm2.812 0h1.407v1.407H6.03V8.14zm2.813 0h1.406v1.407H8.844V8.14zm28.125 18.985h2.812v1.406H36.97v-1.406zm-9.844 2.813h5.625v1.406h-5.625v-1.407zm0 2.812h12.656v1.406H27.125V32.75zm0-5.625h8.438v1.406h-8.438v-1.406zm7.031 2.813h5.625v1.406h-5.625v-1.407z" fill="#fff"/></svg>