<svg width="47" height="45" viewBox="0 0 47 45" fill="none" xmlns="http://www.w3.org/2000/svg">
<mask id="path-1-outside-1" maskUnits="userSpaceOnUse" x="0" y="-0.207031" width="47" height="45" fill="black">
<rect fill="#E20E17" y="-0.207031" width="47" height="45"/>
<path d="M8.70915 25.672C8.79119 25.716 8.88255 25.7393 8.9757 25.7393C9.00292 25.7393 9.03015 25.7375 9.05702 25.7336C9.2967 25.696 9.48801 25.5143 9.53889 25.2772C9.59549 25.0235 9.63168 24.7656 9.64673 24.5058C9.81439 22.712 10.168 20.9608 12.4351 20.9608H30.2516C31.9781 20.959 33.3775 19.56 33.3796 17.8331V3.92026C33.3775 2.19378 31.9781 0.79476 30.2516 0.792969H4.12765C2.40117 0.795118 1.00215 2.19414 1 3.92026V17.8328C1.00215 19.5592 2.40117 20.9583 4.12765 20.9604H5.17629C5.33859 20.9558 5.48118 21.0665 5.51736 21.2245C6.09739 24.5047 8.24734 25.495 8.70915 25.672ZM5.17629 19.8605H4.12765C3.00879 19.8591 2.10202 18.9523 2.10059 17.8335V3.92026C2.10202 2.8014 3.00879 1.89499 4.12765 1.89356H30.2516C31.3705 1.89463 32.2776 2.8014 32.279 3.92026V17.8328C32.2776 18.952 31.3705 19.8588 30.2516 19.8598H12.4347C9.01761 19.8598 8.6855 22.9667 8.55545 24.3525C7.9224 23.9294 6.94469 22.9792 6.60076 21.0331C6.47357 20.3481 5.87276 19.8537 5.17629 19.8605Z"/>
<path d="M29.607 12.2793H23.0024C22.6986 12.2793 22.4521 12.5254 22.4521 12.8296C22.4521 13.1334 22.6986 13.3799 23.0024 13.3799H29.607C29.9112 13.3799 30.1573 13.1334 30.1573 12.8296C30.1573 12.5254 29.9112 12.2793 29.607 12.2793Z"/>
<path d="M20.4332 12.8296C20.4332 12.5254 20.1867 12.2793 19.8829 12.2793H9.47315C9.16934 12.2793 8.92285 12.5254 8.92285 12.8296C8.92285 13.1334 9.16934 13.3799 9.47315 13.3799H19.8829C20.1867 13.3799 20.4332 13.1334 20.4332 12.8296Z"/>
<path d="M4.77197 13.3799H7.04373C7.34754 13.3799 7.59403 13.1334 7.59403 12.8296C7.59403 12.5254 7.34754 12.2793 7.04373 12.2793H4.77197C4.46781 12.2793 4.22168 12.5254 4.22168 12.8296C4.22168 13.1334 4.46781 13.3799 4.77197 13.3799Z"/>
<path d="M27.8823 10.1572H29.6067C29.9105 10.1572 30.157 9.91111 30.157 9.60694C30.157 9.30313 29.9105 9.05664 29.6067 9.05664H27.8823C27.5785 9.05664 27.332 9.30313 27.332 9.60694C27.332 9.91111 27.5785 10.1572 27.8823 10.1572Z"/>
<path d="M25.4675 10.1572C25.7713 10.1572 26.0177 9.91111 26.0177 9.60694C26.0177 9.30313 25.7713 9.05664 25.4675 9.05664H22.5806C22.2768 9.05664 22.0303 9.30313 22.0303 9.60694C22.0303 9.91111 22.2768 10.1572 22.5806 10.1572H25.4675Z"/>
<path d="M4.77197 10.1572H20.1462C20.4504 10.1572 20.6965 9.91111 20.6965 9.60694C20.6965 9.30313 20.4504 9.05664 20.1462 9.05664H4.77197C4.46781 9.05664 4.22168 9.30313 4.22168 9.60694C4.22168 9.91111 4.46781 10.1572 4.77197 10.1572Z"/>
<path d="M28.2134 6.29102H29.6074C29.9112 6.29102 30.1577 6.04454 30.1577 5.74073C30.1577 5.43692 29.9112 5.19043 29.6074 5.19043H28.2134C27.9092 5.19043 27.6631 5.43692 27.6631 5.74073C27.6631 6.04454 27.9092 6.29102 28.2134 6.29102Z"/>
<path d="M19.7935 6.29102H25.7654C26.0692 6.29102 26.3157 6.04454 26.3157 5.74073C26.3157 5.43692 26.0692 5.19043 25.7654 5.19043H19.7935C19.4893 5.19043 19.2432 5.43692 19.2432 5.74073C19.2432 6.04454 19.4893 6.29102 19.7935 6.29102Z"/>
<path d="M4.77197 6.29102H17.3589C17.6627 6.29102 17.9092 6.04454 17.9092 5.74073C17.9092 5.43692 17.6627 5.19043 17.3589 5.19043H4.77197C4.46781 5.19043 4.22168 5.43692 4.22168 5.74073C4.22168 6.04454 4.46781 6.29102 4.77197 6.29102Z"/>
<path d="M23.1678 15.501H22.9009C22.5971 15.501 22.3506 15.7475 22.3506 16.0513C22.3506 16.3551 22.5971 16.6016 22.9009 16.6016H23.1678C23.4716 16.6016 23.7181 16.3551 23.7181 16.0513C23.7181 15.7475 23.4716 15.501 23.1678 15.501Z"/>
<path d="M20.6661 15.501H15.894C15.5902 15.501 15.3438 15.7475 15.3438 16.0513C15.3438 16.3551 15.5902 16.6016 15.894 16.6016H20.6661C20.97 16.6016 21.2164 16.3551 21.2164 16.0513C21.2164 15.7475 20.97 15.501 20.6661 15.501Z"/>
<path d="M13.4001 16.0513C13.4001 15.7475 13.1539 15.501 12.8498 15.501H4.77197C4.46781 15.501 4.22168 15.7475 4.22168 16.0513C4.22168 16.3551 4.46781 16.6016 4.77197 16.6016H12.8498C13.1539 16.6016 13.4001 16.3551 13.4001 16.0513Z"/>
<path d="M46 24.1603C46.0004 22.5714 44.7644 21.2566 43.1784 21.1591C41.5923 21.0613 40.2044 22.2146 40.0099 23.7916C39.8153 25.3687 40.8812 26.8247 42.4432 27.1156V30.4099C42.0068 30.2469 41.5515 30.1405 41.0879 30.0939C41.0857 28.2714 39.6086 26.7935 37.7861 26.7914H33.1734V25.0137C33.1727 24.2807 32.5787 23.6863 31.8454 23.6852H27.9557V21.9545C27.9557 21.6506 27.7092 21.4042 27.4054 21.4042C27.1012 21.4042 26.8551 21.6506 26.8551 21.9545V23.6852H23.0302C22.2972 23.6863 21.7032 24.2803 21.7022 25.0133V26.791H17.0899C15.2674 26.7932 13.7902 28.2703 13.7881 30.0928V40.9647C13.7902 42.7872 15.2674 44.2643 17.0899 44.2665H37.7861C39.6086 44.2643 41.0857 42.7872 41.0879 40.9647V40.9636C43.3869 40.7319 45.2907 39.0781 45.8424 36.8343C46.3938 34.5905 45.4734 32.2424 43.5438 30.9713V27.1156C44.9665 26.8487 45.9979 25.6077 46 24.1603ZM22.8031 25.0137C22.8031 24.8883 22.9049 24.7865 23.0306 24.7862H31.8454C31.9711 24.7865 32.0729 24.8883 32.0729 25.0137V26.7914H22.8031V25.0137ZM39.9873 40.9647C39.9859 42.1796 39.001 43.1645 37.7861 43.1659H17.0899C15.875 43.1645 14.8901 42.1796 14.8887 40.9647V30.0932C14.8901 28.8783 15.875 27.8934 17.0899 27.892H37.7861C39.001 27.8934 39.9859 28.8783 39.9873 30.0932V40.9647ZM44.8995 35.5288C44.897 37.7242 43.2654 39.5764 41.0879 39.8563V31.2013C43.2654 31.4811 44.897 33.3337 44.8995 35.5288ZM41.0879 24.1603C41.0879 23.1077 41.9409 22.2547 42.9935 22.2547C44.0461 22.2547 44.8995 23.1077 44.8995 24.1603C44.8995 25.2129 44.0461 26.0663 42.9935 26.0663C41.9416 26.0652 41.089 25.2125 41.0879 24.1603Z"/>
<path d="M20.6574 32.6445H20.1146C19.1018 32.646 18.2813 33.4664 18.2803 34.4788V36.0473C18.2803 36.3511 18.5264 36.5976 18.8306 36.5976H21.9414C22.2456 36.5976 22.4917 36.3511 22.4917 36.0473V34.4788C22.4906 33.4664 21.6702 32.646 20.6574 32.6445ZM21.3911 35.497H19.3809V34.4788C19.3812 34.074 19.7094 33.7458 20.1146 33.7451H20.6574C21.0626 33.7458 21.3907 34.074 21.3911 34.4788V35.497Z"/>
<path d="M34.7609 32.6445H34.2181C33.2053 32.646 32.3849 33.4664 32.3838 34.4788V36.0473C32.3838 36.3511 32.6299 36.5976 32.9341 36.5976H36.0449C36.349 36.5976 36.5952 36.3511 36.5952 36.0473V34.4788C36.5941 33.4664 35.7737 32.646 34.7609 32.6445ZM35.4946 35.497H33.4844V34.4788C33.4847 34.074 33.8129 33.7458 34.2181 33.7451H34.7609C35.1661 33.7458 35.4942 34.074 35.4946 34.4788V35.497Z"/>
<path d="M30.5486 37.9805H24.3267C24.0229 37.9805 23.7764 38.2266 23.7764 38.5308V39.0735C23.7785 40.795 25.1732 42.1901 26.8947 42.1919H27.9806C29.7021 42.1901 31.0971 40.795 31.0989 39.0735V38.5308C31.0989 38.2266 30.8528 37.9805 30.5486 37.9805ZM27.9806 41.0913H26.8947C25.7837 41.0902 24.8823 40.192 24.877 39.0811H29.9983C29.9933 40.192 29.0916 41.0902 27.9806 41.0913Z"/>
</mask>
<path d="M8.70915 25.672C8.79119 25.716 8.88255 25.7393 8.9757 25.7393C9.00292 25.7393 9.03015 25.7375 9.05702 25.7336C9.2967 25.696 9.48801 25.5143 9.53889 25.2772C9.59549 25.0235 9.63168 24.7656 9.64673 24.5058C9.81439 22.712 10.168 20.9608 12.4351 20.9608H30.2516C31.9781 20.959 33.3775 19.56 33.3796 17.8331V3.92026C33.3775 2.19378 31.9781 0.79476 30.2516 0.792969H4.12765C2.40117 0.795118 1.00215 2.19414 1 3.92026V17.8328C1.00215 19.5592 2.40117 20.9583 4.12765 20.9604H5.17629C5.33859 20.9558 5.48118 21.0665 5.51736 21.2245C6.09739 24.5047 8.24734 25.495 8.70915 25.672ZM5.17629 19.8605H4.12765C3.00879 19.8591 2.10202 18.9523 2.10059 17.8335V3.92026C2.10202 2.8014 3.00879 1.89499 4.12765 1.89356H30.2516C31.3705 1.89463 32.2776 2.8014 32.279 3.92026V17.8328C32.2776 18.952 31.3705 19.8588 30.2516 19.8598H12.4347C9.01761 19.8598 8.6855 22.9667 8.55545 24.3525C7.9224 23.9294 6.94469 22.9792 6.60076 21.0331C6.47357 20.3481 5.87276 19.8537 5.17629 19.8605Z" fill="#E20E17"/>
<path d="M29.607 12.2793H23.0024C22.6986 12.2793 22.4521 12.5254 22.4521 12.8296C22.4521 13.1334 22.6986 13.3799 23.0024 13.3799H29.607C29.9112 13.3799 30.1573 13.1334 30.1573 12.8296C30.1573 12.5254 29.9112 12.2793 29.607 12.2793Z" fill="#E20E17"/>
<path d="M20.4332 12.8296C20.4332 12.5254 20.1867 12.2793 19.8829 12.2793H9.47315C9.16934 12.2793 8.92285 12.5254 8.92285 12.8296C8.92285 13.1334 9.16934 13.3799 9.47315 13.3799H19.8829C20.1867 13.3799 20.4332 13.1334 20.4332 12.8296Z" fill="#E20E17"/>
<path d="M4.77197 13.3799H7.04373C7.34754 13.3799 7.59403 13.1334 7.59403 12.8296C7.59403 12.5254 7.34754 12.2793 7.04373 12.2793H4.77197C4.46781 12.2793 4.22168 12.5254 4.22168 12.8296C4.22168 13.1334 4.46781 13.3799 4.77197 13.3799Z" fill="#E20E17"/>
<path d="M27.8823 10.1572H29.6067C29.9105 10.1572 30.157 9.91111 30.157 9.60694C30.157 9.30313 29.9105 9.05664 29.6067 9.05664H27.8823C27.5785 9.05664 27.332 9.30313 27.332 9.60694C27.332 9.91111 27.5785 10.1572 27.8823 10.1572Z" fill="#E20E17"/>
<path d="M25.4675 10.1572C25.7713 10.1572 26.0177 9.91111 26.0177 9.60694C26.0177 9.30313 25.7713 9.05664 25.4675 9.05664H22.5806C22.2768 9.05664 22.0303 9.30313 22.0303 9.60694C22.0303 9.91111 22.2768 10.1572 22.5806 10.1572H25.4675Z" fill="#E20E17"/>
<path d="M4.77197 10.1572H20.1462C20.4504 10.1572 20.6965 9.91111 20.6965 9.60694C20.6965 9.30313 20.4504 9.05664 20.1462 9.05664H4.77197C4.46781 9.05664 4.22168 9.30313 4.22168 9.60694C4.22168 9.91111 4.46781 10.1572 4.77197 10.1572Z" fill="#E20E17"/>
<path d="M28.2134 6.29102H29.6074C29.9112 6.29102 30.1577 6.04454 30.1577 5.74073C30.1577 5.43692 29.9112 5.19043 29.6074 5.19043H28.2134C27.9092 5.19043 27.6631 5.43692 27.6631 5.74073C27.6631 6.04454 27.9092 6.29102 28.2134 6.29102Z" fill="#E20E17"/>
<path d="M19.7935 6.29102H25.7654C26.0692 6.29102 26.3157 6.04454 26.3157 5.74073C26.3157 5.43692 26.0692 5.19043 25.7654 5.19043H19.7935C19.4893 5.19043 19.2432 5.43692 19.2432 5.74073C19.2432 6.04454 19.4893 6.29102 19.7935 6.29102Z" fill="#E20E17"/>
<path d="M4.77197 6.29102H17.3589C17.6627 6.29102 17.9092 6.04454 17.9092 5.74073C17.9092 5.43692 17.6627 5.19043 17.3589 5.19043H4.77197C4.46781 5.19043 4.22168 5.43692 4.22168 5.74073C4.22168 6.04454 4.46781 6.29102 4.77197 6.29102Z" fill="#E20E17"/>
<path d="M23.1678 15.501H22.9009C22.5971 15.501 22.3506 15.7475 22.3506 16.0513C22.3506 16.3551 22.5971 16.6016 22.9009 16.6016H23.1678C23.4716 16.6016 23.7181 16.3551 23.7181 16.0513C23.7181 15.7475 23.4716 15.501 23.1678 15.501Z" fill="#E20E17"/>
<path d="M20.6661 15.501H15.894C15.5902 15.501 15.3438 15.7475 15.3438 16.0513C15.3438 16.3551 15.5902 16.6016 15.894 16.6016H20.6661C20.97 16.6016 21.2164 16.3551 21.2164 16.0513C21.2164 15.7475 20.97 15.501 20.6661 15.501Z" fill="#E20E17"/>
<path d="M13.4001 16.0513C13.4001 15.7475 13.1539 15.501 12.8498 15.501H4.77197C4.46781 15.501 4.22168 15.7475 4.22168 16.0513C4.22168 16.3551 4.46781 16.6016 4.77197 16.6016H12.8498C13.1539 16.6016 13.4001 16.3551 13.4001 16.0513Z" fill="#E20E17"/>
<path d="M46 24.1603C46.0004 22.5714 44.7644 21.2566 43.1784 21.1591C41.5923 21.0613 40.2044 22.2146 40.0099 23.7916C39.8153 25.3687 40.8812 26.8247 42.4432 27.1156V30.4099C42.0068 30.2469 41.5515 30.1405 41.0879 30.0939C41.0857 28.2714 39.6086 26.7935 37.7861 26.7914H33.1734V25.0137C33.1727 24.2807 32.5787 23.6863 31.8454 23.6852H27.9557V21.9545C27.9557 21.6506 27.7092 21.4042 27.4054 21.4042C27.1012 21.4042 26.8551 21.6506 26.8551 21.9545V23.6852H23.0302C22.2972 23.6863 21.7032 24.2803 21.7022 25.0133V26.791H17.0899C15.2674 26.7932 13.7902 28.2703 13.7881 30.0928V40.9647C13.7902 42.7872 15.2674 44.2643 17.0899 44.2665H37.7861C39.6086 44.2643 41.0857 42.7872 41.0879 40.9647V40.9636C43.3869 40.7319 45.2907 39.0781 45.8424 36.8343C46.3938 34.5905 45.4734 32.2424 43.5438 30.9713V27.1156C44.9665 26.8487 45.9979 25.6077 46 24.1603ZM22.8031 25.0137C22.8031 24.8883 22.9049 24.7865 23.0306 24.7862H31.8454C31.9711 24.7865 32.0729 24.8883 32.0729 25.0137V26.7914H22.8031V25.0137ZM39.9873 40.9647C39.9859 42.1796 39.001 43.1645 37.7861 43.1659H17.0899C15.875 43.1645 14.8901 42.1796 14.8887 40.9647V30.0932C14.8901 28.8783 15.875 27.8934 17.0899 27.892H37.7861C39.001 27.8934 39.9859 28.8783 39.9873 30.0932V40.9647ZM44.8995 35.5288C44.897 37.7242 43.2654 39.5764 41.0879 39.8563V31.2013C43.2654 31.4811 44.897 33.3337 44.8995 35.5288ZM41.0879 24.1603C41.0879 23.1077 41.9409 22.2547 42.9935 22.2547C44.0461 22.2547 44.8995 23.1077 44.8995 24.1603C44.8995 25.2129 44.0461 26.0663 42.9935 26.0663C41.9416 26.0652 41.089 25.2125 41.0879 24.1603Z" fill="#E20E17"/>
<path d="M20.6574 32.6445H20.1146C19.1018 32.646 18.2813 33.4664 18.2803 34.4788V36.0473C18.2803 36.3511 18.5264 36.5976 18.8306 36.5976H21.9414C22.2456 36.5976 22.4917 36.3511 22.4917 36.0473V34.4788C22.4906 33.4664 21.6702 32.646 20.6574 32.6445ZM21.3911 35.497H19.3809V34.4788C19.3812 34.074 19.7094 33.7458 20.1146 33.7451H20.6574C21.0626 33.7458 21.3907 34.074 21.3911 34.4788V35.497Z" fill="#E20E17"/>
<path d="M34.7609 32.6445H34.2181C33.2053 32.646 32.3849 33.4664 32.3838 34.4788V36.0473C32.3838 36.3511 32.6299 36.5976 32.9341 36.5976H36.0449C36.349 36.5976 36.5952 36.3511 36.5952 36.0473V34.4788C36.5941 33.4664 35.7737 32.646 34.7609 32.6445ZM35.4946 35.497H33.4844V34.4788C33.4847 34.074 33.8129 33.7458 34.2181 33.7451H34.7609C35.1661 33.7458 35.4942 34.074 35.4946 34.4788V35.497Z" fill="#E20E17"/>
<path d="M30.5486 37.9805H24.3267C24.0229 37.9805 23.7764 38.2266 23.7764 38.5308V39.0735C23.7785 40.795 25.1732 42.1901 26.8947 42.1919H27.9806C29.7021 42.1901 31.0971 40.795 31.0989 39.0735V38.5308C31.0989 38.2266 30.8528 37.9805 30.5486 37.9805ZM27.9806 41.0913H26.8947C25.7837 41.0902 24.8823 40.192 24.877 39.0811H29.9983C29.9933 40.192 29.0916 41.0902 27.9806 41.0913Z" fill="#E20E17"/>
<path d="M8.70915 25.672C8.79119 25.716 8.88255 25.7393 8.9757 25.7393C9.00292 25.7393 9.03015 25.7375 9.05702 25.7336C9.2967 25.696 9.48801 25.5143 9.53889 25.2772C9.59549 25.0235 9.63168 24.7656 9.64673 24.5058C9.81439 22.712 10.168 20.9608 12.4351 20.9608H30.2516C31.9781 20.959 33.3775 19.56 33.3796 17.8331V3.92026C33.3775 2.19378 31.9781 0.79476 30.2516 0.792969H4.12765C2.40117 0.795118 1.00215 2.19414 1 3.92026V17.8328C1.00215 19.5592 2.40117 20.9583 4.12765 20.9604H5.17629C5.33859 20.9558 5.48118 21.0665 5.51736 21.2245C6.09739 24.5047 8.24734 25.495 8.70915 25.672ZM5.17629 19.8605H4.12765C3.00879 19.8591 2.10202 18.9523 2.10059 17.8335V3.92026C2.10202 2.8014 3.00879 1.89499 4.12765 1.89356H30.2516C31.3705 1.89463 32.2776 2.8014 32.279 3.92026V17.8328C32.2776 18.952 31.3705 19.8588 30.2516 19.8598H12.4347C9.01761 19.8598 8.6855 22.9667 8.55545 24.3525C7.9224 23.9294 6.94469 22.9792 6.60076 21.0331C6.47357 20.3481 5.87276 19.8537 5.17629 19.8605Z" stroke="#E20E17" stroke-width="0.4" mask="url(#path-1-outside-1)"/>
<path d="M29.607 12.2793H23.0024C22.6986 12.2793 22.4521 12.5254 22.4521 12.8296C22.4521 13.1334 22.6986 13.3799 23.0024 13.3799H29.607C29.9112 13.3799 30.1573 13.1334 30.1573 12.8296C30.1573 12.5254 29.9112 12.2793 29.607 12.2793Z" stroke="#E20E17" stroke-width="0.4" mask="url(#path-1-outside-1)"/>
<path d="M20.4332 12.8296C20.4332 12.5254 20.1867 12.2793 19.8829 12.2793H9.47315C9.16934 12.2793 8.92285 12.5254 8.92285 12.8296C8.92285 13.1334 9.16934 13.3799 9.47315 13.3799H19.8829C20.1867 13.3799 20.4332 13.1334 20.4332 12.8296Z" stroke="#E20E17" stroke-width="0.4" mask="url(#path-1-outside-1)"/>
<path d="M4.77197 13.3799H7.04373C7.34754 13.3799 7.59403 13.1334 7.59403 12.8296C7.59403 12.5254 7.34754 12.2793 7.04373 12.2793H4.77197C4.46781 12.2793 4.22168 12.5254 4.22168 12.8296C4.22168 13.1334 4.46781 13.3799 4.77197 13.3799Z" stroke="#E20E17" stroke-width="0.4" mask="url(#path-1-outside-1)"/>
<path d="M27.8823 10.1572H29.6067C29.9105 10.1572 30.157 9.91111 30.157 9.60694C30.157 9.30313 29.9105 9.05664 29.6067 9.05664H27.8823C27.5785 9.05664 27.332 9.30313 27.332 9.60694C27.332 9.91111 27.5785 10.1572 27.8823 10.1572Z" stroke="#E20E17" stroke-width="0.4" mask="url(#path-1-outside-1)"/>
<path d="M25.4675 10.1572C25.7713 10.1572 26.0177 9.91111 26.0177 9.60694C26.0177 9.30313 25.7713 9.05664 25.4675 9.05664H22.5806C22.2768 9.05664 22.0303 9.30313 22.0303 9.60694C22.0303 9.91111 22.2768 10.1572 22.5806 10.1572H25.4675Z" stroke="#E20E17" stroke-width="0.4" mask="url(#path-1-outside-1)"/>
<path d="M4.77197 10.1572H20.1462C20.4504 10.1572 20.6965 9.91111 20.6965 9.60694C20.6965 9.30313 20.4504 9.05664 20.1462 9.05664H4.77197C4.46781 9.05664 4.22168 9.30313 4.22168 9.60694C4.22168 9.91111 4.46781 10.1572 4.77197 10.1572Z" stroke="#E20E17" stroke-width="0.4" mask="url(#path-1-outside-1)"/>
<path d="M28.2134 6.29102H29.6074C29.9112 6.29102 30.1577 6.04454 30.1577 5.74073C30.1577 5.43692 29.9112 5.19043 29.6074 5.19043H28.2134C27.9092 5.19043 27.6631 5.43692 27.6631 5.74073C27.6631 6.04454 27.9092 6.29102 28.2134 6.29102Z" stroke="#E20E17" stroke-width="0.4" mask="url(#path-1-outside-1)"/>
<path d="M19.7935 6.29102H25.7654C26.0692 6.29102 26.3157 6.04454 26.3157 5.74073C26.3157 5.43692 26.0692 5.19043 25.7654 5.19043H19.7935C19.4893 5.19043 19.2432 5.43692 19.2432 5.74073C19.2432 6.04454 19.4893 6.29102 19.7935 6.29102Z" stroke="#E20E17" stroke-width="0.4" mask="url(#path-1-outside-1)"/>
<path d="M4.77197 6.29102H17.3589C17.6627 6.29102 17.9092 6.04454 17.9092 5.74073C17.9092 5.43692 17.6627 5.19043 17.3589 5.19043H4.77197C4.46781 5.19043 4.22168 5.43692 4.22168 5.74073C4.22168 6.04454 4.46781 6.29102 4.77197 6.29102Z" stroke="#E20E17" stroke-width="0.4" mask="url(#path-1-outside-1)"/>
<path d="M23.1678 15.501H22.9009C22.5971 15.501 22.3506 15.7475 22.3506 16.0513C22.3506 16.3551 22.5971 16.6016 22.9009 16.6016H23.1678C23.4716 16.6016 23.7181 16.3551 23.7181 16.0513C23.7181 15.7475 23.4716 15.501 23.1678 15.501Z" stroke="#E20E17" stroke-width="0.4" mask="url(#path-1-outside-1)"/>
<path d="M20.6661 15.501H15.894C15.5902 15.501 15.3438 15.7475 15.3438 16.0513C15.3438 16.3551 15.5902 16.6016 15.894 16.6016H20.6661C20.97 16.6016 21.2164 16.3551 21.2164 16.0513C21.2164 15.7475 20.97 15.501 20.6661 15.501Z" stroke="#E20E17" stroke-width="0.4" mask="url(#path-1-outside-1)"/>
<path d="M13.4001 16.0513C13.4001 15.7475 13.1539 15.501 12.8498 15.501H4.77197C4.46781 15.501 4.22168 15.7475 4.22168 16.0513C4.22168 16.3551 4.46781 16.6016 4.77197 16.6016H12.8498C13.1539 16.6016 13.4001 16.3551 13.4001 16.0513Z" stroke="#E20E17" stroke-width="0.4" mask="url(#path-1-outside-1)"/>
<path d="M46 24.1603C46.0004 22.5714 44.7644 21.2566 43.1784 21.1591C41.5923 21.0613 40.2044 22.2146 40.0099 23.7916C39.8153 25.3687 40.8812 26.8247 42.4432 27.1156V30.4099C42.0068 30.2469 41.5515 30.1405 41.0879 30.0939C41.0857 28.2714 39.6086 26.7935 37.7861 26.7914H33.1734V25.0137C33.1727 24.2807 32.5787 23.6863 31.8454 23.6852H27.9557V21.9545C27.9557 21.6506 27.7092 21.4042 27.4054 21.4042C27.1012 21.4042 26.8551 21.6506 26.8551 21.9545V23.6852H23.0302C22.2972 23.6863 21.7032 24.2803 21.7022 25.0133V26.791H17.0899C15.2674 26.7932 13.7902 28.2703 13.7881 30.0928V40.9647C13.7902 42.7872 15.2674 44.2643 17.0899 44.2665H37.7861C39.6086 44.2643 41.0857 42.7872 41.0879 40.9647V40.9636C43.3869 40.7319 45.2907 39.0781 45.8424 36.8343C46.3938 34.5905 45.4734 32.2424 43.5438 30.9713V27.1156C44.9665 26.8487 45.9979 25.6077 46 24.1603ZM22.8031 25.0137C22.8031 24.8883 22.9049 24.7865 23.0306 24.7862H31.8454C31.9711 24.7865 32.0729 24.8883 32.0729 25.0137V26.7914H22.8031V25.0137ZM39.9873 40.9647C39.9859 42.1796 39.001 43.1645 37.7861 43.1659H17.0899C15.875 43.1645 14.8901 42.1796 14.8887 40.9647V30.0932C14.8901 28.8783 15.875 27.8934 17.0899 27.892H37.7861C39.001 27.8934 39.9859 28.8783 39.9873 30.0932V40.9647ZM44.8995 35.5288C44.897 37.7242 43.2654 39.5764 41.0879 39.8563V31.2013C43.2654 31.4811 44.897 33.3337 44.8995 35.5288ZM41.0879 24.1603C41.0879 23.1077 41.9409 22.2547 42.9935 22.2547C44.0461 22.2547 44.8995 23.1077 44.8995 24.1603C44.8995 25.2129 44.0461 26.0663 42.9935 26.0663C41.9416 26.0652 41.089 25.2125 41.0879 24.1603Z" stroke="#E20E17" stroke-width="0.4" mask="url(#path-1-outside-1)"/>
<path d="M20.6574 32.6445H20.1146C19.1018 32.646 18.2813 33.4664 18.2803 34.4788V36.0473C18.2803 36.3511 18.5264 36.5976 18.8306 36.5976H21.9414C22.2456 36.5976 22.4917 36.3511 22.4917 36.0473V34.4788C22.4906 33.4664 21.6702 32.646 20.6574 32.6445ZM21.3911 35.497H19.3809V34.4788C19.3812 34.074 19.7094 33.7458 20.1146 33.7451H20.6574C21.0626 33.7458 21.3907 34.074 21.3911 34.4788V35.497Z" stroke="#E20E17" stroke-width="0.4" mask="url(#path-1-outside-1)"/>
<path d="M34.7609 32.6445H34.2181C33.2053 32.646 32.3849 33.4664 32.3838 34.4788V36.0473C32.3838 36.3511 32.6299 36.5976 32.9341 36.5976H36.0449C36.349 36.5976 36.5952 36.3511 36.5952 36.0473V34.4788C36.5941 33.4664 35.7737 32.646 34.7609 32.6445ZM35.4946 35.497H33.4844V34.4788C33.4847 34.074 33.8129 33.7458 34.2181 33.7451H34.7609C35.1661 33.7458 35.4942 34.074 35.4946 34.4788V35.497Z" stroke="#E20E17" stroke-width="0.4" mask="url(#path-1-outside-1)"/>
<path d="M30.5486 37.9805H24.3267C24.0229 37.9805 23.7764 38.2266 23.7764 38.5308V39.0735C23.7785 40.795 25.1732 42.1901 26.8947 42.1919H27.9806C29.7021 42.1901 31.0971 40.795 31.0989 39.0735V38.5308C31.0989 38.2266 30.8528 37.9805 30.5486 37.9805ZM27.9806 41.0913H26.8947C25.7837 41.0902 24.8823 40.192 24.877 39.0811H29.9983C29.9933 40.192 29.0916 41.0902 27.9806 41.0913Z" stroke="#E20E17" stroke-width="0.4" mask="url(#path-1-outside-1)"/>
</svg>
