<svg width="43" height="45" viewBox="0 0 43 45" fill="none" xmlns="http://www.w3.org/2000/svg"><path d="M16.625 2.25h-3.75c-.45 0-.75.3-.75.75s.3.75.75.75h3.75c.45 0 .75-.3.75-.75s-.3-.75-.75-.75zm-6 0h-.75c-.45 0-.75.3-.75.75s.3.75.75.75h.75c.45 0 .75-.3.75-.75s-.3-.75-.75-.75z" fill="#E20E17"/><path d="M39.875 9.75h-13.5V3c0-1.65-1.35-3-3-3h-19.5c-1.65 0-3 1.35-3 3v3.75c-.45 0-.75.3-.75.75v.75c0 .45.3.75.75.75v.75c-.45 0-.75.3-.75.75v.75c0 .45.3.75.75.75v.75c-.45 0-.75.3-.75.75v.75c0 .45.3.75.75.75v27c0 1.65 1.35 3 3 3h19.5c1.65 0 3-1.35 3-3v-8.25h13.5c1.65 0 3-1.35 3-3v-18c0-1.65-1.35-3-3-3zm0 1.5c.825 0 1.5.675 1.5 1.5v.75h-29.25v-.75c0-.825.675-1.5 1.5-1.5h26.25zm1.5 6.75h-29.25v-3h29.25v3zm-39-15c0-.825.675-1.5 1.5-1.5h19.5c.825 0 1.5.675 1.5 1.5v1.5h-22.5V3zm0 39v-3h9.272a2.994 2.994 0 0 0-1.022 2.25c0 .894.397 1.7 1.022 2.25H3.875c-.825 0-1.5-.675-1.5-1.5zm11.25.75c-.825 0-1.5-.675-1.5-1.5s.675-1.5 1.5-1.5 1.5.675 1.5 1.5-.675 1.5-1.5 1.5zm11.25-.75c0 .825-.675 1.5-1.5 1.5h-7.772a2.995 2.995 0 0 0 1.022-2.25c0-.894-.397-1.7-1.022-2.25h9.272v3zm0-4.5h-22.5V6h22.5v3.75h-11.25c-1.65 0-3 1.35-3 3v18c0 1.65 1.35 3 3 3h11.25v3.75zm15-5.25h-26.25c-.825 0-1.5-.675-1.5-1.5V19.5h29.25v11.25c0 .825-.675 1.5-1.5 1.5z" fill="#E20E17"/><path d="M39.125 24h-9.75c-.45 0-.75.3-.75.75V30c0 .45.3.75.75.75h9.75c.45 0 .75-.3.75-.75v-5.25c0-.45-.3-.75-.75-.75zm-.75 5.25h-8.25V25.5h8.25v3.75zm-24-6h3.75c.45 0 .75-.3.75-.75s-.3-.75-.75-.75h-3.75c-.45 0-.75.3-.75.75s.3.75.75.75zm11.175-1.5h-4.875c-.45 0-.75.3-.75.75s.3.75.75.75h4.875c.45 0 .75-.3.75-.75s-.3-.75-.75-.75zm-3.75 3h-7.425c-.45 0-.75.3-.75.75s.3.75.75.75H21.8c.375 0 .75-.3.75-.75s-.3-.75-.75-.75zm3.75 0h-1.425c-.45 0-.75.3-.75.75s.3.75.75.75h1.425c.45 0 .75-.3.75-.75s-.3-.75-.75-.75z" fill="#E20E17"/></svg>