<svg width="47" height="47" viewBox="0 0 47 47" fill="none" xmlns="http://www.w3.org/2000/svg"><path d="M38.5 8.945V4.75A3.755 3.755 0 0 0 34.75 1h-30A3.755 3.755 0 0 0 1 4.75v16.5a3.743 3.743 0 0 0 3.363 3.711l2.82 7.319a3.75 3.75 0 0 0 4.847 2.15l17.605-6.781a10.842 10.842 0 0 0 .934 9.626l.431.69v7.285c0 .414.336.75.75.75h13.5a.75.75 0 0 0 .75-.75V20.493a9.815 9.815 0 0 0-2.873-6.913L38.5 8.945zm0 4.486l2.276 5.909a2.25 2.25 0 0 1-1.291 2.907l-1.301.503a3.75 3.75 0 0 0 .316-1.5v-7.82zm-36 7.819V4.75A2.25 2.25 0 0 1 4.75 2.5h30A2.25 2.25 0 0 1 37 4.75v4.767h-.007l.007.017V21.25c-.006.13-.023.26-.051.389l-6.87-6.871a4.001 4.001 0 0 0-5.775 5.533l2.929 3.199H4.75a2.25 2.25 0 0 1-2.25-2.25zM12.108 25l-5.333 2.053L5.986 25h6.122zm-.618 8.03a2.25 2.25 0 0 1-2.908-1.29l-1.266-3.29L16.27 25v-.005h12.339l.974 1.063-18.092 6.973zM44.5 44.5h-12v-6h12v6zm0-7.5H32.166l-.325-.52a9.353 9.353 0 0 1-.19-9.605.75.75 0 0 0-.098-.879l-6.146-6.705a2.501 2.501 0 0 1 3.611-3.46l11.952 11.95 1.06-1.061-2.775-2.775.77-.3a3.75 3.75 0 0 0 2.15-4.845l-2.539-6.592 2.43 2.434a8.306 8.306 0 0 1 2.434 5.851V37z" fill="#fff" stroke="#fff" stroke-width=".1"/><path d="M9.55 11.5a1.95 1.95 0 0 0 1.95-1.95v-3.6A1.95 1.95 0 0 0 9.55 4h-3.6A1.95 1.95 0 0 0 4 5.95v3.6a1.95 1.95 0 0 0 1.95 1.95h3.6zM5.5 9.55V8.5H7V7H5.5V5.95a.45.45 0 0 1 .45-.45h3.6a.45.45 0 0 1 .45.45V7H8.5v1.5H10v1.05a.45.45 0 0 1-.45.45h-3.6a.45.45 0 0 1-.45-.45zm-.75 4.2h3v1.5h-3v-1.5zm0 4.5h3v1.5h-3v-1.5zm13.5 0h3v1.5h-3v-1.5zm-9-4.5h3v1.5h-3v-1.5zm4.5 0h3v1.5h-3v-1.5zm4.5 0h3v1.5h-3v-1.5zm14.25-9H34V7h-1.5V4.75zm-3 0H31V7h-1.5V4.75zm-3 0H28V7h-1.5V4.75zm-3 0H25V7h-1.5V4.75zM34 40h1.5v1.5H34V40z" fill="#fff" stroke="#fff" stroke-width=".1"/></svg>