<svg width="46" height="30" viewBox="0 0 46 30" fill="none" xmlns="http://www.w3.org/2000/svg"><path d="M44.575.645H.731A.73.73 0 0 0 0 1.376v27.768a.73.73 0 0 0 .73.731h43.845a.73.73 0 0 0 .731-.73V1.375a.73.73 0 0 0-.73-.73zM1.462 2.107h42.384V5.03H1.46V2.107zm42.384 26.307H1.46V6.49h42.384v21.923z" fill="#E20E17"/><path d="M3.654 4.299a.73.73 0 1 0 0-1.462.73.73 0 0 0 0 1.462zm2.192 0a.73.73 0 1 0 0-1.462.73.73 0 0 0 0 1.462zm2.192 0a.73.73 0 1 0 0-1.462.73.73 0 0 0 0 1.462zm26.307 22.653h4.385a.73.73 0 0 0 0-1.462h-4.385a.73.73 0 1 0 0 1.462zm6.577 0h.73a.73.73 0 0 0 0-1.462h-.73a.73.73 0 1 0 0 1.462zm-16.808-5.846h2.193a.731.731 0 0 0 .73-.73v-2.193a.731.731 0 0 0-.73-.73h-2.192a.731.731 0 0 0-.731.73v2.192a.73.73 0 0 0 .73.731zm.731-2.192h.731v.73h-.73v-.73z" fill="#E20E17"/><path d="M13.062 24.029H29.23a.73.73 0 0 0 0-1.462v-5.846h.73a.731.731 0 0 0 .731-.73v-2.192a.731.731 0 0 0-.73-.731h-.863l-.613-3.066a.73.73 0 0 0-.717-.588h-10.23a.73.73 0 0 0-.717.588l-.613 3.066h-.862a.731.731 0 0 0-.731.73v2.193a.73.73 0 0 0 .73.73h.731v5.846h-3.014a.731.731 0 0 0 0 1.462zm6.668-1.462v-3.653h1.462v3.653H19.73zm-1.593-11.691h9.032l.439 2.192h-9.91l.439-2.192zm-2.06 3.653H29.23v.731H16.076v-.73zm1.46 2.192h10.231v5.846h-5.115v-4.384a.73.73 0 0 0-.73-.73h-2.924a.731.731 0 0 0-.73.73v4.384h-.731v-5.846zm13.885 7.309h.73a.73.73 0 0 0 0-1.462h-.73a.73.73 0 0 0 0 1.461z" fill="#E20E17"/></svg>