<svg width="46" height="30" viewBox="0 0 46 30" fill="none" xmlns="http://www.w3.org/2000/svg">
<path d="M44.5755 0.645264H0.730746C0.53694 0.645264 0.351072 0.722253 0.214031 0.859294C0.0769891 0.996336 0 1.1822 0 1.37601V29.1444C0 29.3382 0.0769891 29.524 0.214031 29.6611C0.351072 29.7981 0.53694 29.8751 0.730746 29.8751H44.5755C44.7693 29.8751 44.9552 29.7981 45.0922 29.6611C45.2293 29.524 45.3063 29.3382 45.3063 29.1444V1.37601C45.3063 1.1822 45.2293 0.996336 45.0922 0.859294C44.9552 0.722253 44.7693 0.645264 44.5755 0.645264ZM1.46149 2.10676H43.8448V5.02974H1.46149V2.10676ZM43.8448 28.4136H1.46149V6.49123H43.8448V28.4136Z" fill="#E20E17"/>
<path d="M3.6536 4.29889C4.05718 4.29889 4.38434 3.97173 4.38434 3.56815C4.38434 3.16457 4.05718 2.8374 3.6536 2.8374C3.25002 2.8374 2.92285 3.16457 2.92285 3.56815C2.92285 3.97173 3.25002 4.29889 3.6536 4.29889Z" fill="#E20E17"/>
<path d="M5.84586 4.29889C6.24944 4.29889 6.5766 3.97173 6.5766 3.56815C6.5766 3.16457 6.24944 2.8374 5.84586 2.8374C5.44228 2.8374 5.11511 3.16457 5.11511 3.56815C5.11511 3.97173 5.44228 4.29889 5.84586 4.29889Z" fill="#E20E17"/>
<path d="M8.03824 4.29889C8.44182 4.29889 8.76899 3.97173 8.76899 3.56815C8.76899 3.16457 8.44182 2.8374 8.03824 2.8374C7.63466 2.8374 7.3075 3.16457 7.3075 3.56815C7.3075 3.97173 7.63466 4.29889 8.03824 4.29889Z" fill="#E20E17"/>
<path d="M34.345 26.9517H38.7295C38.9233 26.9517 39.1092 26.8747 39.2462 26.7377C39.3832 26.6007 39.4602 26.4148 39.4602 26.221C39.4602 26.0272 39.3832 25.8413 39.2462 25.7043C39.1092 25.5672 38.9233 25.4902 38.7295 25.4902H34.345C34.1512 25.4902 33.9653 25.5672 33.8283 25.7043C33.6912 25.8413 33.6143 26.0272 33.6143 26.221C33.6143 26.4148 33.6912 26.6007 33.8283 26.7377C33.9653 26.8747 34.1512 26.9517 34.345 26.9517Z" fill="#E20E17"/>
<path d="M40.9218 26.9517H41.6525C41.8463 26.9517 42.0322 26.8747 42.1692 26.7377C42.3063 26.6007 42.3833 26.4148 42.3833 26.221C42.3833 26.0272 42.3063 25.8413 42.1692 25.7043C42.0322 25.5672 41.8463 25.4902 41.6525 25.4902H40.9218C40.728 25.4902 40.5421 25.5672 40.4051 25.7043C40.268 25.8413 40.191 26.0272 40.191 26.221C40.191 26.4148 40.268 26.6007 40.4051 26.7377C40.5421 26.8747 40.728 26.9517 40.9218 26.9517Z" fill="#E20E17"/>
<path d="M24.1145 21.1061H26.3068C26.5006 21.1061 26.6864 21.0291 26.8235 20.8921C26.9605 20.7551 27.0375 20.5692 27.0375 20.3754V18.1831C27.0375 17.9893 26.9605 17.8035 26.8235 17.6664C26.6864 17.5294 26.5006 17.4524 26.3068 17.4524H24.1145C23.9207 17.4524 23.7349 17.5294 23.5978 17.6664C23.4608 17.8035 23.3838 17.9893 23.3838 18.1831V20.3754C23.3838 20.5692 23.4608 20.7551 23.5978 20.8921C23.7349 21.0291 23.9207 21.1061 24.1145 21.1061ZM24.8453 18.9139H25.576V19.6446H24.8453V18.9139Z" fill="#E20E17"/>
<path d="M13.062 24.029H29.2298C29.4236 24.029 29.6095 23.952 29.7465 23.815C29.8836 23.6779 29.9605 23.492 29.9605 23.2982C29.9605 23.1044 29.8836 22.9186 29.7465 22.7815C29.6095 22.6445 29.4236 22.5675 29.2298 22.5675V16.7215H29.9605C30.1544 16.7215 30.3402 16.6445 30.4773 16.5075C30.6143 16.3705 30.6913 16.1846 30.6913 15.9908V13.7985C30.6913 13.6047 30.6143 13.4189 30.4773 13.2818C30.3402 13.1448 30.1544 13.0678 29.9605 13.0678H29.0982L28.4849 10.0015C28.4518 9.83584 28.3623 9.68678 28.2316 9.57968C28.101 9.47258 27.9372 9.41405 27.7683 9.41406H17.5379C17.3689 9.41405 17.2052 9.47258 17.0746 9.57968C16.9439 9.68678 16.8544 9.83584 16.8213 10.0015L16.208 13.0678H15.3456C15.1518 13.0678 14.966 13.1448 14.8289 13.2818C14.6919 13.4189 14.6149 13.6047 14.6149 13.7985V15.9908C14.6149 16.1846 14.6919 16.3705 14.8289 16.5075C14.966 16.6445 15.1518 16.7215 15.3456 16.7215H16.0764V22.5675H13.062C12.8682 22.5675 12.6824 22.6445 12.5453 22.7815C12.4083 22.9186 12.3313 23.1044 12.3313 23.2982C12.3313 23.492 12.4083 23.6779 12.5453 23.815C12.6824 23.952 12.8682 24.029 13.062 24.029ZM19.7301 22.5675V18.9138H21.1916V22.5675H19.7301ZM18.137 10.8756H27.1692L27.6076 13.0678H17.6985L18.137 10.8756ZM16.0764 14.5293H29.2298V15.26H16.0764V14.5293ZM17.5379 16.7215H27.7683V22.5675H22.6531V18.183C22.6531 17.9892 22.5761 17.8033 22.4391 17.6663C22.302 17.5293 22.1161 17.4523 21.9223 17.4523H18.9994C18.8056 17.4523 18.6197 17.5293 18.4826 17.6663C18.3456 17.8033 18.2686 17.9892 18.2686 18.183V22.5675H17.5379V16.7215Z" fill="#E20E17"/>
<path d="M31.422 24.0291H32.1528C32.3466 24.0291 32.5325 23.9521 32.6695 23.8151C32.8065 23.678 32.8835 23.4922 32.8835 23.2984C32.8835 23.1046 32.8065 22.9187 32.6695 22.7817C32.5325 22.6446 32.3466 22.5676 32.1528 22.5676H31.422C31.2282 22.5676 31.0424 22.6446 30.9053 22.7817C30.7683 22.9187 30.6913 23.1046 30.6913 23.2984C30.6913 23.4922 30.7683 23.678 30.9053 23.8151C31.0424 23.9521 31.2282 24.0291 31.422 24.0291Z" fill="#E20E17"/>
</svg>
