<svg width="32" height="45" viewBox="0 0 32 45" fill="none" xmlns="http://www.w3.org/2000/svg"><path d="M8.009 28.34a3.346 3.346 0 0 0 0-4.727 3.321 3.321 0 0 0-2.363-.978c-.516 0-1.014.116-1.464.336a13.38 13.38 0 0 1-2.423-7.723c0-7.153 5.588-13.079 12.721-13.49A.88.88 0 0 0 14.379 0C6.316.467 0 7.164 0 15.248c0 3.226.986 6.289 2.854 8.891a3.348 3.348 0 0 0 .429 4.2c.631.632 1.47.98 2.363.98s1.732-.348 2.363-.98zm-3.483-3.483a1.578 1.578 0 0 1 1.12-.463 1.584 1.584 0 0 1 1.12 2.702 1.585 1.585 0 0 1-2.24 0 1.585 1.585 0 0 1 0-2.239z" fill="#E20E17"/><path d="M28.832 30.469c-.556 0-1.078.145-1.532.399a3.152 3.152 0 0 0-3.001-2.202c-.89 0-1.694.371-2.267.966a3.185 3.185 0 0 0-.527-.439 15.27 15.27 0 0 0 9.04-13.945c0-3.223-.986-6.288-2.854-8.89a3.347 3.347 0 0 0-.429-4.201 3.346 3.346 0 0 0-4.726 0 3.346 3.346 0 0 0 0 4.726 3.346 3.346 0 0 0 3.826.64 13.386 13.386 0 0 1 2.424 7.725c0 6.362-4.318 11.74-10.408 13.156V23.67a9.014 9.014 0 0 0 5.87-8.422c0-4.949-4.026-8.975-8.976-8.975-4.949 0-8.975 4.026-8.975 8.975 0 1.953.617 3.81 1.784 5.37a9.068 9.068 0 0 0 4.005 3.021v12.936l-1.105-1.812a3.24 3.24 0 0 0-4.412-1.127 3.274 3.274 0 0 0-1.3 4.247l3.28 6.627a.88.88 0 0 0 1.576-.78l-3.277-6.62a1.506 1.506 0 0 1 .6-1.95 1.509 1.509 0 0 1 2.031.518l2.735 4.488a.88.88 0 0 0 1.63-.458V19.53a1.389 1.389 0 0 1 2.775 0v16.702a.879.879 0 1 0 1.76 0v-4.42c0-.765.621-1.387 1.386-1.387a1.39 1.39 0 0 1 1.388 1.387v4.74a.88.88 0 1 0 1.758 0v-4.74a1.39 1.39 0 0 1 1.388-1.387c.765 0 1.387.622 1.387 1.387v4.8a.88.88 0 1 0 1.759 0v-2.997c0-.765.622-1.387 1.387-1.387s1.387.622 1.387 1.387V44.12a.88.88 0 1 0 1.76 0V33.615a3.15 3.15 0 0 0-3.147-3.146zM23.78 5.639a1.585 1.585 0 0 1 0-2.239 1.578 1.578 0 0 1 1.12-.462c.405 0 .81.154 1.119.462a1.585 1.585 0 0 1 0 2.24 1.585 1.585 0 0 1-2.239 0zM8.056 15.25c0-3.98 3.237-7.218 7.217-7.218 3.979 0 7.216 3.238 7.216 7.217a7.253 7.253 0 0 1-4.11 6.516V19.53c0-.494-.116-.962-.32-1.378a4.046 4.046 0 0 0 1.242-2.904 4.033 4.033 0 0 0-4.028-4.028 4.033 4.033 0 0 0-4.028 4.028A4.05 4.05 0 0 0 12.43 18.1c-.22.429-.345.915-.345 1.43v2.197a7.18 7.18 0 0 1-4.03-6.479zm5.58 1.57a2.247 2.247 0 0 1-.632-1.57 2.272 2.272 0 0 1 2.269-2.27 2.272 2.272 0 0 1 2.269 2.27 2.28 2.28 0 0 1-.664 1.601 3.125 3.125 0 0 0-1.646-.466c-.582 0-1.127.16-1.596.436zm4.751-14.748a.885.885 0 0 0 .621-.258.885.885 0 0 0 .258-.621.886.886 0 0 0-.258-.622.886.886 0 0 0-.621-.258.886.886 0 0 0-.622.258.886.886 0 0 0-.258.622.885.885 0 0 0 .88.88z" fill="#E20E17"/></svg>