<svg width="30" height="45" viewBox="0 0 30 45" fill="none" xmlns="http://www.w3.org/2000/svg"><path d="M25.52 44.946H4.546A3.75 3.75 0 0 1 .8 41.2V3.746A3.75 3.75 0 0 1 4.546 0H25.52a3.75 3.75 0 0 1 3.746 3.746V41.2a3.75 3.75 0 0 1-3.746 3.746zM2.298 37.455h25.47V7.49H2.297v29.964zm2.248 5.993H25.52a2.247 2.247 0 0 0 2.247-2.248v-2.247H2.298V41.2a2.247 2.247 0 0 0 2.248 2.248zM25.52 1.498H4.546a2.247 2.247 0 0 0-2.248 2.248v2.247h25.47V3.746a2.247 2.247 0 0 0-2.248-2.248z" fill="#fff"/><path d="M15.782 4.495h-1.498a.749.749 0 1 1 0-1.499h1.498a.75.75 0 0 1 0 1.499zM5.295 40.451h1.498a.75.75 0 1 1 0 1.498H5.295a.75.75 0 0 1 0-1.498zm4.494 0h2.996a.75.75 0 1 1 0 1.498H9.79a.75.75 0 0 1 0-1.498zM7.542 26.218h2.996a.75.75 0 0 1 .75.75v2.996a.75.75 0 0 1-.75.749H7.542a.75.75 0 0 1-.75-.75v-2.996a.75.75 0 0 1 .75-.749zm.749 2.997h1.498v-1.498H8.291v1.498zm14.233 1.498h-2.997a.75.75 0 0 1-.749-.75v-2.996a.75.75 0 0 1 .75-.749h2.996a.75.75 0 0 1 .749.75v2.996a.75.75 0 0 1-.75.749zm-.75-2.997h-1.498v1.499h1.499v-1.498zm-11.236-8.989H7.542a.75.75 0 0 1-.75-.749v-2.996a.75.75 0 0 1 .75-.75h2.996a.75.75 0 0 1 .75.75v2.996a.749.749 0 0 1-.75.75zm-.749-2.996H8.291v1.498h1.498v-1.498zm3.746 13.484h2.996a.75.75 0 1 1 0 1.498h-2.996a.75.75 0 0 1 0-1.498zm-5.993-8.989c.414 0 .749.335.749.749v1.498h1.498v-.75a.75.75 0 0 1 1.498 0v.75h2.248a.749.749 0 1 1 0 1.498h-1.498v.75a.75.75 0 0 1-1.499 0v-.75H8.291a.75.75 0 0 1-1.498 0v-2.996a.75.75 0 0 1 .749-.75zm14.982-2.997a.749.749 0 0 1-.75-.749v-.75h-.748a.749.749 0 0 1 0-1.497h1.498a.75.75 0 0 1 .749.749v1.498a.75.75 0 0 1-.749.749zM18.03 15.73h-1.5v1.499h.75a.75.75 0 0 1 0 1.498h-.75v.75a.749.749 0 0 1-1.497 0h-.75a.749.749 0 1 1 0-1.499h.75v-2.247h-.75v.75a.75.75 0 0 1-1.497 0v-1.5a.75.75 0 0 1 .749-.748h4.494a.749.749 0 1 1 0 1.498zm4.494 8.99a.75.75 0 0 1-.75-.749v-4.495a.75.75 0 1 1 1.499 0v4.495a.75.75 0 0 1-.75.75zm-4.494-2.247h.748v-.75a.75.75 0 0 1 1.499 0v1.499a.75.75 0 0 1-.75.75v.748a.749.749 0 0 1-1.498 0v-.749a.75.75 0 0 1 0-1.498zm-4.495 2.997h1.498a.75.75 0 0 1 .749.748h.749a.75.75 0 1 1 0 1.499h-.749a.75.75 0 0 1-1.498 0v-.75h-.75a.75.75 0 0 1 0-1.498zm.749-5.245a.75.75 0 0 1-.75.75h-1.498a.75.75 0 0 1 0-1.499h1.499a.75.75 0 0 1 .749.75zm.749 2.997v-1.498a.75.75 0 0 1 1.498 0v1.498a.75.75 0 1 1-1.498 0zm5.993-5.992v1.497a.75.75 0 1 1-1.499 0V17.23a.75.75 0 0 1 1.498 0zm-2.248 3.745H17.28a.75.75 0 1 1 0-1.499h1.498a.749.749 0 0 1 0 1.499z" fill="#fff"/></svg>