<svg width="47" height="41" viewBox="0 0 47 41" fill="none" xmlns="http://www.w3.org/2000/svg"><path d="M45.425 9.09l-1.612-.156a7.973 7.973 0 0 0-.795-1.881l1.021-1.231a.632.632 0 0 0-.038-.849L42.07 3.021a.632.632 0 0 0-.853-.042L39.98 4.003a8.234 8.234 0 0 0-1.881-.793l-.155-1.622a.647.647 0 0 0-.63-.588h-2.77a.647.647 0 0 0-.63.588L33.758 3.2c-.66.183-1.293.45-1.885.795l-1.232-1.019a.633.633 0 0 0-.85.04L27.835 4.97a.633.633 0 0 0-.04.851l1.023 1.237a8.64 8.64 0 0 0-.408.81H7.533a3.194 3.194 0 0 0-3.19 3.212v1.034H3.326A2.352 2.352 0 0 0 1 14.461v9.809a2.314 2.314 0 0 0 2.326 2.302h1.017v5.193a3.193 3.193 0 0 0 3.19 3.21h9.37v4.7h-2.92a.632.632 0 1 0 0 1.265h18.862a.632.632 0 1 0 0-1.265h-2.93v-4.7h9.38a3.186 3.186 0 0 0 3.18-3.21V18.743l1.529-1.508a.632.632 0 0 0 .049-.851l-1.018-1.234c.341-.59.609-1.222.796-1.879l1.593-.155a.637.637 0 0 0 .576-.63V9.72a.636.636 0 0 0-.575-.63zM3.326 13.38h15.518c.581 0 1.041.5 1.041 1.081v.635H2.265v-.635a1.085 1.085 0 0 1 1.061-1.082zm-1.06 2.981h17.62v1.808H2.265V16.36zm0 7.909v-4.836h17.62v4.836a1.029 1.029 0 0 1-1.042 1.037H3.326a1.047 1.047 0 0 1-1.06-1.037zM28.65 39.675H18.169v-4.7H28.65v4.7zm12.56-7.91a1.918 1.918 0 0 1-1.916 1.946H7.532a1.926 1.926 0 0 1-1.925-1.946v-2.572H41.21v2.572zM5.608 27.928v-1.356h13.236a2.296 2.296 0 0 0 2.307-2.302v-9.81c0-1.278-1.028-2.347-2.307-2.347H5.608V11.08a1.927 1.927 0 0 1 1.925-1.947H26.25a.618.618 0 0 0-.4.586v2.767a.629.629 0 0 0 .568.63l1.607.155c.183.66.45 1.291.793 1.881l-1.021 1.232a.633.633 0 0 0 .04.851l1.955 1.952c.231.23.6.248.85.04l1.235-1.025a8.237 8.237 0 0 0 1.881.794l.156 1.594a.623.623 0 0 0 .63.56h2.77a.624.624 0 0 0 .63-.56l.156-1.6a7.96 7.96 0 0 0 1.884-.788l1.214 1.023a.034.034 0 0 1 .014.025v8.678H5.608zm39.127-16.015l-1.464.143a.634.634 0 0 0-.557.492 7.02 7.02 0 0 1-.98 2.312.633.633 0 0 0 .043.75l.944 1.138-1.14 1.138-1.14-.945a.633.633 0 0 0-.753-.04 6.732 6.732 0 0 1-2.308.97.62.62 0 0 0-.497.546l-.143 1.468h-1.623l-.143-1.468a.626.626 0 0 0-.498-.552 6.961 6.961 0 0 1-2.314-.972.632.632 0 0 0-.746.047l-1.139.944-1.14-1.137.944-1.138a.632.632 0 0 0 .04-.754 6.73 6.73 0 0 1-.975-2.305.627.627 0 0 0-.552-.495l-1.48-.143v-1.618l1.48-.144a.63.63 0 0 0 .554-.492 7.016 7.016 0 0 1 .977-2.313.632.632 0 0 0-.044-.749l-.944-1.138 1.14-1.138 1.14.945a.63.63 0 0 0 .752.04 6.732 6.732 0 0 1 2.308-.97.652.652 0 0 0 .497-.574l.143-1.496h1.623l.143 1.496a.642.642 0 0 0 .498.566 6.983 6.983 0 0 1 2.314.979c.232.15.533.132.746-.043l1.136-.942L42.7 5.455l-.946 1.141a.633.633 0 0 0-.04.754 6.74 6.74 0 0 1 .974 2.305c.06.27.287.469.561.495l1.487.144v1.619z" fill="#E20E17" stroke="#E20E17" stroke-width=".1"/><path d="M35.919 5.52a5.583 5.583 0 1 0 5.59 5.583 5.593 5.593 0 0 0-5.59-5.583zm0 9.901a4.318 4.318 0 1 1 4.325-4.318 4.327 4.327 0 0 1-4.325 4.318z" fill="#E20E17" stroke="#E20E17" stroke-width=".1"/></svg>