<svg width="27" height="47" viewBox="0 0 27 47" fill="none" xmlns="http://www.w3.org/2000/svg"><path d="M14.175 21.562c.34.16.736.16 1.075 0 4.847-2.3 10.32-6.843 11.144-12.694a.66.66 0 1 0-1.306-.184c-.75 5.323-5.847 9.517-10.377 11.674a25.14 25.14 0 0 1-2.289-1.234V14.78a2.4 2.4 0 0 0-2.398-2.396h-.002a2.398 2.398 0 0 0-2.39 2.4v.45c-1.747-1.931-3.422-4.652-3.426-7.979-.003-2.938 2.584-5.277 5.57-4.875 2.627.354 3.58 2.432 3.718 2.576.916.955 2.03.62 2.529-.182 2.5-4.018 7.868-2.736 8.975 1.11a.659.659 0 1 0 1.267-.365C24.832.539 17.982-.87 14.904 4.076l-.015.025c-.144.151-.21.16-.392-.01C12.435.584 7.607-.051 4.712 2.847a6.191 6.191 0 0 0-1.824 4.41c.004 3.489 1.643 6.895 4.744 9.867V29.91L5.52 27.136c-1.9-2.643-5.458-.305-4.29 2.248l3.423 7.833.005.011c.645 1.397 1.561 2.165 2.5 3.095.52.515.51 1.845.493 2.583-.018.809-.04 1.816.622 2.492.39.4.947.601 1.657.601h2.289a.66.66 0 1 0 0-1.318h-2.29c-.34 0-.581-.069-.714-.204-.328-.336-.242-1.27-.24-1.903a.68.68 0 0 0 0-.024c-.01-1.114-.087-2.37-.889-3.163-.957-.949-1.653-1.513-2.228-2.706l-3.422-7.83a.477.477 0 0 0-.005-.012c-.515-1.117 1.049-2.29 2.022-.928a.67.67 0 0 0 .012.016l3.302 4.335c.38.5 1.183.23 1.183-.4v-17.08c0-.596.481-1.08 1.073-1.08h.001c.592 0 1.079.48 1.08 1.078v14.84a.66.66 0 1 0 1.319 0v-2.366c.034-.123.025-.04.025-1.864a1.078 1.078 0 0 1 2.154 0v4.23a.659.659 0 1 0 1.318 0v-3.76a1.078 1.078 0 0 1 2.154 0v3.762a.66.66 0 1 0 1.319 0V26.21a1.078 1.078 0 0 1 2.154 0v10.045c0 1.384-.538 1.942-1.161 2.587-1.523 1.575-1.328 2.088-1.328 4.805 0 .653-.222.964-.74 1.034h-3.023a.66.66 0 1 0 0 1.319c3.268 0 3.08.002 3.137-.005 1.218-.137 1.945-1.015 1.945-2.348l-.001-1.974c-.001-.923.401-1.34.958-1.915.683-.707 1.533-1.586 1.53-3.504V26.21c0-2.047-2.419-3.154-3.966-1.807a2.392 2.392 0 0 0-3.418-.396 2.393 2.393 0 0 0-3.057-.743v-2.611c.573.325 1.16.63 1.752.91z" fill="#E20E17" stroke="#E20E17" stroke-width=".4"/></svg>