<svg width="47" height="45" viewBox="0 0 47 45" fill="none" xmlns="http://www.w3.org/2000/svg"><mask id="a" maskUnits="userSpaceOnUse" x="0" y="-.207" width="47" height="45" fill="#000"><path fill="#E20E17" d="M0-.207h47v45H0z"/><path d="M8.71 25.672a.564.564 0 0 0 .347.062.586.586 0 0 0 .482-.457c.056-.254.093-.511.108-.771.167-1.794.521-3.545 2.788-3.545h17.817a3.131 3.131 0 0 0 3.128-3.128V3.92A3.131 3.131 0 0 0 30.252.793H4.128A3.131 3.131 0 0 0 1 3.92v13.913a3.132 3.132 0 0 0 3.128 3.127h1.048a.34.34 0 0 1 .341.264c.58 3.28 2.73 4.271 3.192 4.448zM5.175 19.86H4.128A2.03 2.03 0 0 1 2.1 17.834V3.92a2.03 2.03 0 0 1 2.027-2.026h26.124a2.03 2.03 0 0 1 2.027 2.026v13.913a2.03 2.03 0 0 1-2.027 2.027H12.435c-3.417 0-3.75 3.107-3.88 4.492-.633-.423-1.61-1.373-1.954-3.319a1.435 1.435 0 0 0-1.425-1.173z"/><path d="M29.607 12.28h-6.605a.55.55 0 1 0 0 1.1h6.605a.55.55 0 1 0 0-1.1zm-9.174.55a.55.55 0 0 0-.55-.55H9.473a.55.55 0 1 0 0 1.1h10.41a.55.55 0 0 0 .55-.55zm-15.661.55h2.272a.55.55 0 0 0 0-1.1H4.772a.55.55 0 1 0 0 1.1zm23.11-3.223h1.725a.55.55 0 1 0 0-1.1h-1.725a.55.55 0 0 0 0 1.1zm-2.414 0a.55.55 0 1 0 0-1.1H22.58a.55.55 0 0 0 0 1.1h2.887zm-20.696 0h15.374a.55.55 0 1 0 0-1.1H4.772a.55.55 0 1 0 0 1.1zm23.441-3.866h1.394a.55.55 0 0 0 0-1.1h-1.394a.55.55 0 1 0 0 1.1zm-8.419 0h5.971a.55.55 0 0 0 0-1.1h-5.971a.55.55 0 1 0 0 1.1zm-15.022 0h12.587a.55.55 0 0 0 0-1.1H4.772a.55.55 0 1 0 0 1.1zm18.396 9.21H22.9a.55.55 0 0 0 0 1.1h.267a.55.55 0 0 0 0-1.1zm-2.502 0h-4.772a.55.55 0 0 0 0 1.1h4.772a.55.55 0 0 0 0-1.1zm-7.266.55a.55.55 0 0 0-.55-.55H4.772a.55.55 0 1 0 0 1.1h8.078a.55.55 0 0 0 .55-.55zM46 24.16a3.006 3.006 0 1 0-3.557 2.956v3.294a5.423 5.423 0 0 0-1.355-.316 3.306 3.306 0 0 0-3.302-3.303h-4.613v-1.777a1.33 1.33 0 0 0-1.328-1.329h-3.89v-1.73a.55.55 0 0 0-1.1 0v1.73H23.03a1.33 1.33 0 0 0-1.328 1.328v1.778H17.09a3.306 3.306 0 0 0-3.302 3.302v10.872a3.306 3.306 0 0 0 3.302 3.301h20.696a3.306 3.306 0 0 0 3.302-3.301v-.001a5.46 5.46 0 0 0 2.456-9.993v-3.855A3.011 3.011 0 0 0 46 24.16zm-23.197.854c0-.126.102-.227.228-.228h8.814c.126 0 .228.102.228.228v1.777h-9.27v-1.777zm17.184 15.95a2.204 2.204 0 0 1-2.2 2.202H17.09a2.204 2.204 0 0 1-2.201-2.201V30.093a2.204 2.204 0 0 1 2.2-2.201h20.697c1.215.001 2.2.986 2.201 2.201v10.872zM44.9 35.53a4.368 4.368 0 0 1-3.812 4.327v-8.655A4.368 4.368 0 0 1 44.9 35.53zm-3.812-11.37a1.905 1.905 0 1 1 3.81 0 1.905 1.905 0 0 1-3.81 0z"/><path d="M20.657 32.645h-.542a1.836 1.836 0 0 0-1.835 1.834v1.568c0 .304.246.55.55.55h3.111a.55.55 0 0 0 .55-.55V34.48a1.837 1.837 0 0 0-1.834-1.834zm.734 2.852h-2.01v-1.018c0-.405.328-.733.734-.734h.542c.406 0 .734.329.734.734v1.018zm13.369-2.852h-.542a1.837 1.837 0 0 0-1.834 1.834v1.568c0 .304.246.55.55.55h3.11a.55.55 0 0 0 .551-.55V34.48a1.837 1.837 0 0 0-1.834-1.834zm.735 2.852h-2.01v-1.018c0-.405.328-.733.733-.734h.543c.405 0 .733.329.734.734v1.018zm-4.946 2.483h-6.222a.55.55 0 0 0-.55.55v.544a3.122 3.122 0 0 0 3.118 3.118h1.086a3.122 3.122 0 0 0 3.118-3.118v-.543a.55.55 0 0 0-.55-.55zm-2.568 3.111h-1.086a2.02 2.02 0 0 1-2.018-2.01h5.121a2.02 2.02 0 0 1-2.017 2.01z"/></mask><path d="M8.71 25.672a.564.564 0 0 0 .347.062.586.586 0 0 0 .482-.457c.056-.254.093-.511.108-.771.167-1.794.521-3.545 2.788-3.545h17.817a3.131 3.131 0 0 0 3.128-3.128V3.92A3.131 3.131 0 0 0 30.252.793H4.128A3.131 3.131 0 0 0 1 3.92v13.913a3.132 3.132 0 0 0 3.128 3.127h1.048a.34.34 0 0 1 .341.264c.58 3.28 2.73 4.271 3.192 4.448zM5.175 19.86H4.128A2.03 2.03 0 0 1 2.1 17.834V3.92a2.03 2.03 0 0 1 2.027-2.026h26.124a2.03 2.03 0 0 1 2.027 2.026v13.913a2.03 2.03 0 0 1-2.027 2.027H12.435c-3.417 0-3.75 3.107-3.88 4.492-.633-.423-1.61-1.373-1.954-3.319a1.435 1.435 0 0 0-1.425-1.173z" fill="#E20E17"/><path d="M29.607 12.28h-6.605a.55.55 0 1 0 0 1.1h6.605a.55.55 0 1 0 0-1.1zm-9.174.55a.55.55 0 0 0-.55-.55H9.473a.55.55 0 1 0 0 1.1h10.41a.55.55 0 0 0 .55-.55zm-15.661.55h2.272a.55.55 0 0 0 0-1.1H4.772a.55.55 0 1 0 0 1.1zm23.11-3.223h1.725a.55.55 0 1 0 0-1.1h-1.725a.55.55 0 0 0 0 1.1zm-2.414 0a.55.55 0 1 0 0-1.1H22.58a.55.55 0 0 0 0 1.1h2.887zm-20.696 0h15.374a.55.55 0 1 0 0-1.1H4.772a.55.55 0 1 0 0 1.1zm23.441-3.866h1.394a.55.55 0 0 0 0-1.1h-1.394a.55.55 0 1 0 0 1.1zm-8.419 0h5.971a.55.55 0 0 0 0-1.1h-5.971a.55.55 0 1 0 0 1.1zm-15.022 0h12.587a.55.55 0 0 0 0-1.1H4.772a.55.55 0 1 0 0 1.1zm18.396 9.21H22.9a.55.55 0 0 0 0 1.1h.267a.55.55 0 0 0 0-1.1zm-2.502 0h-4.772a.55.55 0 0 0 0 1.1h4.772a.55.55 0 0 0 0-1.1zm-7.266.55a.55.55 0 0 0-.55-.55H4.772a.55.55 0 1 0 0 1.1h8.078a.55.55 0 0 0 .55-.55zM46 24.16a3.006 3.006 0 1 0-3.557 2.956v3.294a5.423 5.423 0 0 0-1.355-.316 3.306 3.306 0 0 0-3.302-3.303h-4.613v-1.777a1.33 1.33 0 0 0-1.328-1.329h-3.89v-1.73a.55.55 0 0 0-1.1 0v1.73H23.03a1.33 1.33 0 0 0-1.328 1.328v1.778H17.09a3.306 3.306 0 0 0-3.302 3.302v10.872a3.306 3.306 0 0 0 3.302 3.301h20.696a3.306 3.306 0 0 0 3.302-3.301v-.001a5.46 5.46 0 0 0 2.456-9.993v-3.855A3.011 3.011 0 0 0 46 24.16zm-23.197.854c0-.126.102-.227.228-.228h8.814c.126 0 .228.102.228.228v1.777h-9.27v-1.777zm17.184 15.95a2.204 2.204 0 0 1-2.2 2.202H17.09a2.204 2.204 0 0 1-2.201-2.201V30.093a2.204 2.204 0 0 1 2.2-2.201h20.697c1.215.001 2.2.986 2.201 2.201v10.872zM44.9 35.53a4.368 4.368 0 0 1-3.812 4.327v-8.655A4.368 4.368 0 0 1 44.9 35.53zm-3.812-11.37a1.905 1.905 0 1 1 3.81 0 1.905 1.905 0 0 1-3.81 0z" fill="#E20E17"/><path d="M20.657 32.645h-.542a1.836 1.836 0 0 0-1.835 1.834v1.568c0 .304.246.55.55.55h3.111a.55.55 0 0 0 .55-.55V34.48a1.837 1.837 0 0 0-1.834-1.834zm.734 2.852h-2.01v-1.018c0-.405.328-.733.734-.734h.542c.406 0 .734.329.734.734v1.018zm13.369-2.852h-.542a1.837 1.837 0 0 0-1.834 1.834v1.568c0 .304.246.55.55.55h3.11a.55.55 0 0 0 .551-.55V34.48a1.837 1.837 0 0 0-1.834-1.834zm.735 2.852h-2.01v-1.018c0-.405.328-.733.733-.734h.543c.405 0 .733.329.734.734v1.018zm-4.946 2.483h-6.222a.55.55 0 0 0-.55.55v.544a3.122 3.122 0 0 0 3.118 3.118h1.086a3.122 3.122 0 0 0 3.118-3.118v-.543a.55.55 0 0 0-.55-.55zm-2.568 3.111h-1.086a2.02 2.02 0 0 1-2.018-2.01h5.121a2.02 2.02 0 0 1-2.017 2.01z" fill="#E20E17"/><path d="M8.71 25.672a.564.564 0 0 0 .347.062.586.586 0 0 0 .482-.457c.056-.254.093-.511.108-.771.167-1.794.521-3.545 2.788-3.545h17.817a3.131 3.131 0 0 0 3.128-3.128V3.92A3.131 3.131 0 0 0 30.252.793H4.128A3.131 3.131 0 0 0 1 3.92v13.913a3.132 3.132 0 0 0 3.128 3.127h1.048a.34.34 0 0 1 .341.264c.58 3.28 2.73 4.271 3.192 4.448zM5.175 19.86H4.128A2.03 2.03 0 0 1 2.1 17.834V3.92a2.03 2.03 0 0 1 2.027-2.026h26.124a2.03 2.03 0 0 1 2.027 2.026v13.913a2.03 2.03 0 0 1-2.027 2.027H12.435c-3.417 0-3.75 3.107-3.88 4.492-.633-.423-1.61-1.373-1.954-3.319a1.435 1.435 0 0 0-1.425-1.173z" stroke="#E20E17" stroke-width=".4" mask="url(#a)"/><path d="M29.607 12.28h-6.605a.55.55 0 1 0 0 1.1h6.605a.55.55 0 1 0 0-1.1zm-9.174.55a.55.55 0 0 0-.55-.55H9.473a.55.55 0 1 0 0 1.1h10.41a.55.55 0 0 0 .55-.55zm-15.661.55h2.272a.55.55 0 0 0 0-1.1H4.772a.55.55 0 1 0 0 1.1zm23.11-3.223h1.725a.55.55 0 1 0 0-1.1h-1.725a.55.55 0 0 0 0 1.1zm-2.414 0a.55.55 0 1 0 0-1.1H22.58a.55.55 0 0 0 0 1.1h2.887zm-20.696 0h15.374a.55.55 0 1 0 0-1.1H4.772a.55.55 0 1 0 0 1.1zm23.441-3.866h1.394a.55.55 0 0 0 0-1.1h-1.394a.55.55 0 1 0 0 1.1zm-8.419 0h5.971a.55.55 0 0 0 0-1.1h-5.971a.55.55 0 1 0 0 1.1zm-15.022 0h12.587a.55.55 0 0 0 0-1.1H4.772a.55.55 0 1 0 0 1.1zm18.396 9.21H22.9a.55.55 0 0 0 0 1.1h.267a.55.55 0 0 0 0-1.1zm-2.502 0h-4.772a.55.55 0 0 0 0 1.1h4.772a.55.55 0 0 0 0-1.1zm-7.266.55a.55.55 0 0 0-.55-.55H4.772a.55.55 0 1 0 0 1.1h8.078a.55.55 0 0 0 .55-.55zM46 24.16a3.006 3.006 0 1 0-3.557 2.956v3.294a5.423 5.423 0 0 0-1.355-.316 3.306 3.306 0 0 0-3.302-3.303h-4.613v-1.777a1.33 1.33 0 0 0-1.328-1.329h-3.89v-1.73a.55.55 0 0 0-1.1 0v1.73H23.03a1.33 1.33 0 0 0-1.328 1.328v1.778H17.09a3.306 3.306 0 0 0-3.302 3.302v10.872a3.306 3.306 0 0 0 3.302 3.301h20.696a3.306 3.306 0 0 0 3.302-3.301v-.001a5.46 5.46 0 0 0 2.456-9.993v-3.855A3.011 3.011 0 0 0 46 24.16zm-23.197.854c0-.126.102-.227.228-.228h8.814c.126 0 .228.102.228.228v1.777h-9.27v-1.777zm17.184 15.95a2.204 2.204 0 0 1-2.2 2.202H17.09a2.204 2.204 0 0 1-2.201-2.201V30.093a2.204 2.204 0 0 1 2.2-2.201h20.697c1.215.001 2.2.986 2.201 2.201v10.872zM44.9 35.53a4.368 4.368 0 0 1-3.812 4.327v-8.655A4.368 4.368 0 0 1 44.9 35.53zm-3.812-11.37a1.905 1.905 0 1 1 3.81 0 1.905 1.905 0 0 1-3.81 0z" stroke="#E20E17" stroke-width=".4" mask="url(#a)"/><path d="M20.657 32.645h-.542a1.836 1.836 0 0 0-1.835 1.834v1.568c0 .304.246.55.55.55h3.111a.55.55 0 0 0 .55-.55V34.48a1.837 1.837 0 0 0-1.834-1.834zm.734 2.852h-2.01v-1.018c0-.405.328-.733.734-.734h.542c.406 0 .734.329.734.734v1.018zm13.369-2.852h-.542a1.837 1.837 0 0 0-1.834 1.834v1.568c0 .304.246.55.55.55h3.11a.55.55 0 0 0 .551-.55V34.48a1.837 1.837 0 0 0-1.834-1.834zm.735 2.852h-2.01v-1.018c0-.405.328-.733.733-.734h.543c.405 0 .733.329.734.734v1.018zm-4.946 2.483h-6.222a.55.55 0 0 0-.55.55v.544a3.122 3.122 0 0 0 3.118 3.118h1.086a3.122 3.122 0 0 0 3.118-3.118v-.543a.55.55 0 0 0-.55-.55zm-2.568 3.111h-1.086a2.02 2.02 0 0 1-2.018-2.01h5.121a2.02 2.02 0 0 1-2.017 2.01z" stroke="#E20E17" stroke-width=".4" mask="url(#a)"/></svg>