<svg width="67" height="67" viewBox="0 0 67 67" fill="none" xmlns="http://www.w3.org/2000/svg">
<path d="M11.784 51.8137C10.846 51.8137 9.94429 52.0478 9.14431 52.4874C4.93023 47.0854 2.61719 40.3747 2.61719 33.5C2.61719 16.4709 16.4709 2.61719 33.5 2.61719C35.5702 2.61719 37.6395 2.82319 39.6504 3.22957C40.3578 3.3727 41.049 2.91469 41.1921 2.20621C41.3352 1.49773 40.8772 0.807648 40.1687 0.664009C37.9876 0.223381 35.744 0 33.5 0C24.552 0 16.1392 3.48464 9.8119 9.8119C3.48464 16.1392 0 24.552 0 33.5C0 41.027 2.55585 48.3725 7.20902 54.2611C6.60993 55.1562 6.2879 56.2082 6.2879 57.3098C6.2879 58.7778 6.85989 60.158 7.89808 61.1957C8.93575 62.2339 10.3159 62.8059 11.784 62.8059C13.2521 62.8059 14.6322 62.2339 15.6704 61.1957C16.7086 60.158 17.2801 58.7773 17.2801 57.3092C17.2801 55.8417 16.7086 54.461 15.6704 53.4233C14.6322 52.3852 13.2521 51.8137 11.784 51.8137ZM13.8195 59.3452C13.2761 59.8891 12.5528 60.1887 11.784 60.1887C11.0152 60.1887 10.2924 59.8891 9.74851 59.3452C9.20463 58.8014 8.90508 58.0786 8.90508 57.3098C8.90508 56.5405 9.20463 55.8177 9.74851 55.2738C10.2919 54.7299 11.0152 54.4309 11.784 54.4309C12.5528 54.4309 13.2756 54.7304 13.8195 55.2738C14.3633 55.8177 14.6629 56.5405 14.6629 57.3098C14.6629 58.0786 14.3633 58.8014 13.8195 59.3452Z" fill="#3683E9"/>
<path d="M59.79 12.7375C61.2126 10.6034 60.9841 7.68562 59.1025 5.80401C58.0643 4.76633 56.6841 4.19434 55.216 4.19434C53.748 4.19434 52.3678 4.76633 51.3296 5.80401C50.2914 6.84219 49.7199 8.22235 49.7199 9.69043C49.7199 11.1585 50.2914 12.5387 51.3296 13.5769C52.3678 14.615 53.748 15.1865 55.216 15.1865C56.154 15.1865 57.0557 14.9524 57.8557 14.5128C62.0698 19.9154 64.3828 26.6255 64.3828 33.5002C64.3828 50.5293 50.5291 64.383 33.5 64.383C31.4502 64.383 29.4005 64.1811 27.4084 63.7824C26.6999 63.6408 26.0104 64.1003 25.8683 64.8088C25.7267 65.5178 26.1862 66.2069 26.8947 66.349C29.0554 66.7809 31.278 67.0002 33.5 67.0002C42.4481 67.0002 50.8609 63.5155 57.1881 57.1883C63.5154 50.861 67 42.4482 67 33.5002C67 25.9727 64.4437 18.6267 59.79 12.7375ZM53.1806 11.7264C52.6367 11.1825 52.3371 10.4597 52.3371 9.69043C52.3371 8.92163 52.6367 8.19884 53.1806 7.65495C53.7239 7.11107 54.4472 6.81152 55.216 6.81152C55.9848 6.81152 56.7081 7.11107 57.252 7.65495C58.374 8.77748 58.374 10.6039 57.252 11.7264C56.7081 12.2698 55.9848 12.5693 55.216 12.5693C54.4467 12.5693 53.7239 12.2698 53.1806 11.7264Z" fill="#3683E9"/>
<path d="M28.1 56.0078C28.1 56.7306 28.6863 57.3164 29.4086 57.3164H37.5909C38.3137 57.3164 38.8995 56.7306 38.8995 56.0078V53.4709C40.6201 53.0078 42.265 52.3259 43.8108 51.4354L45.6019 53.2265C45.8473 53.4719 46.18 53.6099 46.5276 53.6099C46.8742 53.6099 47.2075 53.4719 47.4529 53.226L53.2362 47.4386C53.7469 46.9274 53.7469 46.0988 53.2362 45.5881L51.4471 43.799C52.3376 42.2533 53.0195 40.6083 53.4826 38.8877H56.0098C56.7326 38.8877 57.3184 38.3019 57.3184 37.5791V29.3968C57.3184 28.674 56.7326 28.0882 56.0098 28.0882H53.4821C53.019 26.3682 52.3376 24.7232 51.4471 23.1774L53.2265 21.3981C53.4719 21.1527 53.6099 20.8194 53.6099 20.4723C53.6094 20.1253 53.4714 19.792 53.226 19.5466L47.438 13.7632C46.9274 13.2526 46.0988 13.2526 45.5876 13.7637L43.8108 15.5411C42.265 14.6506 40.6201 13.9687 38.8995 13.5056V10.9922C38.8995 10.2694 38.3137 9.68359 37.5909 9.68359H29.4086C28.6863 9.68359 28.1 10.2694 28.1 10.9922V13.5061C26.3799 13.9687 24.7349 14.6506 23.1892 15.5411L21.4118 13.7637C20.9012 13.2531 20.0726 13.2526 19.5614 13.7632L13.7739 19.5471C13.5281 19.7925 13.3901 20.1253 13.3901 20.4723C13.3901 20.8194 13.5281 21.1527 13.7734 21.3981L15.5528 23.1774C14.6624 24.7232 13.9805 26.3677 13.5173 28.0882H10.9947C10.2719 28.0882 9.68612 28.674 9.68612 29.3963L9.68152 37.5786C9.68101 37.9257 9.81902 38.259 10.0644 38.5043C10.3097 38.7497 10.6425 38.8877 10.9901 38.8877H13.5173C13.9805 40.6083 14.6624 42.2533 15.5528 43.799L13.7637 45.5881C13.2531 46.0988 13.2525 46.9274 13.7637 47.4386L19.5471 53.226C19.7925 53.4714 20.1252 53.6099 20.4723 53.6099H20.4728C20.8199 53.6099 21.1527 53.4719 21.398 53.2265L23.1887 51.4354C24.7349 52.3259 26.3799 53.0078 28.1 53.4709V56.0078ZM23.7019 48.6833C23.1841 48.3484 22.5027 48.421 22.0661 48.8571L20.4728 50.4504L16.5394 46.5139L18.1312 44.9216C18.5672 44.4855 18.6398 43.8042 18.3049 43.2863C17.1185 41.4502 16.2843 39.4377 15.8263 37.3041C15.6965 36.7015 15.1638 36.2705 14.5468 36.2705H12.2992L12.3023 30.7054H14.5468C15.1638 30.7054 15.6965 30.275 15.8263 29.6719C16.2843 27.5387 17.1185 25.5263 18.3049 23.6901C18.6398 23.1723 18.5672 22.4909 18.1312 22.0549L16.5496 20.4728L20.4861 16.5394L22.0661 18.1199C22.5027 18.556 23.1835 18.628 23.7019 18.2937C25.5375 17.1073 27.55 16.2731 29.6836 15.8151C30.2862 15.6852 30.7172 15.1521 30.7172 14.5356V12.3008H36.2823V14.5351C36.2823 15.1521 36.7127 15.6852 37.3159 15.8146C39.449 16.2731 41.4619 17.1068 43.2976 18.2932C43.8154 18.628 44.4968 18.556 44.9328 18.1194L46.5133 16.5394L50.4498 20.4728L48.8683 22.0544C48.4317 22.4909 48.3597 23.1723 48.6945 23.6901C49.8809 25.5263 50.7146 27.5387 51.1731 29.6719C51.3025 30.275 51.8356 30.7054 52.4526 30.7054H54.7012V36.2705H52.4526C51.8356 36.2705 51.303 36.7015 51.1731 37.3041C50.7151 39.4372 49.8809 41.4502 48.6945 43.2858C48.3597 43.8042 48.4323 44.4855 48.8683 44.9216L50.4601 46.5134L46.5266 50.4499L44.9333 48.8571C44.4968 48.4205 43.8154 48.3484 43.2976 48.6833C41.4614 49.8697 39.449 50.7034 37.3159 51.1619C36.7127 51.2918 36.2823 51.8244 36.2823 52.4414V54.6992H30.7172V52.4414C30.7172 51.8249 30.2862 51.2918 29.6836 51.1619C27.5505 50.7039 25.538 49.8697 23.7019 48.6833Z" fill="#3683E9"/>
<path d="M44.3128 33.5003C44.3128 27.538 39.4623 22.6875 33.5 22.6875C27.5377 22.6875 22.6873 27.538 22.6873 33.5003C22.6873 39.4625 27.5377 44.313 33.5 44.313C39.4623 44.313 44.3128 39.4625 44.3128 33.5003ZM25.3044 33.5003C25.3044 28.981 28.9808 25.3047 33.5 25.3047C38.0193 25.3047 41.6956 28.9815 41.6956 33.5003C41.6956 38.019 38.0193 41.6958 33.5 41.6958C28.9808 41.6958 25.3044 38.0195 25.3044 33.5003Z" fill="#3683E9"/>
<path d="M45.5493 4.9488C45.8938 4.9488 46.2312 4.80874 46.4745 4.56542C46.7178 4.32057 46.8579 3.9832 46.8579 3.63867C46.8579 3.29619 46.7184 2.95831 46.4745 2.71346C46.2312 2.47014 45.8938 2.33008 45.5493 2.33008C45.2038 2.33008 44.8679 2.47014 44.6246 2.71346C44.3808 2.95831 44.2407 3.29465 44.2407 3.63867C44.2407 3.98422 44.3808 4.32057 44.6246 4.56542C44.8679 4.80874 45.2038 4.9488 45.5493 4.9488Z" fill="#3683E9"/>
<path d="M21.5079 62.0742C21.1639 62.0742 20.826 62.2143 20.5827 62.4576C20.3394 62.7009 20.1993 63.0388 20.1993 63.3828C20.1993 63.7284 20.3394 64.0647 20.5827 64.308C20.826 64.5513 21.1639 64.6914 21.5079 64.6914C21.852 64.6914 22.1898 64.5513 22.4332 64.308C22.6765 64.0647 22.8165 63.7268 22.8165 63.3828C22.8165 63.0388 22.6765 62.7009 22.4332 62.4576C22.1898 62.2143 21.852 62.0742 21.5079 62.0742Z" fill="#3683E9"/>
</svg>
