<svg width="65" height="67" viewBox="0 0 65 67" fill="none" xmlns="http://www.w3.org/2000/svg">
<path d="M25.8767 12.0631C26.1324 12.3192 26.4682 12.447 26.8036 12.447C27.139 12.447 27.4744 12.3192 27.7301 12.0631L31.8756 7.91847C32.3868 7.40639 32.3868 6.5764 31.8756 6.06472C31.3639 5.55264 30.5339 5.55264 30.0222 6.06472L25.8767 10.2098C25.3651 10.7219 25.3651 11.5519 25.8767 12.0631Z" fill="#3683E9"/>
<path d="M32.7736 12.0631C33.0296 12.3192 33.3646 12.447 33.6996 12.447C34.0355 12.447 34.3705 12.3192 34.6265 12.0631L38.772 7.91847C39.2841 7.40639 39.2841 6.5764 38.772 6.06472C38.2603 5.55264 37.4303 5.55264 36.9182 6.06472L32.7732 10.2098C32.2615 10.7219 32.2615 11.5519 32.7736 12.0631Z" fill="#3683E9"/>
<path d="M62.7538 50.9322H58.117V46.5816C58.117 45.8583 57.5296 45.2709 56.8063 45.2709H51.8805V42.2904H56.5177C57.6013 42.2904 58.4834 41.4091 58.4834 40.3247V28.4292C58.4834 27.3456 57.6013 26.4635 56.5177 26.4635H51.8805V22.2179C51.8805 21.4938 51.2935 20.9072 50.5697 20.9072H33.7118V17.9324H43.2333C44.3601 17.9324 45.2772 17.0153 45.2772 15.8877V2.24151C45.2772 1.11437 44.3601 0.197266 43.2333 0.197266H37.4388C36.7147 0.197266 36.1281 0.783837 36.1281 1.50799C36.1281 2.23174 36.7147 2.81872 37.4388 2.81872H42.6565V15.3109H22.1473V2.81872H26.9237C27.6474 2.81872 28.2344 2.23174 28.2344 1.50799C28.2344 0.783837 27.6474 0.197266 26.9237 0.197266H21.5697C20.4429 0.197266 19.5258 1.11437 19.5258 2.24151V15.8877C19.5258 17.0153 20.4429 17.9324 21.5697 17.9324H31.0912V20.9072H13.5388C12.815 20.9072 12.2281 21.4938 12.2281 22.2179V26.4635H7.59126C6.50686 26.4635 5.62517 27.3456 5.62517 28.4292V40.3247C5.62517 41.4091 6.50686 42.2904 7.59126 42.2904H12.2281V45.2709H8.18068C7.45653 45.2709 6.86995 45.8583 6.86995 46.5816V50.9322H2.16191C1.07751 50.9322 0.196228 51.8143 0.196228 52.8979V64.7934C0.196228 65.8778 1.07751 66.7599 2.16191 66.7599H14.0574C15.141 66.7599 16.0231 65.8778 16.0231 64.7934V52.8979C16.0231 51.8143 15.141 50.9322 14.0574 50.9322H9.49101V47.8919H31.0912V50.9322H26.5321C25.405 50.9322 24.4883 51.8493 24.4883 52.9769V64.7152C24.4883 65.8428 25.405 66.7599 26.5321 66.7599H27.196C27.9198 66.7599 28.5068 66.1729 28.5068 65.4492C28.5068 64.7254 27.9198 64.1384 27.196 64.1384H27.1093V53.5537H37.6941V64.1384H37.6025C36.8787 64.1384 36.2917 64.7254 36.2917 65.4492C36.2917 66.1729 36.8787 66.7599 37.6025 66.7599H38.2709C39.398 66.7599 40.3147 65.8428 40.3147 64.7152V52.9769C40.3147 51.8493 39.398 50.9322 38.2709 50.9322H33.7118V47.8919H55.4956V50.9322H50.8583C49.7743 50.9322 48.8927 51.8143 48.8927 52.8979V64.7934C48.8927 65.8778 49.7743 66.7599 50.8583 66.7599H62.7538C63.8374 66.7599 64.7195 65.8778 64.7195 64.7934V52.8979C64.7195 51.8143 63.8374 50.9322 62.7538 50.9322ZM13.4016 53.5537V64.1384H2.81687V53.5537H13.4016ZM8.24622 39.6697V29.085H18.831V39.6697H8.24622ZM49.2594 45.2709H14.8495V42.2904H19.4867C20.5703 42.2904 21.4524 41.4091 21.4524 40.3247V28.4292C21.4524 27.3456 20.5703 26.4635 19.4867 26.4635H14.8495V23.5282H49.2594V26.4635H44.6222C43.5378 26.4635 42.6565 27.3456 42.6565 28.4292V40.3247C42.6565 41.4091 43.5378 42.2904 44.6222 42.2904H49.2594V45.2709ZM45.2772 39.6697V29.085H55.8619V39.6697H45.2772ZM62.098 64.1384H51.5133V53.5537H62.098V64.1384Z" fill="#3683E9"/>
<path d="M31.4234 2.55152L31.4616 2.58042C31.6989 2.76075 31.9774 2.84827 32.2542 2.84827C32.6494 2.84827 33.0406 2.66957 33.2983 2.33008C33.7362 1.75369 33.6243 0.932243 33.0479 0.493841L33.0092 0.464533C32.4329 0.0265377 31.6106 0.138479 31.173 0.715281C30.7346 1.29127 30.847 2.11312 31.4234 2.55152Z" fill="#3683E9"/>
<path d="M33.2132 64.374L33.1753 64.3451C32.5989 63.9075 31.7767 64.0194 31.3383 64.5958C30.9007 65.1722 31.0134 65.9945 31.5898 66.4325L31.6277 66.4618C31.865 66.6417 32.1434 66.7289 32.4194 66.7289C32.8155 66.7289 33.2067 66.5502 33.4648 66.2111C33.9023 65.6339 33.79 64.812 33.2132 64.374Z" fill="#3683E9"/>
</svg>
