<svg width="68" height="68" viewBox="0 0 68 68" fill="none" xmlns="http://www.w3.org/2000/svg">
<path d="M62.9 0H5.1C2.28823 0 0 2.28823 0 5.1V62.9C0 65.7118 2.28823 68 5.1 68H62.9C65.7118 68 68 65.7118 68 62.9V5.1C68 2.28823 65.7118 0 62.9 0ZM65.7333 62.9C65.7333 64.4628 64.4628 65.7333 62.9 65.7333H5.1C3.53826 65.7333 2.26671 64.4628 2.26671 62.9V5.1C2.26671 3.53706 3.53826 2.26671 5.1 2.26671H62.9C64.4617 2.26671 65.7333 3.5372 65.7333 5.1V62.9Z" fill="#3683E9"/>
<path d="M10.2 4.5332H5.66674C5.04119 4.5332 4.53345 5.03975 4.53345 5.66649V10.1999C4.53345 10.8267 5.04119 11.3332 5.66674 11.3332H10.2C10.8256 11.3332 11.3333 10.8267 11.3333 10.1999V5.66663C11.3333 5.03988 10.8256 4.5332 10.2 4.5332ZM9.06673 9.06663H6.80002V6.79992H9.06673V9.06663Z" fill="#3683E9"/>
<path d="M19.2667 4.5332H14.7334C14.1079 4.5332 13.6002 5.03975 13.6002 5.66649V10.1999C13.6002 10.8267 14.1079 11.3332 14.7334 11.3332H19.2667C19.8923 11.3332 20.4 10.8267 20.4 10.1999V5.66663C20.4 5.03988 19.8923 4.5332 19.2667 4.5332ZM18.1333 9.06663H15.8666V6.79992H18.1333V9.06663Z" fill="#3683E9"/>
<path d="M28.3333 4.5332H23.8C23.1745 4.5332 22.6667 5.03975 22.6667 5.66649V10.1999C22.6667 10.8267 23.1745 11.3332 23.8 11.3332H28.3333C28.9589 11.3332 29.4666 10.8267 29.4666 10.1999V5.66663C29.4667 5.03988 28.959 4.5332 28.3333 4.5332ZM27.2 9.06663H24.9333V6.79992H27.2V9.06663Z" fill="#3683E9"/>
<path d="M62.9 0H5.1C2.28823 0 0 2.28823 0 5.1V14.7333C0 15.36 0.507742 15.8666 1.13329 15.8666H66.8666C67.4921 15.8666 67.9999 15.36 67.9999 14.7333V5.1C68 2.28823 65.7118 0 62.9 0ZM65.7333 13.6H2.26671V5.1C2.26671 3.53706 3.53826 2.26671 5.1 2.26671H62.9C64.4617 2.26671 65.7333 3.5372 65.7333 5.1V13.6Z" fill="#3683E9"/>
<path d="M41.9333 56.667H32.8666C30.9921 56.667 29.4666 58.1925 29.4666 60.067C29.4666 61.9415 30.9921 63.467 32.8666 63.467H41.9333C43.8078 63.467 45.3333 61.9415 45.3333 60.067C45.3333 58.1925 43.8078 56.667 41.9333 56.667ZM41.9333 61.2003H32.8666C32.2411 61.2003 31.7333 60.6925 31.7333 60.067C31.7333 59.4414 32.2411 58.9337 32.8666 58.9337H41.9333C42.5589 58.9337 43.0666 59.4414 43.0666 60.067C43.0667 60.6925 42.559 61.2003 41.9333 61.2003Z" fill="#3683E9"/>
<path d="M62.3333 18.1328H30.6C29.9745 18.1328 29.4667 18.6394 29.4667 19.2661V23.7995C29.4667 24.4263 29.9745 24.9328 30.6 24.9328H62.3333C62.9589 24.9328 63.4666 24.4263 63.4666 23.7995V19.2662C63.4667 18.6395 62.959 18.1328 62.3333 18.1328ZM61.2 22.6662H31.7333V20.3995H61.2V22.6662Z" fill="#3683E9"/>
<path d="M62.3333 27.2002H30.6C29.9745 27.2002 29.4667 27.7067 29.4667 28.3335V32.8668C29.4667 33.4935 29.9745 34.0001 30.6 34.0001H62.3333C62.9589 34.0001 63.4666 33.4935 63.4666 32.8668V28.3335C63.4667 27.7067 62.959 27.2002 62.3333 27.2002ZM61.2 31.7335H31.7333V29.4668H61.2V31.7335Z" fill="#3683E9"/>
<path d="M62.3333 36.2666H30.6C29.9745 36.2666 29.4667 36.7732 29.4667 37.3999V53.2666C29.4667 53.8933 29.9745 54.3999 30.6 54.3999H62.3333C62.9589 54.3999 63.4666 53.8933 63.4666 53.2666V37.3999C63.4667 36.7732 62.959 36.2666 62.3333 36.2666ZM61.2 52.1332H31.7333V38.5332H61.2V52.1332Z" fill="#3683E9"/>
<path d="M26.0667 18.1328H5.66674C5.04119 18.1328 4.53345 18.6394 4.53345 19.2661V37.3995C4.53345 38.0263 5.04119 38.5328 5.66674 38.5328H26.0667C26.6923 38.5328 27.2 38.0263 27.2 37.3995V19.2662C27.2 18.6395 26.6923 18.1328 26.0667 18.1328ZM24.9333 36.2662H6.80003V20.3995H24.9333V36.2662Z" fill="#3683E9"/>
<path d="M15.8667 22.667C15.2412 22.667 14.7335 23.1735 14.7335 23.8003V32.867C14.7335 33.4937 15.2412 34.0003 15.8667 34.0003C16.4923 34.0003 17 33.4937 17 32.867V23.8003C17 23.1735 16.4923 22.667 15.8667 22.667Z" fill="#3683E9"/>
<path d="M16.668 22.9994C16.226 22.5562 15.5075 22.5562 15.0655 22.9994L11.6655 26.3994C11.2223 26.8425 11.2223 27.5588 11.6655 28.0019C11.8865 28.2229 12.1767 28.3339 12.4667 28.3339C12.7569 28.3339 13.047 28.2229 13.268 28.0019L16.668 24.6019C17.111 24.1588 17.111 23.4425 16.668 22.9994Z" fill="#3683E9"/>
<path d="M20.0679 26.3994L16.6679 22.9994C16.2259 22.5562 15.5074 22.5562 15.0654 22.9994C14.6222 23.4426 14.6222 24.1588 15.0654 24.6019L18.4654 28.0019C18.6864 28.2229 18.9766 28.3339 19.2667 28.3339C19.5569 28.3339 19.8469 28.2229 20.0679 28.0019C20.511 27.5588 20.511 26.8426 20.0679 26.3994Z" fill="#3683E9"/>
<path d="M58.9333 56.667H49.8666C49.2411 56.667 48.7333 57.1735 48.7333 57.8003C48.7333 58.427 49.2411 58.9336 49.8666 58.9336H58.9333C59.5589 58.9336 60.0666 58.427 60.0666 57.8003C60.0666 57.1735 59.559 56.667 58.9333 56.667Z" fill="#3683E9"/>
<path d="M62.3333 61.2002H49.8666C49.2411 61.2002 48.7333 61.7067 48.7333 62.3335C48.7333 62.9602 49.2411 63.4668 49.8666 63.4668H62.3333C62.9589 63.4668 63.4666 62.9602 63.4666 62.3335C63.4666 61.7067 62.959 61.2002 62.3333 61.2002Z" fill="#3683E9"/>
</svg>
