<svg width="62" height="62" viewBox="0 0 62 62" fill="none" xmlns="http://www.w3.org/2000/svg">
<path d="M11.3666 4.16602H7.23328V6.23268H11.3666V4.16602Z" fill="#3683E9"/>
<path d="M17.5667 4.16602H13.4333V6.23268H17.5667V4.16602Z" fill="#3683E9"/>
<path d="M23.7666 4.16602H19.6333V6.23268H23.7666V4.16602Z" fill="#3683E9"/>
<path d="M29.9667 4.16602H25.8334V6.23268H29.9667V4.16602Z" fill="#3683E9"/>
<path d="M36.1667 4.16602H32.0333V6.23268H36.1667V4.16602Z" fill="#3683E9"/>
<path d="M11.3666 8.29883H7.23328V10.3655H11.3666V8.29883Z" fill="#3683E9"/>
<path d="M17.5667 8.29883H13.4333V10.3655H17.5667V8.29883Z" fill="#3683E9"/>
<path d="M23.7666 8.29883H19.6333V10.3655H23.7666V8.29883Z" fill="#3683E9"/>
<path d="M29.9667 8.29883H25.8334V10.3655H29.9667V8.29883Z" fill="#3683E9"/>
<path d="M36.1667 8.29883H32.0333V10.3655H36.1667V8.29883Z" fill="#3683E9"/>
<path d="M11.3666 22.7656H7.23328V24.8323H11.3666V22.7656Z" fill="#3683E9"/>
<path d="M17.5667 22.7656H13.4333V24.8323H17.5667V22.7656Z" fill="#3683E9"/>
<path d="M23.7666 22.7656H19.6333V24.8323H23.7666V22.7656Z" fill="#3683E9"/>
<path d="M29.9667 22.7656H25.8334V24.8323H29.9667V22.7656Z" fill="#3683E9"/>
<path d="M36.1667 22.7656H32.0333V24.8323H36.1667V22.7656Z" fill="#3683E9"/>
<path d="M11.3666 26.8994H7.23328V28.9661H11.3666V26.8994Z" fill="#3683E9"/>
<path d="M17.5667 26.8994H13.4333V28.9661H17.5667V26.8994Z" fill="#3683E9"/>
<path d="M23.7666 26.8994H19.6333V28.9661H23.7666V26.8994Z" fill="#3683E9"/>
<path d="M29.9667 26.8994H25.8334V28.9661H29.9667V26.8994Z" fill="#3683E9"/>
<path d="M36.1667 26.8994H32.0333V28.9661H36.1667V26.8994Z" fill="#3683E9"/>
<path d="M11.3666 41.3662H7.23328V43.4329H11.3666V41.3662Z" fill="#3683E9"/>
<path d="M17.5667 41.3662H13.4333V43.4329H17.5667V41.3662Z" fill="#3683E9"/>
<path d="M23.7666 41.3662H19.6333V43.4329H23.7666V41.3662Z" fill="#3683E9"/>
<path d="M29.9667 41.3662H25.8334V43.4329H29.9667V41.3662Z" fill="#3683E9"/>
<path d="M36.1667 41.3662H32.0333V43.4329H36.1667V41.3662Z" fill="#3683E9"/>
<path d="M11.3666 45.499H7.23328V47.5657H11.3666V45.499Z" fill="#3683E9"/>
<path d="M17.5667 45.499H13.4333V47.5657H17.5667V45.499Z" fill="#3683E9"/>
<path d="M23.7666 45.499H19.6333V47.5657H23.7666V45.499Z" fill="#3683E9"/>
<path d="M29.9667 45.499H25.8334V47.5657H29.9667V45.499Z" fill="#3683E9"/>
<path d="M36.1667 45.499H32.0333V47.5657H36.1667V45.499Z" fill="#3683E9"/>
<path d="M53.7333 4.16602H39.2666C38.6962 4.16602 38.2333 4.62895 38.2333 5.19935V11.3993C38.2333 11.9697 38.6962 12.4327 39.2666 12.4327H53.7333C54.3037 12.4327 54.7666 11.9697 54.7666 11.3993V5.19935C54.7666 4.62895 54.3037 4.16602 53.7333 4.16602ZM52.6999 10.366H40.2999V6.23268H52.6999V10.366Z" fill="#3683E9"/>
<path d="M53.7333 22.7656H39.2666C38.6962 22.7656 38.2333 23.2286 38.2333 23.799V29.999C38.2333 30.5694 38.6962 31.0323 39.2666 31.0323H53.7333C54.3037 31.0323 54.7666 30.5694 54.7666 29.999V23.799C54.7666 23.2286 54.3037 22.7656 53.7333 22.7656ZM52.6999 28.9656H40.2999V24.8323H52.6999V28.9656Z" fill="#3683E9"/>
<path d="M53.7333 41.3662H39.2666C38.6962 41.3662 38.2333 41.8291 38.2333 42.3995V48.5995C38.2333 49.1699 38.6962 49.6329 39.2666 49.6329H53.7333C54.3037 49.6329 54.7666 49.1699 54.7666 48.5995V42.3995C54.7666 41.8291 54.3037 41.3662 53.7333 41.3662ZM52.6999 47.5662H40.2999V43.4329H52.6999V47.5662Z" fill="#3683E9"/>
<path d="M32.0333 59.9005V53.7656H57.8667C58.4371 53.7656 58.9 53.3026 58.9 52.7322V38.2656C58.9 37.6952 58.4371 37.2322 57.8667 37.2322H56.8333V35.1656H57.8667C58.4371 35.1656 58.9 34.7026 58.9 34.1322V19.6656C58.9 19.0952 58.4371 18.6322 57.8667 18.6322H56.8333V16.5656H57.8667C58.4371 16.5656 58.9 16.1026 58.9 15.5322V1.06556C58.9 0.49516 58.4371 0.0322266 57.8667 0.0322266H4.13333C3.56293 0.0322266 3.1 0.49516 3.1 1.06556V15.5322C3.1 16.1026 3.56293 16.5656 4.13333 16.5656H5.16667V18.6322H4.13333C3.56293 18.6322 3.1 19.0952 3.1 19.6656V34.1322C3.1 34.7026 3.56293 35.1656 4.13333 35.1656H5.16667V37.2322H4.13333C3.56293 37.2322 3.1 37.6952 3.1 38.2656V52.7322C3.1 53.3026 3.56293 53.7656 4.13333 53.7656H29.9667V59.9005H0V61.9671H62V59.9005H32.0333ZM5.16667 2.09889H56.8333V14.4989H5.16667V2.09889ZM54.7667 16.5656V18.6322H7.23333V16.5656H54.7667ZM5.16667 20.6989H56.8333V33.0989H5.16667V20.6989ZM54.7667 35.1656V37.2322H7.23333V35.1656H54.7667ZM5.16667 51.6989V39.2989H56.8333V51.6989H5.16667Z" fill="#3683E9"/>
</svg>
