<svg width="381" height="281" viewBox="0 0 381 281" fill="none" xmlns="http://www.w3.org/2000/svg">
<rect x="0.666656" width="379.667" height="281" fill="#FCFDFF"/>
<path d="M52.1738 200H46.6025V190.006H52.1738V191.038H47.7646V194.258H51.9072V195.283H47.7646V198.961H52.1738V200ZM60.7324 202.591H59.6318V200H54.3955V202.591H53.3018V199.022H53.8896C54.5003 198.193 54.9788 197.22 55.3252 196.104C55.6715 194.987 55.8516 193.788 55.8652 192.508H59.6592V199.022H60.7324V202.591ZM58.5654 199.022V193.403H56.8838C56.8245 194.415 56.6286 195.44 56.2959 196.479C55.9678 197.514 55.5576 198.362 55.0654 199.022H58.5654ZM63.3027 192.508V197.259L63.2549 198.503L63.2344 198.893L67.2881 192.508H68.7031V200H67.6436V195.42L67.6641 194.518L67.6982 193.629L63.6514 200H62.2363V192.508H63.3027ZM72.2441 192.508V195.646H76.4414V192.508H77.5762V200H76.4414V196.623H72.2441V200H71.1094V192.508H72.2441ZM81.1172 195.604H83.1611C84.1136 195.604 84.8177 195.782 85.2734 196.138C85.7337 196.489 85.9639 197.015 85.9639 197.717C85.9639 198.469 85.7201 199.038 85.2324 199.426C84.7493 199.809 84.0361 200 83.0928 200H79.9824V192.508H81.1172V195.604ZM88.3564 200H87.2217V192.508H88.3564V200ZM81.1172 196.582V199.05H83.0381C84.2412 199.05 84.8428 198.628 84.8428 197.785C84.8428 197.366 84.7038 197.061 84.4258 196.869C84.1478 196.678 83.6738 196.582 83.0039 196.582H81.1172ZM91.8359 192.508V197.259L91.7881 198.503L91.7676 198.893L95.8213 192.508H97.2363V200H96.1768V195.42L96.1973 194.518L96.2314 193.629L92.1846 200H90.7695V192.508H91.8359ZM93.9756 191.517C93.1325 191.517 92.5173 191.355 92.1299 191.031C91.7425 190.703 91.526 190.165 91.4805 189.418H92.5469C92.5879 189.892 92.7109 190.222 92.916 190.409C93.1257 190.596 93.488 190.689 94.0029 190.689C94.4723 190.689 94.8187 190.589 95.042 190.389C95.2699 190.188 95.4089 189.865 95.459 189.418H96.5322C96.4775 190.138 96.2474 190.669 95.8418 191.011C95.4362 191.348 94.8141 191.517 93.9756 191.517ZM104.346 192.508V197.259L104.298 198.503L104.277 198.893L108.331 192.508H109.746V200H108.687V195.42L108.707 194.518L108.741 193.629L104.694 200H103.279V192.508H104.346ZM113.287 192.508V195.646H117.484V192.508H118.619V200H117.484V196.623H113.287V200H112.152V192.508H113.287ZM126.077 193.479H123.644V200H122.509V193.479H120.103V192.508H126.077V193.479ZM130.726 200.137C129.618 200.137 128.743 199.799 128.101 199.125C127.463 198.451 127.144 197.514 127.144 196.315C127.144 195.108 127.44 194.148 128.032 193.438C128.629 192.727 129.429 192.371 130.432 192.371C131.37 192.371 132.113 192.681 132.66 193.301C133.207 193.916 133.48 194.729 133.48 195.741V196.459H128.319C128.342 197.339 128.563 198.006 128.982 198.462C129.406 198.918 130.001 199.146 130.767 199.146C131.573 199.146 132.371 198.977 133.159 198.64V199.651C132.758 199.825 132.378 199.948 132.018 200.021C131.662 200.098 131.231 200.137 130.726 200.137ZM130.418 193.321C129.816 193.321 129.336 193.517 128.976 193.909C128.62 194.301 128.41 194.843 128.347 195.536H132.264C132.264 194.821 132.104 194.274 131.785 193.896C131.466 193.513 131.01 193.321 130.418 193.321ZM138.908 200.137C138.421 200.137 137.974 200.048 137.568 199.87C137.167 199.688 136.83 199.41 136.557 199.036H136.475C136.529 199.474 136.557 199.888 136.557 200.28V203.363H135.422V192.508H136.345L136.502 193.533H136.557C136.848 193.123 137.188 192.827 137.575 192.645C137.963 192.462 138.407 192.371 138.908 192.371C139.902 192.371 140.667 192.711 141.205 193.39C141.747 194.069 142.019 195.021 142.019 196.247C142.019 197.478 141.743 198.435 141.191 199.118C140.645 199.797 139.883 200.137 138.908 200.137ZM138.744 193.335C137.979 193.335 137.425 193.547 137.083 193.971C136.741 194.395 136.566 195.069 136.557 195.994V196.247C136.557 197.3 136.732 198.054 137.083 198.51C137.434 198.961 137.997 199.187 138.771 199.187C139.419 199.187 139.924 198.924 140.289 198.4C140.658 197.876 140.843 197.154 140.843 196.233C140.843 195.299 140.658 194.584 140.289 194.087C139.924 193.586 139.41 193.335 138.744 193.335ZM152.033 196.247C152.033 197.382 151.71 198.286 151.062 198.961C150.42 199.631 149.52 200.014 148.362 200.109V203.363H147.241V200.109C146.111 200.023 145.218 199.635 144.562 198.947C143.905 198.259 143.577 197.359 143.577 196.247C143.577 195.112 143.903 194.21 144.555 193.54C145.211 192.87 146.12 192.49 147.282 192.398V189.363H148.362V192.398C149.506 192.503 150.404 192.897 151.056 193.581C151.707 194.265 152.033 195.153 152.033 196.247ZM144.767 196.247C144.767 197.122 144.967 197.808 145.368 198.305C145.769 198.801 146.407 199.091 147.282 199.173V193.349C146.439 193.426 145.808 193.702 145.389 194.176C144.974 194.645 144.767 195.336 144.767 196.247ZM150.857 196.247C150.857 194.502 150.026 193.54 148.362 193.362V199.173C149.228 199.086 149.859 198.795 150.256 198.298C150.657 197.801 150.857 197.118 150.857 196.247ZM157.181 200.137C156.073 200.137 155.198 199.799 154.556 199.125C153.918 198.451 153.599 197.514 153.599 196.315C153.599 195.108 153.895 194.148 154.487 193.438C155.084 192.727 155.884 192.371 156.887 192.371C157.826 192.371 158.568 192.681 159.115 193.301C159.662 193.916 159.936 194.729 159.936 195.741V196.459H154.774C154.797 197.339 155.018 198.006 155.438 198.462C155.861 198.918 156.456 199.146 157.222 199.146C158.028 199.146 158.826 198.977 159.614 198.64V199.651C159.213 199.825 158.833 199.948 158.473 200.021C158.117 200.098 157.687 200.137 157.181 200.137ZM156.873 193.321C156.271 193.321 155.791 193.517 155.431 193.909C155.075 194.301 154.866 194.843 154.802 195.536H158.719C158.719 194.821 158.559 194.274 158.24 193.896C157.921 193.513 157.465 193.321 156.873 193.321ZM162.943 192.508V197.259L162.896 198.503L162.875 198.893L166.929 192.508H168.344V200H167.284V195.42L167.305 194.518L167.339 193.629L163.292 200H161.877V192.508H162.943ZM165.083 191.517C164.24 191.517 163.625 191.355 163.237 191.031C162.85 190.703 162.633 190.165 162.588 189.418H163.654C163.695 189.892 163.818 190.222 164.023 190.409C164.233 190.596 164.595 190.689 165.11 190.689C165.58 190.689 165.926 190.589 166.149 190.389C166.377 190.188 166.516 189.865 166.566 189.418H167.64C167.585 190.138 167.355 190.669 166.949 191.011C166.544 191.348 165.922 191.517 165.083 191.517ZM173.744 200.137C172.66 200.137 171.819 199.804 171.222 199.139C170.629 198.469 170.333 197.523 170.333 196.302C170.333 195.049 170.634 194.08 171.235 193.396C171.841 192.713 172.703 192.371 173.819 192.371C174.179 192.371 174.539 192.41 174.899 192.487C175.259 192.565 175.542 192.656 175.747 192.761L175.398 193.725C175.148 193.624 174.874 193.542 174.578 193.479C174.282 193.41 174.02 193.376 173.792 193.376C172.27 193.376 171.509 194.347 171.509 196.288C171.509 197.209 171.693 197.915 172.062 198.407C172.436 198.899 172.988 199.146 173.717 199.146C174.341 199.146 174.981 199.011 175.638 198.742V199.747C175.136 200.007 174.505 200.137 173.744 200.137ZM187.566 202.591H186.466V200H181.229V202.591H180.136V199.022H180.724C181.334 198.193 181.813 197.22 182.159 196.104C182.506 194.987 182.686 193.788 182.699 192.508H186.493V199.022H187.566V202.591ZM185.399 199.022V193.403H183.718C183.659 194.415 183.463 195.44 183.13 196.479C182.802 197.514 182.392 198.362 181.899 199.022H185.399ZM194.655 200H193.507V193.479H191.258C191.135 195.101 190.964 196.388 190.745 197.341C190.526 198.293 190.242 198.991 189.891 199.433C189.544 199.875 189.102 200.096 188.564 200.096C188.318 200.096 188.122 200.068 187.977 200.014V199.173C188.077 199.2 188.191 199.214 188.318 199.214C188.842 199.214 189.259 198.66 189.569 197.553C189.879 196.445 190.114 194.764 190.273 192.508H194.655V200ZM197.444 200H196.118L198.271 196.835C197.693 196.707 197.248 196.461 196.938 196.097C196.633 195.728 196.48 195.265 196.48 194.709C196.48 194.025 196.711 193.488 197.171 193.096C197.631 192.704 198.274 192.508 199.099 192.508H202.435V200H201.3V197.006H199.406L197.444 200ZM197.588 194.723C197.588 195.589 198.217 196.021 199.475 196.021H201.3V193.492H199.242C198.139 193.492 197.588 193.902 197.588 194.723ZM212.374 198.906L212.586 198.271L212.88 197.464L214.91 192.521H216.353V200H215.348V193.813L215.211 194.21L214.814 195.256L212.88 200H211.93L209.995 195.242C209.754 194.632 209.587 194.155 209.496 193.813V200H208.484V192.521H209.872L211.834 197.272C212.03 197.774 212.21 198.318 212.374 198.906ZM223.387 200L223.161 198.934H223.106C222.733 199.403 222.359 199.722 221.985 199.891C221.616 200.055 221.154 200.137 220.598 200.137C219.855 200.137 219.271 199.945 218.848 199.562C218.428 199.18 218.219 198.635 218.219 197.929C218.219 196.416 219.429 195.623 221.849 195.55L223.12 195.509V195.044C223.12 194.456 222.993 194.023 222.737 193.745C222.487 193.463 222.083 193.321 221.527 193.321C220.903 193.321 220.197 193.513 219.408 193.896L219.06 193.027C219.429 192.827 219.832 192.67 220.27 192.556C220.712 192.442 221.154 192.385 221.596 192.385C222.489 192.385 223.15 192.583 223.578 192.979C224.011 193.376 224.228 194.012 224.228 194.887V200H223.387ZM220.823 199.2C221.53 199.2 222.083 199.007 222.484 198.619C222.89 198.232 223.093 197.689 223.093 196.992V196.315L221.958 196.363C221.056 196.395 220.404 196.536 220.003 196.787C219.606 197.033 219.408 197.418 219.408 197.942C219.408 198.353 219.531 198.665 219.777 198.879C220.028 199.093 220.377 199.2 220.823 199.2ZM232.157 200H231.009V193.479H228.76C228.637 195.101 228.466 196.388 228.247 197.341C228.028 198.293 227.743 198.991 227.393 199.433C227.046 199.875 226.604 200.096 226.066 200.096C225.82 200.096 225.624 200.068 225.479 200.014V199.173C225.579 199.2 225.693 199.214 225.82 199.214C226.344 199.214 226.761 198.66 227.071 197.553C227.381 196.445 227.616 194.764 227.775 192.508H232.157V200ZM241.037 196.247C241.037 197.468 240.729 198.423 240.114 199.111C239.499 199.795 238.649 200.137 237.564 200.137C236.895 200.137 236.3 199.979 235.78 199.665C235.261 199.351 234.86 198.899 234.577 198.312C234.295 197.724 234.153 197.035 234.153 196.247C234.153 195.026 234.459 194.076 235.069 193.396C235.68 192.713 236.528 192.371 237.612 192.371C238.66 192.371 239.492 192.72 240.107 193.417C240.727 194.114 241.037 195.058 241.037 196.247ZM235.329 196.247C235.329 197.204 235.521 197.933 235.903 198.435C236.286 198.936 236.849 199.187 237.592 199.187C238.335 199.187 238.897 198.938 239.28 198.441C239.668 197.94 239.861 197.209 239.861 196.247C239.861 195.295 239.668 194.572 239.28 194.08C238.897 193.583 238.33 193.335 237.578 193.335C236.835 193.335 236.275 193.579 235.896 194.066C235.518 194.554 235.329 195.281 235.329 196.247ZM247.545 193.479H244.168V200H243.033V192.508H247.545V193.479ZM255.502 196.247C255.502 197.468 255.194 198.423 254.579 199.111C253.964 199.795 253.114 200.137 252.029 200.137C251.359 200.137 250.765 199.979 250.245 199.665C249.726 199.351 249.325 198.899 249.042 198.312C248.759 197.724 248.618 197.035 248.618 196.247C248.618 195.026 248.924 194.076 249.534 193.396C250.145 192.713 250.993 192.371 252.077 192.371C253.125 192.371 253.957 192.72 254.572 193.417C255.192 194.114 255.502 195.058 255.502 196.247ZM249.794 196.247C249.794 197.204 249.985 197.933 250.368 198.435C250.751 198.936 251.314 199.187 252.057 199.187C252.799 199.187 253.362 198.938 253.745 198.441C254.132 197.94 254.326 197.209 254.326 196.247C254.326 195.295 254.132 194.572 253.745 194.08C253.362 193.583 252.795 193.335 252.043 193.335C251.3 193.335 250.74 193.579 250.361 194.066C249.983 194.554 249.794 195.281 249.794 196.247ZM262.201 192.508V197.259L262.153 198.503L262.133 198.893L266.187 192.508H267.602V200H266.542V195.42L266.562 194.518L266.597 193.629L262.55 200H261.135V192.508H262.201ZM276.639 200.137C275.554 200.137 274.713 199.804 274.116 199.139C273.524 198.469 273.228 197.523 273.228 196.302C273.228 195.049 273.528 194.08 274.13 193.396C274.736 192.713 275.597 192.371 276.714 192.371C277.074 192.371 277.434 192.41 277.794 192.487C278.154 192.565 278.437 192.656 278.642 192.761L278.293 193.725C278.042 193.624 277.769 193.542 277.473 193.479C277.176 193.41 276.914 193.376 276.687 193.376C275.164 193.376 274.403 194.347 274.403 196.288C274.403 197.209 274.588 197.915 274.957 198.407C275.331 198.899 275.882 199.146 276.611 199.146C277.236 199.146 277.876 199.011 278.532 198.742V199.747C278.031 200.007 277.4 200.137 276.639 200.137ZM283.803 200.137C283.315 200.137 282.868 200.048 282.463 199.87C282.062 199.688 281.725 199.41 281.451 199.036H281.369C281.424 199.474 281.451 199.888 281.451 200.28V203.363H280.316V192.508H281.239L281.396 193.533H281.451C281.743 193.123 282.082 192.827 282.47 192.645C282.857 192.462 283.301 192.371 283.803 192.371C284.796 192.371 285.562 192.711 286.1 193.39C286.642 194.069 286.913 195.021 286.913 196.247C286.913 197.478 286.637 198.435 286.086 199.118C285.539 199.797 284.778 200.137 283.803 200.137ZM283.639 193.335C282.873 193.335 282.319 193.547 281.978 193.971C281.636 194.395 281.46 195.069 281.451 195.994V196.247C281.451 197.3 281.627 198.054 281.978 198.51C282.328 198.961 282.891 199.187 283.666 199.187C284.313 199.187 284.819 198.924 285.184 198.4C285.553 197.876 285.737 197.154 285.737 196.233C285.737 195.299 285.553 194.584 285.184 194.087C284.819 193.586 284.304 193.335 283.639 193.335ZM292.067 200.137C290.96 200.137 290.085 199.799 289.442 199.125C288.804 198.451 288.485 197.514 288.485 196.315C288.485 195.108 288.782 194.148 289.374 193.438C289.971 192.727 290.771 192.371 291.773 192.371C292.712 192.371 293.455 192.681 294.002 193.301C294.549 193.916 294.822 194.729 294.822 195.741V196.459H289.661C289.684 197.339 289.905 198.006 290.324 198.462C290.748 198.918 291.343 199.146 292.108 199.146C292.915 199.146 293.713 198.977 294.501 198.64V199.651C294.1 199.825 293.719 199.948 293.359 200.021C293.004 200.098 292.573 200.137 292.067 200.137ZM291.76 193.321C291.158 193.321 290.677 193.517 290.317 193.909C289.962 194.301 289.752 194.843 289.688 195.536H293.605C293.605 194.821 293.446 194.274 293.127 193.896C292.808 193.513 292.352 193.321 291.76 193.321ZM303.271 202.591H302.171V200H296.935V202.591H295.841V199.022H296.429C297.039 198.193 297.518 197.22 297.864 196.104C298.211 194.987 298.391 193.788 298.404 192.508H302.198V199.022H303.271V202.591ZM301.104 199.022V193.403H299.423C299.364 194.415 299.168 195.44 298.835 196.479C298.507 197.514 298.097 198.362 297.604 199.022H301.104ZM305.91 192.508V195.646H310.107V192.508H311.242V200H310.107V196.623H305.91V200H304.775V192.508H305.91ZM316.813 200.137C315.706 200.137 314.831 199.799 314.188 199.125C313.55 198.451 313.231 197.514 313.231 196.315C313.231 195.108 313.528 194.148 314.12 193.438C314.717 192.727 315.517 192.371 316.52 192.371C317.458 192.371 318.201 192.681 318.748 193.301C319.295 193.916 319.568 194.729 319.568 195.741V196.459H314.407C314.43 197.339 314.651 198.006 315.07 198.462C315.494 198.918 316.089 199.146 316.854 199.146C317.661 199.146 318.459 198.977 319.247 198.64V199.651C318.846 199.825 318.465 199.948 318.105 200.021C317.75 200.098 317.319 200.137 316.813 200.137ZM316.506 193.321C315.904 193.321 315.424 193.517 315.063 193.909C314.708 194.301 314.498 194.843 314.435 195.536H318.352C318.352 194.821 318.192 194.274 317.873 193.896C317.554 193.513 317.098 193.321 316.506 193.321ZM326.021 193.479H322.645V200H321.51V192.508H326.021V193.479ZM333.979 196.247C333.979 197.468 333.671 198.423 333.056 199.111C332.44 199.795 331.59 200.137 330.506 200.137C329.836 200.137 329.241 199.979 328.722 199.665C328.202 199.351 327.801 198.899 327.519 198.312C327.236 197.724 327.095 197.035 327.095 196.247C327.095 195.026 327.4 194.076 328.011 193.396C328.621 192.713 329.469 192.371 330.554 192.371C331.602 192.371 332.434 192.72 333.049 193.417C333.669 194.114 333.979 195.058 333.979 196.247ZM328.271 196.247C328.271 197.204 328.462 197.933 328.845 198.435C329.228 198.936 329.79 199.187 330.533 199.187C331.276 199.187 331.839 198.938 332.222 198.441C332.609 197.94 332.803 197.209 332.803 196.247C332.803 195.295 332.609 194.572 332.222 194.08C331.839 193.583 331.271 193.335 330.52 193.335C329.777 193.335 329.216 193.579 328.838 194.066C328.46 194.554 328.271 195.281 328.271 196.247ZM55.1543 216.509C55.1543 214.868 55.3958 213.59 55.8789 212.674C56.362 211.753 57.1276 211.179 58.1758 210.951C59.4792 210.673 60.6276 210.448 61.6211 210.274L61.833 211.272C60.2516 211.537 59.1214 211.746 58.4424 211.901C57.7816 212.052 57.2848 212.407 56.9521 212.968C56.624 213.528 56.444 214.292 56.4121 215.258H56.4941C56.7767 214.875 57.1413 214.574 57.5879 214.355C58.0345 214.137 58.5016 214.027 58.9893 214.027C59.9098 214.027 60.6276 214.326 61.1426 214.923C61.6576 215.52 61.915 216.347 61.915 217.404C61.915 218.576 61.6165 219.492 61.0195 220.152C60.4225 220.809 59.5908 221.137 58.5244 221.137C57.4717 221.137 56.6468 220.733 56.0498 219.927C55.4528 219.12 55.1543 217.981 55.1543 216.509ZM58.627 220.187C60.0169 220.187 60.7119 219.3 60.7119 217.527C60.7119 215.837 60.0807 214.991 58.8184 214.991C58.472 214.991 58.137 215.064 57.8135 215.21C57.4945 215.351 57.2005 215.54 56.9316 215.777C56.6673 216.014 56.4622 216.258 56.3164 216.509C56.3164 217.707 56.5055 218.621 56.8838 219.25C57.262 219.874 57.8431 220.187 58.627 220.187ZM64.9639 213.508V218.259L64.916 219.503L64.8955 219.893L68.9492 213.508H70.3643V221H69.3047V216.42L69.3252 215.518L69.3594 214.629L65.3125 221H63.8975V213.508H64.9639ZM74.1992 216.618C75.6165 216.618 76.3252 216.226 76.3252 215.442C76.3252 214.704 75.751 214.335 74.6025 214.335C74.2516 214.335 73.9326 214.367 73.6455 214.431C73.3584 214.494 72.9824 214.622 72.5176 214.813L72.1143 213.891C72.889 213.544 73.7344 213.371 74.6504 213.371C75.5117 213.371 76.1908 213.549 76.6875 213.904C77.1842 214.255 77.4326 214.736 77.4326 215.347C77.4326 216.185 76.9655 216.734 76.0312 216.994V217.049C76.6055 217.217 77.0247 217.459 77.2891 217.773C77.5534 218.083 77.6855 218.473 77.6855 218.942C77.6855 219.635 77.4053 220.175 76.8447 220.562C76.2887 220.945 75.5186 221.137 74.5342 221.137C73.4541 221.137 72.6201 220.975 72.0322 220.651V219.612C72.8662 220.004 73.7093 220.2 74.5615 220.2C75.2178 220.2 75.7122 220.089 76.0449 219.865C76.3822 219.637 76.5508 219.312 76.5508 218.888C76.5508 218.017 75.8421 217.582 74.4248 217.582H73.3857V216.618H74.1992ZM80.6729 213.508V216.646H84.8701V213.508H86.0049V221H84.8701V217.623H80.6729V221H79.5381V213.508H80.6729ZM91.5762 221.137C90.4688 221.137 89.5938 220.799 88.9512 220.125C88.3132 219.451 87.9941 218.514 87.9941 217.315C87.9941 216.108 88.2904 215.148 88.8828 214.438C89.4798 213.727 90.2796 213.371 91.2822 213.371C92.221 213.371 92.9639 213.681 93.5107 214.301C94.0576 214.916 94.3311 215.729 94.3311 216.741V217.459H89.1699C89.1927 218.339 89.4137 219.006 89.833 219.462C90.2568 219.918 90.8516 220.146 91.6172 220.146C92.4238 220.146 93.2214 219.977 94.0098 219.64V220.651C93.6087 220.825 93.2282 220.948 92.8682 221.021C92.5127 221.098 92.082 221.137 91.5762 221.137ZM91.2686 214.321C90.667 214.321 90.1862 214.517 89.8262 214.909C89.4707 215.301 89.2611 215.843 89.1973 216.536H93.1143C93.1143 215.821 92.9548 215.274 92.6357 214.896C92.3167 214.513 91.861 214.321 91.2686 214.321ZM99.2666 221.137C98.182 221.137 97.3411 220.804 96.7441 220.139C96.1517 219.469 95.8555 218.523 95.8555 217.302C95.8555 216.049 96.1562 215.08 96.7578 214.396C97.3639 213.713 98.2253 213.371 99.3418 213.371C99.7018 213.371 100.062 213.41 100.422 213.487C100.782 213.565 101.064 213.656 101.27 213.761L100.921 214.725C100.67 214.624 100.397 214.542 100.101 214.479C99.8044 214.41 99.5423 214.376 99.3145 214.376C97.7923 214.376 97.0312 215.347 97.0312 217.288C97.0312 218.209 97.2158 218.915 97.585 219.407C97.9587 219.899 98.5101 220.146 99.2393 220.146C99.8636 220.146 100.504 220.011 101.16 219.742V220.747C100.659 221.007 100.028 221.137 99.2666 221.137ZM107.552 221L107.326 219.934H107.271C106.898 220.403 106.524 220.722 106.15 220.891C105.781 221.055 105.319 221.137 104.763 221.137C104.02 221.137 103.437 220.945 103.013 220.562C102.593 220.18 102.384 219.635 102.384 218.929C102.384 217.416 103.594 216.623 106.014 216.55L107.285 216.509V216.044C107.285 215.456 107.158 215.023 106.902 214.745C106.652 214.463 106.248 214.321 105.692 214.321C105.068 214.321 104.362 214.513 103.573 214.896L103.225 214.027C103.594 213.827 103.997 213.67 104.435 213.556C104.877 213.442 105.319 213.385 105.761 213.385C106.654 213.385 107.315 213.583 107.743 213.979C108.176 214.376 108.393 215.012 108.393 215.887V221H107.552ZM104.988 220.2C105.695 220.2 106.248 220.007 106.649 219.619C107.055 219.232 107.258 218.689 107.258 217.992V217.315L106.123 217.363C105.221 217.395 104.569 217.536 104.168 217.787C103.771 218.033 103.573 218.418 103.573 218.942C103.573 219.353 103.696 219.665 103.942 219.879C104.193 220.093 104.542 220.2 104.988 220.2ZM111.927 219.373L112.029 219.53C111.911 219.986 111.74 220.515 111.517 221.116C111.293 221.722 111.061 222.285 110.819 222.805H109.965C110.088 222.331 110.222 221.745 110.368 221.048C110.519 220.351 110.623 219.792 110.683 219.373H111.927ZM122.174 213.508H123.418L120.185 217.124L123.685 221H122.358L118.94 217.206V221H117.806V213.508H118.94V217.151L122.174 213.508ZM131.546 217.247C131.546 218.468 131.238 219.423 130.623 220.111C130.008 220.795 129.158 221.137 128.073 221.137C127.403 221.137 126.809 220.979 126.289 220.665C125.77 220.351 125.368 219.899 125.086 219.312C124.803 218.724 124.662 218.035 124.662 217.247C124.662 216.026 124.967 215.076 125.578 214.396C126.189 213.713 127.036 213.371 128.121 213.371C129.169 213.371 130.001 213.72 130.616 214.417C131.236 215.114 131.546 216.058 131.546 217.247ZM125.838 217.247C125.838 218.204 126.029 218.933 126.412 219.435C126.795 219.936 127.358 220.187 128.101 220.187C128.843 220.187 129.406 219.938 129.789 219.441C130.176 218.94 130.37 218.209 130.37 217.247C130.37 216.295 130.176 215.572 129.789 215.08C129.406 214.583 128.839 214.335 128.087 214.335C127.344 214.335 126.784 214.579 126.405 215.066C126.027 215.554 125.838 216.281 125.838 217.247ZM137.028 221.137C136.541 221.137 136.094 221.048 135.688 220.87C135.287 220.688 134.95 220.41 134.677 220.036H134.595C134.649 220.474 134.677 220.888 134.677 221.28V224.363H133.542V213.508H134.465L134.622 214.533H134.677C134.968 214.123 135.308 213.827 135.695 213.645C136.083 213.462 136.527 213.371 137.028 213.371C138.022 213.371 138.787 213.711 139.325 214.39C139.868 215.069 140.139 216.021 140.139 217.247C140.139 218.478 139.863 219.435 139.312 220.118C138.765 220.797 138.004 221.137 137.028 221.137ZM136.864 214.335C136.099 214.335 135.545 214.547 135.203 214.971C134.861 215.395 134.686 216.069 134.677 216.994V217.247C134.677 218.3 134.852 219.054 135.203 219.51C135.554 219.961 136.117 220.187 136.892 220.187C137.539 220.187 138.045 219.924 138.409 219.4C138.778 218.876 138.963 218.154 138.963 217.233C138.963 216.299 138.778 215.584 138.409 215.087C138.045 214.586 137.53 214.335 136.864 214.335ZM143.263 221H142.128V213.508H148.417V221H147.269V214.492H143.263V221ZM157.29 217.247C157.29 218.468 156.982 219.423 156.367 220.111C155.752 220.795 154.902 221.137 153.817 221.137C153.147 221.137 152.553 220.979 152.033 220.665C151.514 220.351 151.113 219.899 150.83 219.312C150.548 218.724 150.406 218.035 150.406 217.247C150.406 216.026 150.712 215.076 151.322 214.396C151.933 213.713 152.781 213.371 153.865 213.371C154.913 213.371 155.745 213.72 156.36 214.417C156.98 215.114 157.29 216.058 157.29 217.247ZM151.582 217.247C151.582 218.204 151.773 218.933 152.156 219.435C152.539 219.936 153.102 220.187 153.845 220.187C154.588 220.187 155.15 219.938 155.533 219.441C155.921 218.94 156.114 218.209 156.114 217.247C156.114 216.295 155.921 215.572 155.533 215.08C155.15 214.583 154.583 214.335 153.831 214.335C153.088 214.335 152.528 214.579 152.149 215.066C151.771 215.554 151.582 216.281 151.582 217.247ZM162.772 221.137C162.285 221.137 161.838 221.048 161.433 220.87C161.032 220.688 160.694 220.41 160.421 220.036H160.339C160.394 220.474 160.421 220.888 160.421 221.28V224.363H159.286V213.508H160.209L160.366 214.533H160.421C160.713 214.123 161.052 213.827 161.439 213.645C161.827 213.462 162.271 213.371 162.772 213.371C163.766 213.371 164.532 213.711 165.069 214.39C165.612 215.069 165.883 216.021 165.883 217.247C165.883 218.478 165.607 219.435 165.056 220.118C164.509 220.797 163.748 221.137 162.772 221.137ZM162.608 214.335C161.843 214.335 161.289 214.547 160.947 214.971C160.605 215.395 160.43 216.069 160.421 216.994V217.247C160.421 218.3 160.596 219.054 160.947 219.51C161.298 219.961 161.861 220.187 162.636 220.187C163.283 220.187 163.789 219.924 164.153 219.4C164.522 218.876 164.707 218.154 164.707 217.233C164.707 216.299 164.522 215.584 164.153 215.087C163.789 214.586 163.274 214.335 162.608 214.335ZM172.479 221L172.254 219.934H172.199C171.826 220.403 171.452 220.722 171.078 220.891C170.709 221.055 170.246 221.137 169.69 221.137C168.948 221.137 168.364 220.945 167.94 220.562C167.521 220.18 167.312 219.635 167.312 218.929C167.312 217.416 168.521 216.623 170.941 216.55L172.213 216.509V216.044C172.213 215.456 172.085 215.023 171.83 214.745C171.579 214.463 171.176 214.321 170.62 214.321C169.996 214.321 169.289 214.513 168.501 214.896L168.152 214.027C168.521 213.827 168.925 213.67 169.362 213.556C169.804 213.442 170.246 213.385 170.688 213.385C171.582 213.385 172.243 213.583 172.671 213.979C173.104 214.376 173.32 215.012 173.32 215.887V221H172.479ZM169.916 220.2C170.622 220.2 171.176 220.007 171.577 219.619C171.983 219.232 172.186 218.689 172.186 217.992V217.315L171.051 217.363C170.148 217.395 169.497 217.536 169.096 217.787C168.699 218.033 168.501 218.418 168.501 218.942C168.501 219.353 168.624 219.665 168.87 219.879C169.121 220.093 169.469 220.2 169.916 220.2ZM182.973 223.591H181.838V221H175.665V213.508H176.8V220.022H180.778V213.508H181.913V220.022H182.973V223.591ZM185.495 213.508V218.259L185.447 219.503L185.427 219.893L189.48 213.508H190.896V221H189.836V216.42L189.856 215.518L189.891 214.629L185.844 221H184.429V213.508H185.495ZM194.368 213.508V218.259L194.32 219.503L194.3 219.893L198.354 213.508H199.769V221H198.709V216.42L198.729 215.518L198.764 214.629L194.717 221H193.302V213.508H194.368ZM196.508 212.517C195.665 212.517 195.049 212.355 194.662 212.031C194.275 211.703 194.058 211.165 194.013 210.418H195.079C195.12 210.892 195.243 211.222 195.448 211.409C195.658 211.596 196.02 211.689 196.535 211.689C197.005 211.689 197.351 211.589 197.574 211.389C197.802 211.188 197.941 210.865 197.991 210.418H199.064C199.01 211.138 198.78 211.669 198.374 212.011C197.968 212.348 197.346 212.517 196.508 212.517ZM203.364 219.373L203.467 219.53C203.348 219.986 203.177 220.515 202.954 221.116C202.731 221.722 202.498 222.285 202.257 222.805H201.402C201.525 222.331 201.66 221.745 201.806 221.048C201.956 220.351 202.061 219.792 202.12 219.373H203.364ZM210.31 213.508V218.259L210.262 219.503L210.241 219.893L214.295 213.508H215.71V221H214.65V216.42L214.671 215.518L214.705 214.629L210.658 221H209.243V213.508H210.31ZM219.251 213.508V216.646H223.448V213.508H224.583V221H223.448V217.623H219.251V221H218.116V213.508H219.251ZM233.497 223.591H232.396V221H227.16V223.591H226.066V220.022H226.654C227.265 219.193 227.743 218.22 228.09 217.104C228.436 215.987 228.616 214.788 228.63 213.508H232.424V220.022H233.497V223.591ZM231.33 220.022V214.403H229.648C229.589 215.415 229.393 216.44 229.061 217.479C228.732 218.514 228.322 219.362 227.83 220.022H231.33ZM236.067 213.508V218.259L236.02 219.503L235.999 219.893L240.053 213.508H241.468V221H240.408V216.42L240.429 215.518L240.463 214.629L236.416 221H235.001V213.508H236.067ZM249.951 215.388C249.951 215.875 249.81 216.247 249.527 216.502C249.249 216.753 248.857 216.921 248.352 217.008V217.069C248.99 217.156 249.454 217.343 249.746 217.63C250.042 217.917 250.19 218.313 250.19 218.819C250.19 219.517 249.933 220.054 249.418 220.433C248.908 220.811 248.16 221 247.176 221H243.874V213.508H247.162C249.021 213.508 249.951 214.134 249.951 215.388ZM249.056 218.744C249.056 218.339 248.901 218.045 248.591 217.862C248.285 217.675 247.777 217.582 247.066 217.582H245.009V220.05H247.094C248.402 220.05 249.056 219.615 249.056 218.744ZM248.844 215.497C248.844 215.132 248.702 214.875 248.42 214.725C248.142 214.57 247.718 214.492 247.148 214.492H245.009V216.604H246.93C247.632 216.604 248.126 216.518 248.413 216.345C248.7 216.172 248.844 215.889 248.844 215.497ZM252.911 213.508V218.259L252.863 219.503L252.843 219.893L256.896 213.508H258.312V221H257.252V216.42L257.272 215.518L257.307 214.629L253.26 221H251.845V213.508H252.911ZM267.226 223.591H266.125V221H260.889V223.591H259.795V220.022H260.383C260.993 219.193 261.472 218.22 261.818 217.104C262.165 215.987 262.345 214.788 262.358 213.508H266.152V220.022H267.226V223.591ZM265.059 220.022V214.403H263.377C263.318 215.415 263.122 216.44 262.789 217.479C262.461 218.514 262.051 219.362 261.559 220.022H265.059ZM267.54 213.508H268.757L270.397 217.78C270.757 218.756 270.981 219.46 271.067 219.893H271.122C271.181 219.66 271.304 219.264 271.491 218.703C271.683 218.138 272.302 216.406 273.351 213.508H274.567L271.348 222.039C271.029 222.882 270.655 223.479 270.227 223.83C269.803 224.186 269.281 224.363 268.661 224.363C268.315 224.363 267.973 224.325 267.636 224.247V223.338C267.886 223.393 268.167 223.42 268.477 223.42C269.256 223.42 269.812 222.982 270.145 222.107L270.562 221.041L267.54 213.508ZM280.392 221L280.166 219.934H280.111C279.738 220.403 279.364 220.722 278.99 220.891C278.621 221.055 278.159 221.137 277.603 221.137C276.86 221.137 276.276 220.945 275.853 220.562C275.433 220.18 275.224 219.635 275.224 218.929C275.224 217.416 276.434 216.623 278.854 216.55L280.125 216.509V216.044C280.125 215.456 279.997 215.023 279.742 214.745C279.492 214.463 279.088 214.321 278.532 214.321C277.908 214.321 277.201 214.513 276.413 214.896L276.064 214.027C276.434 213.827 276.837 213.67 277.274 213.556C277.716 213.442 278.159 213.385 278.601 213.385C279.494 213.385 280.155 213.583 280.583 213.979C281.016 214.376 281.232 215.012 281.232 215.887V221H280.392ZM277.828 220.2C278.535 220.2 279.088 220.007 279.489 219.619C279.895 219.232 280.098 218.689 280.098 217.992V217.315L278.963 217.363C278.061 217.395 277.409 217.536 277.008 217.787C276.611 218.033 276.413 218.418 276.413 218.942C276.413 219.353 276.536 219.665 276.782 219.879C277.033 220.093 277.382 220.2 277.828 220.2ZM289.162 221H288.014V214.479H285.765C285.642 216.101 285.471 217.388 285.252 218.341C285.033 219.293 284.748 219.991 284.397 220.433C284.051 220.875 283.609 221.096 283.071 221.096C282.825 221.096 282.629 221.068 282.483 221.014V220.173C282.584 220.2 282.698 220.214 282.825 220.214C283.349 220.214 283.766 219.66 284.076 218.553C284.386 217.445 284.621 215.764 284.78 213.508H289.162V221ZM292.71 216.604H295.021C296.935 216.604 297.892 217.309 297.892 218.717C297.892 219.455 297.641 220.02 297.14 220.412C296.643 220.804 295.914 221 294.952 221H291.575V213.508H292.71V216.604ZM292.71 217.582V220.05H294.897C295.499 220.05 295.959 219.945 296.278 219.735C296.597 219.526 296.757 219.209 296.757 218.785C296.757 218.37 296.609 218.067 296.312 217.876C296.021 217.68 295.538 217.582 294.863 217.582H292.71ZM300.995 213.508V216.646H305.192V213.508H306.327V221H305.192V217.623H300.995V221H299.86V213.508H300.995ZM309.868 216.604H311.912C312.865 216.604 313.569 216.782 314.024 217.138C314.485 217.489 314.715 218.015 314.715 218.717C314.715 219.469 314.471 220.038 313.983 220.426C313.5 220.809 312.787 221 311.844 221H308.733V213.508H309.868V216.604ZM317.107 221H315.973V213.508H317.107V221ZM309.868 217.582V220.05H311.789C312.992 220.05 313.594 219.628 313.594 218.785C313.594 218.366 313.455 218.061 313.177 217.869C312.899 217.678 312.425 217.582 311.755 217.582H309.868ZM321.325 217.165L318.721 213.508H320.013L321.988 216.379L323.957 213.508H325.235L322.631 217.165L325.372 221H324.087L321.988 217.965L319.869 221H318.584L321.325 217.165ZM55.127 242H53.9922V234.508H60.2812V242H59.1328V235.492H55.127V242ZM66.1738 242.137C65.6862 242.137 65.2396 242.048 64.834 241.87C64.4329 241.688 64.0957 241.41 63.8223 241.036H63.7402C63.7949 241.474 63.8223 241.888 63.8223 242.28V245.363H62.6875V234.508H63.6104L63.7676 235.533H63.8223C64.1139 235.123 64.4535 234.827 64.8408 234.645C65.2282 234.462 65.6725 234.371 66.1738 234.371C67.1673 234.371 67.9329 234.711 68.4707 235.39C69.013 236.069 69.2842 237.021 69.2842 238.247C69.2842 239.478 69.0085 240.435 68.457 241.118C67.9102 241.797 67.1491 242.137 66.1738 242.137ZM66.0098 235.335C65.2441 235.335 64.6904 235.547 64.3486 235.971C64.0068 236.395 63.8314 237.069 63.8223 237.994V238.247C63.8223 239.3 63.9977 240.054 64.3486 240.51C64.6995 240.961 65.2624 241.187 66.0371 241.187C66.6842 241.187 67.1901 240.924 67.5547 240.4C67.9238 239.876 68.1084 239.154 68.1084 238.233C68.1084 237.299 67.9238 236.584 67.5547 236.087C67.1901 235.586 66.6751 235.335 66.0098 235.335ZM74.4385 242.137C73.3311 242.137 72.4561 241.799 71.8135 241.125C71.1755 240.451 70.8564 239.514 70.8564 238.315C70.8564 237.108 71.1527 236.148 71.7451 235.438C72.3421 234.727 73.1419 234.371 74.1445 234.371C75.0833 234.371 75.8262 234.681 76.373 235.301C76.9199 235.916 77.1934 236.729 77.1934 237.741V238.459H72.0322C72.055 239.339 72.276 240.006 72.6953 240.462C73.1191 240.918 73.7139 241.146 74.4795 241.146C75.2861 241.146 76.0837 240.977 76.8721 240.64V241.651C76.471 241.825 76.0905 241.948 75.7305 242.021C75.375 242.098 74.9443 242.137 74.4385 242.137ZM74.1309 235.321C73.5293 235.321 73.0485 235.517 72.6885 235.909C72.333 236.301 72.1234 236.843 72.0596 237.536H75.9766C75.9766 236.821 75.8171 236.274 75.498 235.896C75.179 235.513 74.7233 235.321 74.1309 235.321ZM85.6426 244.591H84.542V242H79.3057V244.591H78.2119V241.022H78.7998C79.4105 240.193 79.889 239.22 80.2354 238.104C80.5817 236.987 80.7617 235.788 80.7754 234.508H84.5693V241.022H85.6426V244.591ZM83.4756 241.022V235.403H81.7939C81.7347 236.415 81.5387 237.44 81.2061 238.479C80.8779 239.514 80.4678 240.362 79.9756 241.022H83.4756ZM88.2812 242H87.1465V234.508H93.4355V242H92.2871V235.492H88.2812V242ZM99.3281 242.137C98.8405 242.137 98.3939 242.048 97.9883 241.87C97.5872 241.688 97.25 241.41 96.9766 241.036H96.8945C96.9492 241.474 96.9766 241.888 96.9766 242.28V245.363H95.8418V234.508H96.7646L96.9219 235.533H96.9766C97.2682 235.123 97.6077 234.827 97.9951 234.645C98.3825 234.462 98.8268 234.371 99.3281 234.371C100.322 234.371 101.087 234.711 101.625 235.39C102.167 236.069 102.438 237.021 102.438 238.247C102.438 239.478 102.163 240.435 101.611 241.118C101.064 241.797 100.303 242.137 99.3281 242.137ZM99.1641 235.335C98.3984 235.335 97.8447 235.547 97.5029 235.971C97.1611 236.395 96.9857 237.069 96.9766 237.994V238.247C96.9766 239.3 97.152 240.054 97.5029 240.51C97.8538 240.961 98.4167 241.187 99.1914 241.187C99.8385 241.187 100.344 240.924 100.709 240.4C101.078 239.876 101.263 239.154 101.263 238.233C101.263 237.299 101.078 236.584 100.709 236.087C100.344 235.586 99.8294 235.335 99.1641 235.335ZM105.494 234.508V239.259L105.446 240.503L105.426 240.893L109.479 234.508H110.895V242H109.835V237.42L109.855 236.518L109.89 235.629L105.843 242H104.428V234.508H105.494ZM114.436 234.508V237.646H118.633V234.508H119.768V242H118.633V238.623H114.436V242H113.301V234.508H114.436ZM123.24 234.508V239.259L123.192 240.503L123.172 240.893L127.226 234.508H128.641V242H127.581V237.42L127.602 236.518L127.636 235.629L123.589 242H122.174V234.508H123.24ZM134.937 240.906L135.148 240.271L135.442 239.464L137.473 234.521H138.915V242H137.91V235.813L137.773 236.21L137.377 237.256L135.442 242H134.492L132.558 237.242C132.316 236.632 132.15 236.155 132.059 235.813V242H131.047V234.521H132.435L134.396 239.272C134.592 239.774 134.772 240.318 134.937 240.906ZM145.949 242L145.724 240.934H145.669C145.295 241.403 144.922 241.722 144.548 241.891C144.179 242.055 143.716 242.137 143.16 242.137C142.417 242.137 141.834 241.945 141.41 241.562C140.991 241.18 140.781 240.635 140.781 239.929C140.781 238.416 141.991 237.623 144.411 237.55L145.683 237.509V237.044C145.683 236.456 145.555 236.023 145.3 235.745C145.049 235.463 144.646 235.321 144.09 235.321C143.465 235.321 142.759 235.513 141.971 235.896L141.622 235.027C141.991 234.827 142.395 234.67 142.832 234.556C143.274 234.442 143.716 234.385 144.158 234.385C145.051 234.385 145.712 234.583 146.141 234.979C146.574 235.376 146.79 236.012 146.79 236.887V242H145.949ZM143.386 241.2C144.092 241.2 144.646 241.007 145.047 240.619C145.452 240.232 145.655 239.689 145.655 238.992V238.315L144.521 238.363C143.618 238.395 142.966 238.536 142.565 238.787C142.169 239.033 141.971 239.418 141.971 239.942C141.971 240.353 142.094 240.665 142.34 240.879C142.59 241.093 142.939 241.2 143.386 241.2ZM154.187 235.479H151.753V242H150.618V235.479H148.212V234.508H154.187V235.479ZM158.835 242.137C157.728 242.137 156.853 241.799 156.21 241.125C155.572 240.451 155.253 239.514 155.253 238.315C155.253 237.108 155.549 236.148 156.142 235.438C156.739 234.727 157.538 234.371 158.541 234.371C159.48 234.371 160.223 234.681 160.77 235.301C161.316 235.916 161.59 236.729 161.59 237.741V238.459H156.429C156.451 239.339 156.673 240.006 157.092 240.462C157.516 240.918 158.11 241.146 158.876 241.146C159.683 241.146 160.48 240.977 161.269 240.64V241.651C160.868 241.825 160.487 241.948 160.127 242.021C159.771 242.098 159.341 242.137 158.835 242.137ZM158.527 235.321C157.926 235.321 157.445 235.517 157.085 235.909C156.729 236.301 156.52 236.843 156.456 237.536H160.373C160.373 236.821 160.214 236.274 159.895 235.896C159.576 235.513 159.12 235.321 158.527 235.321ZM169.116 242H167.968V235.479H165.719C165.596 237.101 165.425 238.388 165.206 239.341C164.987 240.293 164.702 240.991 164.352 241.433C164.005 241.875 163.563 242.096 163.025 242.096C162.779 242.096 162.583 242.068 162.438 242.014V241.173C162.538 241.2 162.652 241.214 162.779 241.214C163.303 241.214 163.72 240.66 164.03 239.553C164.34 238.445 164.575 236.764 164.734 234.508H169.116V242ZM174.694 242.137C173.587 242.137 172.712 241.799 172.069 241.125C171.431 240.451 171.112 239.514 171.112 238.315C171.112 237.108 171.409 236.148 172.001 235.438C172.598 234.727 173.398 234.371 174.4 234.371C175.339 234.371 176.082 234.681 176.629 235.301C177.176 235.916 177.449 236.729 177.449 237.741V238.459H172.288C172.311 239.339 172.532 240.006 172.951 240.462C173.375 240.918 173.97 241.146 174.735 241.146C175.542 241.146 176.34 240.977 177.128 240.64V241.651C176.727 241.825 176.346 241.948 175.986 242.021C175.631 242.098 175.2 242.137 174.694 242.137ZM174.387 235.321C173.785 235.321 173.304 235.517 172.944 235.909C172.589 236.301 172.379 236.843 172.315 237.536H176.232C176.232 236.821 176.073 236.274 175.754 235.896C175.435 235.513 174.979 235.321 174.387 235.321ZM180.457 234.508V239.259L180.409 240.503L180.389 240.893L184.442 234.508H185.857V242H184.798V237.42L184.818 236.518L184.853 235.629L180.806 242H179.391V234.508H180.457ZM182.597 233.517C181.754 233.517 181.138 233.355 180.751 233.031C180.364 232.703 180.147 232.165 180.102 231.418H181.168C181.209 231.892 181.332 232.222 181.537 232.409C181.747 232.596 182.109 232.689 182.624 232.689C183.093 232.689 183.44 232.589 183.663 232.389C183.891 232.188 184.03 231.865 184.08 231.418H185.153C185.099 232.138 184.868 232.669 184.463 233.011C184.057 233.348 183.435 233.517 182.597 233.517ZM192.967 234.508V239.259L192.919 240.503L192.898 240.893L196.952 234.508H198.367V242H197.308V237.42L197.328 236.518L197.362 235.629L193.315 242H191.9V234.508H192.967ZM205.408 234.508V237.242C205.408 238.117 205.907 238.555 206.905 238.555C207.32 238.555 207.716 238.491 208.095 238.363C208.473 238.236 208.901 238.019 209.38 237.714V234.508H210.515V242H209.38V238.609C208.901 238.938 208.457 239.17 208.047 239.307C207.641 239.439 207.181 239.505 206.666 239.505C205.919 239.505 205.333 239.309 204.909 238.917C204.485 238.525 204.273 237.994 204.273 237.324V234.508H205.408ZM217.535 242L217.31 240.934H217.255C216.881 241.403 216.507 241.722 216.134 241.891C215.765 242.055 215.302 242.137 214.746 242.137C214.003 242.137 213.42 241.945 212.996 241.562C212.577 241.18 212.367 240.635 212.367 239.929C212.367 238.416 213.577 237.623 215.997 237.55L217.269 237.509V237.044C217.269 236.456 217.141 236.023 216.886 235.745C216.635 235.463 216.232 235.321 215.676 235.321C215.051 235.321 214.345 235.513 213.557 235.896L213.208 235.027C213.577 234.827 213.98 234.67 214.418 234.556C214.86 234.442 215.302 234.385 215.744 234.385C216.637 234.385 217.298 234.583 217.727 234.979C218.16 235.376 218.376 236.012 218.376 236.887V242H217.535ZM214.972 241.2C215.678 241.2 216.232 241.007 216.633 240.619C217.038 240.232 217.241 239.689 217.241 238.992V238.315L216.106 238.363C215.204 238.395 214.552 238.536 214.151 238.787C213.755 239.033 213.557 239.418 213.557 239.942C213.557 240.353 213.68 240.665 213.926 240.879C214.176 241.093 214.525 241.2 214.972 241.2ZM223.715 242.137C222.63 242.137 221.789 241.804 221.192 241.139C220.6 240.469 220.304 239.523 220.304 238.302C220.304 237.049 220.604 236.08 221.206 235.396C221.812 234.713 222.674 234.371 223.79 234.371C224.15 234.371 224.51 234.41 224.87 234.487C225.23 234.565 225.513 234.656 225.718 234.761L225.369 235.725C225.118 235.624 224.845 235.542 224.549 235.479C224.253 235.41 223.991 235.376 223.763 235.376C222.241 235.376 221.479 236.347 221.479 238.288C221.479 239.209 221.664 239.915 222.033 240.407C222.407 240.899 222.958 241.146 223.688 241.146C224.312 241.146 224.952 241.011 225.608 240.742V241.747C225.107 242.007 224.476 242.137 223.715 242.137ZM232.444 235.479H230.011V242H228.876V235.479H226.47V234.508H232.444V235.479ZM235.062 234.508V237.646H239.26V234.508H240.395V242H239.26V238.623H235.062V242H233.928V234.508H235.062ZM243.936 237.604H245.979C246.932 237.604 247.636 237.782 248.092 238.138C248.552 238.489 248.782 239.015 248.782 239.717C248.782 240.469 248.538 241.038 248.051 241.426C247.568 241.809 246.854 242 245.911 242H242.801V234.508H243.936V237.604ZM251.175 242H250.04V234.508H251.175V242ZM243.936 238.582V241.05H245.856C247.06 241.05 247.661 240.628 247.661 239.785C247.661 239.366 247.522 239.061 247.244 238.869C246.966 238.678 246.492 238.582 245.822 238.582H243.936ZM255.393 238.165L252.788 234.508H254.08L256.056 237.379L258.024 234.508H259.303L256.698 238.165L259.439 242H258.154L256.056 238.965L253.937 242H252.651L255.393 238.165ZM268.935 234.508H270.179L266.945 238.124L270.445 242H269.119L265.701 238.206V242H264.566V234.508H265.701V238.151L268.935 234.508ZM277.425 242H276.276V235.479H274.027C273.904 237.101 273.733 238.388 273.515 239.341C273.296 240.293 273.011 240.991 272.66 241.433C272.314 241.875 271.872 242.096 271.334 242.096C271.088 242.096 270.892 242.068 270.746 242.014V241.173C270.846 241.2 270.96 241.214 271.088 241.214C271.612 241.214 272.029 240.66 272.339 239.553C272.649 238.445 272.883 236.764 273.043 234.508H277.425V242ZM280.904 234.508V239.259L280.856 240.503L280.836 240.893L284.89 234.508H286.305V242H285.245V237.42L285.266 236.518L285.3 235.629L281.253 242H279.838V234.508H280.904ZM291.876 242.137C290.769 242.137 289.894 241.799 289.251 241.125C288.613 240.451 288.294 239.514 288.294 238.315C288.294 237.108 288.59 236.148 289.183 235.438C289.78 234.727 290.579 234.371 291.582 234.371C292.521 234.371 293.264 234.681 293.811 235.301C294.357 235.916 294.631 236.729 294.631 237.741V238.459H289.47C289.493 239.339 289.714 240.006 290.133 240.462C290.557 240.918 291.151 241.146 291.917 241.146C292.724 241.146 293.521 240.977 294.31 240.64V241.651C293.909 241.825 293.528 241.948 293.168 242.021C292.812 242.098 292.382 242.137 291.876 242.137ZM291.568 235.321C290.967 235.321 290.486 235.517 290.126 235.909C289.771 236.301 289.561 236.843 289.497 237.536H293.414C293.414 236.821 293.255 236.274 292.936 235.896C292.617 235.513 292.161 235.321 291.568 235.321ZM297.707 234.508V237.646H301.904V234.508H303.039V242H301.904V238.623H297.707V242H296.572V234.508H297.707ZM310.497 235.479H308.063V242H306.929V235.479H304.522V234.508H310.497V235.479ZM318.447 238.247C318.447 239.468 318.14 240.423 317.524 241.111C316.909 241.795 316.059 242.137 314.975 242.137C314.305 242.137 313.71 241.979 313.19 241.665C312.671 241.351 312.27 240.899 311.987 240.312C311.705 239.724 311.563 239.035 311.563 238.247C311.563 237.026 311.869 236.076 312.479 235.396C313.09 234.713 313.938 234.371 315.022 234.371C316.071 234.371 316.902 234.72 317.518 235.417C318.137 236.114 318.447 237.058 318.447 238.247ZM312.739 238.247C312.739 239.204 312.931 239.933 313.313 240.435C313.696 240.936 314.259 241.187 315.002 241.187C315.745 241.187 316.308 240.938 316.69 240.441C317.078 239.94 317.271 239.209 317.271 238.247C317.271 237.295 317.078 236.572 316.69 236.08C316.308 235.583 315.74 235.335 314.988 235.335C314.245 235.335 313.685 235.579 313.307 236.066C312.928 236.554 312.739 237.281 312.739 238.247ZM326.521 236.388C326.521 236.875 326.379 237.247 326.097 237.502C325.819 237.753 325.427 237.921 324.921 238.008V238.069C325.559 238.156 326.024 238.343 326.315 238.63C326.612 238.917 326.76 239.313 326.76 239.819C326.76 240.517 326.502 241.054 325.987 241.433C325.477 241.811 324.729 242 323.745 242H320.443V234.508H323.731C325.591 234.508 326.521 235.134 326.521 236.388ZM325.625 239.744C325.625 239.339 325.47 239.045 325.16 238.862C324.855 238.675 324.347 238.582 323.636 238.582H321.578V241.05H323.663C324.971 241.05 325.625 240.615 325.625 239.744ZM325.413 236.497C325.413 236.132 325.272 235.875 324.989 235.725C324.711 235.57 324.287 235.492 323.718 235.492H321.578V237.604H323.499C324.201 237.604 324.695 237.518 324.982 237.345C325.27 237.172 325.413 236.889 325.413 236.497Z" fill="#414141"/>
<path d="M108.902 138.558C108.902 140.685 108.375 142.319 107.32 143.462C106.266 144.604 104.754 145.176 102.785 145.176C100.816 145.176 99.3047 144.604 98.25 143.462C97.1953 142.319 96.668 140.679 96.668 138.54C96.668 136.401 97.1953 134.77 98.25 133.645C99.3105 132.514 100.828 131.948 102.803 131.948C104.777 131.948 106.286 132.517 107.329 133.653C108.378 134.79 108.902 136.425 108.902 138.558ZM99.5244 138.558C99.5244 139.993 99.7969 141.074 100.342 141.801C100.887 142.527 101.701 142.891 102.785 142.891C104.959 142.891 106.046 141.446 106.046 138.558C106.046 135.663 104.965 134.216 102.803 134.216C101.719 134.216 100.901 134.582 100.351 135.314C99.7998 136.041 99.5244 137.122 99.5244 138.558ZM110.757 139.111C110.757 136.855 111.185 135.145 112.04 133.979C112.901 132.807 114.243 132.065 116.065 131.755C116.95 131.603 118.271 131.409 120.029 131.175L120.337 133.513C119.575 133.601 118.225 133.788 116.285 134.075C115.547 134.192 114.996 134.368 114.633 134.603C114.27 134.837 113.997 135.171 113.815 135.604C113.64 136.038 113.531 136.615 113.49 137.336H113.622C113.933 136.855 114.343 136.486 114.853 136.229C115.362 135.971 115.91 135.842 116.496 135.842C117.709 135.842 118.652 136.214 119.326 136.958C120 137.696 120.337 138.757 120.337 140.14C120.337 141.733 119.909 142.973 119.054 143.857C118.204 144.736 117.029 145.176 115.529 145.176C114.029 145.176 112.857 144.64 112.014 143.567C111.176 142.489 110.757 141.004 110.757 139.111ZM115.688 143.005C116.959 143.005 117.595 142.129 117.595 140.377C117.595 138.672 117.021 137.819 115.872 137.819C115.556 137.819 115.239 137.893 114.923 138.039C114.612 138.186 114.325 138.379 114.062 138.619C113.804 138.854 113.613 139.091 113.49 139.331C113.49 140.521 113.681 141.432 114.062 142.064C114.442 142.691 114.984 143.005 115.688 143.005ZM126.542 145.176C123.483 145.176 121.954 143.497 121.954 140.14C121.954 138.47 122.37 137.195 123.202 136.316C124.034 135.432 125.227 134.989 126.779 134.989C127.916 134.989 128.936 135.212 129.838 135.657L129.047 137.731C128.625 137.562 128.232 137.424 127.869 137.318C127.506 137.207 127.143 137.151 126.779 137.151C125.385 137.151 124.688 138.142 124.688 140.122C124.688 142.044 125.385 143.005 126.779 143.005C127.295 143.005 127.772 142.938 128.212 142.803C128.651 142.662 129.091 142.445 129.53 142.152V144.446C129.097 144.722 128.657 144.912 128.212 145.018C127.772 145.123 127.216 145.176 126.542 145.176ZM140.613 145H137.933V137.187H135.463C135.275 139.384 135.047 141.024 134.777 142.108C134.508 143.187 134.147 143.969 133.696 144.455C133.251 144.936 132.665 145.176 131.938 145.176C131.317 145.176 130.808 145.082 130.409 144.895V142.75C130.696 142.867 130.983 142.926 131.271 142.926C131.604 142.926 131.883 142.686 132.105 142.205C132.334 141.725 132.536 140.925 132.712 139.806C132.894 138.681 133.049 137.137 133.178 135.174H140.613V145ZM142.028 135.174H144.964L146.818 140.702C146.977 141.183 147.085 141.751 147.144 142.407H147.196C147.261 141.804 147.387 141.235 147.574 140.702L149.394 135.174H152.268L148.11 146.257C147.729 147.282 147.185 148.05 146.476 148.56C145.772 149.069 144.949 149.324 144.006 149.324C143.543 149.324 143.089 149.274 142.644 149.175V147.048C142.966 147.124 143.317 147.162 143.698 147.162C144.173 147.162 144.586 147.016 144.938 146.723C145.295 146.436 145.573 145.999 145.772 145.413L145.931 144.93L142.028 135.174ZM158.886 139.946V135.174H161.382V139.946L164.88 135.174H167.648L164.027 139.885L167.991 145H165.126L161.382 140.017V145H158.886V140.017L155.142 145H152.276L156.24 139.885L152.619 135.174H155.388L158.886 139.946ZM171.99 135.174V139.059C171.99 139.469 171.923 140.471 171.788 142.064L176.323 135.174H179.549V145H176.956V141.08C176.956 140.383 177.015 139.398 177.132 138.127L172.614 145H169.397V135.174H171.99ZM191.44 137.749C191.44 138.276 191.273 138.728 190.939 139.103C190.611 139.472 190.125 139.709 189.48 139.814V139.885C190.178 139.967 190.729 140.207 191.133 140.605C191.543 140.998 191.748 141.484 191.748 142.064C191.748 143.02 191.373 143.749 190.623 144.253C189.873 144.751 188.801 145 187.406 145H182.37V135.174H187.406C188.754 135.174 189.762 135.394 190.43 135.833C191.104 136.267 191.44 136.905 191.44 137.749ZM188.971 141.924C188.971 141.537 188.821 141.259 188.522 141.089C188.224 140.913 187.775 140.825 187.178 140.825H185.051V143.146H187.23C187.799 143.146 188.229 143.04 188.522 142.829C188.821 142.612 188.971 142.311 188.971 141.924ZM188.725 137.96C188.725 137.362 188.25 137.063 187.301 137.063H185.051V139.006H186.993C187.562 139.006 187.992 138.924 188.285 138.76C188.578 138.596 188.725 138.329 188.725 137.96ZM200.124 145L199.605 143.664H199.535C199.084 144.232 198.618 144.628 198.138 144.851C197.663 145.067 197.042 145.176 196.274 145.176C195.331 145.176 194.587 144.906 194.042 144.367C193.503 143.828 193.233 143.061 193.233 142.064C193.233 141.021 193.597 140.254 194.323 139.762C195.056 139.264 196.157 138.988 197.628 138.936L199.333 138.883V138.452C199.333 137.456 198.823 136.958 197.804 136.958C197.019 136.958 196.096 137.195 195.035 137.67L194.147 135.859C195.278 135.268 196.532 134.972 197.909 134.972C199.228 134.972 200.238 135.259 200.941 135.833C201.645 136.407 201.996 137.28 201.996 138.452V145H200.124ZM199.333 140.447L198.296 140.482C197.517 140.506 196.937 140.646 196.556 140.904C196.175 141.162 195.984 141.555 195.984 142.082C195.984 142.838 196.418 143.216 197.285 143.216C197.906 143.216 198.401 143.037 198.771 142.68C199.146 142.322 199.333 141.848 199.333 141.256V140.447ZM207.445 135.174V138.953H211.189V135.174H213.87V145H211.189V140.948H207.445V145H204.765V135.174H207.445ZM219.275 135.174V139.059C219.275 139.469 219.208 140.471 219.073 142.064L223.608 135.174H226.834V145H224.241V141.08C224.241 140.383 224.3 139.398 224.417 138.127L219.899 145H216.683V135.174H219.275ZM233.725 136.896C233.156 136.896 232.711 137.078 232.389 137.441C232.066 137.799 231.882 138.309 231.835 138.971H235.597C235.585 138.309 235.412 137.799 235.078 137.441C234.744 137.078 234.293 136.896 233.725 136.896ZM234.103 145.176C232.521 145.176 231.284 144.739 230.394 143.866C229.503 142.993 229.058 141.757 229.058 140.157C229.058 138.511 229.468 137.239 230.288 136.343C231.114 135.44 232.254 134.989 233.707 134.989C235.096 134.989 236.177 135.385 236.95 136.176C237.724 136.967 238.11 138.06 238.11 139.454V140.755H231.773C231.803 141.517 232.028 142.111 232.45 142.539C232.872 142.967 233.464 143.181 234.226 143.181C234.817 143.181 235.377 143.119 235.904 142.996C236.432 142.873 236.982 142.677 237.557 142.407V144.481C237.088 144.716 236.587 144.889 236.054 145C235.521 145.117 234.87 145.176 234.103 145.176ZM254.036 137.749C254.036 138.276 253.869 138.728 253.535 139.103C253.207 139.472 252.721 139.709 252.076 139.814V139.885C252.773 139.967 253.324 140.207 253.729 140.605C254.139 140.998 254.344 141.484 254.344 142.064C254.344 143.02 253.969 143.749 253.219 144.253C252.469 144.751 251.396 145 250.002 145H244.966V135.174H250.002C251.35 135.174 252.357 135.394 253.025 135.833C253.699 136.267 254.036 136.905 254.036 137.749ZM251.566 141.924C251.566 141.537 251.417 141.259 251.118 141.089C250.819 140.913 250.371 140.825 249.773 140.825H247.646V143.146H249.826C250.395 143.146 250.825 143.04 251.118 142.829C251.417 142.612 251.566 142.311 251.566 141.924ZM251.32 137.96C251.32 137.362 250.846 137.063 249.896 137.063H247.646V139.006H249.589C250.157 139.006 250.588 138.924 250.881 138.76C251.174 138.596 251.32 138.329 251.32 137.96ZM260.47 145.176C257.411 145.176 255.882 143.497 255.882 140.14C255.882 138.47 256.298 137.195 257.13 136.316C257.962 135.432 259.154 134.989 260.707 134.989C261.844 134.989 262.863 135.212 263.766 135.657L262.975 137.731C262.553 137.562 262.16 137.424 261.797 137.318C261.434 137.207 261.07 137.151 260.707 137.151C259.312 137.151 258.615 138.142 258.615 140.122C258.615 142.044 259.312 143.005 260.707 143.005C261.223 143.005 261.7 142.938 262.14 142.803C262.579 142.662 263.019 142.445 263.458 142.152V144.446C263.024 144.722 262.585 144.912 262.14 145.018C261.7 145.123 261.144 145.176 260.47 145.176ZM269.812 136.896C269.244 136.896 268.799 137.078 268.477 137.441C268.154 137.799 267.97 138.309 267.923 138.971H271.685C271.673 138.309 271.5 137.799 271.166 137.441C270.832 137.078 270.381 136.896 269.812 136.896ZM270.19 145.176C268.608 145.176 267.372 144.739 266.481 143.866C265.591 142.993 265.146 141.757 265.146 140.157C265.146 138.511 265.556 137.239 266.376 136.343C267.202 135.44 268.342 134.989 269.795 134.989C271.184 134.989 272.265 135.385 273.038 136.176C273.812 136.967 274.198 138.06 274.198 139.454V140.755H267.861C267.891 141.517 268.116 142.111 268.538 142.539C268.96 142.967 269.552 143.181 270.313 143.181C270.905 143.181 271.465 143.119 271.992 142.996C272.52 142.873 273.07 142.677 273.645 142.407V144.481C273.176 144.716 272.675 144.889 272.142 145C271.608 145.117 270.958 145.176 270.19 145.176ZM278.391 139.981L275.227 135.174H278.268L280.175 138.303L282.1 135.174H285.141L281.941 139.981L285.29 145H282.24L280.175 141.634L278.101 145H275.06L278.391 139.981ZM123.571 160.174V162.187H120.354V170H117.674V162.187H114.448V160.174H123.571ZM128.001 160.174V164.059C128.001 164.469 127.934 165.471 127.799 167.064L132.334 160.174H135.56V170H132.967V166.08C132.967 165.383 133.025 164.398 133.143 163.127L128.625 170H125.408V160.174H128.001ZM147.311 160.174V170H144.621V162.187H141.062V170H138.381V160.174H147.311ZM152.259 165.069C152.259 166.042 152.417 166.777 152.733 167.275C153.056 167.773 153.577 168.022 154.298 168.022C155.013 168.022 155.525 167.776 155.836 167.284C156.152 166.786 156.311 166.048 156.311 165.069C156.311 164.097 156.152 163.367 155.836 162.881C155.52 162.395 155.001 162.151 154.28 162.151C153.565 162.151 153.05 162.395 152.733 162.881C152.417 163.361 152.259 164.091 152.259 165.069ZM159.053 165.069C159.053 166.669 158.631 167.92 157.787 168.822C156.943 169.725 155.769 170.176 154.263 170.176C153.319 170.176 152.487 169.971 151.767 169.561C151.046 169.145 150.492 168.55 150.105 167.776C149.719 167.003 149.525 166.101 149.525 165.069C149.525 163.464 149.944 162.216 150.782 161.325C151.62 160.435 152.798 159.989 154.315 159.989C155.259 159.989 156.091 160.194 156.812 160.604C157.532 161.015 158.086 161.604 158.473 162.371C158.859 163.139 159.053 164.038 159.053 165.069ZM170.338 162.749C170.338 163.276 170.171 163.728 169.837 164.103C169.509 164.472 169.022 164.709 168.378 164.814V164.885C169.075 164.967 169.626 165.207 170.03 165.605C170.44 165.998 170.646 166.484 170.646 167.064C170.646 168.02 170.271 168.749 169.521 169.253C168.771 169.751 167.698 170 166.304 170H161.268V160.174H166.304C167.651 160.174 168.659 160.394 169.327 160.833C170.001 161.267 170.338 161.905 170.338 162.749ZM167.868 166.924C167.868 166.537 167.719 166.259 167.42 166.089C167.121 165.913 166.673 165.825 166.075 165.825H163.948V168.146H166.128C166.696 168.146 167.127 168.04 167.42 167.829C167.719 167.612 167.868 167.311 167.868 166.924ZM167.622 162.96C167.622 162.362 167.147 162.063 166.198 162.063H163.948V164.006H165.891C166.459 164.006 166.89 163.924 167.183 163.76C167.476 163.596 167.622 163.329 167.622 162.96ZM183.899 160.174H186.853L182.959 164.885L187.195 170H184.154L180.138 165.017V170H177.457V160.174H180.138V164.946L183.899 160.174ZM197.399 170H194.719V162.187H192.249C192.062 164.384 191.833 166.024 191.563 167.108C191.294 168.187 190.934 168.969 190.482 169.455C190.037 169.936 189.451 170.176 188.725 170.176C188.104 170.176 187.594 170.082 187.195 169.895V167.75C187.482 167.867 187.77 167.926 188.057 167.926C188.391 167.926 188.669 167.686 188.892 167.205C189.12 166.725 189.322 165.925 189.498 164.806C189.68 163.681 189.835 162.137 189.964 160.174H197.399V170ZM202.813 160.174V164.059C202.813 164.469 202.746 165.471 202.611 167.064L207.146 160.174H210.372V170H207.779V166.08C207.779 165.383 207.838 164.398 207.955 163.127L203.438 170H200.221V160.174H202.813ZM217.263 161.896C216.694 161.896 216.249 162.078 215.927 162.441C215.604 162.799 215.42 163.309 215.373 163.971H219.135C219.123 163.309 218.95 162.799 218.616 162.441C218.282 162.078 217.831 161.896 217.263 161.896ZM217.641 170.176C216.059 170.176 214.822 169.739 213.932 168.866C213.041 167.993 212.596 166.757 212.596 165.157C212.596 163.511 213.006 162.239 213.826 161.343C214.652 160.44 215.792 159.989 217.245 159.989C218.634 159.989 219.715 160.385 220.488 161.176C221.262 161.967 221.648 163.06 221.648 164.454V165.755H215.312C215.341 166.517 215.566 167.111 215.988 167.539C216.41 167.967 217.002 168.181 217.764 168.181C218.355 168.181 218.915 168.119 219.442 167.996C219.97 167.873 220.521 167.677 221.095 167.407V169.481C220.626 169.716 220.125 169.889 219.592 170C219.059 170.117 218.408 170.176 217.641 170.176ZM226.509 160.174V163.953H230.253V160.174H232.934V170H230.253V165.948H226.509V170H223.828V160.174H226.509ZM243.876 160.174V162.187H240.659V170H237.979V162.187H234.753V160.174H243.876ZM247.849 165.069C247.849 166.042 248.007 166.777 248.323 167.275C248.646 167.773 249.167 168.022 249.888 168.022C250.603 168.022 251.115 167.776 251.426 167.284C251.742 166.786 251.9 166.048 251.9 165.069C251.9 164.097 251.742 163.367 251.426 162.881C251.109 162.395 250.591 162.151 249.87 162.151C249.155 162.151 248.64 162.395 248.323 162.881C248.007 163.361 247.849 164.091 247.849 165.069ZM254.643 165.069C254.643 166.669 254.221 167.92 253.377 168.822C252.533 169.725 251.358 170.176 249.853 170.176C248.909 170.176 248.077 169.971 247.356 169.561C246.636 169.145 246.082 168.55 245.695 167.776C245.309 167.003 245.115 166.101 245.115 165.069C245.115 163.464 245.534 162.216 246.372 161.325C247.21 160.435 248.388 159.989 249.905 159.989C250.849 159.989 251.681 160.194 252.401 160.604C253.122 161.015 253.676 161.604 254.062 162.371C254.449 163.139 254.643 164.038 254.643 165.069ZM265.928 162.749C265.928 163.276 265.761 163.728 265.427 164.103C265.099 164.472 264.612 164.709 263.968 164.814V164.885C264.665 164.967 265.216 165.207 265.62 165.605C266.03 165.998 266.235 166.484 266.235 167.064C266.235 168.02 265.86 168.749 265.11 169.253C264.36 169.751 263.288 170 261.894 170H256.857V160.174H261.894C263.241 160.174 264.249 160.394 264.917 160.833C265.591 161.267 265.928 161.905 265.928 162.749ZM263.458 166.924C263.458 166.537 263.309 166.259 263.01 166.089C262.711 165.913 262.263 165.825 261.665 165.825H259.538V168.146H261.718C262.286 168.146 262.717 168.04 263.01 167.829C263.309 167.612 263.458 167.311 263.458 166.924ZM263.212 162.96C263.212 162.362 262.737 162.063 261.788 162.063H259.538V164.006H261.48C262.049 164.006 262.479 163.924 262.772 163.76C263.065 163.596 263.212 163.329 263.212 162.96Z" fill="#3683E9"/>
<path d="M174.258 65.5741V57.2581H180.355V41H166.129V57.2581H172.226V65.5741C171.576 65.8057 171.029 66.2447 170.667 66.8198C169.753 65.9368 168.514 65.3871 167.145 65.3871C164.344 65.3871 162.065 67.6663 162.065 70.4677C162.065 73.2692 164.344 75.5484 167.145 75.5484C168.293 75.5484 169.342 75.1511 170.194 74.5058V75.5484H167.145H163.081C160.279 75.5484 158 77.8276 158 80.629V88.7581C158 90.4387 159.368 91.8064 161.048 91.8064C161.405 91.8064 161.747 91.7445 162.065 91.6327V104H172.226V82.5587C174.542 82.0862 176.29 80.0346 176.29 77.5806V68.4355C176.29 67.1125 175.438 65.9947 174.258 65.5741ZM168.161 55.2258V43.0323H178.323V55.2258H168.161ZM167.145 73.5161C165.464 73.5161 164.097 72.1484 164.097 70.4677C164.097 68.7871 165.464 67.4194 167.145 67.4194C168.826 67.4194 170.194 68.7871 170.194 70.4677C170.194 72.1484 168.826 73.5161 167.145 73.5161ZM162.065 88.7581C162.065 89.319 161.609 89.7742 161.048 89.7742C160.487 89.7742 160.032 89.319 160.032 88.7581V83.6774H162.065V88.7581ZM162.065 81.6452H160.032V80.629C160.032 78.9484 161.4 77.5806 163.081 77.5806H166.129V85.7097H164.097V80.629H162.065V81.6452ZM166.129 101.968H164.097V99.9355H166.129V101.968ZM170.194 101.968H168.161V99.9355H170.194V101.968ZM170.194 97.9032H168.161V89.7742H166.129V97.9032H164.097V87.7419H170.194V97.9032ZM174.258 77.5806C174.258 79.2613 172.89 80.629 171.21 80.629H170.194V85.7097H168.161V77.5806H172.226V76.5645H174.258V77.5806ZM174.258 74.5323H172.226V68.4355C172.226 67.8746 172.681 67.4194 173.242 67.4194C173.803 67.4194 174.258 67.8746 174.258 68.4355V74.5323Z" fill="#3683E9"/>
<path d="M174.258 45.0645H170.194V47.0967H172.226V51.1612H170.194V53.1935H176.29V51.1612H174.258V45.0645Z" fill="#3683E9"/>
<path d="M194.581 65.5741V57.2581H200.677V41H186.452V57.2581H192.548V65.5741C191.899 65.8057 191.351 66.2447 190.99 66.8198C190.075 65.9368 188.836 65.3871 187.468 65.3871C184.666 65.3871 182.387 67.6663 182.387 70.4677C182.387 73.2692 184.666 75.5484 187.468 75.5484C188.616 75.5484 189.665 75.1511 190.516 74.5058V75.5484H187.468H183.403C180.602 75.5484 178.323 77.8276 178.323 80.629V88.7581C178.323 90.4387 179.69 91.8064 181.371 91.8064C181.728 91.8064 182.07 91.7445 182.387 91.6327V104H192.548V82.5587C194.864 82.0862 196.613 80.0346 196.613 77.5806V68.4355C196.613 67.1125 195.76 65.9947 194.581 65.5741ZM188.484 55.2258V43.0323H198.645V55.2258H188.484ZM187.468 73.5161C185.787 73.5161 184.419 72.1484 184.419 70.4677C184.419 68.7871 185.787 67.4194 187.468 67.4194C189.148 67.4194 190.516 68.7871 190.516 70.4677C190.516 72.1484 189.148 73.5161 187.468 73.5161ZM188.484 77.5806L187.468 78.9351L186.452 77.5806H188.484ZM182.387 88.7581C182.387 89.319 181.932 89.7742 181.371 89.7742C180.81 89.7742 180.355 89.319 180.355 88.7581V87.7419H182.387V88.7581ZM186.452 101.968H184.419V99.9355H186.452V101.968ZM190.516 101.968H188.484V99.9355H190.516V101.968ZM190.516 97.9032H188.484V89.7742H186.452V97.9032H184.419V87.7419H190.516V97.9032ZM194.581 77.5806C194.581 79.2613 193.213 80.629 191.532 80.629H190.516V85.7097H184.419V80.629H182.387V85.7097H180.355V80.629C180.355 78.9484 181.723 77.5806 183.403 77.5806H183.911L187.468 82.3229L191.024 77.5806H192.548V71.4839H194.581V77.5806ZM194.581 69.4516H192.548V68.4355C192.548 67.8746 193.004 67.4194 193.565 67.4194C194.125 67.4194 194.581 67.8746 194.581 68.4355V69.4516Z" fill="#3683E9"/>
<path d="M221 57.2581V41H206.774V57.2581H212.871V65.5741C212.222 65.8057 211.674 66.2447 211.312 66.8198C210.398 65.9368 209.159 65.3871 207.79 65.3871C204.989 65.3871 202.71 67.6663 202.71 70.4677C202.71 73.2692 204.989 75.5484 207.79 75.5484C208.939 75.5484 209.987 75.1511 210.839 74.5058V75.5484H207.79H203.726C200.924 75.5484 198.645 77.8276 198.645 80.629V88.7581C198.645 90.4387 200.013 91.8064 201.694 91.8064C202.05 91.8064 202.393 91.7445 202.71 91.6327V104H212.871V82.5587C215.187 82.0862 216.935 80.0346 216.935 77.5806V68.4355C216.935 67.1125 216.083 65.9947 214.903 65.5741V57.2581H221ZM207.79 73.5161C206.11 73.5161 204.742 72.1484 204.742 70.4677C204.742 68.7871 206.11 67.4194 207.79 67.4194C209.471 67.4194 210.839 68.7871 210.839 70.4677C210.839 72.1484 209.471 73.5161 207.79 73.5161ZM202.71 88.7581C202.71 89.319 202.254 89.7742 201.694 89.7742C201.133 89.7742 200.677 89.319 200.677 88.7581V84.6935H202.71V88.7581ZM206.774 101.968H204.742V99.9355H206.774V101.968ZM210.839 101.968H208.806V99.9355H210.839V101.968ZM210.839 97.9032H208.806V89.7742H206.774V97.9032H204.742V87.7419H210.839V97.9032ZM214.903 77.5806C214.903 79.2613 213.536 80.629 211.855 80.629H210.839V85.7097H204.742V80.629H202.71V82.6613H200.677V80.629C200.677 78.9484 202.045 77.5806 203.726 77.5806H212.871V75.5484H214.903V77.5806ZM214.903 73.5161H212.871V68.4355C212.871 67.8746 213.326 67.4194 213.887 67.4194C214.448 67.4194 214.903 67.8746 214.903 68.4355V73.5161ZM208.806 55.2258V43.0323H218.968V55.2258H208.806Z" fill="#3683E9"/>
<path d="M214.395 45.0645H210.839V47.0967H214.395C214.675 47.0967 214.903 47.3253 214.903 47.6048C214.903 47.8842 214.675 48.1128 214.395 48.1128H210.839V50.1451H214.395C214.675 50.1451 214.903 50.3737 214.903 50.6532C214.903 50.9326 214.675 51.1612 214.395 51.1612H210.839V53.1935H214.395C215.796 53.1935 216.936 52.0544 216.936 50.6532C216.936 50.0811 216.745 49.5537 216.426 49.129C216.745 48.7042 216.936 48.1769 216.936 47.6048C216.936 46.2035 215.796 45.0645 214.395 45.0645Z" fill="#3683E9"/>
<path d="M196.613 47.9645C196.613 46.3651 195.312 45.0645 193.713 45.0645H193.417C191.817 45.0645 190.516 46.3651 190.516 47.9645V48.1128H192.548V47.9645C192.548 47.4869 192.939 47.0967 193.416 47.0967H193.712C194.19 47.0967 194.581 47.4869 194.581 47.9645C194.581 48.2947 194.397 48.5925 194.1 48.7408L190.516 50.5333V53.1935H196.613V51.1612H193.804L195.009 50.5587C195.999 50.0638 196.613 49.07 196.613 47.9645Z" fill="#3683E9"/>
</svg>
