<svg width="88" height="77" viewBox="0 0 88 77" fill="none" xmlns="http://www.w3.org/2000/svg">
<path d="M44.3824 37.9309L32.1846 36.6386C31.1282 36.5251 30.3903 37.6813 30.9805 38.5251L33.2338 41.7477L30.9805 44.9702C30.4245 45.7659 31.0441 46.8641 32.0435 46.8641H34.8556C34.8554 46.8911 34.8542 46.9181 34.8542 46.9452C34.8542 51.916 39.0956 55.9599 44.3089 55.9599C47.3868 55.9599 50.2817 54.5241 52.052 52.1192C52.0678 52.0978 52.0812 52.0753 52.0953 52.0534C52.1064 52.0393 52.1186 52.0265 52.129 52.0118C53.1981 50.514 53.7634 48.7621 53.7634 46.9454C53.7636 41.9979 49.5617 37.9687 44.3824 37.9309ZM44.3089 53.5234C40.5045 53.5234 37.4096 50.5724 37.4096 46.9452C37.4096 46.9181 37.412 46.8911 37.4124 46.864H46.3572L49.4961 51.2794C48.1929 52.6947 46.3043 53.5234 44.3089 53.5234ZM50.8964 48.9067L48.0922 44.9624C47.8544 44.628 47.4584 44.4278 47.0347 44.4278H34.4309L35.8324 42.4235C36.1183 42.0142 36.1183 41.4811 35.8322 41.072L34.6274 39.3489L44.168 40.3597C44.2149 40.3645 44.262 40.3671 44.3091 40.3671C48.1135 40.3671 51.2083 43.3182 51.2083 46.9454C51.2082 47.6175 51.1023 48.2772 50.8964 48.9067Z" fill="#3683E9"/>
<path d="M49.7603 56.123H38.8577C35.8989 56.123 33.4915 58.4183 33.4915 61.2395V75.533C33.4915 76.206 34.0635 76.7513 34.7693 76.7513H53.8488C54.5546 76.7513 55.1265 76.206 55.1265 75.533V61.2395C55.1263 58.4183 52.7192 56.123 49.7603 56.123ZM45.2621 58.5596L44.751 60.0215H43.8671L43.356 58.5596H45.2621ZM44.0543 62.4578H44.5636L45.6795 69.9049L44.3089 71.2115L42.9384 69.9048L44.0543 62.4578ZM52.5711 74.315H36.0468V61.2395C36.0468 59.7618 37.3078 58.5596 38.8576 58.5596H40.6623L41.6386 61.352L40.3184 70.1632C40.2614 70.5428 40.3954 70.9256 40.6797 71.1968L43.4053 73.7956C43.8977 74.2649 44.7199 74.2649 45.2123 73.7956L47.9379 71.1968C48.2221 70.9256 48.3561 70.5427 48.2992 70.1632L46.979 61.352L47.9554 58.5596H49.7602C51.3101 58.5596 52.5709 59.7619 52.5709 61.2395V74.315H52.5711Z" fill="#3683E9"/>
<path d="M87.8324 33.9163C87.8123 33.2672 87.2377 32.7344 86.5566 32.7344H62.0256C61.3309 32.7344 60.7479 33.2899 60.7479 33.9526V49.5456C60.7479 50.2185 61.3199 50.7639 62.0256 50.7639H65.603C66.3088 50.7639 66.8807 50.2185 66.8807 49.5456C66.8807 48.8727 66.3088 48.3273 65.603 48.3273H63.3033V36.4433L73.5068 44.0099C73.9628 44.3482 74.6196 44.3482 75.0756 44.0099L85.2789 36.4433V48.3273H71.3951C70.6894 48.3273 70.1174 48.8727 70.1174 49.5456C70.1174 50.2185 70.6894 50.7639 71.3951 50.7639H86.5566C87.2623 50.7639 87.8343 50.2185 87.8343 49.5456V33.9526C87.8343 33.9403 87.8327 33.9285 87.8324 33.9163ZM74.2911 41.505L65.7494 35.1707H82.8328L74.2911 41.505Z" fill="#3683E9"/>
<path d="M44.4793 0.248047C37.1055 0.248047 31.1065 5.96791 31.1065 12.9986C31.1065 20.0293 37.1055 25.7491 44.4793 25.7491C45.185 25.7491 45.757 25.2038 45.757 24.5309C45.757 23.858 45.185 23.3126 44.4793 23.3126C38.5144 23.3126 33.6619 18.6857 33.6619 12.9986C33.6619 7.31148 38.5146 2.68455 44.4793 2.68455C50.8484 2.68455 55.2967 6.58701 55.2967 12.1749C55.2967 16.7056 51.995 17.9256 50.0765 18.2521V7.23237C50.0765 6.55945 49.5046 6.01412 48.7988 6.01412C48.0931 6.01412 47.5211 6.55945 47.5211 7.23237V7.8312C46.6445 7.20384 45.6002 6.83779 44.4791 6.83779C41.3929 6.83779 38.8819 9.60143 38.8819 12.9984C38.8819 16.3954 41.3929 19.1591 44.4791 19.1591C45.6004 19.1591 46.6447 18.793 47.5211 18.1657V19.5882C47.5211 20.2611 48.0931 20.8064 48.7988 20.8064C49.271 20.8064 51.7424 20.7379 54.0117 19.3857C55.7636 18.3416 57.8519 16.2434 57.8519 12.1748C57.8521 5.26403 52.228 0.248047 44.4793 0.248047ZM44.4793 16.7229C42.8019 16.7229 41.4373 15.0522 41.4373 12.9986C41.4373 10.945 42.802 9.2743 44.4793 9.2743C46.1565 9.2743 47.5213 10.945 47.5213 12.9986C47.5213 15.0522 46.1567 16.7229 44.4793 16.7229Z" fill="#3683E9"/>
<path d="M19.778 23.6377H6.14981C3.19094 23.6377 0.783615 25.933 0.783615 28.7542V54.7424C0.783615 57.5636 3.19094 59.8589 6.14981 59.8589H19.7782C22.737 59.8589 25.1444 57.5636 25.1444 54.7424V28.7542C25.1442 25.933 22.7369 23.6377 19.778 23.6377ZM6.14981 26.074H19.7782C20.8678 26.074 21.8123 26.6695 22.2787 27.5359H3.64932C4.11551 26.6695 5.06015 26.074 6.14981 26.074ZM22.5888 54.7424C22.5888 56.2202 21.3277 57.4224 19.778 57.4224H6.14981C4.5999 57.4224 3.33903 56.2201 3.33903 54.7424V53.3617H22.5888V54.7424ZM22.5888 50.9254H3.33886V29.9723H22.5888V50.9254Z" fill="#3683E9"/>
<path d="M13.0491 54.1738H12.8787C12.173 54.1738 11.601 54.7192 11.601 55.3921C11.601 56.065 12.173 56.6103 12.8787 56.6103H13.0491C13.7548 56.6103 14.3268 56.065 14.3268 55.3921C14.3268 54.719 13.7548 54.1738 13.0491 54.1738Z" fill="#3683E9"/>
<path d="M52.754 22.3154C52.4137 22.2095 52.0685 22.109 51.7283 22.0171C51.0492 21.8339 50.343 22.2097 50.1507 22.857C49.9582 23.5043 50.3527 24.1777 51.0316 24.3612C51.3396 24.4445 51.6525 24.5353 51.9616 24.6314C52.0932 24.6724 52.2268 24.6919 52.3581 24.6919C52.896 24.6919 53.3967 24.3652 53.5725 23.8512C53.7913 23.2117 53.4251 22.524 52.754 22.3154Z" fill="#3683E9"/>
<path d="M59.6946 25.5901C58.9856 25.125 58.2455 24.6873 57.4952 24.2895C56.8784 23.9625 56.1005 24.1742 55.7578 24.7622C55.415 25.3502 55.6369 26.092 56.2535 26.4188C56.9334 26.7791 57.604 27.1757 58.2463 27.5971C58.4672 27.7426 58.7195 27.8121 58.9693 27.8121C59.3758 27.8121 59.7752 27.6276 60.0231 27.2843C60.4229 26.73 60.2759 25.9715 59.6946 25.5901Z" fill="#3683E9"/>
<path d="M64.3957 29.4991C64.1566 29.2492 63.9086 28.9997 63.6585 28.7576C63.163 28.2783 62.3541 28.2729 61.8517 28.7452C61.3491 29.2176 61.3433 29.9887 61.8386 30.4679C62.0655 30.6877 62.2907 30.914 62.5073 31.1407C62.7592 31.4042 63.105 31.5381 63.4519 31.5381C63.7593 31.5381 64.0672 31.4333 64.3124 31.2202C64.8336 30.767 64.8709 29.9965 64.3957 29.4991Z" fill="#3683E9"/>
<path d="M29.8898 26.4013C29.4683 25.8617 28.6682 25.7493 28.102 26.151C27.8217 26.3499 27.5365 26.5605 27.2548 26.7771C26.7055 27.1994 26.6193 27.9662 27.062 28.4901C27.3143 28.7887 27.6841 28.9437 28.0575 28.9437C28.3389 28.9437 28.6221 28.8555 28.8585 28.6739C29.1145 28.4773 29.3731 28.286 29.6271 28.1059C30.1935 27.7042 30.3111 26.9412 29.8898 26.4013Z" fill="#3683E9"/>
<path d="M34.5965 24.0204C34.3004 23.4097 33.5404 23.1436 32.9006 23.4268C32.5777 23.5691 32.2533 23.7202 31.9355 23.8753C31.3077 24.1824 31.0596 24.9164 31.3816 25.5152C31.6079 25.9357 32.0554 26.1778 32.5196 26.1778C32.7156 26.1778 32.9149 26.1343 33.1015 26.0432C33.3889 25.9028 33.6825 25.7663 33.9741 25.6374C34.6146 25.3549 34.8932 24.6309 34.5965 24.0204Z" fill="#3683E9"/>
<path d="M31.3102 66.8805C31.0366 66.7179 30.7624 66.5478 30.4955 66.3752C29.9118 65.9978 29.1171 66.1424 28.7208 66.6991C28.3245 67.2559 28.4766 68.0135 29.0605 68.3912C29.355 68.5817 29.6573 68.7692 29.959 68.9487C30.5507 69.2998 31.351 69.1218 31.7191 68.5588C32.0921 67.9877 31.9092 67.2363 31.3102 66.8805Z" fill="#3683E9"/>
<path d="M28.2875 64.7658C27.9366 64.4788 27.5905 64.1791 27.2582 63.8748C26.7492 63.4086 25.9407 63.4245 25.4518 63.9092C24.9628 64.3944 24.9793 65.1655 25.4878 65.6316C25.8544 65.9673 26.2368 66.2982 26.6235 66.615C27.1521 67.0473 27.9722 66.987 28.4253 66.4835C28.8848 65.9732 28.8231 65.204 28.2875 64.7658Z" fill="#3683E9"/>
<path d="M25.3642 61.9333C25.1575 61.6958 24.9534 61.4522 24.7579 61.209C24.3286 60.6748 23.5266 60.5734 22.9666 60.9829C22.4065 61.3922 22.3003 62.1568 22.7294 62.6908C22.945 62.9591 23.1701 63.2281 23.3983 63.49C23.843 64.0007 24.6618 64.0728 25.1976 63.6489C25.7406 63.2191 25.8151 62.4511 25.3642 61.9333Z" fill="#3683E9"/>
<path d="M69.2502 53.714C68.5822 53.4985 67.8565 53.8398 67.6302 54.4773C67.5267 54.7695 67.4155 55.0626 67.3006 55.3485C67.0481 55.9769 67.3772 56.6812 68.0359 56.9221C68.6862 57.1599 69.437 56.8406 69.6863 56.221C69.8133 55.9049 69.9359 55.5811 70.0505 55.2584C70.2771 54.6213 69.9187 53.9297 69.2502 53.714Z" fill="#3683E9"/>
<path d="M64.2528 62.7406C63.7329 62.2857 62.9246 62.3188 62.4473 62.8142C62.0316 63.2461 61.5928 63.6688 61.1438 64.0704C60.6291 64.5308 60.6033 65.3016 61.0858 65.7925C61.5618 66.2765 62.3839 66.3015 62.8919 65.8478C63.3874 65.4047 63.8711 64.9383 64.33 64.462C64.8071 63.9663 64.7725 63.1958 64.2528 62.7406Z" fill="#3683E9"/>
<path d="M67.4595 58.0838C66.8462 57.7505 66.066 57.9549 65.7171 58.54C65.4128 59.0498 65.0841 59.5549 64.7407 60.0413C64.3466 60.5994 64.5015 61.3564 65.0867 61.7321C65.6648 62.1031 66.4713 61.9525 66.86 61.4022C67.2392 60.8654 67.6016 60.3079 67.9376 59.7451C68.287 59.1604 68.0729 58.4166 67.4595 58.0838Z" fill="#3683E9"/>
<path d="M60.0365 66.5985C59.6359 66.0442 58.8402 65.9048 58.2596 66.2864C57.9937 66.4609 57.721 66.6329 57.4484 66.7972C56.8522 67.157 56.6747 67.9095 57.0519 68.4782C57.4241 69.0389 58.2258 69.2114 58.8149 68.8562C59.1153 68.675 59.4162 68.4855 59.7092 68.2927C60.2903 67.9109 60.4367 67.1523 60.0365 66.5985Z" fill="#3683E9"/>
</svg>
