<svg width="58" height="58" viewBox="0 0 58 58" fill="none" xmlns="http://www.w3.org/2000/svg">
<mask id="path-1-inside-1" fill="white">
<path d="M55.1 7.73333H46.4V2.9C46.4 2.13087 46.0945 1.39325 45.5506 0.84939C45.0068 0.305535 44.2691 0 43.5 0H14.5C13.7309 0 12.9932 0.305535 12.4494 0.84939C11.9055 1.39325 11.6 2.13087 11.6 2.9V7.73333H2.9C2.13087 7.73333 1.39325 8.03887 0.84939 8.58272C0.305535 9.12658 0 9.86421 0 10.6333V47.3667C0 48.1358 0.305535 48.8734 0.84939 49.4173C1.39325 49.9611 2.13087 50.2667 2.9 50.2667H11.6V55.1C11.6 55.8691 11.9055 56.6068 12.4494 57.1506C12.9932 57.6945 13.7309 58 14.5 58H43.5C44.2691 58 45.0068 57.6945 45.5506 57.1506C46.0945 56.6068 46.4 55.8691 46.4 55.1V50.2667H55.1C55.8691 50.2667 56.6068 49.9611 57.1506 49.4173C57.6945 48.8734 58 48.1358 58 47.3667V10.6333C58 9.86421 57.6945 9.12658 57.1506 8.58272C56.6068 8.03887 55.8691 7.73333 55.1 7.73333ZM19.3333 1.93333H38.6667V2.9C38.6667 3.15638 38.5648 3.40225 38.3835 3.58354C38.2023 3.76482 37.9564 3.86667 37.7 3.86667H20.3C20.0436 3.86667 19.7977 3.76482 19.6165 3.58354C19.4352 3.40225 19.3333 3.15638 19.3333 2.9V1.93333ZM13.5333 2.9C13.5333 2.64362 13.6352 2.39775 13.8165 2.21646C13.9977 2.03518 14.2436 1.93333 14.5 1.93333H17.4V2.9C17.4 3.66913 17.7055 4.40675 18.2494 4.95061C18.7932 5.49446 19.5309 5.8 20.3 5.8H37.7C38.4691 5.8 39.2068 5.49446 39.7506 4.95061C40.2945 4.40675 40.6 3.66913 40.6 2.9V1.93333H43.5C43.7564 1.93333 44.0023 2.03518 44.1835 2.21646C44.3648 2.39775 44.4667 2.64362 44.4667 2.9V7.73333H13.5333V2.9ZM2.9 9.66667H55.1C55.3564 9.66667 55.6022 9.76851 55.7835 9.9498C55.9648 10.1311 56.0667 10.377 56.0667 10.6333V13.5333H1.93333V10.6333C1.93333 10.377 2.03518 10.1311 2.21646 9.9498C2.39775 9.76851 2.64362 9.66667 2.9 9.66667ZM44.4667 55.1C44.4667 55.3564 44.3648 55.6022 44.1835 55.7835C44.0023 55.9648 43.7564 56.0667 43.5 56.0667H14.5C14.2436 56.0667 13.9977 55.9648 13.8165 55.7835C13.6352 55.6022 13.5333 55.3564 13.5333 55.1V50.2667H44.4667V55.1ZM55.1 48.3333H2.9C2.64362 48.3333 2.39775 48.2315 2.21646 48.0502C2.03518 47.8689 1.93333 47.623 1.93333 47.3667V15.4667H56.0667V47.3667C56.0667 47.623 55.9648 47.8689 55.7835 48.0502C55.6022 48.2315 55.3564 48.3333 55.1 48.3333Z"/>
<path d="M45.4333 17.4C43.7126 17.4 42.0306 17.9102 40.5999 18.8662C39.1692 19.8222 38.0541 21.1809 37.3956 22.7707C36.7371 24.3604 36.5648 26.1097 36.9005 27.7973C37.2362 29.4849 38.0648 31.0351 39.2815 32.2518C40.4982 33.4685 42.0484 34.2971 43.7361 34.6328C45.4237 34.9685 47.173 34.7962 48.7627 34.1377C50.3524 33.4793 51.7112 32.3642 52.6671 30.9335C53.6231 29.5028 54.1333 27.8207 54.1333 26.1C54.1308 23.7934 53.2134 21.582 51.5823 19.951C49.9513 18.32 47.7399 17.4026 45.4333 17.4ZM45.4333 32.8667C44.095 32.8667 42.7868 32.4698 41.674 31.7263C40.5612 30.9827 39.6939 29.9259 39.1818 28.6895C38.6696 27.453 38.5356 26.0925 38.7967 24.7799C39.0578 23.4673 39.7022 22.2616 40.6486 21.3152C41.5949 20.3689 42.8006 19.7244 44.1132 19.4634C45.4258 19.2023 46.7864 19.3363 48.0228 19.8484C49.2593 20.3606 50.3161 21.2279 51.0596 22.3406C51.8031 23.4534 52.2 24.7617 52.2 26.1C52.198 27.894 51.4844 29.6139 50.2158 30.8825C48.9473 32.151 47.2273 32.8646 45.4333 32.8667Z"/>
<path d="M46.4 20.3H44.4667V21.2667C43.9539 21.2667 43.4622 21.4704 43.0996 21.8329C42.737 22.1955 42.5333 22.6872 42.5333 23.2V25.1333C42.5333 25.6461 42.737 26.1378 43.0996 26.5004C43.4622 26.863 43.9539 27.0667 44.4667 27.0667H46.4V29H42.5333V30.9333H44.4667V31.9H46.4V30.9333C46.9128 30.9333 47.4045 30.7296 47.7671 30.3671C48.1296 30.0045 48.3333 29.5128 48.3333 29V27.0667C48.3333 26.5539 48.1296 26.0622 47.7671 25.6996C47.4045 25.337 46.9128 25.1333 46.4 25.1333H44.4667V23.2H48.3333V21.2667H46.4V20.3Z"/>
<path d="M29 40.6002H28.0333V29.0002H29.9667C30.1683 28.9999 30.3649 28.9365 30.5287 28.819C30.6926 28.7014 30.8156 28.5355 30.8805 28.3446C30.9453 28.1536 30.9489 27.9472 30.8906 27.7541C30.8323 27.5611 30.7151 27.3911 30.5554 27.2679L17.9887 17.6013C17.8198 17.4716 17.6129 17.4013 17.4 17.4013C17.1871 17.4013 16.9802 17.4716 16.8113 17.6013L4.24463 27.2679C4.08491 27.3911 3.96769 27.5611 3.9094 27.7541C3.85111 27.9472 3.85465 28.1536 3.91954 28.3446C3.98444 28.5355 4.10742 28.7014 4.27128 28.819C4.43514 28.9365 4.63166 28.9999 4.83333 29.0002H6.76667V40.6002H5.8C5.28725 40.6002 4.7955 40.8039 4.43293 41.1665C4.07036 41.529 3.86667 42.0208 3.86667 42.5335V44.4669C3.86667 44.9796 4.07036 45.4714 4.43293 45.8339C4.7955 46.1965 5.28725 46.4002 5.8 46.4002H29C29.5128 46.4002 30.0045 46.1965 30.3671 45.8339C30.7296 45.4714 30.9333 44.9796 30.9333 44.4669V42.5335C30.9333 42.0208 30.7296 41.529 30.3671 41.1665C30.0045 40.8039 29.5128 40.6002 29 40.6002ZM26.1 40.6002H24.1667V29.0002H26.1V40.6002ZM22.2333 29.0002V40.6002H12.5667V29.0002H22.2333ZM17.4 19.5868L27.1247 27.0669H7.67533L17.4 19.5868ZM8.7 29.0002H10.6333V40.6002H8.7V29.0002ZM5.8 44.4669V42.5335H29V44.4669H5.8Z"/>
<path d="M3.86667 10.6333H5.8V12.5667H3.86667V10.6333Z"/>
<path d="M7.73333 10.6333H9.66667V12.5667H7.73333V10.6333Z"/>
<path d="M11.6 10.6333H13.5333V12.5667H11.6V10.6333Z"/>
<path d="M50.2667 36.7333H54.1333V38.6667H50.2667V36.7333Z"/>
<path d="M36.7333 40.6H44.4667V42.5333H36.7333V40.6Z"/>
<path d="M36.7333 44.4667H54.1333V46.4H36.7333V44.4667Z"/>
<path d="M36.7333 36.7333H48.3333V38.6667H36.7333V36.7333Z"/>
<path d="M46.4 40.6H54.1333V42.5333H46.4V40.6Z"/>
</mask>
<path d="M55.1 7.73333H46.4V2.9C46.4 2.13087 46.0945 1.39325 45.5506 0.84939C45.0068 0.305535 44.2691 0 43.5 0H14.5C13.7309 0 12.9932 0.305535 12.4494 0.84939C11.9055 1.39325 11.6 2.13087 11.6 2.9V7.73333H2.9C2.13087 7.73333 1.39325 8.03887 0.84939 8.58272C0.305535 9.12658 0 9.86421 0 10.6333V47.3667C0 48.1358 0.305535 48.8734 0.84939 49.4173C1.39325 49.9611 2.13087 50.2667 2.9 50.2667H11.6V55.1C11.6 55.8691 11.9055 56.6068 12.4494 57.1506C12.9932 57.6945 13.7309 58 14.5 58H43.5C44.2691 58 45.0068 57.6945 45.5506 57.1506C46.0945 56.6068 46.4 55.8691 46.4 55.1V50.2667H55.1C55.8691 50.2667 56.6068 49.9611 57.1506 49.4173C57.6945 48.8734 58 48.1358 58 47.3667V10.6333C58 9.86421 57.6945 9.12658 57.1506 8.58272C56.6068 8.03887 55.8691 7.73333 55.1 7.73333ZM19.3333 1.93333H38.6667V2.9C38.6667 3.15638 38.5648 3.40225 38.3835 3.58354C38.2023 3.76482 37.9564 3.86667 37.7 3.86667H20.3C20.0436 3.86667 19.7977 3.76482 19.6165 3.58354C19.4352 3.40225 19.3333 3.15638 19.3333 2.9V1.93333ZM13.5333 2.9C13.5333 2.64362 13.6352 2.39775 13.8165 2.21646C13.9977 2.03518 14.2436 1.93333 14.5 1.93333H17.4V2.9C17.4 3.66913 17.7055 4.40675 18.2494 4.95061C18.7932 5.49446 19.5309 5.8 20.3 5.8H37.7C38.4691 5.8 39.2068 5.49446 39.7506 4.95061C40.2945 4.40675 40.6 3.66913 40.6 2.9V1.93333H43.5C43.7564 1.93333 44.0023 2.03518 44.1835 2.21646C44.3648 2.39775 44.4667 2.64362 44.4667 2.9V7.73333H13.5333V2.9ZM2.9 9.66667H55.1C55.3564 9.66667 55.6022 9.76851 55.7835 9.9498C55.9648 10.1311 56.0667 10.377 56.0667 10.6333V13.5333H1.93333V10.6333C1.93333 10.377 2.03518 10.1311 2.21646 9.9498C2.39775 9.76851 2.64362 9.66667 2.9 9.66667ZM44.4667 55.1C44.4667 55.3564 44.3648 55.6022 44.1835 55.7835C44.0023 55.9648 43.7564 56.0667 43.5 56.0667H14.5C14.2436 56.0667 13.9977 55.9648 13.8165 55.7835C13.6352 55.6022 13.5333 55.3564 13.5333 55.1V50.2667H44.4667V55.1ZM55.1 48.3333H2.9C2.64362 48.3333 2.39775 48.2315 2.21646 48.0502C2.03518 47.8689 1.93333 47.623 1.93333 47.3667V15.4667H56.0667V47.3667C56.0667 47.623 55.9648 47.8689 55.7835 48.0502C55.6022 48.2315 55.3564 48.3333 55.1 48.3333Z" fill="#01649C"/>
<path d="M45.4333 17.4C43.7126 17.4 42.0306 17.9102 40.5999 18.8662C39.1692 19.8222 38.0541 21.1809 37.3956 22.7707C36.7371 24.3604 36.5648 26.1097 36.9005 27.7973C37.2362 29.4849 38.0648 31.0351 39.2815 32.2518C40.4982 33.4685 42.0484 34.2971 43.7361 34.6328C45.4237 34.9685 47.173 34.7962 48.7627 34.1377C50.3524 33.4793 51.7112 32.3642 52.6671 30.9335C53.6231 29.5028 54.1333 27.8207 54.1333 26.1C54.1308 23.7934 53.2134 21.582 51.5823 19.951C49.9513 18.32 47.7399 17.4026 45.4333 17.4ZM45.4333 32.8667C44.095 32.8667 42.7868 32.4698 41.674 31.7263C40.5612 30.9827 39.6939 29.9259 39.1818 28.6895C38.6696 27.453 38.5356 26.0925 38.7967 24.7799C39.0578 23.4673 39.7022 22.2616 40.6486 21.3152C41.5949 20.3689 42.8006 19.7244 44.1132 19.4634C45.4258 19.2023 46.7864 19.3363 48.0228 19.8484C49.2593 20.3606 50.3161 21.2279 51.0596 22.3406C51.8031 23.4534 52.2 24.7617 52.2 26.1C52.198 27.894 51.4844 29.6139 50.2158 30.8825C48.9473 32.151 47.2273 32.8646 45.4333 32.8667Z" fill="#01649C"/>
<path d="M46.4 20.3H44.4667V21.2667C43.9539 21.2667 43.4622 21.4704 43.0996 21.8329C42.737 22.1955 42.5333 22.6872 42.5333 23.2V25.1333C42.5333 25.6461 42.737 26.1378 43.0996 26.5004C43.4622 26.863 43.9539 27.0667 44.4667 27.0667H46.4V29H42.5333V30.9333H44.4667V31.9H46.4V30.9333C46.9128 30.9333 47.4045 30.7296 47.7671 30.3671C48.1296 30.0045 48.3333 29.5128 48.3333 29V27.0667C48.3333 26.5539 48.1296 26.0622 47.7671 25.6996C47.4045 25.337 46.9128 25.1333 46.4 25.1333H44.4667V23.2H48.3333V21.2667H46.4V20.3Z" fill="#01649C"/>
<path d="M29 40.6002H28.0333V29.0002H29.9667C30.1683 28.9999 30.3649 28.9365 30.5287 28.819C30.6926 28.7014 30.8156 28.5355 30.8805 28.3446C30.9453 28.1536 30.9489 27.9472 30.8906 27.7541C30.8323 27.5611 30.7151 27.3911 30.5554 27.2679L17.9887 17.6013C17.8198 17.4716 17.6129 17.4013 17.4 17.4013C17.1871 17.4013 16.9802 17.4716 16.8113 17.6013L4.24463 27.2679C4.08491 27.3911 3.96769 27.5611 3.9094 27.7541C3.85111 27.9472 3.85465 28.1536 3.91954 28.3446C3.98444 28.5355 4.10742 28.7014 4.27128 28.819C4.43514 28.9365 4.63166 28.9999 4.83333 29.0002H6.76667V40.6002H5.8C5.28725 40.6002 4.7955 40.8039 4.43293 41.1665C4.07036 41.529 3.86667 42.0208 3.86667 42.5335V44.4669C3.86667 44.9796 4.07036 45.4714 4.43293 45.8339C4.7955 46.1965 5.28725 46.4002 5.8 46.4002H29C29.5128 46.4002 30.0045 46.1965 30.3671 45.8339C30.7296 45.4714 30.9333 44.9796 30.9333 44.4669V42.5335C30.9333 42.0208 30.7296 41.529 30.3671 41.1665C30.0045 40.8039 29.5128 40.6002 29 40.6002ZM26.1 40.6002H24.1667V29.0002H26.1V40.6002ZM22.2333 29.0002V40.6002H12.5667V29.0002H22.2333ZM17.4 19.5868L27.1247 27.0669H7.67533L17.4 19.5868ZM8.7 29.0002H10.6333V40.6002H8.7V29.0002ZM5.8 44.4669V42.5335H29V44.4669H5.8Z" fill="#01649C"/>
<path d="M3.86667 10.6333H5.8V12.5667H3.86667V10.6333Z" fill="#01649C"/>
<path d="M7.73333 10.6333H9.66667V12.5667H7.73333V10.6333Z" fill="#01649C"/>
<path d="M11.6 10.6333H13.5333V12.5667H11.6V10.6333Z" fill="#01649C"/>
<path d="M50.2667 36.7333H54.1333V38.6667H50.2667V36.7333Z" fill="#01649C"/>
<path d="M36.7333 40.6H44.4667V42.5333H36.7333V40.6Z" fill="#01649C"/>
<path d="M36.7333 44.4667H54.1333V46.4H36.7333V44.4667Z" fill="#01649C"/>
<path d="M36.7333 36.7333H48.3333V38.6667H36.7333V36.7333Z" fill="#01649C"/>
<path d="M46.4 40.6H54.1333V42.5333H46.4V40.6Z" fill="#01649C"/>
<path d="M55.1 7.73333H46.4V2.9C46.4 2.13087 46.0945 1.39325 45.5506 0.84939C45.0068 0.305535 44.2691 0 43.5 0H14.5C13.7309 0 12.9932 0.305535 12.4494 0.84939C11.9055 1.39325 11.6 2.13087 11.6 2.9V7.73333H2.9C2.13087 7.73333 1.39325 8.03887 0.84939 8.58272C0.305535 9.12658 0 9.86421 0 10.6333V47.3667C0 48.1358 0.305535 48.8734 0.84939 49.4173C1.39325 49.9611 2.13087 50.2667 2.9 50.2667H11.6V55.1C11.6 55.8691 11.9055 56.6068 12.4494 57.1506C12.9932 57.6945 13.7309 58 14.5 58H43.5C44.2691 58 45.0068 57.6945 45.5506 57.1506C46.0945 56.6068 46.4 55.8691 46.4 55.1V50.2667H55.1C55.8691 50.2667 56.6068 49.9611 57.1506 49.4173C57.6945 48.8734 58 48.1358 58 47.3667V10.6333C58 9.86421 57.6945 9.12658 57.1506 8.58272C56.6068 8.03887 55.8691 7.73333 55.1 7.73333ZM19.3333 1.93333H38.6667V2.9C38.6667 3.15638 38.5648 3.40225 38.3835 3.58354C38.2023 3.76482 37.9564 3.86667 37.7 3.86667H20.3C20.0436 3.86667 19.7977 3.76482 19.6165 3.58354C19.4352 3.40225 19.3333 3.15638 19.3333 2.9V1.93333ZM13.5333 2.9C13.5333 2.64362 13.6352 2.39775 13.8165 2.21646C13.9977 2.03518 14.2436 1.93333 14.5 1.93333H17.4V2.9C17.4 3.66913 17.7055 4.40675 18.2494 4.95061C18.7932 5.49446 19.5309 5.8 20.3 5.8H37.7C38.4691 5.8 39.2068 5.49446 39.7506 4.95061C40.2945 4.40675 40.6 3.66913 40.6 2.9V1.93333H43.5C43.7564 1.93333 44.0023 2.03518 44.1835 2.21646C44.3648 2.39775 44.4667 2.64362 44.4667 2.9V7.73333H13.5333V2.9ZM2.9 9.66667H55.1C55.3564 9.66667 55.6022 9.76851 55.7835 9.9498C55.9648 10.1311 56.0667 10.377 56.0667 10.6333V13.5333H1.93333V10.6333C1.93333 10.377 2.03518 10.1311 2.21646 9.9498C2.39775 9.76851 2.64362 9.66667 2.9 9.66667ZM44.4667 55.1C44.4667 55.3564 44.3648 55.6022 44.1835 55.7835C44.0023 55.9648 43.7564 56.0667 43.5 56.0667H14.5C14.2436 56.0667 13.9977 55.9648 13.8165 55.7835C13.6352 55.6022 13.5333 55.3564 13.5333 55.1V50.2667H44.4667V55.1ZM55.1 48.3333H2.9C2.64362 48.3333 2.39775 48.2315 2.21646 48.0502C2.03518 47.8689 1.93333 47.623 1.93333 47.3667V15.4667H56.0667V47.3667C56.0667 47.623 55.9648 47.8689 55.7835 48.0502C55.6022 48.2315 55.3564 48.3333 55.1 48.3333Z" stroke="white" stroke-width="16" mask="url(#path-1-inside-1)"/>
<path d="M45.4333 17.4C43.7126 17.4 42.0306 17.9102 40.5999 18.8662C39.1692 19.8222 38.0541 21.1809 37.3956 22.7707C36.7371 24.3604 36.5648 26.1097 36.9005 27.7973C37.2362 29.4849 38.0648 31.0351 39.2815 32.2518C40.4982 33.4685 42.0484 34.2971 43.7361 34.6328C45.4237 34.9685 47.173 34.7962 48.7627 34.1377C50.3524 33.4793 51.7112 32.3642 52.6671 30.9335C53.6231 29.5028 54.1333 27.8207 54.1333 26.1C54.1308 23.7934 53.2134 21.582 51.5823 19.951C49.9513 18.32 47.7399 17.4026 45.4333 17.4ZM45.4333 32.8667C44.095 32.8667 42.7868 32.4698 41.674 31.7263C40.5612 30.9827 39.6939 29.9259 39.1818 28.6895C38.6696 27.453 38.5356 26.0925 38.7967 24.7799C39.0578 23.4673 39.7022 22.2616 40.6486 21.3152C41.5949 20.3689 42.8006 19.7244 44.1132 19.4634C45.4258 19.2023 46.7864 19.3363 48.0228 19.8484C49.2593 20.3606 50.3161 21.2279 51.0596 22.3406C51.8031 23.4534 52.2 24.7617 52.2 26.1C52.198 27.894 51.4844 29.6139 50.2158 30.8825C48.9473 32.151 47.2273 32.8646 45.4333 32.8667Z" stroke="white" stroke-width="16" mask="url(#path-1-inside-1)"/>
<path d="M46.4 20.3H44.4667V21.2667C43.9539 21.2667 43.4622 21.4704 43.0996 21.8329C42.737 22.1955 42.5333 22.6872 42.5333 23.2V25.1333C42.5333 25.6461 42.737 26.1378 43.0996 26.5004C43.4622 26.863 43.9539 27.0667 44.4667 27.0667H46.4V29H42.5333V30.9333H44.4667V31.9H46.4V30.9333C46.9128 30.9333 47.4045 30.7296 47.7671 30.3671C48.1296 30.0045 48.3333 29.5128 48.3333 29V27.0667C48.3333 26.5539 48.1296 26.0622 47.7671 25.6996C47.4045 25.337 46.9128 25.1333 46.4 25.1333H44.4667V23.2H48.3333V21.2667H46.4V20.3Z" stroke="white" stroke-width="16" mask="url(#path-1-inside-1)"/>
<path d="M29 40.6002H28.0333V29.0002H29.9667C30.1683 28.9999 30.3649 28.9365 30.5287 28.819C30.6926 28.7014 30.8156 28.5355 30.8805 28.3446C30.9453 28.1536 30.9489 27.9472 30.8906 27.7541C30.8323 27.5611 30.7151 27.3911 30.5554 27.2679L17.9887 17.6013C17.8198 17.4716 17.6129 17.4013 17.4 17.4013C17.1871 17.4013 16.9802 17.4716 16.8113 17.6013L4.24463 27.2679C4.08491 27.3911 3.96769 27.5611 3.9094 27.7541C3.85111 27.9472 3.85465 28.1536 3.91954 28.3446C3.98444 28.5355 4.10742 28.7014 4.27128 28.819C4.43514 28.9365 4.63166 28.9999 4.83333 29.0002H6.76667V40.6002H5.8C5.28725 40.6002 4.7955 40.8039 4.43293 41.1665C4.07036 41.529 3.86667 42.0208 3.86667 42.5335V44.4669C3.86667 44.9796 4.07036 45.4714 4.43293 45.8339C4.7955 46.1965 5.28725 46.4002 5.8 46.4002H29C29.5128 46.4002 30.0045 46.1965 30.3671 45.8339C30.7296 45.4714 30.9333 44.9796 30.9333 44.4669V42.5335C30.9333 42.0208 30.7296 41.529 30.3671 41.1665C30.0045 40.8039 29.5128 40.6002 29 40.6002ZM26.1 40.6002H24.1667V29.0002H26.1V40.6002ZM22.2333 29.0002V40.6002H12.5667V29.0002H22.2333ZM17.4 19.5868L27.1247 27.0669H7.67533L17.4 19.5868ZM8.7 29.0002H10.6333V40.6002H8.7V29.0002ZM5.8 44.4669V42.5335H29V44.4669H5.8Z" stroke="white" stroke-width="16" mask="url(#path-1-inside-1)"/>
<path d="M3.86667 10.6333H5.8V12.5667H3.86667V10.6333Z" stroke="white" stroke-width="16" mask="url(#path-1-inside-1)"/>
<path d="M7.73333 10.6333H9.66667V12.5667H7.73333V10.6333Z" stroke="white" stroke-width="16" mask="url(#path-1-inside-1)"/>
<path d="M11.6 10.6333H13.5333V12.5667H11.6V10.6333Z" stroke="white" stroke-width="16" mask="url(#path-1-inside-1)"/>
<path d="M50.2667 36.7333H54.1333V38.6667H50.2667V36.7333Z" stroke="white" stroke-width="16" mask="url(#path-1-inside-1)"/>
<path d="M36.7333 40.6H44.4667V42.5333H36.7333V40.6Z" stroke="white" stroke-width="16" mask="url(#path-1-inside-1)"/>
<path d="M36.7333 44.4667H54.1333V46.4H36.7333V44.4667Z" stroke="white" stroke-width="16" mask="url(#path-1-inside-1)"/>
<path d="M36.7333 36.7333H48.3333V38.6667H36.7333V36.7333Z" stroke="white" stroke-width="16" mask="url(#path-1-inside-1)"/>
<path d="M46.4 40.6H54.1333V42.5333H46.4V40.6Z" stroke="white" stroke-width="16" mask="url(#path-1-inside-1)"/>
</svg>
